<?xml version="1.0" encoding="utf-8"?>
<!-- Generator: Adobe Illustrator 24.1.0, SVG Export Plug-In . SVG Version: 6.00 Build 0)  -->
<svg version="1.1" id="img" xmlns="http://www.w3.org/2000/svg" xmlns:xlink="http://www.w3.org/1999/xlink" x="0px" y="0px"
	 viewBox="0 0 678 251" style="enable-background:new 0 0 678 251;" xml:space="preserve">
<style type="text/css">
	.st0{fill:#3F3D56;}
	.st1{fill:#D0CDE1;}
	.st2{fill:#00B0FF;}
	.st3{fill:#2F2E41;}
	.st4{fill:#FFFFFF;}
	.st5{fill:#F2F2F2;}
	.st6{fill:#E6E6E6;}
	.st7{fill:#FBBEBE;}
	.st8{fill:#575A89;}
	.st9{opacity:0.4;enable-background:new    ;}
</style>
<path class="st0" d="M42.3,239.9l-0.6-0.2c-0.1-0.1-14.1-5.4-20.6-17.5c-6.5-12.1-3.3-26.6-3.3-26.8l0.2-0.7l0.6,0.2
	c0.1,0.1,14.1,5.4,20.6,17.5c6.5,12.1,3.3,26.6,3.3,26.8L42.3,239.9z M22.1,221.7c5.5,10.2,16.5,15.5,19.3,16.7
	c0.5-3,2.2-15.1-3.3-25.3c-5.5-10.2-16.5-15.5-19.3-16.7C18.3,199.4,16.6,211.5,22.1,221.7z"/>
<path class="st1" d="M26.1,218c11.7,7,16.2,21,16.2,21s-14.5,2.6-26.2-4.5c-11.7-7-16.2-21-16.2-21S14.4,210.9,26.1,218z"/>
<path class="st0" d="M400.9,34.5H270.3v-2.7h-59.2v2.7H79.9c-4.9,0-8.8,4-8.8,8.8v0v178.8c0,4.9,4,8.8,8.8,8.8h321
	c4.9,0,8.8-4,8.8-8.8l0,0V43.4C409.7,38.5,405.8,34.5,400.9,34.5C400.9,34.5,400.9,34.5,400.9,34.5z"/>
<rect x="82.9" y="50.1" class="st2" width="315" height="177.7"/>
<circle class="st2" cx="240.1" cy="42.1" r="3.2"/>
<path class="st0" d="M379.8,72.8h-14.9V57.8h14.9V72.8z M365.5,72.1h13.6V58.5h-13.6V72.1z"/>
<path class="st0" d="M418.6,224.6h-30.7v-2.2c0-0.2-0.2-0.4-0.4-0.4l0,0h-10.5c-0.2,0-0.4,0.2-0.4,0.4l0,0v2.2h-6.6v-2.2
	c0-0.2-0.2-0.4-0.4-0.4l0,0h-10.5c-0.2,0-0.4,0.2-0.4,0.4l0,0v2.2h-6.6v-2.2c0-0.2-0.2-0.4-0.4-0.4l0,0h-10.5
	c-0.2,0-0.4,0.2-0.4,0.4l0,0v2.2h-6.6v-2.2c0-0.2-0.2-0.4-0.4-0.4l0,0h-10.5c-0.2,0-0.4,0.2-0.4,0.4l0,0v2.2h-6.6v-2.2
	c0-0.2-0.2-0.4-0.4-0.4l0,0h-10.5c-0.2,0-0.4,0.2-0.4,0.4l0,0v2.2h-6.6v-2.2c0-0.2-0.2-0.4-0.4-0.4h0h-10.5c-0.2,0-0.4,0.2-0.4,0.4
	l0,0v2.2h-6.6v-2.2c0-0.2-0.2-0.4-0.4-0.4l0,0h-82.6c-0.2,0-0.4,0.2-0.4,0.4l0,0v2.2h-6.6v-2.2c0-0.2-0.2-0.4-0.4-0.4h0h-10.5
	c-0.2,0-0.4,0.2-0.4,0.4l0,0v2.2h-6.6v-2.2c0-0.2-0.2-0.4-0.4-0.4h0h-10.5c-0.2,0-0.4,0.2-0.4,0.4l0,0v2.2h-6.6v-2.2
	c0-0.2-0.2-0.4-0.4-0.4h0h-10.5c-0.2,0-0.4,0.2-0.4,0.4l0,0v2.2h-6.6v-2.2c0-0.2-0.2-0.4-0.4-0.4h0h-10.5c-0.2,0-0.4,0.2-0.4,0.4
	l0,0v2.2h-6.6v-2.2c0-0.2-0.2-0.4-0.4-0.4h0h-10.5c-0.2,0-0.4,0.2-0.4,0.4l0,0v2.2h-6.6v-2.2c0-0.2-0.2-0.4-0.4-0.4h0H88.8
	c-0.2,0-0.4,0.2-0.4,0.4l0,0v2.2H68.2c-5.8,0-10.5,4.7-10.5,10.5l0,0v4.8c0,5.8,4.7,10.5,10.5,10.5h350.4c5.8,0,10.5-4.7,10.5-10.5
	v-4.8C429.1,229.3,424.4,224.6,418.6,224.6z"/>
<rect x="14.3" y="239.6" class="st0" width="458.2" height="1.4"/>
<path class="st0" d="M192.7,160.7h-90.4v-56.2h90.4V160.7z M103.3,159.7h88.4v-54.2h-88.4V159.7z"/>
<path class="st1" d="M144.5,139.1l-0.1-1.1c-0.3-2.3,0.5-4.9,2.7-7.5c1.9-2.3,3-4,3-5.9c0-2.2-1.4-3.7-4.1-3.7
	c-1.6,0-3.1,0.5-4.4,1.3l-1-2.7c1.4-1,3.9-1.7,6.2-1.7c5,0,7.2,3.1,7.2,6.3c0,2.9-1.6,5.1-3.7,7.5c-1.9,2.2-2.6,4.1-2.5,6.3l0,1.1
	L144.5,139.1z M143.6,145.1c-0.1-1.4,1-2.6,2.4-2.7c0.1,0,0.1,0,0.2,0c1.5,0,2.5,1.1,2.5,2.7c0.1,1.4-1,2.6-2.5,2.7s-2.6-1-2.7-2.5
	C143.6,145.3,143.6,145.2,143.6,145.1z"/>
<ellipse transform="matrix(0.1979 -0.9802 0.9802 0.1979 -17.723 422.4419)" class="st3" cx="249.3" cy="222.1" rx="4.1" ry="11"/>
<ellipse transform="matrix(0.1313 -0.9913 0.9913 0.1313 -27.1677 413.1575)" class="st3" cx="222.2" cy="222.1" rx="4.1" ry="11"/>
<rect x="77.5" y="38.4" class="st1" width="71.2" height="67.8"/>
<rect x="85.5" y="46.5" class="st4" width="55" height="42.1"/>
<rect x="85.5" y="93.6" class="st5" width="29.9" height="1.6"/>
<rect x="85.5" y="98.3" class="st5" width="29.9" height="1.6"/>
<circle class="st0" cx="95.3" cy="67.6" r="6.3"/>
<circle class="st2" cx="113.1" cy="67.6" r="6.3"/>
<circle class="st6" cx="130.8" cy="67.6" r="6.3"/>
<circle class="st0" cx="113.1" cy="42.4" r="3.2"/>
<rect x="111.3" y="169.6" class="st1" width="71.2" height="67.8"/>
<rect x="119.4" y="177.7" class="st4" width="55" height="42.1"/>
<rect x="131.5" y="184.6" class="st2" width="19.3" height="19.3"/>
<path class="st0" d="M138.9,189.5v23.4h23.4v-23.4H138.9z M161.3,211.9h-21.4v-21.4h21.4L161.3,211.9z"/>
<rect x="119.4" y="224" class="st5" width="29.9" height="1.6"/>
<circle class="st0" cx="146.9" cy="173.6" r="3.2"/>
<rect x="296.8" y="149.3" class="st1" width="71.2" height="67.8"/>
<rect x="304.9" y="157.4" class="st4" width="55" height="42.1"/>
<rect x="326.5" y="190.4" class="st0" width="11.8" height="3.5"/>
<rect x="312.2" y="163.1" class="st0" width="40.5" height="1.5"/>
<rect x="312.2" y="167.8" class="st0" width="40.5" height="1.5"/>
<rect x="312.2" y="172.6" class="st0" width="40.5" height="1.5"/>
<rect x="312.2" y="177.3" class="st0" width="40.5" height="1.5"/>
<rect x="312.2" y="182.1" class="st0" width="40.5" height="1.5"/>
<rect x="304.8" y="203.7" class="st5" width="29.9" height="1.6"/>
<rect x="304.8" y="207.6" class="st5" width="41.8" height="1.6"/>
<circle class="st0" cx="332.4" cy="153.3" r="3.2"/>
<g>
	<rect x="631.9" y="122" class="st0" width="3.1" height="122.1"/>
	<path class="st0" d="M663.5,137.6c0.2,42.7-29.9,77.5-29.9,77.5s-30.4-34.5-30.6-77.2C602.9,95.2,633,60.4,633,60.4
		S663.3,94.9,663.5,137.6z"/>
	<rect x="571.6" y="179.5" class="st0" width="1.6" height="62.8"/>
	<path class="st0" d="M587.8,187.5c0.1,22-15.4,39.8-15.4,39.8s-15.6-17.7-15.7-39.7s15.4-39.8,15.4-39.8S587.7,165.5,587.8,187.5z"
		/>
	<ellipse class="st0" cx="604.5" cy="244.1" rx="43.1" ry="6.6"/>
	<path class="st3" d="M608.1,90.2c-3.7-6.2-10.9-6.5-10.9-6.5s-7-0.9-11.6,8.5c-4.2,8.8-10,17.2-0.9,19.3l1.6-5.1l1,5.5
		c1.3,0.1,2.6,0.1,3.9,0.1c9.7-0.3,19,0.1,18.7-3.4C609.5,103.9,611.6,96.1,608.1,90.2z"/>
	<path class="st7" d="M594.9,101.8c0,0,4.7,6.6,1.9,12c-2.8,5.3,6.6,11,6.6,11l6.9-15.1c0,0-8.2-5.3-6-10.4L594.9,101.8z"/>
	<circle class="st7" cx="598.1" cy="96.4" r="8.2"/>
	<path class="st7" d="M569.8,105.9l6.8-8.8c0,0,2.4-9.2,5.9-8.8c3.5,0.5-1.4,11.1-1.4,11.1l-6.8,9.8L569.8,105.9z"/>
	<polygon class="st7" points="604.3,223.2 606.5,234.8 611.3,236.1 610,222.2 	"/>
	<polygon class="st7" points="651.8,210.6 660.3,222.2 663.8,223.8 666.6,219.1 658.1,208.1 	"/>
	<path class="st8" d="M602.5,119.7l-5.2-6.9c0,0-10.2,1.9-11.1,2.8c-0.9,0.9,2.5,18.2,2.5,18.2s0.6,4.7,3.5,7.2l2.8,1.9l23.3-4.7
		l0.9-10.4c0.6-7.6-2-15.2-7.2-20.8l0,0l-4,0.6L602.5,119.7z"/>
	<path class="st8" d="M587.4,116.2l-1.6-0.6l-7.2-0.6c0,0-2.5-0.6-1.9-1.9c0.6-1.3,1.3-1.6,0-1.9c-1.3-0.3-1.6-0.6-1.3-1.6
		c0.3-0.9,2.2-2.8,2.2-2.8l-5.3-4.4c0,0-0.3,0.2-0.8,0.6c-2.7,2.1-11.1,9.9-4.9,17.7c7.2,9.1,15.7,14.5,22.6,12.6L587.4,116.2z"/>
	<path class="st3" d="M594.3,141.4v4.4c0,0-2.8,5.3-1.9,10.4c0.9,5,1.3,7.5,1.3,7.5c0.1,4.3,0.8,8.5,2.2,12.6
		c2.2,6.3-5,47.5,4.1,48.1c9.1,0.6,14.2,1.3,17-1.9c2.8-3.1-4.7-57.2-4.7-57.2s25.8,53.8,31.1,51.6c5.3-2.2,18.9-7.2,17.3-10.1
		s-41.2-65.7-41.2-65.7l-1.3-2.8L594.3,141.4z"/>
	<path class="st3" d="M609.4,232.6c0,0-5-0.3-5,1.3s-2.5,6.9-2.5,6.9s-1.9,6.3,3.1,5.7c5-0.6,8.2-6.3,8.2-6.3l-1.3-6L609.4,232.6z"
		/>
	<path class="st3" d="M661.9,221.6c0,0-4.4-2.8-4.1-0.9c0.3,1.9,0.6,6.9,2.8,7.2c2.2,0.3,8.8,2.2,9.1,2.8s7.9,3.1,7.9-0.9
		s-4.7-7.2-4.7-7.2l-5.3-4.1c0,0-3.5-0.3-4.1,1.9C662.8,222.5,661.9,221.6,661.9,221.6z"/>
	<circle class="st3" cx="598.1" cy="83.7" r="5.2"/>
	<path class="st3" d="M592.3,82.4c0-2.7,2-4.9,4.7-5.2c-0.2,0-0.4,0-0.5,0c-2.9,0-5.2,2.3-5.2,5.2c0,2.9,2.3,5.2,5.2,5.2
		c0,0,0,0,0,0c0.2,0,0.4,0,0.5,0C594.3,87.3,592.3,85,592.3,82.4z"/>
	<polygon class="st3" points="606.4,89.6 599.3,85.8 589.5,87.4 587.4,96.4 592.5,96.2 593.9,92.9 593.9,96.1 596.2,96 597.6,90.8 
		598.5,96.4 606.8,96.2 	"/>
	<path class="st7" d="M606,142.1l-11,0.3c0,0-9.4,1.8-8.9-2s9.7-2.5,9.7-2.5l10-1.5L606,142.1z"/>
	<path class="st8" d="M614.7,106.6c1.1-0.2,2.2,0.5,2.6,1.6c2.2,6.8,8.8,29.5,2.2,32.6c-7.8,3.7-13.4,3.5-13.4,3.5l-3-7.5l2.8-2.6
		l2.9-19l1.4-8L614.7,106.6z"/>
	<polygon class="st9" points="612.7,119.2 611.4,131.8 600.4,136.5 612.7,133.7 	"/>
	<path class="st0" d="M553.3,77.7L553.3,77.7c3.5,0.9,6.6,3.2,8.6,6.2l1,1.6l0.1,0.1l18,5.3c0.7,0.2,1.1,0.9,0.9,1.6l-1.4,5.1
		c-0.2,0.7-0.9,1.1-1.6,0.9c0,0,0,0,0,0l-18.1-5l0,0l-1.8,0.7c-3.3,1.3-7,1.4-10.4,0.4l0,0L553.3,77.7z"/>
	<ellipse transform="matrix(0.2808 -0.9598 0.9598 0.2808 321.8541 613.5582)" class="st8" cx="570.3" cy="92" rx="1.1" ry="2.1"/>
	<circle class="st0" cx="571.4" cy="92.4" r="0.8"/>
	<ellipse transform="matrix(0.3084 -0.9512 0.9512 0.3084 299.0666 583.7625)" class="st2" cx="551" cy="86.2" rx="8.8" ry="4"/>
	<path class="st9" d="M554.3,87.3c1.5-4.5,1.1-8.6-0.9-9.5c0.1,0,0.2,0,0.3,0.1c2.1,0.7,2.6,5,1.1,9.6c-1.5,4.6-4.4,7.9-6.5,7.2
		c-0.1,0-0.2-0.1-0.2-0.1C550.1,94.8,552.8,91.7,554.3,87.3z"/>
	<path class="st2" d="M553.5,77.7l-41-31.8c-7.2-5.7-14.2-11.7-20.8-18c-11.7-11.1-27.5-20-46-24.8C400.9-8.4,365.4,12,349.3,42
		c-24.7,45.8-43.6,120.1,65.9,80.5c23.9-8.7,48.2-9.6,66.5-14.1l66.5-13.7L553.5,77.7z"/>
	<circle class="st5" cx="430.6" cy="22" r="2.2"/>
	<polygon class="st5" points="473.3,27.1 472.8,27.1 472.8,26.6 472.7,26.6 472.7,27.1 472.1,27.1 472.1,27.2 472.7,27.2 
		472.7,27.8 472.8,27.8 472.8,27.2 473.3,27.2 	"/>
	<polygon class="st5" points="530.9,74.9 530.3,74.9 530.3,74.4 530.2,74.4 530.2,74.9 529.6,74.9 529.6,75.1 530.2,75.1 
		530.2,75.6 530.3,75.6 530.3,75.1 530.9,75.1 	"/>
	<polygon class="st5" points="526.8,89.7 526.2,89.7 526.2,89.1 526.1,89.1 526.1,89.7 525.6,89.7 525.6,89.8 526.1,89.8 
		526.1,90.4 526.2,90.4 526.2,89.8 526.8,89.8 	"/>
	<polygon class="st5" points="351,102.3 350.4,102.3 350.4,101.7 350.3,101.7 350.3,102.3 349.7,102.3 349.7,102.4 350.3,102.4 
		350.3,103 350.4,103 350.4,102.4 351,102.4 	"/>
	<polygon class="st5" points="376.2,33.7 375.6,33.7 375.6,33.2 375.5,33.2 375.5,33.7 374.9,33.7 374.9,33.9 375.5,33.9 
		375.5,34.4 375.6,34.4 375.6,33.9 376.2,33.9 	"/>
	<polygon class="st5" points="474,92.2 473.4,92.2 473.4,91.7 473.3,91.7 473.3,92.2 472.7,92.2 472.7,92.3 473.3,92.3 473.3,92.9 
		473.4,92.9 473.4,92.3 474,92.3 	"/>
	<polygon class="st5" points="413.9,13.6 413.3,13.6 413.3,13 413.2,13 413.2,13.6 412.6,13.6 412.6,13.7 413.2,13.7 413.2,14.3 
		413.3,14.3 413.3,13.7 413.9,13.7 	"/>
	<path class="st6" d="M414.1,58.9l-0.7,0.1c0.2,1.4,0.4,2.9,0.5,4.3l0.7-0.1C414.5,61.8,414.3,60.3,414.1,58.9z"/>
	<path class="st6" d="M412.2,50.3l-0.7,0.2c0.4,1.4,0.8,2.8,1.1,4.2l0.7-0.2C413,53.1,412.6,51.7,412.2,50.3z"/>
	<path class="st6" d="M409.1,42l-0.7,0.3c0.6,1.3,1.2,2.7,1.7,4l0.7-0.3C410.2,44.7,409.7,43.4,409.1,42z"/>
	<path class="st6" d="M404.8,34.3l-0.6,0.4c0.8,1.2,1.5,2.5,2.2,3.8l0.6-0.3C406.4,36.8,405.6,35.5,404.8,34.3z"/>
	<path class="st6" d="M399.6,27.2l-0.6,0.5c0.9,1.1,1.8,2.3,2.7,3.4l0.6-0.4C401.5,29.5,400.5,28.3,399.6,27.2z"/>
	<path class="st6" d="M393.4,20.9l-0.5,0.5c1.1,1,2.1,2,3.2,3l0.5-0.5C395.6,22.9,394.5,21.9,393.4,20.9z"/>
	<path class="st6" d="M386.5,15.5l-0.4,0.6c1.2,0.8,2.4,1.7,3.5,2.6l0.4-0.6C388.9,17.2,387.7,16.3,386.5,15.5z"/>
	<path class="st6" d="M380.2,11.7v0.8c0.8,0.4,1.5,0.8,2.2,1.2l0.4-0.6C381.9,12.7,381,12.2,380.2,11.7z"/>
	<path class="st6" d="M414.2,67.8l0.7,0c0,0.7,0,1.5,0,2.2l-0.7,0C414.2,69.2,414.2,68.5,414.2,67.8z"/>
	<path class="st6" d="M371.7,120.9L371,121c0.2,1.4,0.4,2.9,0.5,4.3l0.7-0.1C372.1,123.8,371.9,122.3,371.7,120.9z"/>
	<path class="st6" d="M369.7,112.3l-0.7,0.2c0.4,1.4,0.8,2.8,1.1,4.2l0.7-0.2C370.5,115.1,370.1,113.7,369.7,112.3z"/>
	<path class="st6" d="M366.6,104l-0.7,0.3c0.6,1.3,1.2,2.7,1.7,4l0.7-0.3C367.8,106.7,367.2,105.3,366.6,104z"/>
	<path class="st6" d="M362.4,96.3l-0.6,0.4c0.8,1.2,1.5,2.5,2.2,3.8l0.6-0.3C363.9,98.8,363.2,97.5,362.4,96.3z"/>
	<path class="st6" d="M357.1,89.2l-0.6,0.5c0.9,1.1,1.8,2.3,2.7,3.4l0.6-0.4C359,91.5,358.1,90.3,357.1,89.2z"/>
	<path class="st6" d="M351,82.9l-0.5,0.5c1.1,1,2.1,2,3.2,3l0.5-0.5C353.2,84.9,352.1,83.9,351,82.9z"/>
	<path class="st6" d="M344,77.5l-0.4,0.6c1.2,0.8,2.4,1.7,3.5,2.6l0.4-0.6C346.4,79.2,345.2,78.3,344,77.5z"/>
	<path class="st6" d="M337.7,73.7v0.8c0.8,0.4,1.5,0.8,2.2,1.2l0.4-0.6C339.4,74.6,338.6,74.2,337.7,73.7z"/>
	<path class="st6" d="M371.7,129.8l0.7,0c0,0.7,0,1.5,0,2.2l-0.7,0C371.7,131.2,371.7,130.5,371.7,129.8z"/>
	<path class="st6" d="M517,89.7l-0.7,0.1c0.2,1.4,0.4,2.9,0.5,4.3l0.7-0.1C517.4,92.6,517.2,91.2,517,89.7z"/>
	<path class="st6" d="M515,81.1l-0.7,0.2c0.4,1.4,0.8,2.8,1.1,4.2l0.7-0.2C515.8,84,515.4,82.5,515,81.1z"/>
	<path class="st6" d="M511.9,72.9l-0.7,0.3c0.6,1.3,1.2,2.7,1.7,4l0.7-0.3C513.1,75.6,512.5,74.2,511.9,72.9z"/>
	<path class="st6" d="M507.7,65.1l-0.6,0.4c0.8,1.2,1.5,2.5,2.2,3.8l0.6-0.3C509.2,67.6,508.5,66.4,507.7,65.1z"/>
	<path class="st6" d="M502.4,58.1l-0.6,0.5c0.9,1.1,1.8,2.3,2.7,3.4l0.6-0.4C504.3,60.3,503.4,59.2,502.4,58.1z"/>
	<path class="st6" d="M496.3,51.7l-0.5,0.5c1.1,1,2.1,2,3.2,3l0.5-0.5C498.5,53.7,497.4,52.7,496.3,51.7z"/>
	<path class="st6" d="M489.3,46.3l-0.4,0.6c1.2,0.8,2.4,1.7,3.5,2.6l0.4-0.6C491.7,48,490.5,47.1,489.3,46.3z"/>
	<path class="st6" d="M483,42.6v0.8c0.8,0.4,1.5,0.8,2.2,1.2l0.4-0.6C484.7,43.5,483.9,43,483,42.6z"/>
	<path class="st6" d="M517,98.6l0.7,0c0,0.7,0,1.5,0,2.2l-0.7,0C517,100.1,517,99.3,517,98.6z"/>
	<polygon class="st5" points="377.2,62.7 376.7,62.7 376.7,62.2 376.6,62.2 376.6,62.7 376,62.7 376,62.8 376.6,62.8 376.6,63.4 
		376.7,63.4 376.7,62.8 377.2,62.8 	"/>
	<polygon class="st5" points="371.1,94.9 370.5,94.9 370.5,94.4 370.4,94.4 370.4,94.9 369.9,94.9 369.9,95 370.4,95 370.4,95.6 
		370.5,95.6 370.5,95 371.1,95 	"/>
	<polygon class="st5" points="353,123.1 352.5,123.1 352.5,122.6 352.4,122.6 352.4,123.1 351.9,123.1 351.9,123.2 352.4,123.2 
		352.4,123.8 352.5,123.8 352.5,123.2 353,123.2 	"/>
	<path class="st0" d="M403.2,87.4c-11.9-17.7-7.2-41.7,10.5-53.6c17.7-11.9,41.7-7.2,53.6,10.5s7.2,41.7-10.5,53.6
		c-10.5,7.1-23.9,8.5-35.7,3.9c-1.9,6.6-8.8,10.5-15.4,8.7c-6.6-1.9-10.5-8.8-8.7-15.4C398,91.7,400.2,89,403.2,87.4z"/>
	<path class="st2" d="M435,43.7c8.9,0,14.9,4.9,14.9,12c0,4.7-2.3,7.9-6.6,10.5c-4.1,2.4-5.5,4.1-5.5,7.2l0,0c0,1-0.8,1.9-1.9,1.9
		l0,0h-4.5c-1,0-1.8-0.8-1.9-1.8l0-0.2c-0.4-4.9,1.3-7.9,5.6-10.4c4-2.4,5.7-3.9,5.7-6.8c0-2.9-2.8-5.1-6.4-5.1
		c-2.7,0-4.8,1.3-5.8,3.4c-0.7,1.5-2.2,2.4-3.8,2.4l0,0c-3.1,0-5.1-3.3-3.7-6C423.5,46.4,428.3,43.7,435,43.7z M428.8,84.2
		c0-2.7,2.3-4.9,5.1-4.9c2.8,0,5.1,2.1,5.1,4.9c0,2.7-2.3,4.9-5.1,4.9C431.1,89.1,428.8,86.9,428.8,84.2z"/>
</g>
<path class="st0" d="M378.4,149.1H277V91.4h101.4V149.1z M278,148.1h99.4V92.4H278V148.1z"/>
<path class="st1" d="M324.8,126.6l-0.1-1.1c-0.3-2.3,0.5-4.9,2.7-7.5c1.9-2.3,3-4,3-5.9c0-2.2-1.4-3.7-4.1-3.7
	c-1.6,0-3.1,0.5-4.4,1.3l-1-2.7c1.4-1,3.9-1.7,6.2-1.7c5,0,7.2,3.1,7.2,6.3c0,2.9-1.6,5.1-3.7,7.5c-1.9,2.2-2.6,4.1-2.5,6.3l0,1.1
	L324.8,126.6z M323.8,132.6c-0.1-1.4,1-2.6,2.4-2.7c0.1,0,0.1,0,0.2,0c1.5,0,2.5,1.1,2.5,2.7c0.1,1.4-1,2.6-2.5,2.7
	c-1.4,0.1-2.6-1-2.7-2.5C323.8,132.7,323.8,132.7,323.8,132.6z"/>
<circle class="st3" cx="242.2" cy="162.8" r="43.3"/>
<polygon class="st3" points="225.5,222.1 212.5,219.8 216.7,192.7 229.7,195.1 "/>
<rect x="235.2" y="203.6" transform="matrix(0.1781 -0.984 0.984 0.1781 -3.8374 415.7723)" class="st3" width="23.6" height="13.2"/>
<circle class="st4" cx="245.2" cy="152.2" r="14.8"/>
<circle class="st0" cx="251.3" cy="146.9" r="4.9"/>
<path class="st4" d="M208,115.7c-0.7-16,13.2-29.6,30.9-30.3s32.6,11.7,33.2,27.7s-11.7,19.7-29.4,20.4S208.7,131.7,208,115.7z"/>
<ellipse transform="matrix(0.9747 -0.2234 0.2234 0.9747 -27.4734 66.9618)" class="st3" cx="282.2" cy="154.9" rx="21.7" ry="6.8"/>
<ellipse transform="matrix(0.9747 -0.2234 0.2234 0.9747 -32.7823 48.3209)" class="st3" cx="197.2" cy="169" rx="21.7" ry="6.8"/>
<path class="st4" d="M230.3,179.9c-1,5.4,2.6,10.5,8,11.5c5.4,1,10.5-2.6,11.5-8c1-5.4-3.2-7.3-8.5-8.2
	C235.8,174.2,231.3,174.5,230.3,179.9z"/>
</svg>
