<svg xmlns="http://www.w3.org/2000/svg" viewBox="0 0 1228.05 669.05"><defs><style>.cls-1{fill:#e50012;}.cls-2{fill:none;stroke:#fff;stroke-miterlimit:10;stroke-width:63px;}</style></defs><g id="circle"><path id="base" class="cls-1" d="M856.19,639.34C1520.47,588.14,1045.06-.51,543.38,44.66,349.53,43.15,15.84,153.4,53.32,369.19c15.28,75,65.19,151.41,141.49,184,13.2,5.35,22.94,9.63,28.56,16.53-23.31,6.81-47.07-3.48-67.4-14.53-175.59-93-177.32-292.71-34.86-418.46C293.4-3.18,576.33-18.47,785.26,37.87,1212.66,127.79,1464.38,638.3,856.19,639.34Z"/><path id="mask" class="cls-2" d="M230.75,576.46s-364-149-108-405c177-177,498.68-145.06,643-121,210,35,392.74,174.29,424,314,64,286-345,273-345,273"/></g></svg>