<?xml version="1.0" encoding="utf-8"?>
<!-- Generator: Adobe Illustrator 24.1.0, SVG Export Plug-In . SVG Version: 6.00 Build 0)  -->
<svg version="1.1" id="ee68b97f-fc10-400d-a2ff-be2b67d80654"
	 xmlns="http://www.w3.org/2000/svg" xmlns:xlink="http://www.w3.org/1999/xlink" x="0px" y="0px" viewBox="0 0 975 774"
	 style="enable-background:new 0 0 975 774;" xml:space="preserve">
<style type="text/css">
	.st0{fill:#FF6584;}
	.st1{fill:#D3D3D3;}
	.st2{fill:#3F3D56;}
	.st3{fill:#2F2E41;}
	.st4{opacity:0.1;enable-background:new    ;}
	.st5{fill:#00A0E2;}
	.st6{fill:#575A89;}
	.st7{fill:#A0616A;}
</style>
<circle class="st0" cx="521" cy="100" r="64"/>
<path class="st1" d="M328.3,408c0,123.6-73.5,166.8-164.1,166.8S0,531.6,0,408s164.1-280.9,164.1-280.9S328.3,284.4,328.3,408z"/>
<polygon class="st2" points="158.2,555.8 159.8,452.4 229.8,324.4 160.1,436.2 160.9,389.6 209.1,297 161.1,377.3 161.1,377.3 
	162.4,293.7 214,220 162.6,280.5 163.5,127.1 158.1,330.2 158.6,321.8 106.1,241.5 157.7,337.9 152.8,431.3 152.7,428.8 92.2,344.3 
	152.5,437.6 151.9,449.3 151.8,449.5 151.8,450.4 139.4,687.5 156,687.5 158,565 218.2,472 "/>
<path class="st1" d="M814.6,343.1c0,151-89.8,203.7-200.5,203.7s-200.5-52.7-200.5-203.7S614.1,0,614.1,0S814.6,192.1,814.6,343.1z"
	/>
<polygon class="st2" points="606.8,523.8 608.9,397.4 694.3,241 609.2,377.6 610.1,320.7 669,207.6 610.4,305.7 610.4,305.7 
	612,203.5 675.1,113.4 612.3,187.4 613.3,0 606.8,248.1 607.3,237.9 543.2,139.7 606.3,257.5 600.3,371.7 600.2,368.6 526.2,265.3 
	599.9,379.3 599.2,393.6 599.1,393.8 599.1,395 584,684.6 604.2,684.6 606.6,535 680.2,421.3 "/>
<ellipse class="st2" cx="400" cy="685" rx="308" ry="11"/>
<ellipse class="st2" cx="833" cy="760.5" rx="142" ry="13.5"/>
<rect x="382" y="347" class="st3" width="36" height="338"/>
<polygon class="st2" points="565,424 344,424 344,362 565,362 629,393 "/>
<polygon class="st4" points="565,419 344,419 344,424 565,424 629,393 623.8,390.5 "/>
<polygon class="st2" points="236,506 457,506 457,444 236,444 172,475 "/>
<polygon class="st4" points="177.1,472.5 172,475 236,506 457,506 457,501 236,501 "/>
<rect x="468" y="374" class="st5" width="38" height="38"/>
<circle class="st5" cx="315" cy="475" r="19"/>
<circle class="st3" cx="400" cy="391" r="11"/>
<circle class="st3" cx="400" cy="473" r="11"/>
<path class="st5" d="M326,647.3c0,22.5-13.4,30.3-29.8,30.3c-0.4,0-0.8,0-1.1,0c-0.8,0-1.5-0.1-2.3-0.1
	c-14.9-1.1-26.4-9.3-26.4-30.2c0-21.6,27.6-48.9,29.7-50.9l0,0c0.1-0.1,0.1-0.1,0.1-0.1S326,624.8,326,647.3z"/>
<path class="st2" d="M295,674.2l10.9-15.2L295,675.8l0,1.8c-0.8,0-1.5-0.1-2.3-0.1l1.2-22.5l0-0.2l0,0l0.1-2.1l-11-17l11,15.4l0,0.5
	l0.9-17l-9.4-17.5l9.5,14.5l0.9-35.2l0-0.1v0.1l-0.2,27.8l9.3-11l-9.4,13.4l-0.2,15.2l8.7-14.6l-8.8,16.8l-0.1,8.5l12.7-20.3
	l-12.7,23.3L295,674.2z"/>
<path class="st6" d="M787,735.9c0,0-14.2,11.9-21.6,11.2s-21.6-0.7-15.6,7.5c6,8.2,30.6,12.7,41,13.4s33.5,1.5,32-3
	c-1.5-4.5-3-25.3-8.9-26.8C807.9,736.6,787,735.9,787,735.9z"/>
<path class="st6" d="M868.3,724.2c0,0-10.4,15.3-17.8,16.6c-7.4,1.3-21,5.1-13.1,11.4c7.9,6.3,32.8,4,43.1,1.9s32.7-7.6,30.1-11.5
	s-9.7-23.6-15.8-23.4S868.3,724.2,868.3,724.2z"/>
<path class="st3" d="M778.7,505.5c0,0-9.6,65.7-7.4,77.6c2.2,11.9,3.7,30.6,3.7,30.6s-1.5,15.6,0,23.1c1.5,7.5,10.4,78.2,10.4,79.7
	s-1.5,6,0,9.7c1.5,3.7,4.5,0.7,0,6.7c-4.5,6-1.5,7.5-0.7,7.5c0.7,0,29.8,3,31.3,0s-0.7-3.7,0-7.5s1.5-4.5,3-5.2
	c1.5-0.7,4.5,0.7,2.2-3s-7.5-8.2-6-10.4c1.5-2.2-0.7-18.6-0.7-18.6s-1.5-36.5-2.2-58.9s6.7-45.5,6.7-45.5
	c0.9,18.3,7.7,35.8,19.4,49.9c19.4,23.1,29.1,66.3,29.1,66.3s4.5,6.7,2.2,12.7s-8.9,2.2-2.2,6s29.8-1.5,32-3.7
	c2.2-2.2-3-5.2-1.5-11.2c1.5-6,7.5-4.5,2.2-7.5c-5.2-3-6.7-2.2-6.7-5.2s-13.4-67.8-34.3-86.4l-1.5-67.8c0,0,18.6-47.7-0.7-52.2
	C837.7,487.7,778.7,505.5,778.7,505.5z"/>
<path class="st7" d="M792.2,329c0,0,12.7,31.3,9.7,35.8c-3,4.5,36.5-14.9,36.5-14.9s-12.7-31.3-12.7-35
	C825.8,311.1,792.2,329,792.2,329z"/>
<circle class="st7" cx="801.5" cy="309.2" r="27.6"/>
<path class="st5" d="M838.4,337.2c0,0-19.4-2.2-29.1,9.7c-9.7,11.9-11.2,14.9-11.2,14.9s-23.1,37.3-18.6,55.9c1.1,1.7,2.1,3.4,3,5.2
	c1.5,3,1.5,44.7,0,51.4c-1.5,6.7-3,8.9-1.5,18.6c1.5,9.7-11.9,25.3,3.7,28.3c15.6,3,27.6,0.7,32.8-6c5.2-6.7,0.7-11.2,17.1-11.2
	s26.8-11.2,26.8-11.2s-8.2-8.9-5.2-10.4s0-5.2-1.5-8.9c-1.5-3.7-1.5-6.7,0.7-6.7c2.2,0,0.7-1.5-0.7-5.2s26.1-67.8,9.7-86.4
	c-16.4-18.6-24.6-29.1-24.6-29.1S842.9,334.9,838.4,337.2z"/>
<path class="st7" d="M795.9,408v32.8l-23.8,79c0,0-15.6,41,0,41c15.6,0,14.8-39.1,14.8-39.1l33.6-59.2c0,0,13.4-46.9,11.9-50.7
	C831,408,795.9,408,795.9,408z"/>
<path class="st5" d="M808.6,359.5c0,0-22.4,8.9-16.4,32.8c6,23.8,0,23.1,0,23.1s30.6-3,40.2,3.7l2.2-8.9
	C834.7,410.2,843.6,358.8,808.6,359.5z"/>
<path class="st3" d="M792.1,288.5c-3.5,1.2-7.4,0.6-10.3-1.6c-2.8-2.3-4-6.6-2.3-9.8c1.4-2.8,4.5-4.3,7.4-5.5
	c6.5-2.5,13.3-4.1,20.2-4.6c3.3-0.2,6.8-0.2,9.7,1.3c1.5,0.7,2.7,1.8,4.2,2.6c2.7,1.4,5.7,1.7,8.6,2.6c5.9,1.9,10.7,6.3,13.2,12.1
	c0.8,1.9,1.3,3.9,1.6,6c0.9,5.6,0.3,11.4-1.7,16.7c-3.2,8.5-9.8,15.9-10.2,24.9c-4.1-3-5.6-8.3-8.9-12.1c-2.4-2.8-5.8-4.8-9.4-5.5
	c-1-0.1-2-0.4-2.8-1c-0.6-0.7-0.9-1.5-1-2.4l-2.8-13.2c-0.6-2.7-1.3-5.6-3.5-7.2c-1.4-0.9-2.9-1.4-4.5-1.6c-3.8-0.7-7.7-1-11.7-1.1"
	/>
</svg>
