<svg xmlns="http://www.w3.org/2000/svg" viewBox="0 0 1225.09 671.41"><defs><style>.cls-1{fill:#3f3d56;}.cls-2{fill:#9800bf;}.cls-3{fill:#2f2e41;}.cls-4{fill:#ffb9b9;}.cls-5{fill:#575a89;}.cls-6{fill:#d0cde1;}.cls-7{opacity:0.2;isolation:isolate;}.cls-8{fill:#ffb8b8;}</style></defs><g id="レイヤー_2" data-name="レイヤー 2"><g id="レイヤー_1-2" data-name="レイヤー 1"><path class="cls-1" d="M979,640H0V0H979ZM2,638H977V2H2Z"/><rect class="cls-1" x="20" y="16" width="472" height="608"/><rect class="cls-2" x="489" y="16" width="472" height="608"/><path class="cls-1" d="M622.76,581.69a61.12,61.12,0,0,1-3.07-6.56c-3.94-9.84,3.68-17.67,4-18l.3-.3v-.43c-.08-5.45-2.2-134-8.53-159.22-5.72-22.81-23.42-29-27.54-30.2v-.11l-20.35-2.6c7.62-50,15.25-165.64-71-189.45a55.12,55.12,0,0,0-9.11-1.49l-.19,2a55.36,55.36,0,0,1,8.76,1.43c84.69,23.39,77.05,137.82,69.51,187.27l-30.82-3.94c-8-4.49-17.08-12.55-18.15-34.17a56.4,56.4,0,0,0,19.83-36.7,3,3,0,0,0,.43,0c4.46,0,8.09-5.2,8.09-11.6s-3.63-11.6-8.09-11.6a3.44,3.44,0,0,0-2.45.87,56.52,56.52,0,0,0-45.81-39.52l-.28,2a54.11,54.11,0,0,1,0,107.13l.28,2a55.9,55.9,0,0,0,26.08-11c1.37,20.19,10,28.8,17.41,33.38-8.45,11.52-22.15,18.5-40.74,20.73-1,.12-2,.22-3,.3l.18,2c1-.09,2-.2,3-.32C510.81,381.26,525,374,533.79,362l.34,0,.2.11,0-.08,51.39,6.57L571,539.37v.12s0,1.57,0,4.34v.23h0a417.13,417.13,0,0,1-2.21,45.12c-1.66,14.86-4.18,26.23-7.49,33.82H535.68a23.48,23.48,0,0,1,1.41-6.88l2.31-6.64-4.07,5.73a39.8,39.8,0,0,1-8,7.79H489v2h39l.26-.19a44,44,0,0,0,5.77-5,21.66,21.66,0,0,0-.36,4.25l0,1h71l.24-.14c4.25-2.49,4.25-7.09,4.25-15.44,0-5.24,3.51-8.76,7.23-12.48a41.32,41.32,0,0,0,5.31-6.05C624.89,586.12,624.75,585.46,622.76,581.69ZM535.43,269.32c.76-.81,1-1,1.78-1,3.29,0,6.07,4.4,6.07,9.6s-2.74,9.54-6,9.6A2.34,2.34,0,0,0,537,287c.08-1.26.14-2.53.14-3.81a55.07,55.07,0,0,0-1.76-13.82ZM577.5,556.81l-6,27.87c1.35-14.26,1.65-28.18,1.7-36.39Zm42.62,33a39.91,39.91,0,0,1-5.06,5.73c-3.85,3.85-7.83,7.83-7.83,13.9,0,8.19-.11,11.71-3,13.58H563.73c3.2-7.71,5.64-18.92,7.26-33.35l2.14-3.15,6.48-30.21-6.38-12.71c0-2.33,0-3.79,0-4.09L587.93,369c4.32,1.28,20.38,7.39,25.69,28.65,6.09,24.36,8.31,150.28,8.45,158.38-1.52,1.7-8.13,9.93-4.16,19.83a62.89,62.89,0,0,0,3.16,6.76C622.76,585.82,622.76,585.82,620.12,589.79Z"/><path class="cls-3" d="M489,175.18v223l-43.58,5.08-38.83,4.55L393,409.36h0l-.64.07s-2.25-6.87-4-20.59c-3.06-23.71-4.68-67.85,9.24-132.15C416.17,170.87,472.17,172.61,489,175.18Z"/><polygon class="cls-3" points="486 582.93 489 583.08 489 624 350.57 624 353.52 612.86 357.24 598.82 374.52 581.54 378.44 577.62 486 582.93"/><path class="cls-4" d="M489,229.07V337.15A55.13,55.13,0,1,1,488.44,229Z"/><path class="cls-4" d="M489,319.82V436.93l-43.65-33.5-25.57-19.62,20.43-9.29,2.89-1.31c15.23-6.92,17.8-25.61,17.75-37.73a76.89,76.89,0,0,0-.79-11Z"/><path class="cls-5" d="M486,382.87c1-.09,2-.19,3-.31V624H473c-10.18-3.09-18.19-6.1-18.19-6.1s-48.68-6.36-63.5-4.24l-2.91.42c-8.94,1.28-25.88,3.37-34.66-1.22s-9.43-15.77,13.93-41q3.07-3.32,6.71-7c3.64-3.64,31.75-21.2,27.52-27.56s-10.59-33.92-10.59-33.92l.1-5.45L393,409.4h0l.44-24.69,46.85-10.35,8.18,6.11A131.36,131.36,0,0,0,486,382.87Z"/><path class="cls-4" d="M400.49,624H375.18l9.95-4s3.86.71,9.38,2.22C396.35,622.74,398.37,623.32,400.49,624Z"/><path class="cls-5" d="M402.09,488.58c-3.27,1.23-6.85,4.65-10.5,9.39-15.32,19.85-31.9,62.69-31.9,62.69s5.59,5.59,8.12,11.2c1.29,2.86,1.79,5.73.36,7.88-4.24,6.36,0,0,4.24,0,1.65,0,2.34.64,2.44,1.8.15,1.82-1.15,4.92-2.44,8.8-2.12,6.36,0,8.48,10.6,10.6s4.24,2.12,4.24,8.48a9.91,9.91,0,0,0,1.32,4.66,28.74,28.74,0,0,0,7.16,8.06l-1.22.1A32.32,32.32,0,0,0,386.2,624H331.93a12.92,12.92,0,0,0,2.32-4c2.12-6.36-14.84-17-17-19.08s-2.12-10.6,0-19.08-2.12-8.48-6.36-12.72,0-10.6,4.24-17,4.24-4.24-2.12-17,6.36-14.84,6.36-14.84,27.56-57.24,42.4-91.16c9.81-22.43,20.56-34.67,26.7-40.38a38.28,38.28,0,0,1,5.1-4.14l10.6,4.24s1.23,7.71,2.57,18.86C410.12,435.4,414.17,484.05,402.09,488.58Z"/><path class="cls-3" d="M489,211v17.09c-.18.31-.37.61-.56.92-11.06,18.15-30.79,43.1-61.11,56.71l-2.72-16-5.67-33.28Z"/><path class="cls-2" d="M256.15,539.19c0,63-37.43,85.06-83.65,85.08-1.08,0-2.14,0-3.21,0q-3.21-.07-6.36-.29c-41.71-2.94-74.14-26.06-74.16-84.67,0-60.67,77.46-137.26,83.27-142.92h0l.34-.32S256.12,476.17,256.15,539.19Z"/><path class="cls-1" d="M170,614.63l30-42.78-31,47.48v4.91s-4-.15-6.07-.29l3.27-63.06,0-.49.06-.09.31-6-30.79-47.57,30.88,43.11.08,1.26,2.47-47.64-26.36-49.16,26.68,40.78L172,396.36l-1-.33v78.22l26.86-30.9L172,481v42.66l23.34-41L171,529.89v23.72l34.92-57L170,561.88Z"/><path class="cls-1" d="M766.05,442.38a439.93,439.93,0,0,0-42-48.08l-.69-.65-1,1c-8.55,8.34-83.6,83.22-83.57,143.64,0,65.81,40.08,82.93,74.11,85.59h0l1,.07a40.29,40.29,0,0,0,6.41.06h0l.73.26h0a2.77,2.77,0,0,1,2.35.75h.15c25.33-.74,45.46-7.19,59.83-19.89,16.48-14.58,24.83-37.09,24.82-66.92C808.13,505.36,785.25,468,766.05,442.38Zm-26.73,83.37L720,560.62v56.2l7.24-11L719,618v4.18l-.39,0c-1,0-2-.08-3-.14l-.63,0,3.22-62.07v-.28l.37-6.58-7.94-12.26,6,8.41.06.77h2l2.47-47.44v-.28l-15.64-29.17L721,497.16v29.18l8.8-15L722,528.63V556.2Zm-98.55,12.53c0-25.13,13.19-55.92,39.25-91.5a446.83,446.83,0,0,1,42-49l-2.4,93.1L694.65,452.8l-1.71,1,26.22,48.91-2.25,43.44-29.34-41-1.65,1.13,30.61,47.29-.28,5.38-.09.14,0,.75-3.21,62C679.81,619.26,640.8,602.52,640.77,538.28Zm94.93-78.86-13.82,19.74.09-3.56ZM723.5,622.27l-2.5,0v-3.62l30.87-47.24-1.65-1.12L722,610.44l.8-48.23,36.67-67.16-1.78-1L723,549.69V529.14l24.23-47-1.75-1L723,518.89V480.28l26.67-37.35-1.58-1.22L723,470.5V397.07s83.12,83.61,83.15,141.12C806.18,607.65,761.22,622.25,723.5,622.27Z"/><path class="cls-3" d="M1004.52,626l5.53,12.64s12.64,14.22,3.16,17.38-12.63,2.37-12.63,2.37-4,.79-4,2.37-31.6,13.42-34,3.15,24.48-29.22,24.48-29.22v-9.47Z"/><path class="cls-3" d="M1065.26,631.84l-1.19,13.75s-7.43,17.51,2.56,17.47,12.73-1.8,12.73-1.8,4-.51,4.5,1,34.23,2.62,33.19-7.87-32.55-19.85-32.55-19.85l-3-9Z"/><ellipse class="cls-6" cx="1050.54" cy="663.12" rx="174.54" ry="8.29"/><polygon class="cls-2" points="959.72 327.85 956.56 322.32 972.36 319.16 973.93 327.06 971.57 333.38 959.72 327.85"/><polygon class="cls-7" points="959.72 327.85 956.56 322.32 972.36 319.16 973.93 327.06 971.57 333.38 959.72 327.85"/><circle class="cls-8" cx="968.8" cy="303.76" r="20.53"/><polygon class="cls-8" points="986.18 303.76 1002.76 331.4 978.28 345.62 965.64 316.4 986.18 303.76"/><path class="cls-2" d="M987.94,336.14l21.32-8.69s32.38,5.53,35.54,15.8,3.16,93.19,3.16,93.19,7.9,20.54-3.16,21.33c0,0,3.16,4.74,0,5.53s-35.54,0-48.17,3.95-37.91,7.1-37.91,3.16V463.3s-5.53-5.53-2.37-15,7.11-30,7.11-30-23.7-52.13-21.33-58.44S973.43,334,973.43,334Z"/><polygon class="cls-8" points="1036.72 436.33 1035.93 442.65 1024.88 429.22 1028.83 429.22 1036.72 436.33"/><path class="cls-2" d="M987.76,336.14l22.9-5.53s4.74-3.95,4.74-8.68-7.11-11.85-11.85-16.59a4.35,4.35,0,0,0-3.17-1.32c-4.69,0-10.38,6.11-10.38,6.11l6.31,10.53.28.47Z"/><path class="cls-2" d="M970.1,326.71l-13.54-4.39s-4.35,17,.39,17.77,30.81-1.58,30.81-1.58Z"/><path class="cls-3" d="M1043,459.35l10.27,58.44s4,7.11,2.37,10.27-2.37,3.16,0,4.74,5.53,0,4.74,4a39.49,39.49,0,0,0-.79,7.11l22.11,75.82s14.22,6.31,4,10.26-20.53,7.11-22.9,3.16,0-8.68,0-8.68l-36.33-86.88s-5.53-7.9-5.53-12.64-18.17-38.7-18.17-38.7-.79,34-1.58,36.33,1.58,7.11,1.58,10.27,1.58,3.16,0,4.74-1.58,19.74-1.58,19.74,9.48,70.29,4,71.08-21.32-.79-21.32-3.94a3.94,3.94,0,0,1,2.37-3.95l-10.27-60a12.57,12.57,0,0,0-.79-7.11c-1.58-3.16-1.58-3.16-1.58-4.73s.79-2.37,0-3.16a3.93,3.93,0,0,1-.79-2.37s1.58-4.74.79-5.53-18.17-60-12.64-67.13S1043,459.35,1043,459.35Z"/><path class="cls-3" d="M988.8,309c-1.27-.09-2.11-1.47-2.46-2.78a13.51,13.51,0,0,0-1.16-3.89c-2-3.1-7.07-1.85-9.14-4.86-1.28-1.85-1-4.87-2.85-6.05-1.16-.75-2.65-.36-3.93.11a42.64,42.64,0,0,0-13.51,8.05l-1.65-1.35L952,302.38c-.8-1-2.34-.21-3,.86s-1,2.44-1.95,3.21c-1.53,1.25-3.91.2-4.83-1.61s-.77-4-.45-6a43.39,43.39,0,0,1,5-14.47l-1.88-1.13,2.44-.35-.94-2.12,2.56,0-1-1.81c3.43,1.18,7-1,10.25-2.58a29.27,29.27,0,0,1,17.6-3,22.25,22.25,0,0,1,15,9.77c2.6,4.08,4.09,10,2.8,14.89C992.5,302.44,987.35,303.14,988.8,309Z"/><path class="cls-2" d="M1039.88,340.09s4.74-.79,7.9,5.53,26.85,56.86,15,72.66-22.91,20.53-22.91,20.53l-2.37.79L1025.67,427l3.94-5.53s0-5.53,3.16-6.32,3.16,1.58,4-1.58-3.16-.79.79-4,.79-4.74.79-4.74Z"/><polygon class="cls-8" points="956.16 445.81 956.95 452.13 968.01 438.7 964.06 438.7 956.16 445.81"/><path class="cls-2" d="M957.35,357.07s-11.06-5.53-14.22.79-24.88,53.71-13,69.5S953,447.9,953,447.9l2.37.79,11.85-12.64-4-5.53s0-5.53-3.16-6.32-3.16,1.58-4-1.58,3.16-.79-.79-3.95-.79-4.73-.79-4.73Z"/><polygon class="cls-7" points="1032.38 371.29 1041.07 406.04 1030.8 418.68 1035.54 402.88 1032.38 371.29"/><path class="cls-7" d="M990,310.13l6.31,10.53c4-1.37,4.3-10.57,4.07-16.64C995.69,304,990,310.13,990,310.13Z"/><path class="cls-6" d="M1124.18,641.61c-.14,14,8.17,19,18.48,19.14h.71l1.42,0c9.31-.57,16.58-5.66,16.71-18.73.13-13.53-17-30.76-18.27-32h0l-.08-.07S1124.32,627.55,1124.18,641.61Z"/><ellipse class="cls-6" cx="850.09" cy="610.64" rx="54.14" ry="3.82"/><path class="cls-6" d="M766.79,579.7c-.07,8,4.65,10.84,10.52,10.9h.41l.81,0c5.29-.32,9.44-3.22,9.51-10.66.07-7.7-9.67-17.51-10.4-18.24h0l0,0S766.87,571.71,766.79,579.7Z"/><ellipse class="cls-6" cx="777.48" cy="589.48" rx="38.22" ry="2.7"/><path class="cls-6" d="M846.73,593.61l-48.57-70.15,46.66,77.7v7.9s7.17,0,10.55-.18L853,507.41l.06-.78-.08-.16-.23-9.58,51.67-75-51.61,67.83-.18,2-1.77-76.67,44.63-77.77-45,64.3.64-158.84v-.53l0,.52-3,125.19-41.62-50.85L848,378.72V447.3l-38.2-66.93,36.92,77v38.14l-54.55-93.24,54.55,106.54Z"/><rect class="cls-1" x="521" y="105.42" width="412" height="209.63"/><rect class="cls-2" x="595.72" y="175.99" width="41.51" height="3.11"/><rect class="cls-2" x="651.76" y="175.99" width="41.51" height="3.11"/><rect class="cls-2" x="732.71" y="208.17" width="41.51" height="3.11"/><rect class="cls-2" x="788.75" y="208.17" width="41.51" height="3.11"/><rect class="cls-2" x="707.8" y="175.99" width="122.46" height="3.11"/><rect class="cls-2" x="595.72" y="208.17" width="122.46" height="3.11"/><rect class="cls-2" x="595.72" y="240.34" width="122.46" height="3.11"/><rect class="cls-2" x="745.16" y="240.34" width="85.1" height="3.11"/><polygon class="cls-2" points="584.35 190.73 569.68 176.06 584.35 161.39 587.28 164.32 575.55 176.06 587.28 187.79 584.35 190.73"/><polygon class="cls-2" points="870.13 258.49 867.2 255.55 878.93 243.82 867.2 232.08 870.13 229.15 884.8 243.82 870.13 258.49"/><rect class="cls-2" x="837.36" y="241.31" width="29.95" height="4.15" transform="translate(372.21 988.49) rotate(-73.14)"/></g></g></svg>