<svg xmlns="http://www.w3.org/2000/svg" xmlns:xlink="http://www.w3.org/1999/xlink" viewBox="0 0 891.34 710.79"><defs><style>.cls-1{fill:#f2f2f2;}.cls-2{fill:#f5f5f5;}.cls-3{fill:url(#名称未設定グラデーション_27);}.cls-20,.cls-34,.cls-4{fill:#fff;}.cls-5{fill:#ff5252;}.cls-6{fill:#ff0;}.cls-7{fill:#69f0ae;}.cls-34,.cls-51,.cls-8{opacity:0.2;}.cls-10,.cls-9{fill:#9800bf;}.cls-10,.cls-20{opacity:0.5;}.cls-10,.cls-20,.cls-34,.cls-51{isolation:isolate;}.cls-11{fill:url(#名称未設定グラデーション_27-2);}.cls-12{fill:url(#名称未設定グラデーション_27-3);}.cls-13{fill:url(#名称未設定グラデーション_27-4);}.cls-14{fill:url(#名称未設定グラデーション_27-5);}.cls-15{fill:url(#名称未設定グラデーション_27-6);}.cls-16{fill:url(#名称未設定グラデーション_27-7);}.cls-17{fill:#ff9800;}.cls-18{fill:url(#名称未設定グラデーション_27-8);}.cls-19{fill:url(#名称未設定グラデーション_27-9);}.cls-21{fill:url(#名称未設定グラデーション_27-10);}.cls-22,.cls-23,.cls-24,.cls-25,.cls-26,.cls-27,.cls-48{fill:none;stroke:#9800bf;stroke-miterlimit:10;}.cls-23{stroke-dasharray:11.51 11.51;}.cls-24{stroke-dasharray:13.06 13.06;}.cls-25{stroke-dasharray:9.79 9.79;}.cls-26{stroke-dasharray:11.28 11.28;}.cls-27{stroke-dasharray:11.93 11.93;}.cls-28{fill:url(#名称未設定グラデーション_27-11);}.cls-29{fill:url(#名称未設定グラデーション_27-12);}.cls-30{fill:url(#名称未設定グラデーション_27-13);}.cls-31{fill:url(#名称未設定グラデーション_27-14);}.cls-32{fill:#ca7070;}.cls-33{fill:#00695c;}.cls-35{fill:#263238;}.cls-36{fill:url(#名称未設定グラデーション_27-15);}.cls-37{fill:url(#名称未設定グラデーション_27-16);}.cls-38{fill:#f6b9ad;}.cls-39{fill:#fccc63;}.cls-40{fill:url(#名称未設定グラデーション_27-17);}.cls-41{fill:url(#名称未設定グラデーション_27-18);}.cls-42{fill:url(#名称未設定グラデーション_27-19);}.cls-43{fill:url(#名称未設定グラデーション_27-20);}.cls-44{fill:url(#名称未設定グラデーション_27-21);}.cls-45{fill:url(#名称未設定グラデーション_27-22);}.cls-46{fill:url(#名称未設定グラデーション_27-23);}.cls-47{fill:url(#名称未設定グラデーション_27-24);}.cls-48{stroke-width:3px;}.cls-49{fill:url(#名称未設定グラデーション_27-25);}.cls-50{fill:url(#名称未設定グラデーション_27-26);}.cls-52{fill:url(#名称未設定グラデーション_27-27);}.cls-53{fill:#985454;}</style><linearGradient id="名称未設定グラデーション_27" x1="-48.66" y1="2736.5" x2="-48.66" y2="3222.5" gradientTransform="matrix(1, 0, 0, -1, 262, 3222.5)" gradientUnits="userSpaceOnUse"><stop offset="0" stop-color="gray" stop-opacity="0.25"/><stop offset="0.54" stop-color="gray" stop-opacity="0.12"/><stop offset="1" stop-color="gray" stop-opacity="0.1"/></linearGradient><linearGradient id="名称未設定グラデーション_27-2" x1="-34.66" y1="2849.5" x2="-34.66" y2="2860.5" xlink:href="#名称未設定グラデーション_27"/><linearGradient id="名称未設定グラデーション_27-3" x1="-34.66" y1="2793.5" x2="-34.66" y2="2804.5" xlink:href="#名称未設定グラデーション_27"/><linearGradient id="名称未設定グラデーション_27-4" x1="67.34" y1="2793.5" x2="67.34" y2="2804.5" xlink:href="#名称未設定グラデーション_27"/><linearGradient id="名称未設定グラデーション_27-5" x1="74.34" y1="3139.5" x2="74.34" y2="3150.5" xlink:href="#名称未設定グラデーション_27"/><linearGradient id="名称未設定グラデーション_27-6" x1="74.34" y1="3124.5" x2="74.34" y2="3135.5" xlink:href="#名称未設定グラデーション_27"/><linearGradient id="名称未設定グラデーション_27-7" x1="74.34" y1="3109.5" x2="74.34" y2="3120.5" xlink:href="#名称未設定グラデーション_27"/><linearGradient id="名称未設定グラデーション_27-8" x1="74.34" y1="3094.5" x2="74.34" y2="3105.5" xlink:href="#名称未設定グラデーション_27"/><linearGradient id="名称未設定グラデーション_27-9" x1="-48.16" y1="2890.5" x2="-48.16" y2="3040.5" xlink:href="#名称未設定グラデーション_27"/><linearGradient id="名称未設定グラデーション_27-10" x1="274.95" y1="2848.47" x2="274.95" y2="3000.47" gradientTransform="matrix(1, 0, 0, -1, -51.35, 3189.24)" xlink:href="#名称未設定グラデーション_27"/><linearGradient id="名称未設定グラデーション_27-11" x1="333.96" y1="2962.48" x2="333.96" y2="2976.48" gradientTransform="matrix(1, -0.09, -0.09, -1, 214.82, 3202.13)" xlink:href="#名称未設定グラデーション_27"/><linearGradient id="名称未設定グラデーション_27-12" x1="375.95" y1="2966.47" x2="375.95" y2="2980.47" gradientTransform="matrix(1, -0.09, -0.09, -1, 214.83, 3202.13)" xlink:href="#名称未設定グラデーション_27"/><linearGradient id="名称未設定グラデーション_27-13" x1="285.96" y1="2809.34" x2="285.96" y2="2809.6" gradientTransform="matrix(1, 0, 0, -1, 107.5, 3128.02)" xlink:href="#名称未設定グラデーション_27"/><linearGradient id="名称未設定グラデーション_27-14" x1="255.66" y1="2642.02" x2="255.66" y2="2814.27" gradientTransform="matrix(1, 0, 0, -1, 107.5, 3128.02)" xlink:href="#名称未設定グラデーション_27"/><linearGradient id="名称未設定グラデーション_27-15" x1="-70.69" y1="2799.43" x2="-70.69" y2="2799.74" gradientTransform="matrix(1, 0, 0, -1, 107.5, 3128.02)" xlink:href="#名称未設定グラデーション_27"/><linearGradient id="名称未設定グラデーション_27-16" x1="-33.79" y1="2603.02" x2="-33.79" y2="2805.39" gradientTransform="matrix(1, 0, 0, -1, 107.5, 3128.02)" xlink:href="#名称未設定グラデーション_27"/><linearGradient id="名称未設定グラデーション_27-17" x1="430.34" y1="2563.5" x2="430.34" y2="3059.5" xlink:href="#名称未設定グラデーション_27"/><linearGradient id="名称未設定グラデーション_27-18" x1="332.84" y1="2827.5" x2="332.84" y2="2981.5" xlink:href="#名称未設定グラデーション_27"/><linearGradient id="名称未設定グラデーション_27-19" x1="525.84" y1="2750.5" x2="525.84" y2="2904.5" xlink:href="#名称未設定グラデーション_27"/><linearGradient id="名称未設定グラデーション_27-20" x1="433.84" y1="2608.5" x2="433.84" y2="2714.5" xlink:href="#名称未設定グラデーション_27"/><linearGradient id="名称未設定グラデーション_27-21" x1="487.09" y1="2747.61" x2="487.09" y2="2871.61" gradientTransform="matrix(1, 0, 0, -1, 107.5, 3128.02)" xlink:href="#名称未設定グラデーション_27"/><linearGradient id="名称未設定グラデーション_27-22" x1="528.34" y1="2860.5" x2="528.34" y2="2878.5" xlink:href="#名称未設定グラデーション_27"/><linearGradient id="名称未設定グラデーション_27-23" x1="498.62" y1="2523.08" x2="498.62" y2="2545.08" xlink:href="#名称未設定グラデーション_27"/><linearGradient id="名称未設定グラデーション_27-24" x1="345.34" y1="2535.5" x2="345.34" y2="2656.5" xlink:href="#名称未設定グラデーション_27"/><linearGradient id="名称未設定グラデーション_27-25" x1="219.84" y1="2577.5" x2="219.84" y2="2632.5" xlink:href="#名称未設定グラデーション_27"/><linearGradient id="名称未設定グラデーション_27-26" x1="197.62" y1="2523.08" x2="197.62" y2="2545.08" xlink:href="#名称未設定グラデーション_27"/><linearGradient id="名称未設定グラデーション_27-27" x1="223.8" y1="2513.97" x2="338.84" y2="2513.97" gradientTransform="matrix(1, 0, 0, -1, 107.5, 3128.02)" xlink:href="#名称未設定グラデーション_27"/></defs><g id="レイヤー_2" data-name="レイヤー 2"><g id="レイヤー_1-2" data-name="レイヤー 1"><ellipse class="cls-1" cx="370" cy="693.79" rx="67" ry="17"/><ellipse class="cls-1" cx="375" cy="505.79" rx="67" ry="17"/><ellipse class="cls-1" cx="67" cy="513.79" rx="67" ry="17"/><rect class="cls-2" x="22.34" y="3" width="383" height="15"/><rect class="cls-3" x="15.34" width="396" height="486"/><rect class="cls-4" x="22.34" y="18" width="383" height="460"/><circle class="cls-5" cx="30.5" cy="11.24" r="3.5"/><circle class="cls-6" cx="40.12" cy="11.24" r="3.5"/><circle class="cls-7" cx="49.75" cy="11.24" r="3.5"/><g class="cls-8"><rect class="cls-9" x="33.34" y="36" width="149" height="9"/></g><rect class="cls-2" x="139.34" y="73" width="149" height="9"/><rect class="cls-10" x="33.34" y="363" width="149" height="9"/><rect class="cls-11" x="202.34" y="362" width="50" height="11"/><rect class="cls-12" x="202.34" y="418" width="50" height="11"/><rect class="cls-13" x="304.34" y="418" width="50" height="11"/><rect class="cls-9" x="204.34" y="363" width="47" height="9"/><rect class="cls-9" x="204.34" y="419" width="47" height="9"/><rect class="cls-9" x="305.34" y="419" width="47" height="9"/><rect class="cls-2" x="33.34" y="391" width="149" height="9"/><rect class="cls-10" x="204.34" y="391" width="149" height="9"/><rect class="cls-2" x="204.34" y="447" width="149" height="9"/><rect class="cls-10" x="33.34" y="419" width="149" height="9"/><rect class="cls-2" x="33.34" y="447" width="149" height="9"/><rect class="cls-2" x="139.34" y="88" width="84" height="9"/><rect class="cls-2" x="238.34" y="88" width="29" height="9"/><rect class="cls-2" x="139.34" y="118" width="84" height="9"/><rect class="cls-2" x="238.34" y="118" width="29" height="9"/><rect class="cls-2" x="139.34" y="103" width="149" height="9"/><g class="cls-8"><rect class="cls-9" x="243.34" y="36" width="149" height="9"/></g><rect class="cls-14" x="327.34" y="72" width="18" height="11"/><rect class="cls-15" x="327.34" y="87" width="18" height="11"/><rect class="cls-16" x="327.34" y="102" width="18" height="11"/><rect class="cls-5" x="328.34" y="73" width="16" height="9"/><rect class="cls-17" x="328.34" y="88" width="16" height="9"/><rect class="cls-7" x="328.34" y="103" width="16" height="9"/><rect class="cls-18" x="327.34" y="117" width="18" height="11"/><rect class="cls-9" x="328.34" y="118" width="16" height="9"/><rect class="cls-19" x="30.34" y="182" width="367" height="150"/><rect class="cls-10" x="33.34" y="185" width="359" height="142"/><polygon class="cls-20" points="44.34 196 392.34 196 392.34 185 33.34 185 33.34 327 44.34 327 44.34 196"/><rect class="cls-21" x="38.6" y="188.77" width="370" height="152" transform="translate(-23.08 21.36) rotate(-5.2)"/><rect class="cls-4" x="44.51" y="192.72" width="359" height="142" transform="matrix(1, -0.09, 0.09, 1, -22.98, 21.39)"/><path class="cls-10" d="M65.5,325.33l-6.2-78.77s32-34,96.6-8.8,95.06,7.41,105.56-9.61,65-36,82.66-7.53S383,217.08,383,217.08l7.16,78.67Z"/><line class="cls-22" x1="98.03" y1="229.4" x2="98.57" y2="235.38"/><line class="cls-23" x1="99.62" y1="246.84" x2="105.36" y2="309.9"/><line class="cls-22" x1="105.88" y1="315.63" x2="106.43" y2="321.6"/><line class="cls-22" x1="159.52" y1="239.16" x2="160.07" y2="245.13"/><line class="cls-24" x1="161.25" y1="258.14" x2="165.4" y2="303.65"/><line class="cls-22" x1="165.99" y1="310.15" x2="166.53" y2="316.13"/><line class="cls-22" x1="222.26" y1="249.84" x2="222.86" y2="255.81"/><line class="cls-25" x1="223.83" y1="265.56" x2="227.21" y2="299.66"/><line class="cls-22" x1="227.7" y1="304.53" x2="228.29" y2="310.51"/><line class="cls-22" x1="278.65" y1="214.58" x2="279.19" y2="220.56"/><line class="cls-26" x1="280.21" y1="231.79" x2="285.84" y2="293.58"/><line class="cls-22" x1="286.35" y1="299.19" x2="286.9" y2="305.17"/><line class="cls-22" x1="319.35" y1="206.33" x2="319.89" y2="212.3"/><line class="cls-27" x1="320.97" y1="224.18" x2="326.92" y2="289.51"/><line class="cls-22" x1="327.46" y1="295.45" x2="328.01" y2="301.42"/><circle class="cls-17" cx="97.84" cy="229.02" r="5" transform="translate(-137.47 310.58) rotate(-85.98)"/><circle class="cls-5" cx="159.04" cy="239.52" r="5"/><circle class="cls-7" cx="222.25" cy="249.83" r="5"/><circle class="cls-28" cx="278.28" cy="214.61" r="7"/><circle class="cls-29" cx="319.75" cy="206.82" r="7"/><circle class="cls-9" cx="278.28" cy="214.61" r="5"/><circle class="cls-9" cx="319.75" cy="206.82" r="5"/><circle class="cls-7" cx="383.12" cy="219.12" r="5"/><g class="cls-8"><path class="cls-30" d="M393.26,318.46l.07.23C394.1,318.26,393.26,318.46,393.26,318.46Z"/></g><g class="cls-8"><path class="cls-31" d="M385,486l16.28-2.19-1.92-10V474h-.06l-11.94-53V382a13.52,13.52,0,0,0,0-1.47c17.24-22.86,7-58.73,6-61.86-.18.09-.45.21-.83.36a20.78,20.78,0,0,0-.79-4.13s-5-3.18-7.73.91c-2.38,3.57-.61,5.75-.12,6.26l-.34.11a11.53,11.53,0,0,1,1.58,3.94,10.78,10.78,0,0,0-.54-1c-.63-.11-1-.21-1-.21l-.12-.11-.34.11c1.73,2.53,2.34,7,2.26,12.3a18.31,18.31,0,0,0-2-2.31,17.92,17.92,0,0,0-11.7-4.92h-.83c-.45,0-1.36,1-1.36,1h-.34l-.57-.79-.65.12-.47.1-.81.22-.3.09c-.34.11-.67.22-1,.35a17,17,0,0,1-3.43,1.24,1.67,1.67,0,0,0-.49.05h0a5.66,5.66,0,0,1-3.75-1.07l-.36-.28a3.41,3.41,0,0,1-.39-.37,2.55,2.55,0,0,0-.17,1.09,3.37,3.37,0,0,0,1.17,2.27,2.82,2.82,0,0,0,.62.42c.33.18,1.06-.44,1.06-.44h.29c-.23.85-.7,1-.7,1H359c-.25.09-.49.16-.75.23h0a8.26,8.26,0,0,1-3.83.06h0l-.41-.1c-.21-.06-.42-.11-.61-.18a4.11,4.11,0,0,0,.21.42l.08.13.17.26.11.14.19.24.11.12.24.24.1.09.35.3.13.08.26.18.17.11.23.13.19.1.24.1.2.09.27.1.34.09.25.07H359a2.36,2.36,0,0,0,1.5-.2l-.92.38h0l-.46.16-.47.17-.47.14-.48.14-.47.12-.5.12-.46.09-.53.09-.44.07-.57.72h-2.4c.55-.49,1.07-.21,1.51.15a3.8,3.8,0,0,0,.93.5.64.64,0,0,1,.45.35h2.24a4,4,0,0,1,2.59.58,4.82,4.82,0,0,1,1.11,1c-.14.23-.28.45-.4.69s-.21.4-.31.61a12.64,12.64,0,0,0-.53,1.27c-.57,1.56-.86,3.2-1.62,4.85v1.16a1.67,1.67,0,0,1,1,.72v1.23s.11.48.18.71l.06.21a13.72,13.72,0,0,0,.61,1.66l.07.16c.11.25,1.08.72,1.08.72v-1.48c.14.23.28.45.44.67l.05.07a12.84,12.84,0,0,0,1.1,1.34h0a12.89,12.89,0,0,0,3.51,2.68c0,.21-.08.41-.1.62h0c0,.21,0,.43,0,.64v5c-.28.15-.55.31-.82.48-11.69-5.39-29.1-43.6-29.1-43.6H336c1.7-1.29,0-6.9,0-6.9a7.89,7.89,0,0,0-3.26-1.1H328.8l-.2,1h0l-.3.11h0l-.27.13-.1.05-.19.11-.13.6-.18.12-.11.09-.17.14-.11.1-.17.16-.1.11-.17.2-.07.1-.25.33c-2.72,4.07,0,6.33,0,6.33a39.28,39.28,0,0,0-.25,4.72c-.2,29.27,31.13,52,32.73,53.09-.71,1.83-6.53,18,.07,38.24a.39.39,0,0,0,.08.14,58.71,58.71,0,0,0-17.61,55.52l.13.61h.19a2.79,2.79,0,0,1-.1.39,5,5,0,0,1-.28.67,5.31,5.31,0,0,1-.71,1h0c-.3.35-.65.69-1,1l-.39.37c-1.54,1.47-3.09,2.9-1.93,3.48h17.16v-7h.28s-.11-.21-.28-.63V476h-.06c-.9-2.32-3-9.49.36-20.54,4.09-13.64,20-20.46,20-20.46l.29,1h0l12.4,40.76a1.67,1.67,0,0,1-.05.49,6.18,6.18,0,0,1-.26,1.13,7.76,7.76,0,0,1-.34.84c-.77,1.58-2.09,3.44-2.67,4.83a5.89,5.89,0,0,0-.21.59,2,2,0,0,0-.07.69.81.81,0,0,0,.53.67H385Zm-4.64-116c-.31-.17-.65-.34-1-.49v-5a6.1,6.1,0,0,0-.11-1.13,13.71,13.71,0,0,0,3-1.93c-.6,3.06-1.27,6-1.88,8.51Z"/></g><path class="cls-32" d="M325.88,328.35s-3-2.52,0-7.06,8.57-1,8.57-1,2,6.55,0,8.06S325.88,328.35,325.88,328.35Z"/><path id="cbb1ca8a-3a06-4d8d-9881-c3637d2b9b50" class="cls-33" d="M357.34,497H343.8a4.46,4.46,0,0,1-1.28,3.48c-1.83,2.11-5.49,4.65-3.77,5.52h18.59Z"/><path class="cls-34" d="M342.79,500.48a4.45,4.45,0,0,0,1.27-3.48h-1a4.46,4.46,0,0,1-1.28,3.48c-1.82,2.11-5.49,4.65-3.76,5.52h1C337.3,505.13,341,502.6,342.79,500.48Z"/><path id="ec846da8-b8c9-4838-98ee-b96510078eab" class="cls-33" d="M406.5,494.15l-13,2.11a6.61,6.61,0,0,1-.59,4.58c-1.42,3-4.61,6.74-2.69,7.55l18.82-3Z"/><path class="cls-33" d="M400.16,322.2s14.87,46.91-10.07,72.88l-7.2-5.51s14.74-51.2,6.49-63.22C403.94,321.5,400.16,322.2,400.16,322.2Z"/><path class="cls-32" d="M389.88,326.34s-3-2.52,0-7.06,8.57-1,8.57-1,2,6.55,0,8.06S389.88,326.34,389.88,326.34Z"/><path class="cls-34" d="M393.75,500.85a6.64,6.64,0,0,0,.59-4.59l12-2v-.16l-13,2.16a6.61,6.61,0,0,1-.59,4.58c-1.42,3-4.61,6.74-2.69,7.55l.79-.13C389.42,507.26,392.39,503.67,393.75,500.85Z"/><path class="cls-32" d="M377.34,366h0a7,7,0,0,1,7,7v6.74a7,7,0,0,1-7,7h0a7,7,0,0,1-7-7V373A7,7,0,0,1,377.34,366Z"/><path class="cls-34" d="M383.9,392.59s14.56-50.57,6.63-63l-1.15-.23-.13-.12-.37.12c8.25,12-6.49,63.22-6.49,63.22l7.2,5.51.63-.68Z"/><circle class="cls-32" cx="377.79" cy="357.59" r="15.62"/><path class="cls-34" d="M372.34,379.76V373a3.52,3.52,0,0,1,.06-1.48A15.61,15.61,0,0,1,378.66,342h-.88a15.62,15.62,0,0,0-7.15,29.5c-.11.49-.16,1-.29,1.48v6.8a7.2,7.2,0,0,0,7.07,7.07,6.73,6.73,0,0,0,1-.07A6.9,6.9,0,0,1,372.34,379.76Z"/><path class="cls-33" d="M393.34,435.44s-30.13,3.4-31.24,0c-7.81-23.94,0-42.83,0-42.83A15.62,15.62,0,0,1,377.72,377h0a15.62,15.62,0,0,1,15.62,15.62Z"/><path class="cls-35" d="M393.49,436,407,498H393.49l-14-46s-17.5,7.5-22,22.51,0,23.49,0,23.49H343l-.15-.67A64.5,64.5,0,0,1,362.49,436h0"/><path class="cls-34" d="M364.18,435.42c-7.81-23.94,0-42.83,0-42.83A15.62,15.62,0,0,1,378.79,377h-1a15.62,15.62,0,0,0-15.62,15.62s-7.81,18.9,0,42.83c.4,1.22,4.52,1.56,9.64,1.51C367.65,436.87,364.5,436.47,364.18,435.42Z"/><path class="cls-33" d="M362.17,392s-40.31-28.22-36.28-64H335s21.66,46.91,35.54,51.41S362.17,392,362.17,392Z"/><g class="cls-8"><path class="cls-4" d="M379.81,452.49,393.66,498h2l-14.11-46.36S380.9,451.92,379.81,452.49Z"/><path class="cls-4" d="M364.33,436h-2a64.5,64.5,0,0,0-19.64,61.33l.15.67h2l-.15-.67A64.48,64.48,0,0,1,364.33,436Z"/></g><path class="cls-34" d="M327.4,329h-1.51c-4,35.78,36.28,64,36.28,64l1-.38C358.5,389.17,323.63,362.4,327.4,329Z"/><path class="cls-35" d="M365.33,350.61a26.18,26.18,0,0,1,1.82,6.29c1,4.38,3.26,8.75,7.15,11a15.74,15.74,0,0,0,7,1.91c3.72.23,7.75-.49,10.38-3.13a12.77,12.77,0,0,0,3.17-6.39,21.63,21.63,0,0,0-5.69-19.88,19.21,19.21,0,0,0-20-4.19,18.3,18.3,0,0,1-3.79,1.38,6.3,6.3,0,0,1-5.53-1.84,3.49,3.49,0,0,0,2.3,4.37,3.26,3.26,0,0,0,1.07.15,9.71,9.71,0,0,1-7.46.4,6.32,6.32,0,0,0,8,3.19,21.28,21.28,0,0,1-9,1.84c.65,0,1.92,1.2,2.71,1.44a16.76,16.76,0,0,0,3,.21A5.82,5.82,0,0,1,365.33,350.61Z"/><g class="cls-8"><path class="cls-4" d="M363.25,340.26a9.56,9.56,0,0,1-3.7.95,9.61,9.61,0,0,0,4.71-.95,3.52,3.52,0,0,1-3.55-3.5c0-.11,0-.21,0-.31a5.64,5.64,0,0,1-.84-.71,3.49,3.49,0,0,0,2.3,4.37A3.26,3.26,0,0,0,363.25,340.26Z"/><path class="cls-4" d="M366.41,337.61a18.3,18.3,0,0,0,3.79-1.38,17.58,17.58,0,0,1,6-1.21,17.82,17.82,0,0,0-7,1.21,18.3,18.3,0,0,1-3.79,1.38,1.66,1.66,0,0,0-.54.06A5.69,5.69,0,0,0,366.41,337.61Z"/><path class="cls-4" d="M358.42,347.16c-.79-.23-2.06-1.42-2.71-1.44a21.28,21.28,0,0,0,9-1.84,5.31,5.31,0,0,1-2,.42,21,21,0,0,1-8,1.42c.65,0,1.92,1.2,2.71,1.44a6.47,6.47,0,0,0,2.1.17A4.13,4.13,0,0,1,358.42,347.16Z"/><path class="cls-4" d="M382.12,370a15.67,15.67,0,0,1-6.86-1.87c-3.82-2.23-6-6.52-7-10.79a25.37,25.37,0,0,0-1.78-6.17,5.7,5.7,0,0,0-4.84-3.17,9,9,0,0,0-1.47,0h.48a5.7,5.7,0,0,1,4.84,3.17,25.37,25.37,0,0,1,1.78,6.17c1,4.29,3.2,8.58,7,10.79a15.67,15.67,0,0,0,6.86,1.87h1Z"/><path class="cls-4" d="M362.08,344.26A6.35,6.35,0,0,1,357,341a7.81,7.81,0,0,1-1.17-.33A6.37,6.37,0,0,0,362.08,344.26Z"/></g><path class="cls-34" d="M326.89,328.35s-3-2.52,0-7.06a4.85,4.85,0,0,1,3.74-2.29,4.9,4.9,0,0,0-4.74,2.29c-3,4.54,0,7.06,0,7.06a27,27,0,0,0,5.93.66A29.21,29.21,0,0,1,326.89,328.35Z"/><g class="cls-8"><path class="cls-36" d="M37,328.59l.08-.27S36,328.12,37,328.59Z"/></g><g class="cls-8"><path class="cls-37" d="M131.2,345.35a8.11,8.11,0,0,0-.36-.93c0-.1-.1-.18-.15-.27s-.19-.35-.3-.52l-.2-.26q-.15-.19-.33-.39l-.23-.23-.36-.3-.25-.18-.4-.24-.25-.13-.45-.19-.23-.09c-.21-.07-.43-.13-.65-.18h0a10.48,10.48,0,0,0-4.39.12s-4.19,6.18-2.58,8.4l-.53-.16S88.41,384.54,70.85,391a10,10,0,0,0-1.51-.86v-6.5a1.66,1.66,0,0,0,.12-.82h0a7.28,7.28,0,0,0-.13-.77l.13-.07.52-.29.75-.46.48-.31a8.62,8.62,0,0,0,1-.78l.39-.34q.36-.3.69-.63l.4-.39c.28-.28.55-.58.8-.88l.28-.34c.24-.3.47-.6.69-.92l.28-.42c.2-.3.39-.62.57-.94l.18-.31a13.68,13.68,0,0,0,.61-1.28l.16-.39c.14-.35.27-.71.39-1.07a1.86,1.86,0,0,1,.12-.38c.14-.47.27-.94.37-1.43a.59.59,0,0,1,0-.29c.08-.4.15-1.24.15-1.24v-.42s.12-1,.12-1.55a17,17,0,0,0-3.78-10.69c1.33-2.08,2.2-3.31,2.2-3.31-.8-.55-1.59-1.05-2.37-1.54l-.76-.45c-.52-.31-1-.62-1.56-.9l-.87-.46c-.47-.25-.93-.49-1.39-.71l-.89-.41-1.33-.58-.87-.35L65.53,347l-.82-.28-1.34-.39-.73-.2c-.5-.12-1-.22-1.49-.32l-.53-.11c-.67-.12-1.33-.21-2-.27h0a23.85,23.85,0,0,0-12,1.84c.2-4.78,1-8.72,2.68-11.16l-.41-.14-.14.14s-.49.11-1.26.25a11.76,11.76,0,0,0-.65,1.21,14,14,0,0,1,1.91-4.76l-.41-.14c.59-.61,2.73-3.24-.14-7.55-3.3-4.94-9.34-1.1-9.34-1.1a25.93,25.93,0,0,0-.94,5c-.46-.19-.79-.33-1-.44A124.64,124.64,0,0,0,32.23,360C21.34,375.43,16.84,398.25,16,403.17h0l-.07.39h0l-.09.55,28.54.66v45.12L23.5,493.48s7.84.25,19.64,1.76l-3.26,23.31h0L38.79,525H58.41c2.18-4.27-8.72-7-8.72-7h-.24l4.25-21.2,5.8,1a55.78,55.78,0,0,0,8.83,1h0a46.33,46.33,0,0,0,7.35-.32c1.44,11.79-.81,19.52-.81,19.52h-.11l-1.09,7H93.29c1.9-3.78-6.14-5.93-8.23-6.41l.09-.64a109.12,109.12,0,0,0,.77-22.2,26.71,26.71,0,0,0,7-4.17h0l.27-.24h0l.08-.08-14.61-41c2.73-11.6-6.77-23.78-1.7-29.87s2-13.86,1.4-15.19c13.72-6,41.45-21,49.23-47a47.72,47.72,0,0,0,1.39-5.57S132.9,351,131.2,345.35Z"/></g><path class="cls-5" d="M40.08,336.2s-14.87,46.91,10.07,72.88l7.2-5.51s-14.74-51.2-6.49-63.22C36.3,335.5,40.08,336.2,40.08,336.2Z"/><path class="cls-38" d="M50.36,340.34s3-2.52,0-7.06-8.57-1-8.57-1-2,6.55,0,8.06S50.36,340.34,50.36,340.34Z"/><path class="cls-38" d="M62.34,400.73h0a7,7,0,0,1-7-7V387a7,7,0,0,1,7-7h0a7,7,0,0,1,7,7v6.74A7,7,0,0,1,62.34,400.73Z"/><path class="cls-34" d="M56.34,406.59s-14.56-50.57-6.63-63l1.15-.23.13-.12.37.12c-8.25,12,6.49,63.22,6.49,63.22l-7.2,5.51-.63-.68Z"/><circle class="cls-38" cx="62.45" cy="371.59" r="15.62"/><path class="cls-34" d="M68.34,393.76V387a3.77,3.77,0,0,1-.5-1.48A15.61,15.61,0,0,0,61.58,356h.88a15.62,15.62,0,0,1,7.15,29.5,2.26,2.26,0,0,0,.73,1.48v6.8a7.93,7.93,0,0,1-7.51,7.07,6.73,6.73,0,0,1-1-.07A7.69,7.69,0,0,0,68.34,393.76Z"/><path class="cls-5" d="M46.34,449.44s30.13,3.4,31.24,0c3.6-11-6-22.89-1.2-28.7,5-6,1.2-14.13,1.2-14.13A15.62,15.62,0,0,0,62,391h0a15.62,15.62,0,0,0-15.62,15.62Z"/><path class="cls-34" d="M76.66,420.74c5-6,1.2-14.13,1.2-14.13A15.62,15.62,0,0,0,62.24,391a6.63,6.63,0,0,0-1,.05,15.61,15.61,0,0,1,14.62,15.57s3.8,8.13-1.2,14.13c-4.84,5.81,4.8,17.69,1.2,28.7-.34,1.05-3.45,1.45-7.58,1.51,5.09.05,9.19-.29,9.58-1.51C81.5,438.42,71.82,426.55,76.66,420.74Z"/><path class="cls-38" d="M71.38,449h0C82.29,464.47,87.12,487.84,84,510.33l-.09.67H74.59s2.89-8.5,0-23.49A37.13,37.13,0,0,0,60.47,465l-9,46H42.81l8.67-62Z"/><path class="cls-38" d="M124.39,358.57s3.63-1.52,2.07-6.75-7.9-3.47-7.9-3.47-3.85,5.67-2.36,7.71S124.39,358.57,124.39,358.57Z"/><path class="cls-5" d="M70.94,409.13s46.81-15.17,53.44-50.56l-8.67-2.66s-34.45,38.46-49,38.73S70.94,409.13,70.94,409.13Z"/><path class="cls-34" d="M122.79,358.61l1.45.44c-6.63,35.39-53.44,50.56-53.44,50.56L70,409C75.5,407,116.61,391.62,122.79,358.61Z"/><g class="cls-8"><path class="cls-4" d="M58.42,464.64,49.36,511h2l8.8-45C59.6,465.52,59,465.06,58.42,464.64Z"/><path class="cls-4" d="M71.48,449h-2c10.91,15.47,15.75,38.84,12.62,61.33L82,511h2l.08-.67C87.23,487.84,82.42,464.47,71.48,449Z"/></g><path class="cls-34" d="M123.42,358.26s3.63-1.52,2.07-6.75a4.83,4.83,0,0,0-2.9-3.29,4.92,4.92,0,0,1,3.86,3.58c1.56,5.22-2.07,6.75-2.07,6.75a27.17,27.17,0,0,1-5.86-1.1A29.13,29.13,0,0,0,123.42,358.26Z"/><path class="cls-35" d="M46.58,448l-19,40a234.67,234.67,0,0,1,33,4c21,4,31-6,31-6L78,448Z"/><path class="cls-5" d="M51.62,511s10,2,8,6h-18l1-6Z"/><path class="cls-5" d="M83.62,511s10,2,8,6h-18l1-6Z"/><path class="cls-39" d="M76.62,358.74s-24,34-13,48l-43-1S32.62,328.74,76.62,358.74Z"/><path class="cls-34" d="M76.62,358.74c-6.2-4.23-11.76-6.33-16.75-6.82a42.55,42.55,0,0,1,11.75,5.82s-24,34-13,48l-37.85-.88c-.1.57-.15.88-.15.88l43,1C52.62,392.74,76.62,358.74,76.62,358.74Z"/><path class="cls-34" d="M78.08,448h-3l13.55,38s-6.46,6.45-19.9,6.91c15.47.5,22.9-6.91,22.9-6.91Z"/><path class="cls-34" d="M51.62,511h-2s10,2,8,6h2C61.62,513,51.62,511,51.62,511Z"/><path class="cls-34" d="M83.62,511h-2s10,2,8,6h2C93.62,513,83.62,511,83.62,511Z"/><rect class="cls-2" x="500.34" y="167" width="383" height="15"/><rect class="cls-40" x="493.34" y="163" width="398" height="496"/><rect class="cls-4" x="500.34" y="182" width="383" height="460"/><circle class="cls-5" cx="509.5" cy="174.92" r="3.5"/><circle class="cls-6" cx="519.12" cy="174.92" r="3.5"/><circle class="cls-7" cx="528.75" cy="174.92" r="3.5"/><g class="cls-8"><rect class="cls-9" x="524.34" y="202" width="336" height="9"/></g><rect class="cls-41" x="522.34" y="241" width="145" height="154"/><rect class="cls-4" x="525.34" y="246" width="139" height="144"/><rect class="cls-42" x="715.34" y="318" width="145" height="154"/><rect class="cls-4" x="718.34" y="323" width="139" height="144"/><rect class="cls-43" x="525.34" y="508" width="341" height="106"/><rect class="cls-10" x="532.34" y="515" width="328" height="95"/><polygon class="cls-20" points="540.34 524 860.34 524 860.34 515 532.34 515 532.34 610 540.34 610 540.34 524"/><path class="cls-44" d="M641.59,278a62,62,0,1,0,15,40.45A62,62,0,0,0,641.59,278Zm-25,77a43,43,0,1,1,21.08-37,43,43,0,0,1-21.08,37Z"/><path class="cls-5" d="M625.39,291.68,639,279.93a58.88,58.88,0,0,0-44.7-20.51v18A41,41,0,0,1,625.39,291.68Z"/><path class="cls-7" d="M594.62,359.41a40.49,40.49,0,0,1-16.92-3.67l-7.43,16.41a59,59,0,0,0,54.49-3l-9.2-15.49A40.64,40.64,0,0,1,594.62,359.41Z"/><path class="cls-17" d="M653.62,318.41a58.76,58.76,0,0,0-14.3-38.49l-13.65,11.75a40.93,40.93,0,0,1-4.18,57.74,41.4,41.4,0,0,1-5.93,4.26l9.2,15.49A59,59,0,0,0,653.62,318.41Z"/><path class="cls-9" d="M553.34,318.41a41,41,0,0,1,41-41h0v-18A59,59,0,0,0,570,372.15l7.43-16.41A41,41,0,0,1,553.34,318.41Z"/><rect class="cls-45" x="737.34" y="344" width="106" height="18"/><rect class="cls-9" x="738.34" y="345" width="104" height="16"/><rect class="cls-5" x="738.34" y="372" width="76" height="16"/><rect class="cls-7" x="738.34" y="399" width="52" height="16"/><rect class="cls-17" x="738.34" y="426" width="94" height="16"/><rect class="cls-2" x="525.34" y="419" width="149" height="9"/><rect class="cls-2" x="525.34" y="434" width="84" height="9"/><rect class="cls-2" x="624.34" y="434" width="29" height="9"/><rect class="cls-2" x="624.34" y="467" width="29" height="9"/><rect class="cls-2" x="525.34" y="464" width="84" height="9"/><rect class="cls-2" x="525.34" y="449" width="149" height="9"/><rect class="cls-2" x="713.34" y="242" width="149" height="9"/><rect class="cls-2" x="713.34" y="257" width="84" height="9"/><rect class="cls-2" x="812.34" y="257" width="29" height="9"/><rect class="cls-2" x="812.34" y="290" width="29" height="9"/><rect class="cls-2" x="713.34" y="287" width="84" height="9"/><rect class="cls-2" x="713.34" y="272" width="149" height="9"/><circle class="cls-46" cx="760.62" cy="688.42" r="11"/><circle class="cls-5" cx="760.62" cy="688.42" r="8"/><rect class="cls-47" x="435.34" y="566" width="344" height="121"/><rect class="cls-4" x="445.34" y="571" width="328" height="95"/><line class="cls-48" x1="456.34" y1="648.5" x2="760.34" y2="648.5"/><rect class="cls-49" x="459.34" y="590" width="45" height="55"/><rect class="cls-9" x="462.34" y="593" width="40" height="51"/><rect class="cls-7" x="712.34" y="629" width="40" height="16"/><rect class="cls-17" x="637.34" y="608" width="40" height="36"/><rect class="cls-5" x="549.34" y="614" width="40" height="30"/><rect class="cls-5" x="445.34" y="666" width="328" height="14"/><circle class="cls-50" cx="459.62" cy="688.42" r="11"/><circle class="cls-5" cx="459.62" cy="688.42" r="8"/><rect class="cls-5" x="437.34" y="575" width="8" height="105"/><rect class="cls-51" x="437.34" y="575" width="8" height="105"/><path class="cls-52" d="M446.34,586.58v-.81a.8.8,0,0,1-.25-.31A3.43,3.43,0,0,1,446,585c-.05-.14-.06-.19-.1-.29l-.18-.42-.12-.25c-.08-.14-.17-.28-.26-.41l-.13-.19c-.13-.18-.27-.35-.42-.52h0a9.76,9.76,0,0,0-2.79-2.06,8,8,0,0,0,1.79-3.08c.1-.3-.42-.94-.42-.94v-.29l1-.58v-.79a.48.48,0,0,0-.06-.31,3.61,3.61,0,0,1-.12-.45c-.05-.14-.06-.19-.1-.29s-.13-.28-.19-.43l-.12-.25c-.08-.14-.17-.28-.26-.41l-.13-.2c-.13-.18-.28-.35-.43-.52h0a10.11,10.11,0,0,0-3.59-2.43s-6.43,2.38-6.85,5c-4.72,1-32.2,6.73-51.07,6.27l-.15-.37A16.77,16.77,0,0,0,372.34,566V559.3c0-.27,0-.53,0-.8h0c0-.26-.07-.51-.12-.76l.12-.07.53-.28.76-.45.48-.31c.36-.24.71-.49,1-.76l.39-.33c.24-.2.46-.4.69-.61l.4-.38c.29-.28.55-.57.81-.86l.28-.34q.36-.44.69-.9l.28-.41c.2-.3.39-.61.57-.92l.18-.3c.23-.4.43-.82.62-1.24l.15-.38c.15-.34.28-.67.4-1l.12-.37a13.56,13.56,0,0,0,.37-1.39.56.56,0,0,1,0-.28c.08-.4.14-.8.19-1.21v-.41c0-.5.08-1,.08-1.51a16.11,16.11,0,0,0-2.2-8.11c1.11-.26,1.78-.47,1.7-.57-.43-.55-.85-1.07-1.29-1.57l-.43-.47-.92-1-.49-.49c-.31-.3-.62-.58-.93-.85l-.48-.42-1.18-.93-.26-.2c-.47-.34-.95-.66-1.43-1l-.54-.32c-.31-.19-.63-.37-1-.53l-.64-.32-.89-.41-.65-.28c-.31-.13-.63-.24-.95-.35l-.59-.21c-.47-.15-.95-.29-1.42-.41l-.73-.16-.8-.16-.79-.12-.74-.08L363,524h-.18c-.43,0-.87,0-1.3.06h0c-10.23.85-19.19,9.82-19.19,24.13V560h16v6.3a16.54,16.54,0,0,0-10,15v45.42L334.25,689h-.18l-2.77,11.89L351.17,704h0l.86.13c2.08-.86-1.4-4.88-3-8a9.63,9.63,0,0,1-.42-1,7.19,7.19,0,0,1-.39-1.94L363.53,645h-.37l.35-1.13s18.68,8,23.48,24c3.9,13,1.48,21.39.42,24.12h-.07v.17a9,9,0,0,1-.37.83h.37v9h20a38.11,38.11,0,0,0-4.1-6.58,5.91,5.91,0,0,1-1.32-2.42h.34l.16-.85a69.54,69.54,0,0,0-20.86-65.77.56.56,0,0,0,.09-.17,74.52,74.52,0,0,0,3.51-18.06c15.49,1.48,36.1.42,51.51-11.52a46.27,46.27,0,0,0,4.21-3.58c1.33-.1,3.66-.84,4.95-4.6.1-.3.18-.62-.5-.94v-.29A1.55,1.55,0,0,0,446.34,586.58Z"/><path class="cls-9" d="M365,604.2s46.9,14.91,72.88-10L432.36,587S382,598.22,370,590,365,604.2,365,604.2Z"/><path class="cls-34" d="M436.55,593.26l.92,1.2c-26,24.92-72.88,10-72.88,10s-.12-.38-.3-1C369.88,605.13,412.31,616.54,436.55,593.26Z"/><path class="cls-53" d="M436.87,594.19s3.84.87,5.61-4.28-4.4-7.42-4.4-7.42-6.43,2.37-6.41,4.89S436.87,594.19,436.87,594.19Z"/><path class="cls-34" d="M436.26,593.38s3.84.87,5.61-4.28a4.82,4.82,0,0,0-.45-4.36,4.89,4.89,0,0,1,1.06,5.16c-1.77,5.16-5.61,4.28-5.61,4.28a26.68,26.68,0,0,1-4.12-4.31A29.09,29.09,0,0,0,436.26,593.38Z"/><path id="_4635430b-7803-4f1f-9770-b56b2b482545" data-name="4635430b-7803-4f1f-9770-b56b2b482545" class="cls-9" d="M387.34,687h13.54a4.46,4.46,0,0,0,1.28,3.48c1.82,2.11,5.49,4.65,3.76,5.52H387.34Z"/><path class="cls-34" d="M401.45,690.48a4.45,4.45,0,0,1-1.27-3.48h1a4.46,4.46,0,0,0,1.28,3.48c1.82,2.11,5.49,4.65,3.76,5.52h-1C406.94,695.13,403.28,692.6,401.45,690.48Z"/><path id="a892faa3-7b18-4010-9d55-72c2aac7ddb8" class="cls-9" d="M337.73,684.15l13,2.13a6.61,6.61,0,0,0,.59,4.58c1.42,3,4.61,6.74,2.69,7.55l-18.82-3Z"/><path class="cls-34" d="M350,690.85a6.61,6.61,0,0,1-.59-4.58l-12.05-2v-.16l13,2.13a6.61,6.61,0,0,0,.59,4.58c1.42,3,4.61,6.74,2.69,7.55l-.79-.13C354.31,697.26,351.34,693.67,350,690.85Z"/><path class="cls-53" d="M366.34,576.73h0a7,7,0,0,1-7-7V563a7,7,0,0,1,7-7h0a7,7,0,0,1,7,7v6.74A7,7,0,0,1,366.34,576.73Z"/><circle class="cls-53" cx="366.45" cy="547.59" r="15.62"/><path class="cls-34" d="M372.34,569.76V563a3.77,3.77,0,0,1-.5-1.48A15.61,15.61,0,0,0,365.58,532h.88a15.62,15.62,0,0,1,7.15,29.5,2.26,2.26,0,0,0,.73,1.48v6.8a7.93,7.93,0,0,1-7.51,7.07,6.73,6.73,0,0,1-1-.07A7.69,7.69,0,0,0,372.34,569.76Z"/><path class="cls-9" d="M350.34,625.44s30.13,3.4,31.24,0c7.81-23.94,0-42.83,0-42.83A15.62,15.62,0,0,0,366,567h0a15.62,15.62,0,0,0-15.62,15.62Z"/><path class="cls-35" d="M350.75,626l-13.51,62h13.51l14-46s17.5,7.5,22,22.51,0,23.49,0,23.49h14.53l.15-.67A64.5,64.5,0,0,0,381.77,626h0"/><path class="cls-34" d="M380.06,625.42c7.81-23.94,0-42.83,0-42.83A15.62,15.62,0,0,0,365.45,567h1a15.62,15.62,0,0,1,15.62,15.62s7.81,18.9,0,42.83c-.4,1.22-4.52,1.56-9.64,1.51C376.59,626.87,379.72,626.47,380.06,625.42Z"/><g class="cls-8"><path class="cls-4" d="M364.43,642.49,350.58,688h-2l14.11-46.36S363.34,641.92,364.43,642.49Z"/><path class="cls-4" d="M379.91,626h2a64.5,64.5,0,0,1,19.64,61.33l-.15.67h-2l.15-.67A64.48,64.48,0,0,0,379.91,626Z"/></g><path class="cls-9" d="M363,594.2s46.9,14.91,72.88-10L430.36,577S380,588.22,368,580,363,594.2,363,594.2Z"/><path class="cls-34" d="M434.55,583.26l.92,1.2c-26,24.92-72.88,10-72.88,10s-.12-.38-.3-1C367.88,595.13,410.31,606.54,434.55,583.26Z"/><path class="cls-53" d="M434.87,584.19s3.84.87,5.61-4.28-4.4-7.42-4.4-7.42-6.43,2.37-6.41,4.89S434.87,584.19,434.87,584.19Z"/><path class="cls-34" d="M434.26,583.38s3.84.87,5.61-4.28a4.82,4.82,0,0,0-.45-4.36,4.89,4.89,0,0,1,1.06,5.16c-1.77,5.16-5.61,4.28-5.61,4.28a26.68,26.68,0,0,1-4.12-4.31A29.09,29.09,0,0,0,434.26,583.38Z"/><path class="cls-35" d="M367.34,542l-1,21h-22V551.85c0-22.39,23.67-30.89,37-12.9C381.67,539.44,367.34,542,367.34,542Z"/><path class="cls-34" d="M362.68,529.33c5.61.46,11.38,3.52,15.94,9.67.33.44-14,3-14,3l-1,21h3l1-21s14.33-2.56,14-3C376.25,531.74,369.19,528.84,362.68,529.33Z"/></g></g></svg>