<svg xmlns="http://www.w3.org/2000/svg" xmlns:xlink="http://www.w3.org/1999/xlink" viewBox="0 0 965.93 654.37"><defs><style>.cls-1,.cls-2{fill:#9800bf;}.cls-1,.cls-11,.cls-30{opacity:0.1;}.cls-1,.cls-11,.cls-29,.cls-6,.cls-7,.cls-8{isolation:isolate;}.cls-3{fill:#444053;}.cls-11,.cls-4{fill:#3f3d56;}.cls-5{fill:#fff;}.cls-6{fill:#fa5959;}.cls-6,.cls-7,.cls-8{opacity:0.8;}.cls-7{fill:#fed253;}.cls-8{fill:#8ccf4d;}.cls-9{opacity:0.3;}.cls-10{fill:none;stroke:#3f3d56;stroke-miterlimit:10;}.cls-12{fill:url(#名称未設定グラデーション_27);}.cls-13{fill:#7cfcff;}.cls-14{fill:url(#名称未設定グラデーション_27-2);}.cls-15{fill:#ffffa5;}.cls-16{fill:url(#名称未設定グラデーション_27-3);}.cls-17{fill:url(#名称未設定グラデーション_27-4);}.cls-18{fill:url(#名称未設定グラデーション_27-5);}.cls-19{fill:#ff69b4;}.cls-20{fill:url(#名称未設定グラデーション_27-6);}.cls-21{fill:url(#名称未設定グラデーション_27-7);}.cls-22{fill:url(#名称未設定グラデーション_27-8);}.cls-23{fill:url(#名称未設定グラデーション_27-9);}.cls-24{fill:url(#名称未設定グラデーション_27-10);}.cls-25{fill:url(#名称未設定グラデーション_27-11);}.cls-26{fill:url(#名称未設定グラデーション_27-12);}.cls-27{fill:#303d5c;}.cls-28{fill:#ee8e9e;}.cls-29{opacity:0.05;}.cls-31{fill:url(#名称未設定グラデーション_27-13);}</style><linearGradient id="名称未設定グラデーション_27" x1="98.24" y1="2882.36" x2="98.24" y2="2920.74" gradientTransform="matrix(1, 0, 0, -1, 262, 3164.5)" gradientUnits="userSpaceOnUse"><stop offset="0" stop-color="gray" stop-opacity="0.25"/><stop offset="0.54" stop-color="gray" stop-opacity="0.12"/><stop offset="1" stop-color="gray" stop-opacity="0.1"/></linearGradient><linearGradient id="名称未設定グラデーション_27-2" x1="179.28" y1="2890.89" x2="179.28" y2="2929.27" xlink:href="#名称未設定グラデーション_27"/><linearGradient id="名称未設定グラデーション_27-3" x1="335.38" y1="2761.23" x2="335.38" y2="2799.61" xlink:href="#名称未設定グラデーション_27"/><linearGradient id="名称未設定グラデーション_27-4" x1="-11.79" y1="2950.6" x2="-11.79" y2="2988.98" xlink:href="#名称未設定グラデーション_27"/><linearGradient id="名称未設定グラデーション_27-5" x1="66.68" y1="2896" x2="66.68" y2="2934.39" xlink:href="#名称未設定グラデーション_27"/><linearGradient id="名称未設定グラデーション_27-6" x1="381.44" y1="2761.23" x2="381.44" y2="2799.61" xlink:href="#名称未設定グラデーション_27"/><linearGradient id="名称未設定グラデーション_27-7" x1="450.54" y1="2949.74" x2="450.54" y2="2988.13" xlink:href="#名称未設定グラデーション_27"/><linearGradient id="名称未設定グラデーション_27-8" x1="446.27" y1="2828.62" x2="446.27" y2="2867" xlink:href="#名称未設定グラデーション_27"/><linearGradient id="名称未設定グラデーション_27-9" x1="476.13" y1="2820.09" x2="476.13" y2="2858.47" xlink:href="#名称未設定グラデーション_27"/><linearGradient id="名称未設定グラデーション_27-10" x1="349.88" y1="2774.88" x2="349.88" y2="2813.26" xlink:href="#名称未設定グラデーション_27"/><linearGradient id="名称未設定グラデーション_27-11" x1="354.15" y1="2890.03" x2="354.15" y2="2928.42" xlink:href="#名称未設定グラデーション_27"/><linearGradient id="名称未設定グラデーション_27-12" x1="-155.22" y1="2672.92" x2="37.13" y2="2672.92" gradientTransform="matrix(1, 0, 0, -1, 228.19, 3098.07)" xlink:href="#名称未設定グラデーション_27"/><linearGradient id="名称未設定グラデーション_27-13" x1="-24.59" y1="2828.62" x2="-24.59" y2="2867" xlink:href="#名称未設定グラデーション_27"/></defs><g id="レイヤー_2" data-name="レイヤー 2"><g id="レイヤー_1-2" data-name="レイヤー 1"><path class="cls-1" d="M522.62,95.79c-59.36-.1-116.55-18.54-171.27-39.06s-109-43.41-167.3-53.23C146.52-2.81,104-2.38,74.73,20c-28.13,21.58-36.18,57.38-40,90.49-2.89,24.89-4.18,51,7,73.84,7.76,15.85,21,28.91,30.34,44,32.55,52.55,13.23,119.42-18.12,173-14.72,25.08-32,49.16-43.05,75.74s-15.6,56.75-4.13,83c11.38,26.08,37,45.09,64.34,58.07,55.69,26.44,120.41,32.26,183.4,34.62,139.45,5.24,279.11-4.09,418.4-13.48,51.55-3.46,103.33-7,153.79-17.3,28-5.74,56.86-14.3,76.69-33.2,25.16-24,30.21-63.27,11.78-91.56-30.93-47.51-112.1-56.69-134.37-108-12.26-28.26-1.85-60.56,13.53-87.74,33-58.25,89.94-110.35,90.72-175.63.53-44.83-29.29-88.65-73.68-108.27C764.76-2.93,701.44,2.14,669,40.08,635.59,79.15,575,95.87,522.62,95.79Z"/><path class="cls-2" d="M817.9,534s-10.49-6.92-20.88-2c0,0,3.2,6.17,16.36,5.58Z"/><path class="cls-2" d="M819.19,534.35s3.19,12.15-4.81,20.42c0,0-4.81-5,0-17.29Z"/><path class="cls-2" d="M832.26,522.69s-.77-10.34-24.1-6.91c0,0-.11,6.67,8.08,9.83S828.18,526.1,832.26,522.69Z"/><path class="cls-2" d="M833.7,522.62s9.86,3.17,1.07,25c0,0-6.51-1.46-7.68-10.16S829.42,525.79,833.7,522.62Z"/><path class="cls-2" d="M846.91,508s1.33-17-22.51-15.25c0,0-1.71,15.35,18.29,19.34Z"/><path class="cls-2" d="M862.66,488.77s-3.27-19.26-27.1-13.52c0,0-.09,16.66,23.21,18.12Z"/><path class="cls-2" d="M874.17,468.93s-5.47-18.77-29.08-13.15c0,0,5.61,16.88,27.51,16.62Z"/><path class="cls-2" d="M885.11,449.56s-5.35-19.48-28.15-13.65c0,0,7.61,18.5,26.64,16.95Z"/><path class="cls-2" d="M892.16,431.15s-4.11-23.78-25.34-18.55c0,0,6.17,21.67,23.8,22Z"/><path class="cls-2" d="M898.76,408.91s-4.93-24-26.44-17.06c0,0,8.44,22.68,24.92,20.34Z"/><path class="cls-2" d="M902.86,388.21s-7.84-24-24.47-23.36c0,0,8,25.36,23,28.15Z"/><path class="cls-2" d="M905.46,368s-8.53-28.9-22.06-26.68c0,0,5.9,22.1,21.58,31.17Z"/><path class="cls-2" d="M906.91,343.89s-8-24.08-21.33-25c0,0,5.45,23.7,21.06,31.3Z"/><path class="cls-2" d="M908.56,321.43s-10-24.11-18.77-24.65c0,0,4.32,23.73,17.91,28.61Z"/><path class="cls-2" d="M909.66,300.52s-6.16-26.22-14.95-28.36c0,0,1.21,21.42,14.07,30.31Z"/><path class="cls-2" d="M913,273.15s-6.44-20.87-13.58-24c0,0,1.41,24.6,11.94,29.16Z"/><path class="cls-2" d="M915.73,255.17l1.3-36.8s-13.32,27.77-2.28,43.29Z"/><path class="cls-2" d="M926,218.6s9.61-26.87,11.94-28.37c0,0-18.85,17.43-17,39.86Z"/><path class="cls-2" d="M847.56,507.84s16.9-2.22,16.39,21.69c0,0-15.28,2.48-20.26-17.28Z"/><path class="cls-2" d="M863.46,488.13s19.54-.07,17.91,24.39c0,0-16.39,2.93-21.81-19.78Z"/><path class="cls-2" d="M874.36,470.49s17.73-8.32,29.09,13.14c0,0-16.39,6.94-30.65-9.68Z"/><path class="cls-2" d="M885.51,449.74s18.15-8.86,28.81,12.12c0,0-18.91,6.51-30.31-8.81Z"/><path class="cls-2" d="M891.93,431.66s17.48-16.69,31.42.2c0,0-17.85,13.73-32.23,3.52Z"/><path class="cls-2" d="M897.77,408.34s17.59-17.06,31.43.78c0,0-19.74,14-32.05,2.8Z"/><path class="cls-2" d="M901.07,387.53S914.61,366.2,930.55,371c0,0-14,22.58-29.33,21.57Z"/><path class="cls-2" d="M905.06,367.88S918.71,341,931.61,345.7c0,0-9.83,20.65-26.9,26.71Z"/><path class="cls-2" d="M906,342.54S920,321.4,933.17,324c0,0-11.46,21.43-28.53,24.67Z"/><path class="cls-2" d="M907.07,321s10.87-23.72,19.71-23.93c0,0-5.22,23.56-19,27.92Z"/><path class="cls-2" d="M909.22,300s12.09-24,21.17-24.06c0,0-6.18,20.53-20.76,26.17Z"/><path class="cls-2" d="M911.05,274.62s9-19.87,16.52-22.13c0,0-4.52,24.23-15.53,27.4Z"/><path class="cls-2" d="M916.81,254.47,937,223.7s-5.17,30.36-23.15,36.68Z"/><path class="cls-2" d="M930.68,221.08s23.49-16.21,24.33-18.84c0,0-11.94,22.71-34.12,26.72Z"/><path class="cls-2" d="M932.08,213.79s27-25.93,33.85-25.89c0,0-22.24,1-34.5,24.5Z"/><path class="cls-3" d="M911.3,278.47l1,.13c5.07-39.67,12.46-63.13,20.81-66l-.33-.93C923.92,214.73,916.5,237.83,911.3,278.47Z"/><path class="cls-3" d="M903.86,373.3l1.48.13c.31-3.71.55-7.5.71-11.27,1.41-32.84,3.61-63,6.5-85.57l-.86-1.06c-2.89,22.63-5.7,53.69-7.12,86.56C904.4,365.84,904.16,369.61,903.86,373.3Z"/><path class="cls-3" d="M790.21,552.86c.26-.12,26.39-11.78,53.51-39.61a215.5,215.5,0,0,0,39.11-55.45c12.53-25.53,20.17-56.9,22.74-87.38l-1.54.73c-5.76,68.4-36.91,115.15-61.68,140.61-26.85,27.58-52.68,39.13-52.93,39.24Z"/><path class="cls-4" d="M894.6,41.6H75a7.3,7.3,0,0,0-7.3,7.3V70.6H901.9V49A7.35,7.35,0,0,0,894.6,41.6Z"/><path class="cls-5" d="M67.66,69.75V548.9a14.73,14.73,0,0,0,14.73,14.74H887.18A14.73,14.73,0,0,0,901.9,548.9h0V69.75Z"/><circle class="cls-6" cx="80.84" cy="55.76" r="3.41"/><circle class="cls-7" cx="90.22" cy="55.76" r="3.41"/><circle class="cls-8" cx="99.61" cy="55.76" r="3.41"/><g class="cls-9"><rect class="cls-10" x="99.65" y="99.17" width="771.12" height="435.03"/><rect class="cls-10" x="200.31" y="99.17" width="569.81" height="435.03"/><rect class="cls-10" x="300.96" y="99.17" width="368.5" height="435.03"/><rect class="cls-10" x="401.61" y="99.17" width="167.19" height="435.03"/><line class="cls-10" x1="485.21" y1="99.6" x2="485.21" y2="534.63"/><rect class="cls-10" x="99.65" y="162.3" width="771.12" height="308.79"/><rect class="cls-10" x="99.65" y="224.57" width="771.12" height="184.25"/><rect class="cls-10" x="99.65" y="286.84" width="771.12" height="59.71"/></g><rect class="cls-11" x="220.35" y="123.49" width="60.56" height="22.18"/><rect class="cls-11" x="125.67" y="184.05" width="45.21" height="22.18"/><rect class="cls-11" x="318.45" y="123.49" width="60.56" height="22.18"/><rect class="cls-11" x="410.57" y="123.49" width="60.56" height="22.18"/><rect class="cls-11" x="495.87" y="123.49" width="60.56" height="22.18"/><rect class="cls-11" x="591.41" y="123.49" width="60.56" height="22.18"/><rect class="cls-11" x="688.65" y="123.49" width="60.56" height="22.18"/><rect class="cls-11" x="791.86" y="123.49" width="60.56" height="22.18"/><rect class="cls-12" x="340.62" y="243.76" width="39.24" height="38.39"/><rect class="cls-13" x="340.62" y="244.61" width="38.39" height="36.68"/><rect class="cls-14" x="421.66" y="235.23" width="39.24" height="38.39"/><rect class="cls-15" x="421.66" y="236.08" width="38.39" height="36.68"/><rect class="cls-16" x="577.76" y="364.89" width="39.24" height="38.39"/><rect class="cls-15" x="577.76" y="365.74" width="38.39" height="36.68"/><rect class="cls-17" x="230.59" y="175.52" width="39.24" height="38.39"/><rect class="cls-15" x="231.44" y="176.37" width="38.39" height="36.68"/><rect class="cls-18" x="309.06" y="230.11" width="39.24" height="38.39"/><rect class="cls-19" x="309.06" y="230.96" width="38.39" height="36.68"/><rect class="cls-20" x="623.82" y="364.89" width="39.24" height="38.39"/><rect class="cls-13" x="623.82" y="365.74" width="38.39" height="36.68"/><rect class="cls-21" x="692.92" y="176.37" width="39.24" height="38.39"/><rect class="cls-13" x="692.92" y="177.22" width="38.39" height="36.68"/><rect class="cls-22" x="688.65" y="297.5" width="39.24" height="38.39"/><rect class="cls-13" x="688.65" y="298.35" width="38.39" height="36.68"/><rect class="cls-23" x="718.51" y="306.03" width="39.24" height="38.39"/><rect class="cls-13" x="718.51" y="306.88" width="38.39" height="36.68"/><rect class="cls-24" x="592.26" y="351.24" width="39.24" height="38.39"/><rect class="cls-19" x="592.26" y="352.09" width="38.39" height="36.68"/><rect class="cls-25" x="596.53" y="236.08" width="39.24" height="38.39"/><rect class="cls-19" x="596.53" y="236.93" width="38.39" height="36.68"/><rect class="cls-11" x="125.67" y="243.76" width="45.21" height="22.18"/><rect class="cls-11" x="125.67" y="306.03" width="45.21" height="22.18"/><rect class="cls-11" x="125.67" y="368.3" width="45.21" height="22.18"/><rect class="cls-11" x="125.67" y="430.57" width="45.21" height="22.18"/><rect class="cls-11" x="125.67" y="492.84" width="45.21" height="22.18"/><path class="cls-26" d="M262.88,299.83c1.26-.8.76-2.95-.54-3.7s-2.91-.49-4.37-.2a1.79,1.79,0,0,0-.94-1.88v-.32a2.33,2.33,0,0,0-.51-3.31,6.7,6.7,0,0,0-4.07-.72,5.37,5.37,0,0,0-1.7-4.6,1.43,1.43,0,0,0-.94-.46c-.86,0-1.1,1.1-1.16,1.91a35.57,35.57,0,0,1-1.05,6.3l-26.53,44.36c-3,4.26,6.22-8.53,3.27-4.23a37.49,37.49,0,0,1-5.23,6.48,25.8,25.8,0,0,1-5.9,4,7,7,0,0,1-4-1.15,16,16,0,0,1-3.87-3.83,73.68,73.68,0,0,1-6.26-9.29,11.76,11.76,0,0,1-1.44-3.31c-.39-1.85,0-3.84-.72-5.57a9,9,0,0,0-1.15-1.81L193.91,316v-.53c-.21-3.59-3.13-6.37-5.85-8.74-2.32-2-4.83-4.14-7.89-4.53-1.64-.21-3.32.1-4.95-.1-1.34-.17-2.61-.68-3.94-.9a17.18,17.18,0,0,0-3.86-.08l-.54-.5a15.2,15.2,0,0,0,6.89-5.79c1.26-2,1.95-4.39,3.12-6.48,1.42-2.56,3.53-4.67,5.11-7.12,3.81-5.82,4.5-13.31,3-20.09s-5.15-12.94-9.37-18.44c-8.18-10.58-21.89-14.48-34.8-12.43-.86.13-1.71.3-2.56.48a33.56,33.56,0,0,0-6.33,2,16.34,16.34,0,0,0-6.91,5.39,12.35,12.35,0,0,0-1.2,2.24,12.7,12.7,0,0,0-.58,1.84,19.14,19.14,0,0,0-.31,5.75c0,.66.12,1.32.19,2l.13,1,.27,2c.14,1,.27,2,.36,2.95A17.71,17.71,0,0,1,124,258v.43a8.84,8.84,0,0,1-.23,1.53,6,6,0,0,1-.26.82,10.46,10.46,0,0,1-1.21,2.23,30.84,30.84,0,0,1-2.17,2.67l-.75.86c-.25.28-.49.57-.74.86a31.84,31.84,0,0,0-2.69,3.63,16.61,16.61,0,0,0-1.06,2,14.65,14.65,0,0,0-.61,1.6,13,13,0,0,0-.46,2.23,2.2,2.2,0,0,1,0,.57v.39a8.37,8.37,0,0,0,.12,1.11,9.85,9.85,0,0,0,.27,1.07,7.85,7.85,0,0,0,.43,1c0,.09.09.19.15.28l.14.28c.1.19.2.37.29.56a3.31,3.31,0,0,1,.3.85v.62a3.42,3.42,0,0,1-1.34,2.18c-.18.16-.36.31-.56.46l-.29.22-.59.44-.56.42a11.86,11.86,0,0,0-1.37,1.28A54.22,54.22,0,0,0,95.53,290a21.75,21.75,0,0,1-5.44.93,2.79,2.79,0,0,1-2.36-.93,3.1,3.1,0,0,1-.25-2.05A16.66,16.66,0,0,0,86,279.58a4.64,4.64,0,0,0-1.45-2,2.16,2.16,0,0,0-2.42-.12,20,20,0,0,1-.62,14.22,45.18,45.18,0,0,1-3.5,6.16C76,301.18,74.81,305,73,308.42,75,315,74.57,322,75.69,328.75c1,6.31,3.35,12.35,5.7,18.32,1.82,4.52,3.71,9.23,7.55,12.4a7.14,7.14,0,0,0,4.68,1.91,8.53,8.53,0,0,0,3.63-1.3,14.22,14.22,0,0,0,3.07-2.12,7.11,7.11,0,0,0,.91-1.14,4.17,4.17,0,0,0,.68,1.61c2.21-4.49,4.65-8.87,7.26-13.16a12.09,12.09,0,0,0,2.18-1.4,2.09,2.09,0,0,0,.12.46c-.11.41-.22.85-.34,1.24s-.25.79-.38,1.17l-.29.86c-.1.28-.25.68-.38,1s-.29.74-.45,1.11-.21.53-.32.78c-.29.65-.58,1.28-.91,1.91a5.24,5.24,0,0,0,.78.3l.17,0a6.25,6.25,0,0,0,.72.17h.59a5,5,0,0,0,.51.86h.74c.61-.17,1.21-.28,1.8-.45l.33,1.36a49,49,0,0,1,1.64,9.38c.16,3.59-.46,7.23.23,10.75.35,1.84,1.06,3.59,1.31,5.43a22.78,22.78,0,0,1-.09,5.22l-1.2,12.56a10.7,10.7,0,0,1-1.07,4.44c-.59,1-1.55,2.19-1,3.2a22,22,0,0,1,3-.57c-.37,1.33-.7,2.67-1,4a7.07,7.07,0,0,0-.24,3.1,18.79,18.79,0,0,1,.92,2.84c.16,1.53-.91,2.89-1.5,4.31-1.5,3.64.1,7.73,1.71,11.33l4.71,10.68,3.86,8.76c1.14,2.56,2.3,5.21,3.41,7.83a253.38,253.38,0,0,1,12.3,36.89,4.64,4.64,0,0,0,.64,1.6c.65.85,1.84,1.13,2.8,1.65,2.89,1.6,3.23,6.36.58,8.34.54,6.41-4.26,12.61-6.74,18.55-5.7,13.65-4.66,29.05-6.62,43.73l2.21-1.29a2.63,2.63,0,0,1,.72.47c-.05.27-.11.56-.18.85a13.39,13.39,0,0,1-1.42,3.56c-1.28,2.21-3.25,4.18-3.55,6.72a22.55,22.55,0,0,0,.43,4.61v.43a.87.87,0,0,0-1.09.18,5.47,5.47,0,0,0-1.39,2.62c-.38,1.1-.69,2.22-1,3.33l-1.14,3.94a47.31,47.31,0,0,1-2.31,7,29.43,29.43,0,0,0-2,4.71,14.8,14.8,0,0,0-.35,4,12.18,12.18,0,0,0,.55,3.84,9.56,9.56,0,0,0,5.59,5.29,26.07,26.07,0,0,0,7.76,1.47,6.35,6.35,0,0,0,2-.06,5.63,5.63,0,0,0,2-1c3.6-2.64,5.46-7.51,5.79-11.94a17.82,17.82,0,0,0-.49-2.72c.22-4.85-.49-9.73-.12-14.56.08.55.15,1.1.24,1.64l.85,5.44a1.17,1.17,0,0,0-.29-.52,12.5,12.5,0,0,0-.32,6.22,36,36,0,0,0,1.79,6l1.16,3.24a7.82,7.82,0,0,0,1.38,2.69,7.6,7.6,0,0,0,4,1.89,44.15,44.15,0,0,0,9.8,1.71,2.23,2.23,0,0,0,1.29-.24c.2-.15.39-.31.58-.48a4.84,4.84,0,0,1,.93-.55,6.2,6.2,0,0,0,3-3.56,5.64,5.64,0,0,0-.56-4.6,11.22,11.22,0,0,0-1.32-1.6l-5.83-6.18a38.8,38.8,0,0,0-2.85-3,1.07,1.07,0,0,0-.94-.31c-1.59-4-1.38-8.58-1.11-12.92.08-1.3.79-4,1.07-6.2a9.87,9.87,0,0,0,3.1-1.7,4.65,4.65,0,0,0,1.78-2.66c2.95-15,7.68-29.6,12.15-44.25.44-1.44.85-2.89,1.3-4.33.19-.62.36-1.24.54-1.86s.3-1,.45-1.51l.7-2.56c.07-.23.13-.46.2-.69v-.14c.28-1,.55-2.1.85-3.15.11-.4.22-.8.32-1.21.33-1.33.66-2.67,1-4a5.78,5.78,0,0,0,.12-.57,2.38,2.38,0,0,0-.1-1.42h0a1.58,1.58,0,0,0-.33-.48,3,3,0,0,0-.3-.32c-.1-.11-.22-.24-.32-.37a2.73,2.73,0,0,1-.35-1.12v-.87c0-.37,0-.85-.07-1.3a12.58,12.58,0,0,1,.37-1.7l.31-1c.1-.33.25-.85.39-1.24a3.16,3.16,0,0,0,.76-2.1c.52-1.32,1.09-2.62,1.71-3.88a11.86,11.86,0,0,0,1.53-4.2,16.67,16.67,0,0,0-.48-4c-.84-5.55,1.67-11,3.52-16.21a73.28,73.28,0,0,0,3.11-11.94c.55-3.12.92-6.38,2.55-9.08a14.13,14.13,0,0,0,1.38-2.42,10.19,10.19,0,0,0,.37-2.75,30.52,30.52,0,0,1,2.63-10.89,7.19,7.19,0,0,0,.69-2.13v-.35l.42-.06c.73-4.7,1.47-9.94,1-14.68a22.59,22.59,0,0,0-7.36-14.16h-.06a4.65,4.65,0,0,0,2.15-4.16,8.1,8.1,0,0,0-3-6.34,2.93,2.93,0,0,1-1-1.05,3.08,3.08,0,0,1-.13-1.38,7,7,0,0,0-4.33-6.51,1.74,1.74,0,0,1-.71-.41,1.71,1.71,0,0,1-.19-1.25,7.61,7.61,0,0,0-3.68-7,11.91,11.91,0,0,0,.16-5.53c-.52-1.79-2.2-3.41-4-3.15,1.5-4.1-.63-8.65-.07-13,.25-1.86,1-3.64,1.08-5.51.09-1.7-.33-3.53.5-5s2.78-2.65,2.28-4.27c-.21-.69-.86-1.17-1.15-1.84s.89-1.71,1.51-1.33c.29-.22.58-.45.85-.69a14,14,0,0,0,.51,2.56c.42,1.4,1.06,2.71,1.5,4.1.66,2.12.85,4.43,1.93,6.37,1.7,3.12,5.32,4.66,7.76,7.24,1.43,1.51,2.47,3.42,3.94,4.85a21.31,21.31,0,0,0,3.67,2.75l7.89,5.12a8.86,8.86,0,0,0,2.7,1.34,4.6,4.6,0,0,0,5.42-3.9h0a5.31,5.31,0,0,1-1.94-1.2.78.78,0,0,0,.34-.05,12.4,12.4,0,0,0,5.06-2.69c5.62-4.47,9.66-10.57,13.6-16.56,4.13-6.29,24-22.92,24-22.92v-6.74a24.43,24.43,0,0,0,6.63-5.64,7.33,7.33,0,0,0,1.66-4.27A3.79,3.79,0,0,0,262.88,299.83ZM97.73,315.63q-.57,3.67-1.41,7.31A69.12,69.12,0,0,1,94,331.18l-.31.86-.85-1.59c-.64-1.34-1.16-2.73-1.71-4.12l-3.29-8.87c-.43-1.15-.85-2.48-.21-3.54a4,4,0,0,1,1.87-1.41,37.69,37.69,0,0,1,7.22-2.45,18.4,18.4,0,0,0,2.32-.61,35.33,35.33,0,0,0-1.28,6.18Zm4-11.09a1.32,1.32,0,0,1,0-1.28,3,3,0,0,1,.86-.6l.24-.17c-.34.71-.72,1.39-1.1,2.08Zm6.42-9.64a17.61,17.61,0,0,0-2.63,2.69,27.9,27.9,0,0,0-2.25,3.48,2.58,2.58,0,0,0-.94-2.56,4.91,4.91,0,0,1-.85-.58,1.78,1.78,0,0,1,.35-2.5h0a5.3,5.3,0,0,1,2.66-.91l3.93-.58a9.7,9.7,0,0,0-.28,1ZM145,580a14.32,14.32,0,0,0-.23-3.52h1.45C145.83,577.57,145.42,578.77,145,580Z"/><path class="cls-27" d="M141,232.79c-6.82,1.1-14.41,3.73-17.06,10.13-2,4.83-.44,10.27.06,15.47a12.14,12.14,0,0,1-.14,4.12c-.56,2.19-2.12,4-3.62,5.66a30,30,0,0,0-5.19,7.29,10.58,10.58,0,0,0-.35,8.7,6.28,6.28,0,0,1,.85,2.29c.09,1.78-1.77,2.9-3.14,4-5.12,4.26-4.9,11.94-5,18.62a94.46,94.46,0,0,1-8.86,39.4,12,12,0,0,0,13.45-1.76,44.94,44.94,0,0,1-3,8.8c4.33,2.1,9.56-1.34,11.74-5.64s2.43-9.3,4-13.86,4.27-8.53,5.47-13.13a12.1,12.1,0,0,1,1.55-4.4,11.48,11.48,0,0,1,2.73-2.33,26.67,26.67,0,0,0,9.65-13.08c5.3,1.17,10.72,2.35,16.13,1.85S171.17,302,174,297.4c1.26-2,1.95-4.39,3.12-6.49,1.43-2.56,3.54-4.67,5.11-7.12,3.81-5.82,4.51-13.31,3-20.1s-5.11-12.93-9.38-18.43C167.67,234.65,153.94,230.72,141,232.79Z"/><path class="cls-2" d="M97.94,318.11c-.39,2.44-.86,4.88-1.4,7.29a71.66,71.66,0,0,1-2.36,8.24,7.85,7.85,0,0,0-.74,3.79,7,7,0,0,0,.91,2.25c3.12,5.54,7.33,10.88,7.68,17.23.09,1.58,0,3.29.85,4.6q3.62-7.77,8-15.15c3-5.12,6.41-10.36,7.28-16.28a30.41,30.41,0,0,0-.11-8.36c-.4-3.11-1.1-6.3-3-8.79-2.06-2.7-7.68-6.76-11.37-5.92C99.37,308,98.48,314.64,97.94,318.11Z"/><path class="cls-28" d="M207.88,348c4.08-1.67,8.24-3.42,11.47-6.42a37.27,37.27,0,0,0,5.22-6.47l9.6-13.85c2.27-3.29,4.61-6.74,5.12-10.71a35.3,35.3,0,0,0,9.58-21.79c.06-.81.34-1.87,1.15-1.9a1.47,1.47,0,0,1,.94.45,5.4,5.4,0,0,1,1.7,4.6,6.32,6.32,0,0,1,4.06.72c1.15.82,1.45,2.85.22,3.52a1.75,1.75,0,0,1,1.22,2c1.47-.29,3.08-.53,4.38.2s1.79,2.89.54,3.69a3.79,3.79,0,0,1,2.43,3.64,7.19,7.19,0,0,1-1.67,4.26c-3.68,4.95-10.18,6.95-14.45,11.4a34.19,34.19,0,0,0-3.77,5l-12.37,18.83c-3.93,6-8,12.09-13.58,16.54a12.47,12.47,0,0,1-5.06,2.69,5.55,5.55,0,0,1-5.31-1.48c-1.24-1.41-1.43-3.41-1.55-5.3C207.55,354.42,208.09,351.14,207.88,348Z"/><path class="cls-27" d="M166.43,609.53a9.6,9.6,0,0,1,1.32,1.6,5.61,5.61,0,0,1,.56,4.59,6.13,6.13,0,0,1-3,3.55,4.92,4.92,0,0,0-.94.55,6.82,6.82,0,0,1-.58.49,2.4,2.4,0,0,1-1.29.24,45,45,0,0,1-9.78-1.71,5.79,5.79,0,0,1-5.43-4.58L146.13,611a37.13,37.13,0,0,1-1.78-6,12.34,12.34,0,0,1,.32-6.21,2,2,0,0,1,.43,1.27,13.8,13.8,0,0,0,2.49,6,6.06,6.06,0,0,0,1,1.22,6.22,6.22,0,0,0,2.91,1.22,35.91,35.91,0,0,0,6.19.79,1.69,1.69,0,0,0,.86-.1,1.51,1.51,0,0,0,.7-.85,3.75,3.75,0,0,0,0-2.56c-.56-1.58-2.1-2.61-2.84-4.11-.55-1.11.21-2.33,1.33-1.39a35.46,35.46,0,0,1,2.86,3Z"/><path class="cls-28" d="M155.71,587.12c-.33,5.21-.56,10.84,2.29,15.22,1,1.57,2.4,2.89,3.57,4.37a5.21,5.21,0,0,1,1.28,2.63c.16,1.91-1.63,3.55-3.52,3.91a11.24,11.24,0,0,1-5.63-.86,13.51,13.51,0,0,1-4.79-2.25c-2.48-2.1-3.14-5.59-3.63-8.8l-1.16-7.46a17.86,17.86,0,0,1,1-11.26l1.92-5.59a2.54,2.54,0,0,1,.85-1.39,2.31,2.31,0,0,1,1.46-.27c1.82.09,6.44.75,7.32,2.69C157.48,579.74,155.84,585.12,155.71,587.12Z"/><path class="cls-29" d="M155.71,587.12c-.33,5.21-.56,10.84,2.29,15.22,1,1.57,2.4,2.89,3.57,4.37a5.21,5.21,0,0,1,1.28,2.63c.16,1.91-1.63,3.55-3.52,3.91a11.24,11.24,0,0,1-5.63-.86,13.51,13.51,0,0,1-4.79-2.25c-2.48-2.1-3.14-5.59-3.63-8.8l-1.16-7.46a17.86,17.86,0,0,1,1-11.26l1.92-5.59a2.54,2.54,0,0,1,.85-1.39,2.31,2.31,0,0,1,1.46-.27c1.82.09,6.44.75,7.32,2.69C157.48,579.74,155.84,585.12,155.71,587.12Z"/><path class="cls-27" d="M196.71,432.63a.38.38,0,0,1,0,.15,6.2,6.2,0,0,1-.7,2.1,30.34,30.34,0,0,0-2.69,10.87,9.46,9.46,0,0,1-.38,2.75,13.17,13.17,0,0,1-1.4,2.41c-1.66,2.71-2,6-2.6,9.07a70.66,70.66,0,0,1-3.17,11.89c-1.9,5.27-4.46,10.66-3.59,16.21a16.68,16.68,0,0,1,.49,4,11.43,11.43,0,0,1-1.56,4.19,39.3,39.3,0,0,0-1.7,3.88c-.56,1.42-1,2.87-1.49,4.33-.51,1.79-.85,3.9.33,5.34a6.65,6.65,0,0,1,1,1.16,3.17,3.17,0,0,1,0,2q-1,4.26-2.17,8.53c-.59,2.21-1.23,4.42-1.87,6.62-4.8,16.09-10.24,32-13.45,48.52-.46,2.37-3.5,4.06-5.86,4.58a7.65,7.65,0,0,1-6.74-1.8c-.16-.14-.31-.3-.46-.46-2.47-2.66-2.84-6.74-2.65-10.43.85-17,9.38-32.5,13.44-49a94.6,94.6,0,0,0,2.65-18.18c1-20.47,1.33-42.12-4.46-61.8-1.21-4.1-2.63-8.72-.46-12.39,1.36-2.32,3.89-3.69,6.4-4.68a41.22,41.22,0,0,1,32,.85c0,.41,0,.82,0,1.23a12.61,12.61,0,0,0,.64,5.65A7.1,7.1,0,0,1,196.71,432.63Z"/><path class="cls-27" d="M126.58,592.37l-1.08,3.94a44.36,44.36,0,0,1-2.31,6.93,30.18,30.18,0,0,0-2,4.71,14.12,14.12,0,0,0-.35,4,11.8,11.8,0,0,0,.55,3.83,9.51,9.51,0,0,0,5.58,5.29,26,26,0,0,0,7.76,1.46,6.07,6.07,0,0,0,2-.05,5.63,5.63,0,0,0,2-1c3.6-2.64,5.45-7.5,5.78-11.94a15.22,15.22,0,0,0-.61-3.06c-.28-.37-3,1.16-1.83,2.45,1.7,1.89-3.32.91-5.88.75a22.16,22.16,0,0,1-3.34-.55l-4.14-.85c-1.36-.29-2.92-.76-3.41-2s.56-2.85,1.38-4.12c2.16-3.35,2.73-7.45,3.23-11.41.09-.77,1.07-5.82-.94-4.26a5.56,5.56,0,0,0-1.39,2.62C127.18,590.13,126.88,591.25,126.58,592.37Z"/><path class="cls-29" d="M178.2,509.8c-1.17-1.43-.85-3.54-.31-5.33.19-.66.4-1.32.62-2L162.23,497c0,1.47-.12,2.92-.19,4.37a94.79,94.79,0,0,1-2.64,18.2c-4.07,16.48-12.6,32-13.44,49-.2,3.9.22,8.27,3.11,10.9a7.73,7.73,0,0,0,6.73,1.81c2.37-.52,5.4-2.23,5.87-4.6,3.23-16.49,8.64-32.42,13.45-48.53q2.24-7.5,4-15.11a3.14,3.14,0,0,0,0-2A6,6,0,0,0,178.2,509.8Z"/><path class="cls-28" d="M133.23,574.49c-1.29,2.21-3.25,4.18-3.55,6.72-.17,1.53.29,3.06.29,4.61a15.09,15.09,0,0,1-.68,3.76q-2.37,8.58-5.47,16.94a4.69,4.69,0,0,0-.44,2.3c.21,1.31,1.48,2.17,2.69,2.69,3.88,1.65,8.25,1.54,12.46,1.37A6.53,6.53,0,0,0,142,612c1.51-1,1.88-3.07,2-4.9.29-5.29-.6-10.6,0-15.86.22-1.91.62-3.8.92-5.7a16.59,16.59,0,0,0-.24-8,18.19,18.19,0,0,0-3-5,15.9,15.9,0,0,0-4.13-4.13c-.5-.29-1.91-1.19-2.41-.63-.26.29-.14,1.07-.18,1.43a12.94,12.94,0,0,1-.29,1.63A13.35,13.35,0,0,1,133.23,574.49Z"/><path class="cls-29" d="M164.5,439.29a4.47,4.47,0,0,0-.29,3.71c.53,2.26,1.44,4.41,2.17,6.61a91,91,0,0,1,2.8,12c.68,3.66,2.13,7.75,1.54,11.44a81.44,81.44,0,0,1,8.64,27.14c.34,2.43-5.06,5.57-5,8,.2,4.88,4.09,5.27,1.23,9.16-.15.19,1.07,4.55.91,4.74-1.17,1.41-2.65,2.56-3.91,3.85a29.92,29.92,0,0,0-4.12,6c-7.42,13.41-18.15,28.61-14.84,43.58a2.67,2.67,0,0,1-1.42,2.69,7.36,7.36,0,0,1-3.13.72h-.52c-2.47-2.66-2.84-6.75-2.65-10.43.85-17,9.38-32.5,13.44-49A94.59,94.59,0,0,0,162,501.38c1-20.47,1.33-42.12-4.46-61.8-1.21-4.09-2.63-8.71-.46-12.38,1.36-2.32,3.9-3.7,6.4-4.69a41.26,41.26,0,0,1,32,.86c0,.41,0,.82,0,1.23a12.58,12.58,0,0,0,.64,5.64,7.05,7.05,0,0,1,.64,2.46s.29-3.3.28-3.25c-6.61.95-13.58,5.27-20.25,6.25a47.06,47.06,0,0,0-10.16,2.24A4.59,4.59,0,0,0,164.5,439.29Z"/><path class="cls-27" d="M118.45,402.91q-1.33,4.27-2.36,8.62a7.07,7.07,0,0,0-.24,3.1,21.21,21.21,0,0,1,.92,2.83c.15,1.53-.91,2.89-1.5,4.31-1.5,3.63.1,7.72,1.7,11.31l4.71,10.67,3.88,8.75c1.15,2.6,2.29,5.2,3.41,7.82a254.34,254.34,0,0,1,12.29,36.84,4.67,4.67,0,0,0,.63,1.61c.66.85,1.84,1.12,2.8,1.65a5.22,5.22,0,0,1,.58,8.33c.54,6.4-4.27,12.59-6.73,18.52-5.7,13.65-4.67,29-6.62,43.68l2.21-1.3c2.12,1,2.05,4,3.19,6,1.7,3.07,5.9,3.49,9.38,3.26a7.18,7.18,0,0,0,3.13-.72,2.66,2.66,0,0,0,1.42-2.69c-3.3-15,7.42-30.17,14.85-43.58a29.47,29.47,0,0,1,4.11-6c1.26-1.33,2.74-2.45,3.92-3.85,3.27-3.93,3.69-9.48,3.47-14.59A81.7,81.7,0,0,0,168.3,473c.6-3.69-.85-7.77-1.54-11.44a88.21,88.21,0,0,0-2.82-12c-.73-2.21-1.63-4.36-2.17-6.61a4.56,4.56,0,0,1,.29-3.72,4.71,4.71,0,0,1,2.1-1.35,47.19,47.19,0,0,1,10.16-2.24l22.89-3.28c.73-4.7,1.48-9.94,1-14.66A22.53,22.53,0,0,0,182,398.84a3.44,3.44,0,0,0-3,.19A119.23,119.23,0,0,0,118.45,402.91Z"/><path class="cls-28" d="M139.2,279.3a11.24,11.24,0,0,1-1,6.56,10.49,10.49,0,0,1-2.56,2.87,19.57,19.57,0,0,1-7.54,3.74c-1.62.41-3.42.69-4.52,2-1.6,1.93-.53,4.87.86,7,2.37,3.69,5.66,7,9.88,8.17,3.42.92,7,.36,10.42,1,2.5.43,4.85,1.47,7.32,2.05a21.63,21.63,0,0,0,19.85-5.53c-3.67-2.82-7.48-5.81-9.39-10a14.27,14.27,0,0,1-.71-9.59c.85-3.12,2.85-6.16,2.24-9.39s-3.75-5.38-6.82-6.45a44.77,44.77,0,0,0-8.65-1.72c-1.62-.22-11.85-2.48-12.49-1.36-.36.63,1.76,4.37,2,5.19A20,20,0,0,1,139.2,279.3Z"/><circle class="cls-28" cx="152.11" cy="266.01" r="20.76"/><path class="cls-2" d="M141.14,300.44l14.08,2.37a52.37,52.37,0,0,0,10.52,1.06,29.58,29.58,0,0,1,5.8,0c1.33.22,2.6.73,3.93.9,1.65.2,3.32-.12,5,.1,3.05.39,5.57,2.51,7.89,4.53,2.72,2.37,5.65,5.12,5.86,8.74a2.62,2.62,0,0,1-.17,1.21,3.53,3.53,0,0,1-1.05,1.09c-2.56,2.13-4,5.29-5.88,8.09a31.2,31.2,0,0,1-7,7.55c-.62-.39-1.79.64-1.52,1.32s.94,1.15,1.16,1.84c.5,1.6-1.47,2.78-2.29,4.27s-.4,3.31-.48,5c-.11,1.86-.86,3.65-1.09,5.5-.57,4.32,1.57,8.88.06,13,1.85-.23,3.53,1.37,4.05,3.15a11.92,11.92,0,0,1-.17,5.53,7.58,7.58,0,0,1,3.69,6.94,1.19,1.19,0,0,0,.61,1.58l.24.08a7,7,0,0,1,4.33,6.51,3.23,3.23,0,0,0,.12,1.38,3.2,3.2,0,0,0,1,1.05,8.07,8.07,0,0,1,3,6.33,4.57,4.57,0,0,1-2.14,4.15c-3,1.52-6.19,2.11-9.46,2.82a83.85,83.85,0,0,1-9.15,1.62,83.81,83.81,0,0,1-8.53.27l-18.84-.08c-5.3,0-10.59,0-15.87-.4-4.93-.33-10-1-14.75.35-.6-1,.36-2.18,1-3.2a10.62,10.62,0,0,0,1.07-4.43l1.19-12.55a23.2,23.2,0,0,0,.1-5.2c-.26-1.86-1-3.6-1.32-5.44-.68-3.51-.06-7.15-.22-10.73a49,49,0,0,0-1.64-9.38L110.5,342c-.6-2.46-.91-5.33-1.83-7.67q-4.32-11.1-9-21.94a2.34,2.34,0,0,1,.17-1.95l3.12-5.58a34.54,34.54,0,0,1,2.85-4.54,17.9,17.9,0,0,1,10.5-6.45,18.53,18.53,0,0,1,12.23,1.81c1.45.77,2.8,1.7,4.26,2.47C135.28,299.32,138.35,300.63,141.14,300.44Z"/><path class="cls-2" d="M191.11,314l4.9,6.55a9,9,0,0,1,1.15,1.81c.73,1.7.33,3.71.72,5.55a11.94,11.94,0,0,0,1.44,3.32,75.14,75.14,0,0,0,6.24,9.27,16.22,16.22,0,0,0,3.88,3.83,6.4,6.4,0,0,0,5.22.93,3.24,3.24,0,0,0-1.71,1.55A19.09,19.09,0,0,0,211.74,359a12.4,12.4,0,0,0,1.37,4,5.92,5.92,0,0,0,3.12,2.71,4.59,4.59,0,0,1-5.16,3.93l-.26,0a9,9,0,0,1-2.68-1.34l-7.89-5.12a21.81,21.81,0,0,1-3.66-2.76c-1.48-1.46-2.5-3.32-3.94-4.83-2.44-2.56-6-4.13-7.74-7.24-1.08-1.94-1.27-4.26-1.94-6.36-.43-1.39-1.07-2.7-1.49-4.1-1.3-4.32-.36-9,1.61-13.1S188.19,317.45,191.11,314Z"/><path class="cls-27" d="M172.62,254.17a27.51,27.51,0,0,0-7.3-7.6c-3.88-2.89-8.34-5.29-13.18-5.57a14.25,14.25,0,0,0-5.92,1c-.1-5.86-1.55-9.77-5.22-9.18-6.82,1.1-14.41,3.73-17.06,10.13-2,4.83-.44,10.27.06,15.47a12.14,12.14,0,0,1-.14,4.12c-.56,2.19-2.12,4-3.62,5.66a30,30,0,0,0-5.19,7.29,10.58,10.58,0,0,0-.35,8.7,6.28,6.28,0,0,1,.85,2.29c.09,1.78-1.77,2.9-3.14,4-5.12,4.26-4.9,11.94-5,18.62a94.46,94.46,0,0,1-8.86,39.4,12,12,0,0,0,13.45-1.76,44.94,44.94,0,0,1-3,8.8c4.33,2.1,9.56-1.34,11.74-5.64s2.43-9.3,4-13.86,4.27-8.53,5.47-13.13a12.1,12.1,0,0,1,1.55-4.4,11.48,11.48,0,0,1,2.73-2.33c4.47-3.21-2.11-27.51-.37-32.73,2.56.57,7.38-11.94,10.1-24.74a12.8,12.8,0,0,0,5.92.59,7.42,7.42,0,0,1,2.1-.15,5.32,5.32,0,0,1,1.84.76,48,48,0,0,0,6.3,3.23c4.5,1.7,9.45,1.46,14.25,1.22A14.19,14.19,0,0,0,172.62,254.17Z"/><g class="cls-30"><path d="M101,348.51A94.22,94.22,0,0,0,110,309.14c0-6.65-.18-14.38,4.94-18.62,1.37-1.13,3.23-2.26,3.14-4a6.33,6.33,0,0,0-.85-2.3c-1.27-2.71-.85-6,.34-8.7a29.94,29.94,0,0,1,5.2-7.28c1.5-1.71,3.06-3.47,3.61-5.67a12.13,12.13,0,0,0,.16-4.12c-.52-5.19-2-10.63-.06-15.47,2.55-6.19,9.71-8.85,16.36-10a3.87,3.87,0,0,0-1.79-.12c-6.82,1.1-14.41,3.73-17.06,10.13-2,4.84-.44,10.28.06,15.47a12.13,12.13,0,0,1-.14,4.12c-.56,2.2-2.12,4-3.62,5.67a29.9,29.9,0,0,0-5.19,7.28,10.58,10.58,0,0,0-.35,8.7,6.27,6.27,0,0,1,.85,2.3c.09,1.77-1.77,2.9-3.14,4-5.12,4.27-4.9,11.94-5,18.62a94.32,94.32,0,0,1-8.86,39.37,11.67,11.67,0,0,0,6.59,1.24A11.21,11.21,0,0,1,101,348.51Z"/><path d="M111.44,355.52a44.88,44.88,0,0,0,3-8.8,11.54,11.54,0,0,1-3,1.95,45.87,45.87,0,0,1-2.56,6.82,6.44,6.44,0,0,0,4,.52A6.21,6.21,0,0,1,111.44,355.52Z"/><path d="M148.66,242.12a14.47,14.47,0,0,1,4-.92h-.47a14.18,14.18,0,0,0-3.5.26C148.65,241.65,148.66,241.88,148.66,242.12Z"/><path d="M162.79,263.12a45,45,0,0,1-6.29-3.23,5.35,5.35,0,0,0-1.85-.75,6.28,6.28,0,0,0-1.93.12,7.72,7.72,0,0,1,1.33.63,45.64,45.64,0,0,0,6.3,3.23,28.26,28.26,0,0,0,10.53,1.37A24.46,24.46,0,0,1,162.79,263.12Z"/><path d="M146.63,258.7a2.34,2.34,0,0,1-.12.56,12.79,12.79,0,0,0,3.09.08A13.81,13.81,0,0,1,146.63,258.7Z"/></g><path class="cls-28" d="M103.42,355a7.64,7.64,0,0,1-2,6.07,13.12,13.12,0,0,1-2.89,2.12,7.68,7.68,0,0,1-3.41,1.29,6.49,6.49,0,0,1-4.39-1.9c-3.61-3.18-5.42-7.88-7.09-12.39-2.21-6-4.41-12-5.36-18.3-1-6.76-.58-13.75-2.52-20.31,1.71-3.42,2.82-7.22,4.77-10.53a49.15,49.15,0,0,0,3.29-6.16,21.34,21.34,0,0,0,.58-14.21,1.92,1.92,0,0,1,2.27.12,4.64,4.64,0,0,1,1.36,2,17.58,17.58,0,0,1,1.37,8.35,3.19,3.19,0,0,0,.23,2,2.56,2.56,0,0,0,2.21.94,20.27,20.27,0,0,0,5.12-.93,47.44,47.44,0,0,1,15.79-1.31,7.63,7.63,0,0,1,3.08.75,2.9,2.9,0,0,1,1.59,2.56L104.74,297a5.14,5.14,0,0,0-2.65.91,1.77,1.77,0,0,0-.36,2.49,5.32,5.32,0,0,0,.85.58,2.57,2.57,0,0,1,.5,3.59,2.71,2.71,0,0,1-.6.57,3,3,0,0,0-.85.6c-.51.69.17,1.6.39,2.44a3.06,3.06,0,0,1-1.52,3.14A10.4,10.4,0,0,1,97,312.53,37.6,37.6,0,0,0,89.77,315a4,4,0,0,0-1.87,1.4c-.63,1.06-.22,2.39.21,3.54l3.29,8.86a37.68,37.68,0,0,0,1.71,4.12c.85,1.7,1.87,3.36,2.73,5.12a52.61,52.61,0,0,1,2,5C99.54,347.49,102.86,350.21,103.42,355Z"/><rect class="cls-31" x="217.79" y="297.5" width="39.24" height="38.39"/><rect class="cls-13" x="217.79" y="298.35" width="38.39" height="36.68"/><path class="cls-28" d="M249.43,295.3a3.9,3.9,0,0,0-1.44,2.11.84.84,0,0,0,.33.95,1,1,0,0,0,.58,0,5.46,5.46,0,0,0,2.56-1.2,2.5,2.5,0,0,0-.76.61.86.86,0,0,0-.1.92,1.19,1.19,0,0,0,.85.44,8.23,8.23,0,0,0,3.66-.17,5.06,5.06,0,0,0-1.52.89,2.07,2.07,0,0,0-.69,1.58.78.78,0,0,0,.27.59,1.07,1.07,0,0,0,.41.15,10.33,10.33,0,0,0,3.42,0,1.76,1.76,0,0,0,1.43-.86,2.12,2.12,0,0,0-.33-1.64,9.24,9.24,0,0,1-.86-4.17,1.55,1.55,0,0,0-.12-.85,1.46,1.46,0,0,0-.76-.55c-1.2-.53-2.84-1.27-4.18-.86A8.83,8.83,0,0,0,249.43,295.3Z"/></g></g></svg>