<svg xmlns="http://www.w3.org/2000/svg" viewBox="0 0 340.54 364.38"><defs><style>.cls-1{fill:#f5f5f5;}.cls-2{fill:#ccc;}</style></defs><g id="レイヤー_2" data-name="レイヤー 2"><g id="a6a3afa7-c5e3-4bb7-8d5f-b359f5b682fe"><circle class="cls-1" cx="232.42" cy="105.71" r="73.93"/><path class="cls-2" d="M232.25,37.44c.8,0,1.61,0,2.43.05a68.84,68.84,0,0,1-2.35,137.63c-.81,0-1.62,0-2.43,0a68.84,68.84,0,0,1,2.35-137.64m0-17v0a85.84,85.84,0,0,0-2.94,171.63c1,0,2,.05,3,.05A85.84,85.84,0,0,0,235.27,20.5C234.26,20.46,233.25,20.44,232.25,20.44Z"/><rect class="cls-2" x="222.36" y="0.87" width="21.18" height="20.12" transform="translate(213.94 243.36) rotate(-88.01)"/><rect class="cls-2" x="271.02" y="14.82" width="21.18" height="20.12" transform="translate(107.41 247.55) rotate(-57.01)"/><rect class="cls-2" x="305.11" y="50.39" width="21.18" height="20.12" transform="translate(6.99 149.98) rotate(-27.01)"/><rect class="cls-2" x="302.76" y="146.43" width="20.12" height="21.18" transform="matrix(0.56, -0.83, 0.83, 0.56, 7.75, 328.62)"/><rect class="cls-2" x="142.19" y="44.18" width="20.12" height="21.18" transform="matrix(0.51, -0.86, 0.86, 0.51, 26.91, 157.1)"/><rect class="cls-2" x="137.85" y="141.25" width="21.18" height="20.12" transform="translate(-55.78 94.53) rotate(-30.01)"/><rect class="cls-2" x="178.67" y="11.07" width="20.12" height="21.18" transform="translate(13.18 94.25) rotate(-29.01)"/><rect class="cls-2" x="215.75" y="191.39" width="21.18" height="20.12" transform="translate(17.16 420.66) rotate(-88.01)"/><rect class="cls-2" x="265.79" y="180.32" width="20.12" height="21.18" transform="translate(-57.98 157.74) rotate(-29.01)"/><rect class="cls-2" x="172.38" y="177.62" width="21.18" height="20.12" transform="translate(-74.08 238.97) rotate(-57.01)"/><rect class="cls-2" x="127.48" y="91.31" width="18" height="24.36" transform="translate(28.32 236.3) rotate(-88.01)"/><rect class="cls-2" x="319.06" y="97.96" width="18" height="24.36" transform="translate(206.61 434.18) rotate(-88.01)"/><circle class="cls-1" cx="108.42" cy="257.71" r="73.93"/><path class="cls-2" d="M108.25,189.44c.8,0,1.61,0,2.43.05a68.84,68.84,0,0,1-2.35,137.63c-.81,0-1.62,0-2.43,0a68.84,68.84,0,0,1,2.35-137.64m0-17v0a85.84,85.84,0,0,0-2.94,171.63c1,0,2,.05,3,.05a85.84,85.84,0,0,0,2.94-171.62C110.26,172.46,109.25,172.44,108.25,172.44Z"/><rect class="cls-2" x="98.36" y="152.87" width="21.18" height="20.12" transform="translate(-57.66 266.17) rotate(-88.01)"/><rect class="cls-2" x="147.02" y="166.82" width="21.18" height="20.12" transform="translate(-76.57 212.78) rotate(-57.01)"/><rect class="cls-2" x="181.11" y="202.39" width="21.18" height="20.12" transform="translate(-75.58 110.24) rotate(-27.01)"/><rect class="cls-2" x="178.76" y="298.43" width="20.12" height="21.18" transform="matrix(0.56, -0.83, 0.83, 0.56, -172.96, 292.83)"/><rect class="cls-2" x="18.19" y="196.18" width="20.12" height="21.18" transform="matrix(0.51, -0.86, 0.86, 0.51, -163.55, 124.53)"/><rect class="cls-2" x="13.85" y="293.25" width="21.18" height="20.12" transform="translate(-148.43 52.89) rotate(-30.01)"/><rect class="cls-2" x="54.67" y="163.07" width="20.12" height="21.18" transform="translate(-76.1 53.18) rotate(-29.01)"/><rect class="cls-2" x="91.75" y="343.39" width="21.18" height="20.12" transform="translate(-254.45 443.46) rotate(-88.01)"/><rect class="cls-2" x="141.79" y="332.32" width="20.12" height="21.18" transform="translate(-147.25 116.67) rotate(-29.01)"/><rect class="cls-2" x="48.38" y="329.62" width="21.18" height="20.12" transform="translate(-258.06 204.2) rotate(-57.01)"/><rect class="cls-2" x="3.48" y="243.31" width="18" height="24.36" transform="translate(-243.28 259.1) rotate(-88.01)"/><rect class="cls-2" x="195.06" y="249.96" width="18" height="24.36" transform="translate(-65 456.98) rotate(-88.01)"/></g></g></svg>