<svg xmlns="http://www.w3.org/2000/svg" viewBox="0 0 279.28 273.92"><defs><style>.cls-1{fill:#f5f5f5;}.cls-2{fill:#ccc;}</style></defs><g id="レイヤー_2" data-name="レイヤー 2"><g id="a6a3afa7-c5e3-4bb7-8d5f-b359f5b682fe"><circle class="cls-1" cx="139.83" cy="136.34" r="95.35"/><path class="cls-2" d="M139.61,48.29c1,0,2.09,0,3.13.06a88.78,88.78,0,0,1-3,177.51c-1,0-2.09,0-3.14-.05a88.79,88.79,0,0,1,3-177.52m0-21.92v0a110.71,110.71,0,0,0-3.79,221.35c1.3,0,2.61.07,3.9.07A110.71,110.71,0,0,0,143.5,26.43C142.21,26.39,140.9,26.37,139.61,26.37Z"/><rect class="cls-2" x="126.86" y="1.12" width="27.32" height="25.95" transform="translate(121.55 154.04) rotate(-88.01)"/><rect class="cls-2" x="189.62" y="19.12" width="27.32" height="25.95" transform="translate(65.68 185.12) rotate(-57.01)"/><rect class="cls-2" x="233.59" y="64.98" width="27.32" height="25.95" transform="translate(-8.44 120.8) rotate(-27.01)"/><rect class="cls-2" x="230.55" y="188.85" width="25.95" height="27.32" transform="translate(-60.52 291.22) rotate(-56.01)"/><rect class="cls-2" x="23.46" y="56.98" width="25.95" height="27.32" transform="translate(-42.88 65.51) rotate(-59.01)"/><rect class="cls-2" x="17.86" y="182.18" width="27.32" height="25.95" transform="translate(-93.38 41.93) rotate(-30.01)"/><rect class="cls-2" x="70.51" y="14.27" width="25.95" height="27.32" transform="translate(-3.07 43.99) rotate(-29.01)"/><rect class="cls-2" x="118.33" y="246.84" width="27.32" height="25.95" transform="translate(-132.25 382.71) rotate(-88.01)"/><rect class="cls-2" x="182.87" y="232.56" width="25.95" height="27.32" transform="translate(-94.84 125.88) rotate(-29.01)"/><rect class="cls-2" x="62.39" y="229.09" width="27.32" height="25.95" transform="translate(-168.39 174.06) rotate(-57.01)"/><rect class="cls-2" x="4.49" y="117.76" width="23.22" height="31.42" transform="translate(-117.85 144.93) rotate(-88.01)"/><rect class="cls-2" x="251.57" y="126.34" width="23.22" height="31.42" transform="translate(112.09 400.14) rotate(-88.01)"/></g></g></svg>