<?xml version="1.0" encoding="utf-8"?>
<!-- Generator: Adobe Illustrator 24.1.0, SVG Export Plug-In . SVG Version: 6.00 Build 0)  -->
<svg version="1.1" id="レイヤー_1" xmlns="http://www.w3.org/2000/svg" xmlns:xlink="http://www.w3.org/1999/xlink" x="0px"
	 y="0px" viewBox="0 0 708.7 484.7" style="enable-background:new 0 0 708.7 484.7;" xml:space="preserve">
<style type="text/css">
	.st0{fill:#3F3D56;}
	.st1{fill:#9800BF;}
	.st2{fill:#D0CDE1;}
	.st3{fill:#FFB9B9;}
	.st4{fill:#2F2E41;}
	.st5{fill:#575A89;}
	.st6{fill:#CFCCE0;}
</style>
<g id="レイヤー_2_1_">
	<g id="レイヤー_2-2">
		<polygon class="st0" points="641.7,175.4 512.8,425.3 183.5,363.2 182.9,363.1 164.2,359.6 80.3,343.8 61,340.1 87.7,285.8 
			92.2,276.7 96.4,268.1 96.8,267.3 103.9,252.9 133.8,191.9 135.3,188.9 137.4,184.6 137.9,183.6 139,181.5 145,169.1 156,146.9 
			157.9,143 166.5,125.4 198.9,59.4 		"/>
		<path class="st1" d="M345.5,157.8c-30.3-30.5-79.6-30.7-110.2-0.4s-30.7,79.6-0.4,110.2c0.2,0.2,0.4,0.4,0.5,0.5l110.3,110.1
			l110.1-110.3c30.3-30.6,30-79.9-0.6-110.2C424.8,127.6,375.9,127.6,345.5,157.8L345.5,157.8z"/>
		<polygon class="st2" points="487.3,270.6 486.6,269.8 488.5,267.9 486.6,265.9 487.3,265.2 490,267.9 		"/>
		<path class="st2" d="M386.5,371.6l-0.8-0.8l4.6-4.6l0.8,0.8L386.5,371.6z M395.6,362.5l-0.8-0.8l4.6-4.6l0.8,0.8L395.6,362.5z
			 M404.8,353.3l-0.8-0.8l4.6-4.6l0.8,0.8L404.8,353.3z M414,344.1l-0.8-0.8l4.6-4.6l0.8,0.8L414,344.1z M423.1,334.9l-0.8-0.8
			l4.6-4.6l0.8,0.8L423.1,334.9z M432.3,325.7l-0.8-0.8l4.6-4.6l0.8,0.8L432.3,325.7z M441.5,316.5l-0.8-0.8l4.6-4.6l0.8,0.8
			L441.5,316.5z M450.6,307.3l-0.8-0.8l4.6-4.6l0.8,0.8L450.6,307.3z M459.8,298.1l-0.8-0.7l4.6-4.6l0.8,0.8L459.8,298.1z M469,289
			l-0.8-0.8l4.6-4.6l0.8,0.8L469,289z M478.2,279.8l-0.8-0.8l4.6-4.6l0.8,0.8L478.2,279.8z"/>
		<polygon class="st2" points="379.2,378.9 376.5,376.2 377.2,375.5 379.2,377.4 381.1,375.5 381.9,376.2 		"/>
		<path class="st2" d="M371.9,371.7l-4.6-4.6l0.8-0.8l4.6,4.6L371.9,371.7z M362.7,362.5l-4.6-4.6l0.8-0.8l4.6,4.6L362.7,362.5z
			 M353.5,353.3l-4.6-4.6l0.8-0.8l4.6,4.6L353.5,353.3z M344.3,344.1l-4.6-4.6l0.8-0.8l4.6,4.6L344.3,344.1z M335.1,335l-4.6-4.6
			l0.8-0.8l4.6,4.6L335.1,335z M325.9,325.8l-4.6-4.6l0.8-0.8l4.6,4.6L325.9,325.8z M316.8,316.6l-4.6-4.6l0.8-0.8l4.6,4.6
			L316.8,316.6z M307.6,307.5l-4.5-4.6l0.8-0.8l4.6,4.6L307.6,307.5z M298.4,298.3l-4.6-4.6l0.8-0.8l4.6,4.6L298.4,298.3z
			 M289.2,289.1l-4.6-4.6l0.8-0.8l4.6,4.6L289.2,289.1z M280,280l-4.6-4.6l0.8-0.8l4.6,4.6L280,280z"/>
		<polygon class="st2" points="270.8,270.8 268.1,268.1 270.8,265.4 271.6,266.2 269.7,268.1 271.6,270 		"/>
		<path class="st2" d="M276.2,261.6l-0.8-0.8l4.6-4.6l0.8,0.8L276.2,261.6z M285.3,252.4l-0.8-0.8l4.6-4.6l0.8,0.8L285.3,252.4z
			 M294.5,243.2l-0.8-0.8l4.6-4.6l0.8,0.8L294.5,243.2z M303.7,234l-0.8-0.8l4.6-4.6l0.8,0.8L303.7,234z M312.9,224.8l-0.8-0.8
			l4.6-4.6l0.8,0.8L312.9,224.8z M322,215.6l-0.8-0.8l4.6-4.6l0.8,0.8L322,215.6z M331.2,206.4l-0.8-0.8l4.6-4.6l0.8,0.8
			L331.2,206.4z M340.4,197.2l-0.8-0.8l4.6-4.6l0.8,0.8L340.4,197.2z M349.5,188.1l-0.8-0.8l4.6-4.6l0.8,0.8L349.5,188.1z
			 M358.7,178.9l-0.8-0.8l4.6-4.6l0.8,0.8L358.7,178.9z M367.9,169.7l-0.8-0.8l4.6-4.6l0.8,0.8L367.9,169.7z"/>
		<polygon class="st2" points="380.9,160.5 379,158.6 377,160.5 376.3,159.7 379,157 381.7,159.7 		"/>
		<path class="st2" d="M482,261.4l-4.6-4.6l0.8-0.8l4.6,4.6L482,261.4z M472.8,252.2l-4.6-4.6l0.8-0.8l4.6,4.6L472.8,252.2z
			 M463.6,243.1l-4.6-4.7l0.8-0.8l4.6,4.6L463.6,243.1z M454.4,233.9l-4.6-4.6l0.8-0.8l4.6,4.6L454.4,233.9z M445.2,224.7l-4.6-4.6
			l0.8-0.8l4.6,4.6L445.2,224.7z M436,215.5l-4.6-4.6l0.8-0.8l4.6,4.6L436,215.5z M426.8,206.3l-4.6-4.6l0.8-0.8l4.6,4.6
			L426.8,206.3z M417.6,197.2l-4.6-4.6l0.8-0.8l4.6,4.6L417.6,197.2z M408.5,188l-4.6-4.6l0.8-0.8l4.6,4.6L408.5,188z M399.3,178.8
			l-4.6-4.6l0.8-0.8l4.6,4.6L399.3,178.8z M390.1,169.7l-4.6-4.6l0.8-0.8l4.6,4.6L390.1,169.7z"/>
		<path class="st2" d="M322.4,291.4c-2.2,0-4.5-0.2-6.6-0.4l0.1-1.1c2.2,0.2,4.4,0.4,6.5,0.4L322.4,291.4z M329,291.3l-0.1-1.1
			c2.2-0.1,4.4-0.4,6.5-0.7l0.2,1.1C333.4,290.9,331.2,291.1,329,291.3L329,291.3z M309.1,290c-2.2-0.4-4.4-0.9-6.5-1.5l0.3-1.1
			c2.1,0.6,4.2,1.1,6.4,1.5L309.1,290z M342.1,289.3l-0.3-1.1c2.1-0.5,4.2-1.1,6.3-1.8l0.4,1C346.5,288.1,344.3,288.7,342.1,289.3
			L342.1,289.3z M296.3,286.4c-2.1-0.8-4.1-1.6-6.1-2.6l0.5-1c2,0.9,4,1.8,6,2.6L296.3,286.4z M354.8,285.1l-0.4-1
			c2-0.9,4-1.8,5.9-2.8l0.5,1C358.9,283.2,356.8,284.2,354.8,285.1L354.8,285.1z M284.3,280.7c-1.9-1.1-3.8-2.3-5.6-3.6l0.6-0.9
			c1.8,1.2,3.6,2.4,5.5,3.5L284.3,280.7z M366.6,278.8l-0.6-0.9c1.8-1.2,3.6-2.5,5.4-3.8l0.7,0.9
			C370.2,276.3,368.4,277.6,366.6,278.8L366.6,278.8z M273.4,273c-1.7-1.4-3.3-2.9-4.9-4.5l0.8-0.8c1.6,1.5,3.2,3,4.8,4.4L273.4,273
			z M377.1,270.7l-0.7-0.8c0.8-0.7,1.6-1.5,2.4-2.3s1.5-1.6,2.3-2.4l0.8,0.7c-0.8,0.8-1.5,1.6-2.3,2.4S377.9,269.9,377.1,270.7z
			 M264,263.6c-1.4-1.7-2.8-3.5-4.1-5.3l0.9-0.6c1.3,1.8,2.6,3.5,4,5.2L264,263.6z M386,260.9l-0.9-0.7c1.3-1.7,2.6-3.5,3.8-5.4
			l0.9,0.6C388.7,257.3,387.4,259.1,386,260.9L386,260.9z M256.3,252.8c-1.1-1.9-2.2-3.9-3.1-5.9l1-0.5c0.9,2,2,3.9,3.1,5.8
			L256.3,252.8z M393.3,249.7l-1-0.5c1-1.9,2-3.9,2.8-5.9l1,0.4C395.3,245.7,394.3,247.7,393.3,249.7L393.3,249.7z M250.5,240.8
			c-0.8-2.1-1.5-4.2-2.1-6.3l1-0.3c0.6,2.1,1.3,4.2,2.1,6.2L250.5,240.8z M398.5,237.4l-1-0.3c0.7-2.1,1.3-4.2,1.8-6.3l1.1,0.2
			C399.8,233.2,399.2,235.3,398.5,237.4z M246.9,227.9c-0.4-2.2-0.8-4.4-1-6.6l1.1-0.1c0.2,2.2,0.6,4.4,1,6.5L246.9,227.9z
			 M401.5,224.5l-1.1-0.2c0.3-2.2,0.5-4.4,0.7-6.5l1.1,0.1C402.1,220.1,401.9,222.3,401.5,224.5L401.5,224.5z M245.5,214.7
			c0-0.6,0-1.1,0-1.7c0-1.6,0.1-3.3,0.1-5l1.1,0.1c-0.1,1.6-0.1,3.3-0.1,4.9c0,0.6,0,1.1,0,1.7L245.5,214.7z M401.3,211.2
			c0-2.2-0.2-4.4-0.4-6.6l1.1-0.1c0.2,2.2,0.4,4.4,0.4,6.6L401.3,211.2z M247.4,201.6l-1.1-0.2c0.3-2.2,0.7-4.4,1.2-6.5l1.1,0.2
			C248.1,197.3,247.7,199.4,247.4,201.6z M399.9,198.2c-0.4-2.1-0.9-4.3-1.5-6.4l1-0.3c0.6,2.1,1.1,4.3,1.5,6.5L399.9,198.2z
			 M250.4,188.8l-1-0.3c0.7-2.1,1.5-4.2,2.3-6.2l1,0.4C251.8,184.7,251.1,186.8,250.4,188.8L250.4,188.8z M396.3,185.6
			c-0.8-2-1.6-4.1-2.6-6l1-0.5c1,2,1.8,4.1,2.6,6.1L396.3,185.6z M255.5,176.8l-1-0.5c1-2,2.2-3.9,3.4-5.8l0.9,0.6
			C257.7,172.9,256.5,174.8,255.5,176.8L255.5,176.8z M390.6,173.8c-1.1-1.9-2.3-3.7-3.6-5.5l0.9-0.6c1.3,1.8,2.5,3.7,3.6,5.6
			L390.6,173.8z M262.6,165.8l-0.9-0.7c1.4-1.8,2.8-3.5,4.3-5.1l0.8,0.7C265.4,162.3,264,164,262.6,165.8L262.6,165.8z M383,163
			c-1.4-1.7-2.9-3.3-4.5-4.8l0-0.1l0.8-0.8l0.1,0.1c1.5,1.6,3.1,3.2,4.5,4.9L383,163z M271.5,156l-0.7-0.8c1.6-1.5,3.3-3,5.1-4.3
			l0.7,0.9C274.8,153.1,273.1,154.6,271.5,156L271.5,156z M373.7,153.6c-1.7-1.4-3.4-2.8-5.2-4l0.6-0.9c1.8,1.3,3.6,2.6,5.3,4.1
			L373.7,153.6z M281.8,148l-0.6-0.9c1.9-1.2,3.8-2.4,5.7-3.4l0.5,1C285.6,145.7,283.7,146.8,281.8,148L281.8,148z M363,146.1
			c-1.9-1.1-3.8-2.1-5.8-3.1l0.5-1c2,1,4,2,5.9,3.1L363,146.1z M293.4,141.8l-0.4-1c2-0.9,4.1-1.7,6.2-2.4l0.3,1
			C297.5,140.2,295.4,141,293.4,141.8L293.4,141.8z M351.1,140.5c-2-0.8-4.1-1.4-6.2-2l0.3-1c2.1,0.6,4.3,1.3,6.3,2.1L351.1,140.5z
			 M305.9,137.7l-0.3-1.1c2.1-0.5,4.4-0.9,6.5-1.3l0.2,1.1C310.2,136.7,308,137.1,305.9,137.7z M338.5,136.9c-2.1-0.4-4.3-0.7-6.5-1
			l0.1-1.1c2.2,0.2,4.4,0.6,6.6,1L338.5,136.9z M318.9,135.7l-0.1-1.1c2.2-0.2,4.5-0.2,6.7-0.2v1.1
			C323.3,135.6,321.1,135.6,318.9,135.7L318.9,135.7z"/>
		<path class="st2" d="M432.5,291.3c-2.2,0-4.4-0.2-6.6-0.4l0.1-1.1c2.2,0.2,4.4,0.4,6.5,0.4L432.5,291.3z M439.2,291.1l-0.1-1.1
			c2.2-0.1,4.4-0.4,6.5-0.7l0.2,1.1C443.6,290.7,441.4,291,439.2,291.1L439.2,291.1z M419.3,289.9c-2.2-0.4-4.4-0.9-6.5-1.5l0.3-1.1
			c2.1,0.6,4.2,1.1,6.4,1.5L419.3,289.9z M452.4,289.2l-0.2-1.1c2.1-0.5,4.2-1.1,6.3-1.8l0.3,1C456.7,288,454.5,288.6,452.4,289.2
			L452.4,289.2z M406.5,286.3c-2.1-0.8-4.1-1.6-6.1-2.6l0.5-1c2,0.9,4,1.8,6,2.6L406.5,286.3z M465,285l-0.4-1c2-0.9,4-1.8,5.9-2.8
			l0.5,1C469,283.1,467,284.1,465,285L465,285z M394.5,280.6c-1.9-1.1-3.8-2.3-5.6-3.6l0.6-0.9c1.8,1.3,3.6,2.4,5.5,3.6L394.5,280.6
			z M476.7,278.7l-0.6-0.9c1.8-1.2,3.6-2.5,5.4-3.8l0.7,0.9C480.4,276.2,478.6,277.5,476.7,278.7L476.7,278.7z M383.6,272.9
			c-1.7-1.4-3.3-2.9-4.9-4.5l0.8-0.8c1.5,1.5,3.2,3,4.8,4.4L383.6,272.9z M487.3,270.6l-0.7-0.8c0.8-0.7,1.6-1.5,2.4-2.3
			s1.5-1.6,2.3-2.4l0.8,0.7c-0.8,0.8-1.5,1.6-2.3,2.4S488.1,269.8,487.3,270.6L487.3,270.6z M374.3,263.5c-1.4-1.7-2.8-3.5-4.1-5.3
			l0.9-0.6c1.3,1.8,2.6,3.5,4,5.2L374.3,263.5z M496.3,260.7l-0.9-0.7c1.3-1.7,2.6-3.5,3.8-5.4l0.9,0.6
			C498.9,257.2,497.7,259,496.3,260.7L496.3,260.7z M366.5,252.7c-1.1-1.9-2.2-3.9-3.1-5.9l1-0.5c0.9,2,2,3.9,3.1,5.8L366.5,252.7z
			 M503.5,249.6l-1-0.5c1-1.9,2-3.9,2.8-5.9l1,0.4C505.5,245.6,504.5,247.6,503.5,249.6L503.5,249.6z M360.7,240.7
			c-0.8-2.1-1.5-4.2-2.1-6.3l1-0.3c0.6,2.1,1.3,4.2,2.1,6.2L360.7,240.7z M508.7,237.3l-1-0.3c0.7-2.1,1.3-4.2,1.8-6.3l1.1,0.2
			C510,233.1,509.4,235.2,508.7,237.3L508.7,237.3z M357.1,227.8c-0.4-2.2-0.8-4.4-1-6.6l1.1-0.1c0.2,2.2,0.6,4.4,1,6.5L357.1,227.8
			z M511.7,224.4l-1.1-0.2c0.3-2.2,0.5-4.4,0.7-6.5l1.1,0.1C512.3,220,512,222.2,511.7,224.4z M355.7,214.6c0-0.6,0-1.1,0-1.7
			c0-1.6,0-3.3,0.1-5l1.1,0.1c-0.1,1.6-0.1,3.3-0.1,4.9c0,0.6,0,1.1,0,1.7L355.7,214.6z M511.5,211.2c0-2.2-0.2-4.4-0.4-6.6l1.1-0.1
			c0.2,2.2,0.4,4.4,0.4,6.6L511.5,211.2z M357.6,201.5l-1.1-0.2c0.3-2.2,0.7-4.4,1.2-6.5l1.1,0.2
			C358.3,197.2,357.9,199.3,357.6,201.5L357.6,201.5z M510,198.1c-0.4-2.1-0.9-4.3-1.5-6.4l1-0.3c0.6,2.1,1.1,4.3,1.5,6.5L510,198.1
			z M360.5,188.7l-1-0.3c0.7-2.1,1.5-4.2,2.3-6.2l1,0.4C362,184.6,361.3,186.6,360.5,188.7L360.5,188.7z M506.5,185.4
			c-0.8-2-1.6-4.1-2.6-6l1-0.5c1,2,1.8,4.1,2.6,6.1L506.5,185.4z M365.7,176.6l-1-0.5c1-2,2.2-3.9,3.4-5.7l0.9,0.6
			C367.8,172.8,366.7,174.7,365.7,176.6L365.7,176.6z M500.8,173.6c-1.1-1.9-2.3-3.7-3.6-5.5l0.9-0.6c1.3,1.8,2.5,3.7,3.6,5.6
			L500.8,173.6z M372.8,165.6l-0.9-0.7c1.4-1.8,2.8-3.5,4.3-5.1l0.8,0.7C375.6,162.2,374.1,163.9,372.8,165.6L372.8,165.6z
			 M493.2,162.9c-1.4-1.7-2.9-3.3-4.5-4.8l-0.1-0.1l0.8-0.8l0.1,0.1c1.6,1.6,3.1,3.2,4.5,4.9L493.2,162.9z M381.7,155.9l-0.7-0.8
			c1.6-1.5,3.3-2.9,5.1-4.3l0.7,0.9C385,153,383.3,154.5,381.7,155.9L381.7,155.9z M483.9,153.5c-1.7-1.4-3.4-2.8-5.2-4l0.6-0.9
			c1.8,1.3,3.6,2.6,5.3,4.1L483.9,153.5z M392,147.9l-0.6-0.9c1.9-1.2,3.8-2.3,5.7-3.4l0.5,1C395.8,145.6,393.9,146.7,392,147.9z
			 M473.1,146c-1.9-1.1-3.8-2.1-5.8-3.1l0.5-1c2,1,4,2,5.9,3.1L473.1,146z M403.6,141.7l-0.4-1c2-0.9,4.1-1.7,6.2-2.4l0.3,1
			C407.7,140.1,405.6,140.9,403.6,141.7L403.6,141.7z M461.3,140.4c-2-0.8-4.1-1.4-6.2-2l0.3-1c2.1,0.6,4.3,1.3,6.3,2.1L461.3,140.4
			z M416.1,137.6l-0.2-1.1c2.1-0.5,4.4-0.9,6.5-1.3l0.2,1.1C420.4,136.7,418.2,137.1,416.1,137.6L416.1,137.6z M448.7,136.9
			c-2.1-0.4-4.3-0.7-6.5-1l0.1-1.1c2.2,0.2,4.4,0.6,6.6,1L448.7,136.9z M429,135.6v-1.1c2.2-0.1,4.4-0.2,6.6-0.1v1.1
			C433.5,135.5,431.3,135.5,429,135.6L429,135.6z"/>
		<rect x="110.5" y="378" class="st2" width="3.3" height="1.1"/>
		<path class="st2" d="M637.8,378.6h-6.5v-1.1h6.5V378.6z M624.7,378.6h-6.5v-1.1h6.5V378.6z M611.6,378.6H605v-1.1h6.5L611.6,378.6
			z M598.5,378.6H592v-1.1h6.5V378.6z M585.4,378.6h-6.5v-1.1h6.5V378.6z M572.3,378.6h-6.5v-1.1h6.5V378.6z M559.2,378.6h-6.5v-1.1
			h6.5V378.6z M546.1,378.6h-6.5v-1.1h6.5V378.6z M533,378.6h-6.5v-1.1h6.6L533,378.6z M519.9,378.6h-6.5v-1.1h6.6L519.9,378.6z
			 M506.8,378.6h-6.6v-1.1h6.5L506.8,378.6z M493.7,378.6h-6.5v-1.1h6.5V378.6z M480.6,378.6H474v-1.1h6.5L480.6,378.6z
			 M467.5,378.6H461v-1.1h6.5V378.6z M454.4,378.6h-6.5v-1.1h6.5V378.6z M441.3,378.6h-6.5v-1.1h6.5V378.6z M428.2,378.6h-6.5v-1.1
			h6.5V378.6z M415.1,378.6h-6.5v-1.1h6.5V378.6z M402,378.6h-6.5v-1.1h6.6L402,378.6z M388.9,378.6h-6.5v-1.1h6.5V378.6z
			 M375.8,378.6h-6.5v-1.1h6.5V378.6z M362.7,378.6h-6.5v-1.1h6.5V378.6z M349.6,378.6H343v-1.1h6.5L349.6,378.6z M336.5,378.6h-6.5
			v-1.1h6.5V378.6z M323.4,378.6h-6.6v-1.1h6.6V378.6z M310.3,378.6h-6.6v-1.1h6.6V378.6z M297.2,378.6h-6.6v-1.1h6.6V378.6z
			 M284.1,378.6h-6.6v-1.1h6.6V378.6z M271,378.6h-6.6v-1.1h6.6L271,378.6z M257.9,378.6h-6.6v-1.1h6.6V378.6z M244.8,378.6h-6.6
			v-1.1h6.6V378.6z M231.7,378.6h-6.6v-1.1h6.6V378.6z M218.6,378.6H212v-1.1h6.6L218.6,378.6z M205.5,378.6h-6.6v-1.1h6.6
			L205.5,378.6z M192.4,378.6h-6.6v-1.1h6.6V378.6z M179.3,378.6h-6.6v-1.1h6.6V378.6z M166.2,378.6h-6.5v-1.1h6.6L166.2,378.6z
			 M153.1,378.6h-6.5v-1.1h6.6L153.1,378.6z M140,378.6h-6.5v-1.1h6.6L140,378.6z M126.9,378.6h-6.5v-1.1h6.5L126.9,378.6z"/>
		<rect x="644.4" y="377.5" class="st2" width="3.3" height="1.1"/>
		<polygon class="st3" points="182.8,363.3 182.9,363.1 184.4,358.3 164.2,359.6 		"/>
		<path class="st3" d="M159.8,270.1l12.3,31.3c0,0-1.1,26.8,13.4,24.6c14.5-2.2-2.3-29-2.3-29l-9-32.4
			C174.3,264.4,163.1,262.2,159.8,270.1z"/>
		<circle class="st3" cx="139" cy="149.9" r="20.1"/>
		<path class="st3" d="M123.9,156.1c0,0-6.7,22.3-11.2,22.4s30.2,13.4,30.2,13.4s-9-8.9,0-25.7L123.9,156.1z"/>
		<path class="st4" d="M182.8,363.3l0.7-0.1c5.9-1.1,9.6-2.3,9.9-3.8c0.5-2.8-3.5-17.4-8.4-33.5c-5.4-18-11.9-37.9-14.2-45.2
			l-0.9-2.9l-2.2-13.5l-2.3-14.5l-54.8,14.6l-7.8,13.4l-1.7,4.9l0,0l-2.4,7.2l-4.8,14.1l-13.5,39.7l83.9,15.8L182.8,363.3z"/>
		<path class="st5" d="M119.4,176.2c0,0,15.5,4.1,20,8.7l7.9,4.6l10.1,21.2c0,0,7.8,3.3,7.8,17.9c0,14.5,11.3,39.1,11.3,39.1
			s7.8,6.7,2.2,10c-3.8,2.1-8,3.2-12.3,3.4c0,0,5.6-21.2-5.6-22.4c-11.2-1.1-16.8-2.2-17.9,0c-1.1,2.2-31.3,34.7-43.6,31.4
			s-5.6-36.8-5.6-36.8l10-78.2c0,0,7.8-1.1,12.3,0C120.6,176.3,119.4,176.2,119.4,176.2z"/>
		<circle class="st6" cx="134.1" cy="333" r="3.4"/>
		<path class="st6" d="M121,335.1l3.4,3l32.8,10.5l0.5-0.9l-19.1-10.6c-2.2,2.5-6.1,2.7-8.6,0.5s-2.7-6.1-0.5-8.6
			c2.2-2.5,6.1-2.7,8.6-0.5c1.7,1.6,2.4,4,1.8,6.2l19,10.6l0.5-0.9l-26.2-22.3l-4.2-1.5l1.2-2.1l-3-1.6l-2.3,4.1l-17.4-9.7
			l-5.9,10.6l17.4,9.7l-2.3,4.1l3,1.6L121,335.1z"/>
		<path class="st3" d="M81.5,270.1l12.3,31.3c0,0-1.1,26.8,13.4,24.6s-2.3-29.1-2.3-29.1l-9-32.4C96,264.5,84.9,262.3,81.5,270.1z"
			/>
		<path class="st5" d="M106.2,176.2l-2.2-1.1c0,0-6.7-6.7-14.5,2.3s-15.6,55.9-15.6,55.9v14.5c0,0-8.9,12.3-1.1,19
			c7.8,6.7,9,7.8,9,7.8s7.8-11.2,16.8-5.6l1.1-4.5c0.9-1,1.7-2.1,2.2-3.4c1.1-2.2,3.3,1.1,2.2-2.2c-1.1-3.4,0-4.5,0-5.6
			s1.1-6.7,1.1-6.7L104,212L106.2,176.2z"/>
		<path class="st4" d="M164,145.1c0,0,16.3-35.7-26.4-35.6c0,0-26.2-13.7-46.1,18.2l-20.6,33.6l5.3-1.1l0.7,5.2l6.7,4.1l5.1-5.3
			l-0.8,8l57.9,24.5c0,0-21.8-24.1-13.4-52.6l3.4,7L164,145.1z"/>
		<ellipse class="st3" cx="128.8" cy="155.6" rx="2.8" ry="5.7"/>
	</g>
</g>
</svg>
