<?xml version="1.0" encoding="utf-8"?>
<!-- Generator: Adobe Illustrator 24.1.0, SVG Export Plug-In . SVG Version: 6.00 Build 0)  -->
<svg version="1.1" id="レイヤー_1" xmlns="http://www.w3.org/2000/svg" xmlns:xlink="http://www.w3.org/1999/xlink" x="0px"
	 y="0px" viewBox="0 0 560.1 474.4" style="enable-background:new 0 0 560.1 474.4;" xml:space="preserve">
<style type="text/css">
	.st0{fill:#F2F2F2;}
	.st1{fill:#3F3D56;}
	.st2{fill:none;}
	.st3{fill:#9800BF;}
	.st4{opacity:0.3;fill:#F500E7;enable-background:new    ;}
	.st5{fill:none;stroke:#2F2E41;stroke-width:2;stroke-miterlimit:10;}
	.st6{fill:#FF6584;}
	.st7{opacity:0.1;enable-background:new    ;}
	.st8{fill:#575A89;}
	.st9{fill:#2F2E41;}
	.st10{fill:#FFB9B9;}
</style>
<g id="レイヤー_2_1_">
	<g id="レイヤー_2-2">
		<path class="st0" d="M297,406.3C179,397.3,38.2,305.9,45.3,211.7S188.9,29.8,306.9,38.8s186,185,178.8,279.2
			S415.1,415.3,297,406.3z"/>
		<rect x="45.5" y="72.7" class="st1" width="224" height="231.8"/>
		<path class="st2" d="M158.8,141.9h-1.1c-25.8,0-46.7,20.9-46.7,46.8c0,25.8,20.9,46.7,46.8,46.7c25.8,0,46.7-20.9,46.7-46.8
			c0-7.8-1.9-15.4-5.6-22.2l-38.7,29.1L158.8,141.9z"/>
		<path class="st3" d="M198.8,166.4c12.3,22.7,3.8,51.1-18.9,63.3s-51.1,3.8-63.3-18.9s-3.8-51.1,18.9-63.3
			c6.8-3.7,14.5-5.6,22.2-5.6h1.1l-0.5-20h-0.6c-36.8,0-66.7,29.9-66.7,66.7c0,36.8,29.9,66.7,66.7,66.7s66.7-29.9,66.7-66.7
			c0-12.1-3.3-24-9.5-34.3L198.8,166.4z"/>
		<path class="st4" d="M198.8,166.4l16.1-12.1c-11.9-19.9-33.4-32.2-56.6-32.4l0.5,20C175.6,142.4,190.8,151.7,198.8,166.4z"/>
		<line class="st5" x1="191.3" y1="246.4" x2="214.7" y2="270"/>
		<line class="st5" x1="207.2" y1="101.5" x2="190.9" y2="130.5"/>
		<rect x="195.5" y="270" class="st0" width="38.5" height="8.8"/>
		<rect x="186.8" y="92.7" class="st0" width="38.5" height="8.8"/>
		<rect x="291" y="70.8" class="st1" width="224" height="93.5"/>
		<path class="st6" d="M381.6,142.9h-25.3c-1.7-10-1.7-20.2,0-30.2h25.3C378.8,122.5,378.8,133,381.6,142.9z"/>
		<path class="st6" d="M452.4,142.9h-25.3c-1.7-10-1.7-20.2,0-30.2h25.3C449.6,122.5,449.6,133,452.4,142.9z"/>
		<path class="st3" d="M345.7,122.4h-25.3c-1.7-10-1.7-20.2,0-30.2h25.3C342.8,102.1,342.8,112.6,345.7,122.4z"/>
		<path class="st3" d="M391,122.4h25.3c1.7-10,1.7-20.2,0-30.2H391C393.8,102.1,393.8,112.6,391,122.4z"/>
		<path class="st3" d="M460.6,122.4h25.3c1.7-10,1.7-20.2,0-30.2h-25.3C463.5,102.1,463.5,112.6,460.6,122.4z"/>
		<path class="st1" d="M472.3,407.3c0,9.7-45.4,28.8-101.1,28.8S270.7,417,270.7,407.3s44.9-6.3,100.6-6.3S472.3,397.6,472.3,407.3z
			"/>
		<path class="st7" d="M472.3,407.3c0,9.7-45.4,28.8-101.1,28.8S270.7,417,270.7,407.3s44.9-6.3,100.6-6.3S472.3,397.6,472.3,407.3z
			"/>
		<ellipse class="st1" cx="371.3" cy="407.4" rx="100.8" ry="17.6"/>
		<ellipse class="st7" cx="371.3" cy="407.4" rx="78.9" ry="13.8"/>
		<path class="st3" d="M336.4,303.1h-25.4c-1.7-10-1.7-20.2,0-30.2h25.3C333.6,282.8,333.6,293.2,336.4,303.1z"/>
		<path class="st8" d="M416.5,150.2l3.5,1.7c0,0,18.9,47.3,12.5,58.6s-26.4,32.5-26.4,32.5l-3.8-10.7l15.4-33.4L416.5,150.2z"/>
		<path class="st7" d="M416.5,150.2l3.5,1.7c0,0,18.9,47.3,12.5,58.6s-26.4,32.5-26.4,32.5l-3.8-10.7l15.4-33.4L416.5,150.2z"/>
		<path class="st0" d="M412.8,386.7c0,0,4.9,11.3,2.3,12.2s-5.8,0.9-9,0.9s-7-1.2-7.5-2.3s2.3-8.7,2.3-8.7L412.8,386.7z"/>
		<path class="st0" d="M346.3,392.5c0,0,3.2,10.1,1.7,10.7s-6.1,3.2-8.7,2.3s-6.7-2.9-7.5-3.8s0-5.5,0-5.5l4.1-5.8L346.3,392.5z"/>
		<path class="st9" d="M403.5,241.6l4.2,1.4c0,0,1.1,9.9-0.1,13.4s-3.8,28.7-2.3,34s0.6,13.6,0.6,13.6s8.7,28.4,7,34.5
			s-1.5,14.8,0.3,19.1s3.2,6.1,2.3,9.6s-2.6,5.2-0.9,8.1s5.2,3.8,3.5,6.4s-3.5,4.6-2.9,6.4s-15.4,4.9-16.8,2.3c0,0,4.6-4.1,0-6.4
			s-3.2-11-3.2-11s-8.1-33.4-7.8-36s-12.8-43.2-12.8-43.2s-19.1,58-20.3,60.7s1.5,9,0,10.7s0.6,6.1-1.5,7.8s3.5,8.1,0,10.5
			s-5.2,9.6-4.9,11s-14.5-0.3-14.5-2.3c0.2-2.5-0.2-5-1.2-7.3c-1.5-3.5-2.3-5.8-1.2-7s2-2.6,0.9-6.7s1.7-16.5,0.9-18.9
			s-0.6-18-0.6-18s2.9-22.9,2-26.7s0-4.6,0.3-6.1s2-17.1,3.2-19.4s2.6-42,9.3-44S403.5,241.6,403.5,241.6z"/>
		<path class="st9" d="M405.8,397.2c0,0,10.4-1.7,11,0s2.3,15.4-1.7,15.7s-11,1.2-12.2-1.5s-6.7-4.4-6.7-4.4s-8.1-2.3-8.1-4.9
			s0.3-6.7,1.8-7s7.2-3.5,7.2-4.6S405.8,397.2,405.8,397.2z"/>
		<path class="st9" d="M340.5,401.8c0,0,7.5-2.3,9.3-0.9s4.1,17.4,0,17.1s-14.8,1.5-15.4-0.9s-8.4-2.9-8.4-2.9s-8.4-4.1-7.8-8.4
			s1.5-5.8,4.9-6.1s6.1-4.4,6.4-4.6s2.9-2.4,3.2,0S336.8,402.7,340.5,401.8z"/>
		<circle class="st10" cx="364.3" cy="102.9" r="17.7"/>
		<path class="st10" d="M379.7,107c0,0,1.2,19.4,5.5,21.2c4.4,1.7-22,1.7-22,1.7s-0.3-12.2-4.1-15.1S379.7,107,379.7,107z"/>
		<path class="st8" d="M386.7,123.8c0,0-18-6.7-24.4,3.8c0,0-20.3,9.6-21.8,15.4c-1.4,5.8,12.2,49.3,12.2,49.3s0,36-2.9,39.8
			s-8.4,7.8-4.6,8.7s63,7.3,62.7,3.5s-4.1-7,0-9.3s0.6-4.9,3.2-12.5s9-69.9,9-69.9s-4.4-7.8-5.2-8.7
			C413.9,143,386.7,123.8,386.7,123.8z"/>
		<path class="st10" d="M334.7,250.9c0,0-11.3,25.5-1.5,29c9.9,3.5,9.3-27,9.3-27L334.7,250.9z"/>
		<path class="st9" d="M372.8,106.2c-1-2.1-2.6-4.4-4.9-4.3c-1.1,0.2-2.2,0.7-3.2,1.3c-1,0.7-2.3,0.7-3.3,0.2c-1.4-1-1-3.3-2.2-4.5
			s-4.1-0.6-4.9-2.2c-0.5-0.9-0.1-2-0.3-2.9c-1.4,0.1-2.8-0.1-4.2-0.5c-1.7-0.4-2.7-2.2-2.3-3.9c0.2-0.7,0.6-1.4,1.2-1.8
			c1.8-1.6,4.4-1.9,6.6-2.9c1.8-0.8,3.3-2,5-2.8c3-1.3,6.4-1.9,9.7-1.5c5,0.4,10,2,13.7,5.5s5.5,8.9,4,13.7c-0.9,2.7-2.8,5-3.8,7.6
			c-0.6,1.8-1.1,3.7-1.3,5.6l-0.8,4.5c0.1-0.7-1.4-2.5-1.9-2.9c-1.1-0.9-2.7-0.6-3.7-1.4C374.6,111.6,373.7,108,372.8,106.2z"/>
		<path class="st7" d="M347.2,140.9l-4.6,2.9c0,0-7.5,45.6-6.7,52s-3.5,42.4-2,45.3s2,3.5,2,5.2s-4.1,8.1-1.5,9.3
			c2.6,1.2,12.2,3.2,12.2,0s-1.8-7.5,1.5-9.6s5.5-15.1,5.5-15.1s1.5-13.4,2.9-16s3.5-12.2,3.5-16.2s3.5-20.6,1.5-29
			S358.8,138.6,347.2,140.9z"/>
		<path class="st8" d="M345.2,140.1l-4.6,2.9c0,0-7.5,45.6-6.7,51.9s-3.5,42.4-2,45.3s2,3.5,2,5.2s-4.1,8.1-1.5,9.3s12.2,3.2,12.2,0
			c0-3.2-1.7-7.6,1.5-9.6s5.5-15.1,5.5-15.1s1.5-13.4,2.9-16s3.5-12.2,3.5-16.2s3.5-20.6,1.5-29S356.8,137.7,345.2,140.1z"/>
	</g>
</g>
</svg>
