<?xml version="1.0" encoding="utf-8"?>
<!-- Generator: Adobe Illustrator 24.1.0, SVG Export Plug-In . SVG Version: 6.00 Build 0)  -->
<svg version="1.1" id="レイヤー_1" xmlns="http://www.w3.org/2000/svg" xmlns:xlink="http://www.w3.org/1999/xlink" x="0px"
	 y="0px" viewBox="0 0 571.8 423.8" style="enable-background:new 0 0 571.8 423.8;" xml:space="preserve">
<style type="text/css">
	.st0{fill:#F2F2F2;}
	.st1{fill:#3F3D56;}
	.st2{opacity:0.1;enable-background:new    ;}
	.st3{fill:#2F2E41;}
	.st4{fill:#FB503B;}
	.st5{fill:#FFB9B9;}
	.st6{fill:#D0CDE1;}
	.st7{fill:#9800BF;}
	.st8{fill:#4DBA87;}
	.st9{fill:#435466;}
</style>
<g id="レイヤー_2_1_">
	<g id="レイヤー_2-2">
		<path class="st0" d="M429.1,163.7c-20.9-82-92.9-141.2-177.4-143.5c-44.7-1.2-91.7,13.6-126,65.5c-61.2,92.7,3.8,156.8,49.1,187.3
			c21.9,14.7,41.6,32.5,58.6,52.7C264,361.8,322.8,407,393,336.3C443.8,285,443,218.3,429.1,163.7z"/>
		<path class="st1" d="M485.7,346.2c0,20.1-87.8,57.6-198.4,57.6S85.6,368.7,85.6,348.6s91.1-17.6,201.7-17.6
			S485.7,326.1,485.7,346.2z"/>
		<path class="st2" d="M485.7,346.2c0,20.1-87.8,57.6-198.4,57.6S85.6,368.7,85.6,348.6s91.1-17.6,201.7-17.6
			S485.7,326.1,485.7,346.2z"/>
		<ellipse class="st1" cx="285.9" cy="348.3" rx="200.3" ry="36.4"/>
		<polygon class="st3" points="361.6,224.1 361.6,321.8 377.9,348.4 379.1,350.4 443.3,350.4 444.6,224.1 		"/>
		<polygon class="st2" points="361.6,224.6 361.6,322 377.9,348.6 378.9,224.6 		"/>
		<polygon class="st3" points="206.6,221.8 206.6,319.4 190.3,346 189.1,348.1 124.9,348.1 123.6,221.8 		"/>
		<polygon class="st2" points="206.6,221.8 206.6,319.3 190.3,345.8 189.3,221.8 		"/>
		<polygon class="st3" points="464.2,220.1 464.2,226 114.7,226 114.7,217.5 147.1,200.5 435.6,200.5 		"/>
		<polygon class="st2" points="464.2,219.7 464.2,225.5 114.7,225.5 114.7,217.2 		"/>
		<polygon class="st2" points="165,249.2 149.1,249.2 142.5,244.6 172.3,244.6 		"/>
		<polygon class="st2" points="165,267.8 149.1,267.8 142.5,263.1 172.3,263.1 		"/>
		<polygon class="st2" points="165,294.7 149.1,294.7 142.5,290 172.3,290 		"/>
		<polygon class="st2" points="165,321.1 149.1,321.1 142.5,316.5 172.3,316.5 		"/>
		<polygon class="st2" points="403.2,251.5 419.1,251.5 425.7,246.9 395.9,246.9 		"/>
		<polygon class="st2" points="403.2,270.5 419.1,270.5 425.7,265.9 395.9,265.9 		"/>
		<polygon class="st2" points="403.2,297 419.1,297 425.7,292.4 395.9,292.4 		"/>
		<polygon class="st2" points="403.2,323.9 419.1,323.9 425.7,319.3 395.9,319.3 		"/>
		<path class="st1" d="M332.8,184.1l-2.2,13.8c0,0-10.7,5.7-3.2,5.8s42.8,0,42.8,0s6.8,0-4-6l-2.2-14.5L332.8,184.1z"/>
		<path class="st2" d="M326,203.5c1.5-1.2,3-2.2,4.7-3.1l2.2-13.8h31.3l2.2,13.6c1.8,0.9,3.5,2,5,3.3c1.4-0.3,2.9-1.5-5-5.9
			l-2.2-14.5l-31.3,0.8l-2.2,13.9C330.6,197.8,321.7,202.5,326,203.5z"/>
		<path class="st1" d="M282.6,87.7h131.2c2.7,0,5,2.2,5,5v88.5c0,2.7-2.2,5-5,5H282.6c-2.7,0-5-2.2-5-5V92.6
			C277.6,89.9,279.8,87.7,282.6,87.7z"/>
		<rect x="282.2" y="92.8" class="st0" width="131.8" height="73.8"/>
		<circle class="st0" cx="348.3" cy="90.6" r="0.8"/>
		<path class="st1" d="M418.7,172.6v8.5c0,2.7-2.2,4.9-5,4.9c0,0,0,0,0,0H282.6c-2.7,0-5-2.2-5-4.9c0,0,0,0,0,0l0,0v-8.5H418.7z"/>
		<circle class="st0" cx="348.3" cy="179.3" r="3.2"/>
		<polygon class="st1" points="343.5,212.7 343.5,214.4 253.9,214.4 253.9,213 254,212.7 256.3,206.5 341.7,206.5 		"/>
		<path class="st1" d="M377.9,211.1c-0.2,0.7-0.8,1.4-2.2,2.1c-5,2.5-15.2-0.7-15.2-0.7s-7.8-1.3-7.8-4.8c0.2-0.1,0.5-0.3,0.7-0.4
			c2.1-1.1,9.1-3.9,21.4,0.1c0.9,0.3,1.7,0.8,2.4,1.5C377.7,209.6,378,210.4,377.9,211.1z"/>
		<path class="st2" d="M377.9,211.1c-6.1,2.4-11.6,2.5-17.2-1.4c-2.1-1.6-4.7-2.4-7.3-2.4c2.1-1.1,9.1-3.9,21.4,0.1
			c0.9,0.3,1.7,0.8,2.4,1.5C377.7,209.6,378,210.4,377.9,211.1z"/>
		<ellipse class="st0" cx="370.2" cy="209.1" rx="2.2" ry="0.7"/>
		<polygon class="st2" points="343.5,212.5 343.5,214.4 253.9,214.4 253.9,213.1 253.8,212.5 		"/>
		<path class="st4" d="M394.6,127.7c-0.7-0.7-9.8-12.2-11.3-14s-2.4-1.5-3.4-1.4s-12.5,2.1-13.8,2.2s-2.1,0.7-1.3,1.9
			s8.3,11.7,9.9,14.2l-30.1,7.2l-23.8-40c-1-1.4-1.2-1.9-3.3-1.8s-18.8,1.5-19.9,1.5s-2.5,0.6-1.3,3.4c1.2,2.8,20,43.4,20.5,44.6
			c0.5,1.2,1.9,3.1,5.1,2.4c3.2-0.7,14.6-3.8,20.9-5.4c3.3,5.9,9.9,17.9,11.2,19.7c1.7,2.4,2.8,1.9,5.3,1.2c2-0.6,30.9-11,32.2-11.6
			s2.1-0.9,1.2-2.2c-0.7-0.9-8.3-11.2-12.3-16.5c2.7-0.7,12.5-3.3,13.6-3.6C395,129,395.3,128.4,394.6,127.7L394.6,127.7z
			 M340,138.9c-0.4,0.1-17.2,4.1-18.1,4.4c-0.8,0.2-0.9,0.1-0.9-0.2c-0.2-0.4-20-41.4-20.4-41.9s-0.2-0.9,0-0.9
			c0.2,0,15.9-1.4,16.4-1.4s0.5,0.1,0.7,0.5c0,0,22,38.1,22.4,38.7S340.4,138.8,340,138.9L340,138.9z M387.4,147.8
			c0.2,0.5,0.6,0.7-0.4,1s-28.4,9.7-29,9.9s-0.9,0.4-1.6-0.7s-9.7-16.5-9.7-16.5l29.4-7.7c0.7-0.2,0.9-0.3,1.4,0.4
			S387.2,147.5,387.4,147.8L387.4,147.8z M389.3,127c-0.7,0.1-11.4,2.8-11.4,2.8l-8.8-12c-0.2-0.3-0.5-0.7,0.1-0.8s10.6-1.9,11.1-2
			s0.8-0.2,1.4,0.6s8.1,10.4,8.5,10.7S390,127,389.3,127L389.3,127z"/>
		<circle class="st5" cx="268.8" cy="92.4" r="17.8"/>
		<path class="st5" d="M255.8,101.4v28h29c0,0-3.8-23.4-1.9-30.4L255.8,101.4z"/>
		<path class="st6" d="M313.4,139.1c0,0-27.6-13.6-27.6-14.5s-2.8-7-4.7-7s-17.8-5.1-26.6,2.3l-0.9,6.1l-34.1,22.4l9.3,34.1
			c0,0,6.1,6.5,4.2,11.2s1.4,28.5,1.4,28.5l73.3-2.3v-31.8c0,0,2.3-7.5,3.7-9.8s0-9.4,0-9.4l11.2-14
			C322.8,155,321.3,141.9,313.4,139.1z"/>
		<path class="st2" d="M220.4,159.9l2.1-11.4c0,0-12.2,52.8-10.7,58.9s11.7,15.4,13.1,15.9s14.5-40.2,14.5-40.2L220.4,159.9z"/>
		<path class="st6" d="M227.2,147l-7.9,1.4c0,0-12.2,52.8-10.7,58.9s11.7,15.4,13.1,15.9s14.5-40.2,14.5-40.2L227.2,147z"/>
		<path class="st2" d="M315.8,162.7l4-7.7c0,0,5.6,52.8,1.9,57.9c-3.7,5.1-18.6,7.1-18.6,7.1l-0.2-38.4L315.8,162.7z"/>
		<path class="st6" d="M316.5,148.9l6.1,6.1c0,0,5.6,52.8,1.9,57.9c-3.7,5.1-18.6,7.1-18.6,7.1l-0.2-38.4L316.5,148.9z"/>
		<path class="st1" d="M225.8,229.4c0,0-13.6-5.1-15.9,4.7c-2.3,9.8,5.6,53.7,5.6,53.7s5.1,33.2,8.4,34.1s17.8,1.4,20.1-2.8
			s-7-47.2-7-47.2l54.2-0.9c0,0-3.3,37.4-5.1,40.6s-1.9,14.5,0,14.5s22.4-0.9,23.8-3.7s9.3-65.9,9.3-65.9s6.5-22-0.9-20.6
			C310.8,237.4,225.8,229.4,225.8,229.4z"/>
		<path class="st3" d="M305.6,320.4c0,0,4.7-3.3,7,0c2.3,3.3,3.3,7-7,12.6c-10.3,5.6-18.2,4.2-18.2,3.3v-13.5L305.6,320.4z"/>
		<path class="st3" d="M225,319c0,0-4.7-3.3-7,0s-3.3,7,7,12.6s18.2,4.2,18.2,3.3v-13.6L225,319z"/>
		<path class="st3" d="M268.9,70c-1.8-0.1-3.5,0.2-5.2,0.7c-1.3,0.5-2.5,1.2-3.7,2l-7.8,4.9c-1.3,0.6-2.2,1.9-2.2,3.4l-1,7.3
			c-0.2,1.8-0.5,3.8,0.4,5.5c0.7,1.4,2,2.3,3.1,3.5c1.7,1.8,2.9,4.1,3.4,6.5c0.6,3.1,0.2,6.8,2.6,8.7c1.4,0.9,3.1,1.4,4.8,1.4
			c4.6,0.3,9.2,0.1,13.8-0.5c0.7-0.1,1.4-0.2,2.1-0.6c0.8-0.6,1.4-1.3,1.8-2.2c1.8-3,3.6-6.2,3.5-9.6c0-1.7-0.4-3.6,0.4-5
			c0.4-0.6,0.9-1.2,1.4-1.8c0.9-1.5,1.4-3.2,1.4-5c0.5-5.6,0-9.8-4.1-13.7C279.6,71.7,274.1,70,268.9,70z"/>
		<polygon class="st3" points="225.3,284.6 209.7,363.8 217.5,363.8 232.5,285.9 		"/>
		<polygon class="st3" points="275.3,291 285.1,381.9 291.6,381.9 285.7,288.4 		"/>
		<polygon class="st3" points="302,288.6 315.6,349 322.1,349 309.1,287.3 		"/>
		<polygon class="st3" points="250,288.2 248,336.5 253.2,336.5 257.2,288.2 		"/>
		<path class="st7" d="M214.3,276c0,0-10.4-69.5,18.8-71.5s70.8,0,70.8,0s24-1.9,16.9,71.5c0,0,6.5,21.4-52,19.5
			S214.3,276,214.3,276z"/>
		<path class="st7" d="M480.6,304.4c0,12.1-7.2,16.4-16.1,16.4s-16.1-4.2-16.1-16.4s16.1-27.5,16.1-27.5S480.6,292.3,480.6,304.4z"
			/>
		<polygon class="st1" points="463.7,308.8 471,296.2 463.7,307.2 463.7,302.6 468.9,293.6 464.2,301.4 464.2,293.2 469.4,286 
			464.7,291.9 464.7,276.9 464,295.9 458.8,288.1 463.9,297.6 463.4,306.7 463.4,306.5 457.5,298.2 463.4,307.3 463.3,308.5 
			463.3,308.5 463.3,308.6 462.1,320.7 463.7,320.7 463.9,319.8 469.8,310.7 463.7,318.9 		"/>
		<polygon class="st3" points="474.7,347.1 455.7,347.1 450.8,319.3 478.6,319.3 		"/>
		<rect x="152.7" y="157.8" class="st1" width="39.9" height="46.9"/>
		<rect x="159.2" y="164.7" class="st0" width="27.4" height="32.5"/>
		<path class="st8" d="M175.6,171.7l-2.8,4.8l-2.8-4.8h-9.3l12.1,21l12.1-21H175.6z"/>
		<path class="st9" d="M175.6,171.7l-2.8,4.8l-2.8-4.8h-4.4l7.3,12.6l7.3-12.6H175.6z"/>
	</g>
</g>
</svg>
