<?xml version="1.0" encoding="utf-8"?>
<!-- Generator: Adobe Illustrator 24.1.0, SVG Export Plug-In . SVG Version: 6.00 Build 0)  -->
<svg version="1.1" id="レイヤー_1" xmlns="http://www.w3.org/2000/svg" xmlns:xlink="http://www.w3.org/1999/xlink" x="0px"
	 y="0px" viewBox="0 0 571.8 415.8" style="enable-background:new 0 0 571.8 415.8;" xml:space="preserve">
<style type="text/css">
	.st0{fill:#3F3D56;}
	.st1{fill:#9800BF;}
	.st2{fill:#D0CDE1;}
	.st3{fill:#FFB8B8;}
	.st4{fill:#2F2E41;}
	.st5{fill:#575A89;}
	.st6{opacity:0.2;enable-background:new    ;}
</style>
<g id="レイヤー_2_1_">
	<g id="レイヤー_2-2">
		
			<rect x="286.3" y="35.5" transform="matrix(0.2721 -0.9623 0.9623 0.2721 91.5376 491.8448)" class="st0" width="169.2" height="299.9"/>
		<ellipse transform="matrix(0.1735 -0.9848 0.9848 0.1735 141.4335 308.5887)" class="st1" cx="254.6" cy="70" rx="2.4" ry="2.4"/>
		<circle class="st1" cx="261.9" cy="72.1" r="2.4"/>
		<circle class="st1" cx="269.3" cy="74.2" r="2.4"/>
		<path class="st1" d="M402.8,166.5c-3.9-0.7-7.8-0.6-11.7,0.3c1.1-3.8,1.4-7.8,0.8-11.8c-3.9,1.4-7.5,3.7-10.4,6.8
			c-0.9-4.1-2.8-7.9-5.4-11.2c-2.5,3.1-4.4,6.6-5.5,10.5c-2.8-2.8-6.1-4.9-9.8-6.3c0,0-1.7,8.8,2.5,16.1c3.7,6.5,10.9,9.5,12.4,10.1
			l0,0l0,0l0.2,0.1c0,0,0-0.2,0.1-0.5l0.1-0.1c0,0,0,0.1,0,0.1c-0.1,0.3-0.2,0.4-0.2,0.4h0.2l0,0h0.1c1.6,0.3,9.3,1.5,15.9-2.1
			C399.6,175,402.8,166.5,402.8,166.5z"/>
		<circle class="st1" cx="388.5" cy="137.7" r="6.2"/>
		
			<rect x="370.4" y="97" transform="matrix(0.2721 -0.9623 0.9623 0.2721 84.4717 499.6845)" class="st1" width="4.2" height="194.1"/>
		
			<rect x="286.3" y="194.7" transform="matrix(0.2721 -0.9623 0.9623 0.2721 17.1296 445.4602)" class="st1" width="33.5" height="33.5"/>
		
			<rect x="346.1" y="211.6" transform="matrix(0.2721 -0.9623 0.9623 0.2721 44.3904 515.3149)" class="st1" width="33.5" height="33.5"/>
		
			<rect x="405.9" y="228.5" transform="matrix(0.2721 -0.9623 0.9623 0.2721 71.644 585.1599)" class="st1" width="33.5" height="33.5"/>
		
			<rect x="294.8" y="222.9" transform="matrix(0.2721 -0.9623 0.9623 0.2721 -10.8095 456.3621)" class="st1" width="2.9" height="24.9"/>
		
			<rect x="354.6" y="239.8" transform="matrix(0.2721 -0.9623 0.9623 0.2721 16.4557 526.228)" class="st1" width="2.9" height="24.9"/>
		
			<rect x="414.4" y="256.7" transform="matrix(0.2721 -0.9623 0.9623 0.2721 43.7093 596.073)" class="st1" width="2.9" height="24.9"/>
		<ellipse class="st2" cx="163.1" cy="283.1" rx="160" ry="5.9"/>
		<ellipse class="st2" cx="447.3" cy="350.1" rx="124.5" ry="5.9"/>
		<path class="st0" d="M386.2,304.1h36v15.2h-20.8v15.2h20.8v14.6h-36L386.2,304.1z M429.6,304.1h35.5v13h-20.8v2.8h20.8v29.9h-35.5
			v-13.5h20.8v-2.8h-20.8V304.1z M472.4,304.1h36v13h-20.8v2.8h20.8v29.9h-36v-13.5h20.8v-2.8h-20.8V304.1z"/>
		<path class="st0" d="M72.5,235.3h14.6V250h13.5v-14.6h14.7v44.5h-14.6v-14.6H87.1v14.6H72.5V235.3z M135,250h-13v-14.6h41.1V250
			h-13.5v29.8H135V250z M169.4,235.3h15.5l9.6,15.6l9.6-15.6h15.5v44.5h-14.7v-21.9l-10.3,15.7h-0.3L184,257.9v21.9h-14.6
			L169.4,235.3z M226.8,235.3h14.6v29.9h20.8v14.6h-35.5L226.8,235.3L226.8,235.3z"/>
		<polygon class="st3" points="46.5,266 45.3,279.8 55,279 55,267.2 		"/>
		<polygon class="st3" points="37,266 38.2,279.8 28.5,279 28.5,267.2 		"/>
		<path class="st4" d="M62.8,160.2c0,0,3.2,19.5,3.2,22.3c0,2.8-1.2,21.1-3.2,24.7s-2.4,5.3-1.6,6.9s0.4,1.2,0,2.4s-1.2,0.8,0,2.4
			c1,1.5,1,3.4,0,4.9c-0.8,1.2,1.6,34-1.6,36.5s-4.1,10.5-4.1,10.5l-10.7-1.2v-8.9c0.1,0-2.3-6.5-0.7-10.5s2.4-25.5,2.4-25.5
			c-0.2-1.1-0.2-2.2,0-3.2c0.4-0.9,0.1-2-0.8-2.4c0,0,0,0,0,0c-0.8-0.4-1.2-2-1.2-2l-1.2-29.6l-4.9,29.2c0,0,4.9,39.7-0.4,45v9.3H28
			l1.6-10.2c0,0-3.2-9.4-1.6-11.4s-4.9-34.4-4-35.7s0.4-1.6,0-2.4s-1.6-1.6-1.2-2.4c0.2-0.8,0.2-1.6,0-2.4c0,0-7.7-38.1-4.1-41.8
			C22.4,161,62.8,160.2,62.8,160.2z"/>
		<path class="st4" d="M47.4,274.5c0,0,0.8-3.9,7.3-2.5c0,0,1.6,3.4,1.6,5c0,1.6,1.7,12.5,1.7,12.5s6.5,10.9-1.6,10.9
			s-11-2.8-11.4-5.7s0.4-3.6-1.2-4.9c-1.6-1.2-2.4-1.2-2-2.8s1.2-9.7,1.2-9.7s0.4-6.1,2.6-4.5l2.2,1.6"/>
		<path class="st4" d="M36.1,274.5c0,0-0.8-3.9-7.3-2.5c0,0-1.6,3.4-1.6,5c0,1.6-1.6,12.6-1.6,12.6s-6.5,10.9,1.6,10.9
			s10.9-2.9,11.3-5.7s-0.4-3.6,1.2-4.9c1.6-1.2,2.4-1.2,2-2.8s-1.2-9.7-1.2-9.7s-0.4-6.1-2.6-4.5l-2.2,1.6"/>
		<circle class="st3" cx="47.8" cy="74.7" r="10.9"/>
		<path class="st3" d="M38.9,76.3c0,0-4.5,17.5-5.3,17.8s18.7,2,18.7,2s-4.9-15,0-17.4L38.9,76.3z"/>
		<path class="st2" d="M36.1,86.9L36.1,86.9l-13.4,9.2l2.4,72.6c0,0,17.8-2,21.9-1.6c4,0.4,17-3.6,17-3.6l-5.7-68.2
			c-0.2-2.8-2.4-4.9-5.2-5.1L50.7,90c0,0-2.4,6-9.8,2.9C38.5,91.8,36.7,89.6,36.1,86.9z"/>
		<path class="st5" d="M36.4,86.2l-16.5,7.9l-3.2,46.7c0,0-6.5,28-1.2,36.1c3.2,4.9,8.4,8.1,14.2,8.9c0,0,11.8-46.7,8.5-62.5
			S36.4,86.2,36.4,86.2z"/>
		<path class="st3" d="M5.4,156.5v6.1c0,0-2.4,13.4,5.3,13c7.7-0.4,4.1-14.6,4.1-14.6l-2.4-4.5L5.4,156.5z"/>
		<path class="st3" d="M76.6,168.7l-0.8,6.9c0,0,4,13.8-3.7,14.2S70,175.7,70,175.7l2.5-7.8L76.6,168.7z"/>
		<path class="st5" d="M50.5,88.5L50.5,88.5c7.4,1.8,14.3,5.4,20,10.4l0.1,0.1l-5.7,30l-0.8,11c0,0,15,53.5-2.4,45.8
			c0,0-15-46.6-13-68.1S50.5,88.5,50.5,88.5z"/>
		<path class="st5" d="M65.3,98.6c0.4-0.4,5.3,0.6,5.3,0.6s8.9,31.5,8.9,36.7s1.2,35.3,1.2,35.3L70,172.2l-8.7-41.7L65.3,98.6z"/>
		<path class="st5" d="M22.7,94h-2.8c0,0-8.1,3.2-8.5,6.9S0,141.4,0,141.4L2.8,160l10.5-1.6l2-20.6l10.5-22.7L22.7,94z"/>
		<path class="st4" d="M45.7,77.8l0.4-3c0.1-0.7,0.5-1.6,1.2-1.4c0.7,0.2,1.8,0.6,2,0.5c0.8-0.6,1.9,0.4,2.8-0.1
			c0.3-0.2,0.6-0.6,1-0.7c0.3,0,0.5,0.1,0.7,0.3c0.5,0.5,1.1,0.8,1.8,1c0.7,0.2,1.4,0,1.9-0.5c0.1-0.1,0.2-0.2,0.3-0.3
			c0.2-0.1,0.3-0.1,0.5,0l2.1,0.6c0.6-2.2,0.2-4.6-1.1-6.6c-0.8-1.2-1.8-2.2-3-3c-1.3-1-2.6-1.9-4-2.8c-1.5-1-3.1-1.7-4.9-2
			c-1.8-0.3-3.6,0.3-4.8,1.6c-0.5-0.4-0.9-0.9-1.1-1.5c-0.5,0.4-0.5,1.1-0.1,1.6l0.2,0.1l-1.8-1.1c-0.5,0.5,0.5,1.5,0,2
			c-0.1,0.1-0.3,0.2-0.5,0.3c-1,0.4-1.8,0.9-2.6,1.6c-0.9,1.1-1.6,2.4-2,3.7c-1,3-1.8,6.4-0.3,9.2c0.2,0.3,2.4,5.6,2.7,5.8
			c1,0.7,0.3-1,1.1,0c0.6,0.8,0.5-2.2,1.3-1.5c0.7,0.5,1.6,0.5,2.3,0.1c0.3-0.2,0.2-1.6,0-2.8c-0.1-0.8,0.4-1.5,1.2-1.6
			c0.2,0,0.4,0,0.5,0C44.2,77.6,45,77.7,45.7,77.8z"/>
		<polygon class="st6" points="66.3,135.4 70.7,172.3 67.9,172.3 		"/>
		<polygon class="st6" points="19.2,121 17,135.2 21.3,121 20.1,121 		"/>
	</g>
</g>
</svg>
