<?xml version="1.0" encoding="utf-8"?>
<!-- Generator: Adobe Illustrator 24.1.0, SVG Export Plug-In . SVG Version: 6.00 Build 0)  -->
<svg version="1.1" id="レイヤー_1" xmlns="http://www.w3.org/2000/svg" xmlns:xlink="http://www.w3.org/1999/xlink" x="0px"
	 y="0px" viewBox="0 0 450 370" style="enable-background:new 0 0 450 370;" xml:space="preserve">
<style type="text/css">
	.st0{opacity:0.1;fill:#9800BF;enable-background:new    ;}
	.st1{opacity:0.2;}
	.st2{fill:#3F3D56;}
	.st3{fill:#9800BF;}
	.st4{opacity:0.1;enable-background:new    ;}
	.st5{fill:#35323E;}
	.st6{fill:#FFFFFF;}
	.st7{opacity:3.000000e-02;enable-background:new    ;}
	.st8{fill:#464353;}
	.st9{opacity:3.000000e-02;fill:#FFFFFF;enable-background:new    ;}
	.st10{fill:url(#SVGID_1_);}
	.st11{fill:#BE6F72;}
	.st12{opacity:0.15;enable-background:new    ;}
	.st13{fill:#A1616A;}
	.st14{fill:#A26565;}
	.st15{opacity:0.1;}
	.st16{fill:#EFB7B9;}
	.st17{fill:#F86D70;}
	.st18{fill:#4C4981;}
	.st19{fill:#FF6484;}
	.st20{fill:#925978;}
	.st21{fill:#444053;}
</style>
<g id="レイヤー_2_1_">
	<g id="レイヤー_2-2">
		<path class="st0" d="M259.6,80c-27.4-1-53.6-9.8-78.5-19.5S131.5,40.1,104.7,35c-17.2-3.3-36.9-3.8-50.8,5.5
			c-13.4,8.9-17.7,24.2-20,38.5c-1.8,10.7-2.8,22,2,32c3.3,7,9.2,12.8,13.3,19.5c14.2,23.2,4.2,51.8-11.2,74.4
			c-7.2,10.6-15.6,20.8-21.1,32.1s-8.2,24.3-3.3,35.8c4.9,11.5,16.3,20,28.8,26.1c25.3,12.3,55.1,15.8,84.2,17.8
			c64.4,4.4,129.1,2.5,193.6,0.6c23.9-0.7,47.9-1.4,71.4-5.1c13-2,26.5-5.3,36-13.1c12-10,15-26.9,6.9-39.4
			c-13.5-21-50.9-26.2-60.3-48.7c-5.2-12.4,0.1-26.2,7.7-37.7c16.2-24.7,43.4-46.3,44.8-74.5c1-19.4-12.1-38.8-32.3-47.9
			c-21.2-9.6-50.5-8.4-66.1,7.5C312.1,74.6,283.9,80.9,259.6,80z"/>
		<g class="st1">
			<path class="st2" d="M116.5,298.7c0.3,0.5,0.5,1,0.6,1.5c-3.4,1.3-6.8,2.6-10.2,4l-0.2-0.4c-0.7-1.4-1.1-2.9-1.1-4.4
				c0-1.9,0.9-3.6,2.5-4.5c1.7-0.8,3.6-0.6,5.2,0.4C114.8,296.2,115.8,297.3,116.5,298.7z"/>
			
				<ellipse transform="matrix(0.8843 -0.467 0.467 0.8843 -124.6171 84.1947)" class="st2" cx="107.5" cy="293.5" rx="5.5" ry="7.2"/>
			
				<ellipse transform="matrix(0.8843 -0.467 0.467 0.8843 -121.4458 81.3662)" class="st2" cx="103.4" cy="285.7" rx="5.5" ry="7.2"/>
			
				<ellipse transform="matrix(0.8821 -0.4711 0.4711 0.8821 -118.5436 79.5622)" class="st2" cx="99.7" cy="276.6" rx="5.5" ry="7.2"/>
			<ellipse transform="matrix(0.8843 -0.467 0.467 0.8843 -115.1049 75.701)" class="st2" cx="95.2" cy="270.1" rx="5.5" ry="7.2"/>
			<path class="st3" d="M48.7,226.2c-1.1-0.5-2.2-1.1-3.2-1.7l11.7-8.9L43.3,223c-5.8-4.4-9.5-11.1-10.2-18.3l23.7-0.2L33,201
				c0.5-14.6,12.8-26,27.4-25.5c14.6,0.5,26,12.8,25.5,27.4c0,1.3-0.2,2.6-0.4,3.9c1.7,0.8,3.4,1.7,4.9,2.9l-12.1,17.4l14.6-15.3
				c6.5,6.2,9.4,15.2,7.8,23.9c13.3,5.9,19.3,21.6,13.4,34.9c-5.9,13.3-21.6,19.3-34.9,13.4c-11.1-5-17.5-16.9-15.3-28.9
				C52.8,250.2,46.5,238.3,48.7,226.2L48.7,226.2z"/>
			<path class="st4" d="M98.1,218.7c2.8,5.2,3.7,11.3,2.6,17.1c13.3,5.9,19.4,21.6,13.4,34.9c-5.9,13.3-21.6,19.4-34.9,13.4
				c-11.2-5-17.5-16.9-15.3-28.9C58.7,252.9,96.7,216.1,98.1,218.7z"/>
		</g>
		<g class="st1">
			<path class="st2" d="M304.2,243.4c-0.3,0.7-0.5,1.5-0.6,2.2c4.9,1.1,9.8,2.3,14.8,3.6c0.1-0.2,0.1-0.4,0.2-0.6
				c0.8-2,1-4.2,0.6-6.3c-0.3-3.7-3.5-6.4-7.2-6.1c-1.6,0.1-3.1,0.8-4.2,2C306.1,239.6,304.9,241.4,304.2,243.4z"/>
			
				<ellipse transform="matrix(0.3414 -0.9399 0.9399 0.3414 -12.5587 451.0413)" class="st2" cx="315.6" cy="234.5" rx="10" ry="7.7"/>
			
				<ellipse transform="matrix(0.3402 -0.9403 0.9403 0.3402 1.3123 447.1454)" class="st2" cx="319.3" cy="222.6" rx="10" ry="7.7"/>
			
				<ellipse transform="matrix(0.3414 -0.9399 0.9399 0.3414 14.623 443.7138)" class="st2" cx="323.9" cy="211.4" rx="10" ry="7.7"/>
			<ellipse transform="matrix(0.3414 -0.9399 0.9399 0.3414 28.21 440.0552)" class="st2" cx="328.1" cy="199.9" rx="10" ry="7.7"/>
			<path class="st3" d="M383.7,131c1.4-0.9,2.8-1.9,4.1-3L370,118l20.4,7.6c7.1-7.2,10.9-17,10.6-27.1l-32.6,4.4l32.1-9.4
				c-3.7-19.9-22.9-33.1-42.8-29.4c-19.7,3.7-32.8,22.5-29.5,42.2c0.3,1.7,0.7,3.4,1.3,5.1c-2.2,1.4-4.3,3-6.2,4.9l19.9,21.7
				l-23-18.3c-7.8,9.7-10.1,22.7-6.2,34.5c-17.2,10.7-22.5,33.3-11.8,50.6s33.3,22.5,50.6,11.8c14.4-8.9,20.8-26.6,15.5-42.7
				C382.7,164.7,389.1,147.1,383.7,131L383.7,131z"/>
			<path class="st4" d="M314.4,129.8c-2.8,7.7-3,16.2-0.4,24c-17.2,10.7-22.5,33.3-11.8,50.6c10.7,17.2,33.3,22.5,50.6,11.8
				c14.4-8.9,20.8-26.6,15.5-42.6C375,169.3,315.8,125.9,314.4,129.8z"/>
		</g>
		<ellipse class="st3" cx="87.5" cy="305.2" rx="28.5" ry="5.5"/>
		<ellipse class="st2" cx="87" cy="302.8" rx="3.3" ry="4.4"/>
		<ellipse class="st2" cx="87" cy="297.5" rx="3.3" ry="4.4"/>
		<ellipse class="st2" cx="87" cy="292.2" rx="3.3" ry="4.4"/>
		<ellipse class="st2" cx="87" cy="286.9" rx="3.3" ry="4.3"/>
		<ellipse class="st2" cx="87" cy="281.6" rx="3.3" ry="4.4"/>
		<ellipse class="st2" cx="87" cy="276.3" rx="3.3" ry="4.4"/>
		<ellipse class="st2" cx="87" cy="271" rx="3.3" ry="4.4"/>
		<path class="st3" d="M99.5,234.8c0.4-0.8,0.9-1.4,1.2-2.1l-8.7-1.3h9.4c1.8-4,1.9-8.6,0.3-12.6l-12.7,6.6l11.7-8.6
			c-4.4-7.6-14.1-10.2-21.7-5.8c-7.6,4.4-10.2,14.1-5.8,21.7c0.4,0.7,0.8,1.3,1.3,1.9c-0.7,0.9-1.3,1.9-1.8,2.9l11.4,5.9l-12.1-4.1
			c-1.7,5.1-0.8,10.7,2.6,14.9c-5.4,6.9-4.2,16.9,2.7,22.3c6.9,5.4,16.9,4.2,22.3-2.7c4.5-5.8,4.5-13.9,0-19.7
			C104,248.6,104,240.5,99.5,234.8L99.5,234.8z"/>
		<path class="st4" d="M71.1,244.4c0,3.6,1.2,7,3.4,9.8c-5.4,6.9-4.2,16.9,2.7,22.3c6.9,5.4,16.9,4.2,22.3-2.7
			c4.5-5.8,4.5-13.9,0-19.7C101.6,251.6,71.1,242.6,71.1,244.4z"/>
		<path class="st5" d="M127.9,108.5h198.9c1.7,0,3.1,1.4,3.1,3.2v37.8c0,1.7-1.4,3.2-3.1,3.2H127.9c-1.7,0-3.2-1.4-3.2-3.2v-37.8
			C124.8,109.9,126.2,108.5,127.9,108.5z"/>
		<path class="st6" d="M142,54.7c0,0,2.9,79.3-2.3,88.6h174.8c0,0-7.4-61,0-88.6H142z"/>
		<path class="st7" d="M142,54.7c0,0,2.9,79.3-2.3,88.6h174.8c0,0-7.4-61,0-88.6H142z"/>
		<rect x="160" y="140.3" class="st5" width="128" height="15.7"/>
		<path class="st8" d="M344.9,327.3H107.8c-7,0-12.7-5.7-12.7-12.7l0,0c0-0.5,0-0.9,0.1-1.4l4.8-43.8c0.3-2.9,0.6-5.8,0.7-8.8
			l0.9-29.7c0.3-6.7,0.7-13.4,1.4-20.1c0.4-3.5,0.8-6.9,1.3-10.4l6.2-43.5c1.7-11.3,11.3-19.6,22.7-19.6h9.4c0,0,9.5,1.8,13.3,4.7
			c9.8,7.3,37.7,12.6,70.5,12.6s60.7-5.3,70.6-12.6c3.8-2.9,13.3-4.3,13.3-4.3h15.3c6.7,0,12.4,4.8,13.5,11.3l8.4,47.5
			c0.8,4.8,1.6,9.7,2.1,14.5c1,8.1,1.6,16.2,1.9,24.4l0.8,27.5c0.2,5.7,0.7,11.5,1.5,17.1l4.5,31.5c1.1,7.5-4.1,14.4-11.6,15.5
			C346.2,327.2,345.6,327.3,344.9,327.3z"/>
		<path class="st4" d="M121.8,217h209.5c4.7,0,8.5,3.8,8.5,8.5v80.6c0,4.7-3.8,8.5-8.5,8.5H121.8c-4.7,0-8.5-3.8-8.5-8.5v-80.6
			C113.3,220.8,117.1,217,121.8,217z"/>
		<ellipse class="st3" cx="128" cy="228.6" rx="6.5" ry="5.4"/>
		<ellipse class="st4" cx="128" cy="228.6" rx="6.5" ry="5.4"/>
		<ellipse class="st3" cx="128" cy="227.4" rx="6.5" ry="5.4"/>
		<ellipse class="st5" cx="135.6" cy="247.5" rx="6.5" ry="5.4"/>
		<ellipse class="st4" cx="135.6" cy="247.5" rx="6.5" ry="5.4"/>
		<ellipse class="st5" cx="135.6" cy="246.3" rx="6.5" ry="5.4"/>
		<ellipse class="st5" cx="139.9" cy="266.4" rx="6.5" ry="5.4"/>
		<ellipse class="st4" cx="139.9" cy="266.4" rx="6.5" ry="5.4"/>
		<ellipse class="st5" cx="139.9" cy="265.2" rx="6.5" ry="5.4"/>
		<ellipse class="st5" cx="123.5" cy="268.7" rx="6.5" ry="5.4"/>
		<ellipse class="st4" cx="123.5" cy="268.7" rx="6.5" ry="5.4"/>
		<ellipse class="st5" cx="123.5" cy="267.5" rx="6.5" ry="5.4"/>
		<ellipse class="st5" cx="147.8" cy="285.4" rx="6.5" ry="5.4"/>
		<ellipse class="st4" cx="147.8" cy="285.4" rx="6.5" ry="5.4"/>
		<ellipse class="st5" cx="147.8" cy="284.2" rx="6.5" ry="5.4"/>
		<ellipse class="st5" cx="126.1" cy="286" rx="6.5" ry="5.4"/>
		<ellipse class="st4" cx="126.1" cy="286" rx="6.5" ry="5.4"/>
		<ellipse class="st5" cx="126.1" cy="284.8" rx="6.5" ry="5.4"/>
		<ellipse class="st5" cx="165.7" cy="285.4" rx="6.5" ry="5.4"/>
		<ellipse class="st4" cx="165.7" cy="285.4" rx="6.5" ry="5.4"/>
		<ellipse class="st5" cx="165.7" cy="284.2" rx="6.5" ry="5.4"/>
		<ellipse class="st5" cx="184.6" cy="285.4" rx="6.5" ry="5.4"/>
		<ellipse class="st4" cx="184.6" cy="285.4" rx="6.5" ry="5.4"/>
		<ellipse class="st5" cx="184.6" cy="284.2" rx="6.5" ry="5.4"/>
		<ellipse class="st5" cx="202.1" cy="285.4" rx="6.5" ry="5.4"/>
		<ellipse class="st4" cx="202.1" cy="285.4" rx="6.5" ry="5.4"/>
		<ellipse class="st5" cx="202.1" cy="284.2" rx="6.5" ry="5.4"/>
		<ellipse class="st5" cx="221.5" cy="285.4" rx="6.5" ry="5.4"/>
		<ellipse class="st4" cx="221.5" cy="285.4" rx="6.5" ry="5.4"/>
		<ellipse class="st5" cx="221.5" cy="284.2" rx="6.5" ry="5.4"/>
		<ellipse class="st5" cx="238.9" cy="285.4" rx="6.5" ry="5.4"/>
		<ellipse class="st4" cx="238.9" cy="285.4" rx="6.5" ry="5.4"/>
		<ellipse class="st5" cx="238.9" cy="284.2" rx="6.5" ry="5.4"/>
		<ellipse class="st5" cx="256.3" cy="285.4" rx="6.5" ry="5.4"/>
		<ellipse class="st4" cx="256.3" cy="285.4" rx="6.5" ry="5.4"/>
		<ellipse class="st5" cx="256.3" cy="284.2" rx="6.5" ry="5.4"/>
		<ellipse class="st5" cx="275.1" cy="285.4" rx="6.5" ry="5.4"/>
		<ellipse class="st4" cx="275.1" cy="285.4" rx="6.5" ry="5.4"/>
		<ellipse class="st5" cx="275.1" cy="284.2" rx="6.5" ry="5.4"/>
		<ellipse class="st5" cx="292.7" cy="285.4" rx="6.5" ry="5.4"/>
		<ellipse class="st4" cx="292.7" cy="285.4" rx="6.5" ry="5.4"/>
		<ellipse class="st5" cx="292.7" cy="284.2" rx="6.5" ry="5.4"/>
		<ellipse class="st5" cx="312.2" cy="285.4" rx="6.5" ry="5.4"/>
		<ellipse class="st4" cx="312.2" cy="285.4" rx="6.5" ry="5.4"/>
		<ellipse class="st5" cx="312.2" cy="284.2" rx="6.5" ry="5.4"/>
		<ellipse class="st5" cx="332.2" cy="285.4" rx="6.5" ry="5.4"/>
		<ellipse class="st4" cx="332.2" cy="285.4" rx="6.5" ry="5.4"/>
		<ellipse class="st5" cx="332.2" cy="284.2" rx="6.5" ry="5.4"/>
		<ellipse class="st5" cx="157.9" cy="266.4" rx="6.5" ry="5.4"/>
		<ellipse class="st4" cx="157.9" cy="266.4" rx="6.5" ry="5.4"/>
		<ellipse class="st5" cx="157.9" cy="265.2" rx="6.5" ry="5.4"/>
		<ellipse class="st5" cx="175.9" cy="266.4" rx="6.5" ry="5.4"/>
		<ellipse class="st4" cx="175.9" cy="266.4" rx="6.5" ry="5.4"/>
		<ellipse class="st5" cx="175.9" cy="265.2" rx="6.5" ry="5.4"/>
		<ellipse class="st5" cx="194.4" cy="266.4" rx="6.5" ry="5.4"/>
		<ellipse class="st4" cx="194.4" cy="266.4" rx="6.5" ry="5.4"/>
		<ellipse class="st5" cx="194.4" cy="265.2" rx="6.5" ry="5.4"/>
		<ellipse class="st5" cx="212.2" cy="266.4" rx="6.5" ry="5.4"/>
		<ellipse class="st4" cx="212.2" cy="266.4" rx="6.5" ry="5.4"/>
		<ellipse class="st5" cx="212.2" cy="265.2" rx="6.5" ry="5.4"/>
		<ellipse class="st5" cx="230.3" cy="266.4" rx="6.5" ry="5.4"/>
		<ellipse class="st4" cx="230.3" cy="266.4" rx="6.5" ry="5.4"/>
		<ellipse class="st5" cx="230.3" cy="265.2" rx="6.5" ry="5.4"/>
		<ellipse class="st5" cx="247.7" cy="266.4" rx="6.5" ry="5.4"/>
		<ellipse class="st4" cx="247.7" cy="266.4" rx="6.5" ry="5.4"/>
		<ellipse class="st5" cx="247.7" cy="265.2" rx="6.5" ry="5.4"/>
		<ellipse class="st5" cx="266.5" cy="266.4" rx="6.5" ry="5.4"/>
		<ellipse class="st4" cx="266.5" cy="266.4" rx="6.5" ry="5.4"/>
		<ellipse class="st5" cx="266.5" cy="265.2" rx="6.5" ry="5.4"/>
		<ellipse class="st5" cx="284.4" cy="266.4" rx="6.5" ry="5.4"/>
		<ellipse class="st4" cx="284.4" cy="266.4" rx="6.5" ry="5.4"/>
		<ellipse class="st5" cx="284.4" cy="265.2" rx="6.5" ry="5.4"/>
		<ellipse class="st5" cx="302.6" cy="266.4" rx="6.5" ry="5.4"/>
		<ellipse class="st4" cx="302.6" cy="266.4" rx="6.5" ry="5.4"/>
		<ellipse class="st5" cx="302.6" cy="265.2" rx="6.5" ry="5.4"/>
		<ellipse class="st5" cx="320.9" cy="266.4" rx="6.5" ry="5.4"/>
		<ellipse class="st4" cx="320.9" cy="266.4" rx="6.5" ry="5.4"/>
		<ellipse class="st5" cx="320.9" cy="265.2" rx="6.5" ry="5.4"/>
		<ellipse class="st5" cx="153.9" cy="247.5" rx="6.5" ry="5.4"/>
		<ellipse class="st4" cx="153.9" cy="247.5" rx="6.5" ry="5.4"/>
		<ellipse class="st5" cx="153.9" cy="246.3" rx="6.5" ry="5.4"/>
		<ellipse class="st5" cx="172.2" cy="247.5" rx="6.5" ry="5.4"/>
		<ellipse class="st4" cx="172.2" cy="247.5" rx="6.5" ry="5.4"/>
		<ellipse class="st5" cx="172.2" cy="246.3" rx="6.5" ry="5.4"/>
		<ellipse class="st5" cx="189.8" cy="247.5" rx="6.5" ry="5.4"/>
		<ellipse class="st4" cx="189.8" cy="247.5" rx="6.5" ry="5.4"/>
		<ellipse class="st5" cx="189.8" cy="246.3" rx="6.5" ry="5.4"/>
		<ellipse class="st5" cx="207.4" cy="247.5" rx="6.5" ry="5.4"/>
		<ellipse class="st4" cx="207.4" cy="247.5" rx="6.5" ry="5.4"/>
		<ellipse class="st5" cx="207.4" cy="246.3" rx="6.5" ry="5.4"/>
		<ellipse class="st5" cx="225.2" cy="247.5" rx="6.5" ry="5.4"/>
		<ellipse class="st4" cx="225.2" cy="247.5" rx="6.5" ry="5.4"/>
		<ellipse class="st5" cx="225.2" cy="246.3" rx="6.5" ry="5.4"/>
		<ellipse class="st5" cx="242.7" cy="247.5" rx="6.5" ry="5.4"/>
		<ellipse class="st4" cx="242.7" cy="247.5" rx="6.5" ry="5.4"/>
		<ellipse class="st5" cx="242.7" cy="246.3" rx="6.5" ry="5.4"/>
		<ellipse class="st5" cx="261.2" cy="247.5" rx="6.5" ry="5.4"/>
		<ellipse class="st4" cx="261.2" cy="247.5" rx="6.5" ry="5.4"/>
		<ellipse class="st5" cx="261.2" cy="246.3" rx="6.5" ry="5.4"/>
		<ellipse class="st5" cx="278.7" cy="247.5" rx="6.5" ry="5.4"/>
		<ellipse class="st4" cx="278.7" cy="247.5" rx="6.5" ry="5.4"/>
		<ellipse class="st5" cx="278.7" cy="246.3" rx="6.5" ry="5.4"/>
		<ellipse class="st5" cx="297.4" cy="247.5" rx="6.5" ry="5.4"/>
		<ellipse class="st4" cx="297.4" cy="247.5" rx="6.5" ry="5.4"/>
		<ellipse class="st5" cx="297.4" cy="246.3" rx="6.5" ry="5.4"/>
		<ellipse class="st5" cx="315.6" cy="247.5" rx="6.5" ry="5.4"/>
		<ellipse class="st4" cx="315.6" cy="247.5" rx="6.5" ry="5.4"/>
		<ellipse class="st5" cx="315.6" cy="246.3" rx="6.5" ry="5.4"/>
		<ellipse class="st5" cx="144.9" cy="228.6" rx="6.5" ry="5.4"/>
		<ellipse class="st4" cx="144.9" cy="228.6" rx="6.5" ry="5.4"/>
		<ellipse class="st5" cx="144.9" cy="227.4" rx="6.5" ry="5.4"/>
		<ellipse class="st5" cx="162.9" cy="228.6" rx="6.5" ry="5.4"/>
		<ellipse class="st4" cx="162.9" cy="228.6" rx="6.5" ry="5.4"/>
		<ellipse class="st5" cx="162.9" cy="227.4" rx="6.5" ry="5.4"/>
		<ellipse class="st5" cx="180.3" cy="228.6" rx="6.5" ry="5.4"/>
		<ellipse class="st4" cx="180.3" cy="228.6" rx="6.5" ry="5.4"/>
		<ellipse class="st5" cx="180.3" cy="227.4" rx="6.5" ry="5.4"/>
		<ellipse class="st5" cx="198.2" cy="228.6" rx="6.5" ry="5.4"/>
		<ellipse class="st4" cx="198.2" cy="228.6" rx="6.5" ry="5.4"/>
		<ellipse class="st5" cx="198.2" cy="227.4" rx="6.5" ry="5.4"/>
		<ellipse class="st5" cx="215.8" cy="228.6" rx="6.5" ry="5.4"/>
		<ellipse class="st4" cx="215.8" cy="228.6" rx="6.5" ry="5.4"/>
		<ellipse class="st5" cx="215.8" cy="227.4" rx="6.5" ry="5.4"/>
		<ellipse class="st5" cx="233.8" cy="228.6" rx="6.5" ry="5.4"/>
		<ellipse class="st4" cx="233.8" cy="228.6" rx="6.5" ry="5.4"/>
		<ellipse class="st5" cx="233.8" cy="227.4" rx="6.5" ry="5.4"/>
		<ellipse class="st5" cx="251.4" cy="228.6" rx="6.5" ry="5.4"/>
		<ellipse class="st4" cx="251.4" cy="228.6" rx="6.5" ry="5.4"/>
		<ellipse class="st5" cx="251.4" cy="227.4" rx="6.5" ry="5.4"/>
		<ellipse class="st5" cx="269.3" cy="228.6" rx="6.5" ry="5.4"/>
		<ellipse class="st4" cx="269.3" cy="228.6" rx="6.5" ry="5.4"/>
		<ellipse class="st5" cx="269.3" cy="227.4" rx="6.5" ry="5.4"/>
		<ellipse class="st5" cx="287.7" cy="228.6" rx="6.5" ry="5.4"/>
		<ellipse class="st4" cx="287.7" cy="228.6" rx="6.5" ry="5.4"/>
		<ellipse class="st5" cx="287.7" cy="227.4" rx="6.5" ry="5.4"/>
		<ellipse class="st5" cx="305.7" cy="228.6" rx="6.5" ry="5.4"/>
		<ellipse class="st4" cx="305.7" cy="228.6" rx="6.5" ry="5.4"/>
		<ellipse class="st5" cx="305.7" cy="227.4" rx="6.5" ry="5.4"/>
		<ellipse class="st3" cx="323.3" cy="228.6" rx="6.5" ry="5.4"/>
		<ellipse class="st4" cx="323.3" cy="228.6" rx="6.5" ry="5.4"/>
		<ellipse class="st3" cx="323.3" cy="227.4" rx="6.5" ry="5.4"/>
		<path class="st5" d="M131.6,298h190.7c2.1,0,3.8,1.7,3.8,3.8v2.9c0,2.1-1.7,3.8-3.8,3.8H131.6c-2.1,0-3.8-1.7-3.8-3.8v-2.9
			C127.8,299.7,129.5,298,131.6,298z"/>
		<path class="st4" d="M131.6,298h190.7c2.1,0,3.8,1.7,3.8,3.8v2.9c0,2.1-1.7,3.8-3.8,3.8H131.6c-2.1,0-3.8-1.7-3.8-3.8v-2.9
			C127.8,299.7,129.5,298,131.6,298z"/>
		<path class="st5" d="M131.6,297.2h190.7c2.1,0,3.8,1.7,3.8,3.8v2.9c0,2.1-1.7,3.8-3.8,3.8H131.6c-2.1,0-3.8-1.7-3.8-3.8V301
			C127.8,298.9,129.5,297.2,131.6,297.2z"/>
		<path class="st4" d="M299.2,173.3c0,11.2-35.4,23.2-75.4,23.2s-69.5-12.9-69.5-24.1s29.6-16.4,69.5-16.4S299.2,162.1,299.2,173.3z
			"/>
		<ellipse class="st8" cx="334.3" cy="129.7" rx="4.4" ry="10.8"/>
		<ellipse class="st8" cx="120.3" cy="129.7" rx="4.4" ry="10.8"/>
		<rect x="123.5" y="127.2" class="st4" width="210.7" height="3.4"/>
		<rect x="123.5" y="126.3" class="st8" width="210.7" height="3.4"/>
		<path class="st8" d="M232.2,130.4c-1.7-0.5-4.9,9.9-4.9,9.9h9.7C237,140.3,233.9,130.9,232.2,130.4z M232.1,131.8
			c0.5,0,0.9,0.4,0.9,0.9c0,0.4-0.3,0.8-0.7,0.9c-0.5,0.1-1-0.1-1.1-0.6c0-0.1,0-0.2,0-0.3l0,0C231.2,132.2,231.6,131.8,232.1,131.8
			L232.1,131.8L232.1,131.8z M232.1,134.8c1.1,0.3,3.1,5.1,3.1,5.1H229C229,139.9,231,134.5,232.1,134.8L232.1,134.8z"/>
		<path class="st9" d="M349.7,211.1H103.1c0.4-3.4,0.8-6.9,1.3-10.3l6.2-43.4c1.7-11.2,11.3-19.5,22.6-19.5h9.5
			c4.8,0,9.5,1.6,13.3,4.4c9.8,7.3,37.7,12.6,70.5,12.6s60.7-5.3,70.5-12.6c3.8-2.9,8.5-4.4,13.3-4.4h15.3c6.7,0,12.3,4.8,13.5,11.3
			l8.4,47.5C348.4,201.4,349.1,206.2,349.7,211.1z"/>
		<g id="f7c3d2ec-a0cd-4215-8d90-993b7331bb50">
			
				<linearGradient id="SVGID_1_" gradientUnits="userSpaceOnUse" x1="-3058.8081" y1="-1831.0493" x2="-3058.8081" y2="-1941.4795" gradientTransform="matrix(1 0 0 1 3264.77 2168.2043)">
				<stop  offset="0" style="stop-color:#808080;stop-opacity:0.25"/>
				<stop  offset="0.54" style="stop-color:#808080;stop-opacity:0.12"/>
				<stop  offset="1" style="stop-color:#808080;stop-opacity:0.1"/>
			</linearGradient>
			<path class="st10" d="M219,265.1c0,0-4.9-8.9-4.1-10.3c0.6-1.1,1.1-2.3,1.4-3.5c0,0,1.8-1.2,1.8-1.7s1.4-1.7,2.2-2.2
				s0.4-2.9,0-3.2c-0.4-0.4-0.7-0.8-1-1.3c0,0,0.5-1.4,0-1.9s0.1-0.9,0-1.3c0-0.7,0-1.3,0-2c-0.4-0.7-1.1-1.2-1.9-1.4v-0.2l-0.4-1.4
				c0,0,1.6-3-1-4.5c-0.2-0.1-0.4-0.2-0.6-0.3v-0.3c-0.1-0.8-0.2-1.5-0.4-2.3c-0.1-0.4-0.3-0.7-0.5-0.6c-0.1,0-0.1,0-0.1,0.1
				c-0.1,0.1-0.2,0.2-0.3,0.3l0,0c-0.3,0.5-0.5,1.1-0.6,1.7c-0.1,0.3-0.1,0.7-0.2,1l0,0c-0.1,0.2-0.2,0.4-0.3,0.6
				c-0.5,1-0.5,2.2,0,3.2c0.6,0.9,1.5,2.9,1.5,2.9l0,0l0.4,0.1h0.1v0.3v0.7l0.4,5.9c-0.1,0-0.2-0.1-0.4-0.1c-0.2,0-0.3,0-0.5,0
				c-0.3-1.3-1.3-2.6-1.4-4c0-0.1,0-0.3,0-0.4c0-0.9,0.2-1.8,0.2-2.6c0-0.2,0-0.3,0-0.5v-0.4c-0.2-1.4-1.1-2.7-2.4-3.3
				c-0.4-0.2-0.9-0.4-1.4-0.6c-0.9-0.7-1.7-1.4-2.5-2.3c-0.7-0.5-1.6-0.7-2.4-0.5c-0.4,0.1-0.8,0.1-1.2,0.2l0,0
				c-1,0.3-1.9,0.6-2.7,1.1c-0.1,0.1-0.2,0.1-0.3,0.2c-0.2,0.1-0.4,0.4-0.5,0.6c-0.1,0.2-0.1,0.5-0.1,0.7v0.4c0,2.9-3.1,5.1-3.4,7.9
				v0.2l0,0v0.2c0,1.3,0.7,2.5,0.9,3.8v0.1c0,0.5-0.1,1.1-0.3,1.6c-0.4,0.1-0.7,0.2-1,0.4c-1.4,0.8-2.4,2-2.9,3.5
				c-0.1,0.5-0.2,1-0.2,1.5c0,1.8-0.2,3.7-0.5,5.5c-0.1,0.5-0.2,0.9-0.3,1.4c0,0,0,0.1,0,0.1l-0.3,4.7l-0.1,0.8l-0.1,1.2l0.1,0.2
				c0.1,0.2,0.1,0.4,0.1,0.5c0.1,0.4,0.1,0.8,0,1.2c0,0.2-0.1,0.3-0.2,0.4l0,0c-0.1,0.4-0.2,0.8-0.2,1.2c0,0.2-0.1,0.5-0.1,0.8
				c-0.2,1.8-0.3,4.6-0.3,6.9s-0.1,4-0.1,4c0.3,0.2,0.6,0.3,0.9,0.5l0,0c-0.3,0.8-0.5,1.7-0.6,2.6c-0.3,1.9,0.7,3.8,2.5,4.6l0.4,0.2
				c0.4,0.1,0.8,0.1,1.1-0.1v0.3c0,0,0,0.8,0,1.1c0.1,2,0.6,5.6,0.6,5.6c0.1,0.6,0.1,1.3,0,1.9c-0.1,0.7-0.1,1.4,0,2.2
				c0,0,0.5,0.9,0,1.3s-0.7,2.6-0.5,2.9l0,0c0.1,0.7-0.5,11.4-0.5,11.4s-0.6,1.6-1.1,3.3s-0.9,3.4-0.4,3.7c0.5,0.2,1,0.3,1.5,0.4
				v0.2c0,0.6-0.1,1.2-0.3,1.8c-0.3,1.3-0.5,2.6-0.6,3.9v-0.1c-0.2,0.5-0.4,1.1-0.6,1.6c0,0-1.7,4.1-1.1,5.2c0,0.1,0.1,0.2,0.2,0.3
				l0,0v0c0.8,0.6,2.8,0.8,3.6,0.8v1v0.1h0.4v0.1c0.4-0.1,0.4-1.5,0.4-1.5v-0.6c0.3-0.8,0.5-1.6,0.4-2.4c0-0.9,0.1-1.9,0.4-2.8
				c0.1-0.5,0.3-0.9,0.5-1.4c0.2-0.9,0.1-1.9-0.1-2.8c-0.1-0.2-0.2-0.4-0.4-0.6v-0.1l0,0c0-0.7,0.1-1.5,0.2-2.2l0,0
				c0-0.1,0-0.1,0.2-0.2v0.1h0.3c0.9,0,1.6,0,1.6,0c0.4-1.8,0.6-3.7,0.7-5.5v-0.2c0-1.3,0.2-2.6,0.4-3.9l0.6-5.9
				c-0.2-0.6-0.2-1.2,0-1.7c0.2-0.4,0.6-1.3,0.8-1.8c0.1-0.3,0.2-0.5,0.3-0.6v-0.5c-0.1,0-0.2-0.1-0.3-0.1l0,0
				c-0.2-0.2-0.4-0.5,0.3-0.9c1.1-0.7,0.7-2.5,0.7-2.5c-0.2-0.4-0.2-0.8,0.1-1.2c0.4-0.5,0-2.6,0-2.6c0.3-0.6,0.6-1.1,0.7-1.8
				c0.3-0.8,0.9-4.9,1.3-6.9c0.1-0.6,0.2-1.1,0.2-1.1v-0.1l0,0l0.4,1v0.1l-0.1,1.8c0.2,2.2,0.2,4.4,0.1,6.7l0,0
				c0,0.2-0.1,0.4-0.1,0.6c-0.4,0.9-0.3,5.3-0.3,5.3v0.2c-0.1,0.4-0.2,0.8-0.2,1.2l0,0c0,0.1,0.1,0.3,0.1,0.4
				c0.2,0.2,0.3,0.4,0.5,0.6l0,0v0.2c-0.3,0.3-0.5,0.6-0.6,1c-0.2,0.5-0.3,1.1-0.2,1.6l0,0c0,0.1,0.1,0.1,0.1,0.2
				c0,0.1,0.1,0.1,0.1,0.2l0,0c0.1,1.2-0.2,6.3-0.4,9.1c-0.1,1.1-0.1,1.9-0.1,1.9l-0.6,6.1h0.1l0.4,0.2l0,0v0.2
				c-0.1,0.6-0.2,1.3-0.3,1.8v0.1c-0.2,0-0.4,0.1-0.6,0.3c-1.3,2.2-0.7,4,0,4.5c0.2,0.3,0.4,0.7,0.4,1.1l-0.1,2.2v0.3
				c0,0,0.2,0.1,0.2,0.2l0.1,0.7l0.1,1h0.5v-1.3h0.1c1,0.1,2,0.2,3,0.4h0.2c0-0.3,0.1-0.3,0.1-0.3c0.3-0.2,1.2-2.5,0.4-3.1
				c-0.5-0.6-0.9-1.3-0.9-2.1c-0.1-0.2-0.1-0.4-0.2-0.6v-0.1c0-0.7,0-1.3,0.1-2c0.1-0.8,0.1-1.6,0.2-2.4v-0.4c0.1,0,0.3-0.1,0.4-0.1
				l0,0c0.2-0.1,0.5-0.2,0.6-0.4l2.1-9.4l0.2-1.1l1.3-6.2c0,0-0.4-2.2,0-2.5c0.2-0.4,0.3-0.9,0.2-1.3c0-0.8-0.1-1.7-0.2-2.5
				c0,0,0.6-0.9,0.9-1.5c0.2-0.7,0.2-1.4,0-2.1l0.6-3.5c0.5-2.6,1.3-5.2,2.3-7.6c1.2-2.5,0.4-9.4-0.4-13.1l-0.1-0.3l0,0l1.3-0.6
				l0.2-0.1l1.9-0.9l0,0c0.4-0.2,0.9-0.3,1.3-0.5c0.1,0,0.3-0.1,0.4-0.1C222.1,270.6,219,265.1,219,265.1z M195.5,276.8h0.3
				l-0.1,0.2l-0.1,0.1c-0.1,0.2-0.2,0.5-0.3,0.7c0-0.3,0.1-0.5,0.1-0.9L195.5,276.8z M194.7,281.4L194.7,281.4L194.7,281.4l-0.1-0.2
				l0.6-0.1l0,0v0.1C195,281.1,194.9,281.2,194.7,281.4L194.7,281.4l0.1,0.2c0.2,0.1,0.1,0.2,0.1,0.4l-0.1-0.3
				C194.8,281.5,194.8,281.5,194.7,281.4L194.7,281.4z"/>
			<path class="st11" d="M217.1,237.4l-1.9,0.7l-0.7-1.1c-0.5-0.9-1.2-2-1.8-2.9c-0.9-1.5,0.3-3.8,0.3-3.8s0.2-2.3,1-3s1,3,1,3
				c3.2,1.4,1.5,4.8,1.5,4.8l0.3,1.3L217.1,237.4z"/>
			<path class="st4" d="M217.2,237.4l-1.9,0.7l-0.7-1.1v-0.1c0.7-0.4,1.5-0.6,2.3-0.5L217.2,237.4z"/>
			<path class="st3" d="M214.1,245l0.9-0.8l-0.5-7.1c1.4-0.9,3.2-0.5,4.1,0.8l0.1,0.1c0,0.7,0,1.3,0,2c0.1,0.4-0.5,0.9,0,1.3
				s0,1.9,0,1.9c0.2,0.5,0.6,0.9,0.9,1.3c0.4,0.3,0.7,2.7,0,3.2s-2.1,1.7-2.1,2.2s-1.7,1.7-1.7,1.7l-1.5-2L214.1,245z"/>
			<path class="st11" d="M193.9,288.2c-3.5-1.5-2.7-5.1-2.1-6.9c0.1-0.4,0.3-0.7,0.5-1.1l2-1.2c0,0,0.4,1,0.8,2.4
				C196.1,284.6,197.2,289.7,193.9,288.2z"/>
			<path class="st11" d="M198.7,321.3c-0.2,0.5-0.4,0.9-0.5,1.5c-0.2,0.8-0.2,1.6-0.2,2.5c0,0.3,0,0.6,0.1,1l-3.9,2.6
				c0,0,0-0.3,0.1-0.8c0.1-1.3,0.2-2.5,0.5-3.8c0.2-0.6,0.3-1.2,0.3-1.8c0.1-0.7,0.1-1.4,0.1-1.4S199.7,319.3,198.7,321.3z"/>
			<path class="st11" d="M207.9,323.2c0,0,0,0.7,0,1.6c0,0.8-0.1,1.6-0.2,2.4c-0.1,0.7-0.1,1.3-0.1,2c0,0.8,0.1,1.6,0.1,1.6
				s-4-3.8-3.6-4c0.2-0.3,0.3-0.5,0.3-0.9c0.1-0.5,0.2-1.2,0.3-1.8s0.2-1.3,0.2-1.3L207.9,323.2z"/>
			<path class="st4" d="M198.7,321.3c-0.2,0.5-0.4,0.9-0.5,1.5c-1.1,0-2.1-0.1-3.2-0.2c0.1-0.7,0.1-1.4,0.1-1.4
				S199.7,319.3,198.7,321.3z"/>
			<path class="st4" d="M207.9,323.2c0,0,0,0.7,0,1.6c-1.1,0.2-2.2-0.1-3.1-0.7c0.1-0.7,0.2-1.3,0.2-1.3L207.9,323.2z"/>
			<path class="st3" d="M216,286.4c-1,2.4-1.8,5-2.2,7.6l-0.6,3.5c0.2,0.7,0.2,1.4,0,2.1c-0.3,0.6-0.8,1.5-0.8,1.5s0.4,3.5,0,3.9
				s0,2.5,0,2.5l-1.4,7.3l-2,9.4c-2,1.6-4.5-0.4-4.5-0.4l0.6-6.1c0,0,0.9-10.7,0.5-11.2s0.1-1.8,0.1-1.8s0.5-1.3,0.1-1.8
				s0.1-1.6,0.1-1.6s-0.1-4.4,0.3-5.4s0-7.2,0-7.2l-0.2-1.9l-0.1-1.1v-0.1l-0.2,1.1c-0.3,2-1,6.2-1.3,7.1c-0.2,0.6-0.4,1.2-0.7,1.8
				c0,0,0.4,2.2,0,2.7c-0.2,0.4-0.2,0.8-0.1,1.2c0,0,0.4,1.8-0.7,2.5s0,1.1,0,1.1s-0.8,1.7-1.1,2.5c-0.2,0.6-0.2,1.2,0,1.7l-0.6,5.8
				c-0.3,1.4-0.4,2.7-0.4,4.1c-0.1,1.8-0.3,3.7-0.6,5.5c0,0-5.5,0-6.4-0.6s1.4-7,1.4-7s0.6-11.1,0.5-11.4s0-2.5,0.5-2.9s0-1.3,0-1.3
				c-0.1-0.7-0.1-1.4,0-2.2c0.1-0.6,0.1-1.2,0-1.9c0,0-0.5-3.5-0.6-5.5s-0.4-6.6-0.4-6.6s0.4-2.8,0.4-4.1c0.1-0.6,0.2-1.2,0.5-1.7
				c0.3-0.7,0.7-1.3,1.1-1.9c0,0,17.1-5,17.8-4.5c0.4,0.7,0.6,1.5,0.7,2.4C216.4,277,217.1,283.8,216,286.4z"/>
			<path class="st12" d="M216,286.4c-1,2.4-1.8,5-2.2,7.6l-0.6,3.5c0.2,0.7,0.2,1.4,0,2.1c-0.3,0.6-0.8,1.5-0.8,1.5s0.4,3.5,0,3.9
				s0,2.5,0,2.5l-1.4,7.3l-2,9.4c-2,1.6-4.5-0.4-4.5-0.4l0.6-6.1c0,0,0.9-10.7,0.5-11.2s0.1-1.8,0.1-1.8s0.5-1.3,0.1-1.8
				s0.1-1.6,0.1-1.6s-0.1-4.4,0.3-5.4s0-7.2,0-7.2l-0.2-1.9l-0.1-1.1v-0.1l-0.2,1.1c-0.3,2-1,6.2-1.3,7.1c-0.2,0.6-0.4,1.2-0.7,1.8
				c0,0,0.4,2.2,0,2.7c-0.2,0.4-0.2,0.8-0.1,1.2c0,0,0.4,1.8-0.7,2.5s0,1.1,0,1.1s-0.8,1.7-1.1,2.5c-0.2,0.6-0.2,1.2,0,1.7l-0.6,5.8
				c-0.3,1.4-0.4,2.7-0.4,4.1c-0.1,1.8-0.3,3.7-0.6,5.5c0,0-5.5,0-6.4-0.6s1.4-7,1.4-7s0.6-11.1,0.5-11.4s0-2.5,0.5-2.9s0-1.3,0-1.3
				c-0.1-0.7-0.1-1.4,0-2.2c0.1-0.6,0.1-1.2,0-1.9c0,0-0.5-3.5-0.6-5.5s-0.4-6.6-0.4-6.6s0.4-2.8,0.4-4.1c0.1-0.6,0.2-1.2,0.5-1.7
				c0.3-0.7,0.7-1.3,1.1-1.9c0,0,17.1-5,17.8-4.5c0.4,0.7,0.6,1.5,0.7,2.4C216.4,277,217.1,283.8,216,286.4z"/>
			<circle class="st13" cx="205.5" cy="237.4" r="5"/>
			<path class="st4" d="M215.7,273.3l-1,0.5c0,0-8,3.8-10.4,3.6c-1.8-0.2-6.3-0.1-8.3,0c0.3-0.7,0.7-1.3,1.1-1.9
				c0,0,17.1-5,17.8-4.5C215.3,271.7,215.5,272.5,215.7,273.3z"/>
			<path class="st3" d="M202,245.3c0,0-4.6,0.7-5.7,1.4s-3.2,2.1-3.2,5c0,2.3-0.3,4.6-0.8,6.8c-0.3,0.9,4.5,7.9,4.5,7.9l-1.7,10.6
				c0,0,6.9-0.2,9.2,0s10.4-3.6,10.4-3.6s4.8-2.5,5.8-2.6c1-0.1-2-5.6-2-5.6s-4.7-8.9-3.9-10.3c0.6-1.1,1-2.3,1.4-3.5l-0.9-7.3
				c-0.8-0.2-1.7-0.1-2.4,0.4c-1.1,0.8-4.8,0.4-4.8,0.4L202,245.3z"/>
			<path class="st4" d="M194.2,258.1l-1.8,0.5l-0.5,6.8c0,0,0.6,1.8,0,2.4c-0.6,0.6-0.8,12.9-0.8,12.9c1.3,0.9,3.1,1,4.5,0.4
				c0,0-0.4-1.4,0.7-6.4c0.6-2.4,1-5,1.1-7.5c0,0,0-6.2,0.5-7.2c0.5-1,0-3.5,0-3.5s-1-1.4-0.9-1.9S194.2,258.1,194.2,258.1z"/>
			<path class="st4" d="M195.1,281.5c-1.1,0.4-2.2,0.3-3.2-0.1c0.1-0.4,0.3-0.7,0.5-1.1l2-1.2C194.3,279.1,194.6,280.1,195.1,281.5z
				"/>
			<path class="st3" d="M194.1,258.1l-1.8,0.5l-0.5,6.8c0,0,0.6,1.8,0,2.4c-0.6,0.6-0.8,12.9-0.8,12.9c1.3,0.9,3.1,1,4.5,0.4
				c0,0-0.4-1.4,0.7-6.4c0.6-2.5,1-5,1.1-7.5c0,0,0-6.2,0.5-7.2c0.5-1,0-3.5,0-3.5s-1-1.4-0.9-1.9S194.1,258.1,194.1,258.1z"/>
			<path class="st4" d="M212.5,259.2c0,0-0.9,8.1-3.7,9.6C208.9,268.8,215,267.1,212.5,259.2z"/>
			<path class="st4" d="M198.8,259.9c0,0,3.4,1.6,2.6,2.8C200.6,263.9,198.8,259.9,198.8,259.9z"/>
			<path class="st4" d="M198.8,263.3c0,0,2.2,2.2,1.7,3C200.1,267,198.8,263.3,198.8,263.3z"/>
			<path class="st4" d="M216.2,244.7c0.4,0.7,0.7,1.5,0.9,2.4C217.2,248.1,216.2,244.7,216.2,244.7z"/>
			<path class="st4" d="M216.2,242.8c0,0,0.4-0.4,1.5,0S216.2,242.8,216.2,242.8z"/>
			<path class="st4" d="M212,284.9c-1.8,0.3-3.6,0-5.3-0.7l-0.9,2.3l-0.1-1.1c0.1-0.9,0.4-1.9,1-2.1
				C208.3,284.4,210.1,285,212,284.9z"/>
			<path class="st4" d="M197.3,287.9c0,0,4.4,0.9,5.7,0.8L197.3,287.9z"/>
			<path class="st4" d="M197.7,289.1c1,0,1.9,0.1,2.8,0.3L197.7,289.1z"/>
			<path class="st4" d="M197.9,289.9c0.9,0.2,1.7,0.3,2.6,0.4L197.9,289.9z"/>
			<path class="st4" d="M197.9,299.8c0.1-0.1,3.8-0.9,4.2-0.3L197.9,299.8z"/>
			<path class="st4" d="M197.9,300.9c0,0,3.2-0.4,3.3,0S197.9,300.9,197.9,300.9z"/>
			<path class="st4" d="M197.9,301.9c1.3-0.3,2.5-0.5,3.8-0.5C202.1,301.6,197.9,301.9,197.9,301.9z"/>
			<path class="st4" d="M198,326.2l-3.9,2.6c0,0,0-0.3,0.1-0.8c0.5-1.2,1.1-2.3,2-3.3c0.6-0.2,1.3-0.1,1.8,0.4
				C197.9,325.5,198,325.8,198,326.2z"/>
			<path class="st5" d="M198.4,328.6c-0.5,1.3-0.8,2.6-0.8,4c0,1.1-0.3,2.2-0.9,3.2c-0.1,0.1-0.2,0.3-0.3,0.4c0,0-2.7,0-3.6-0.8
				c-0.1-0.1-0.2-0.2-0.2-0.3c-0.6-1.1,1-5.2,1-5.2c0.4-1.8,1.3-3.5,2.5-4.9C199.2,324.1,198.4,328.6,198.4,328.6z"/>
			<path class="st4" d="M196.7,335.7c-0.1,0.1-0.2,0.3-0.3,0.4c0,0-2.7,0-3.6-0.8c0.5-1.5,2-6.2,2.6-5.4S196.6,334.2,196.7,335.7z"
				/>
			<path class="st5" d="M196.4,330l-0.2,7h0.9c0,0,0.1-6.1,0.6-7S196.4,330,196.4,330z"/>
			<path class="st4" d="M207.6,330.8c0,0-4-3.8-3.6-4c0.2-0.3,0.3-0.5,0.3-0.9c0.8-0.1,2.1,0.2,3.2,3.2
				C207.6,330,207.6,330.8,207.6,330.8z"/>
			<path class="st5" d="M208.4,335c0,0-0.1,0-0.1,0c-1,0.1-2.1,0.1-3.1,0c-0.4,0-0.7-0.3-0.7-0.7v-0.9c0-1.1-0.2-2.3-0.6-2.6
				c-0.7-0.5-1.2-2.3,0-4.5c0,0,2.3-1.8,4,3.5c0.1,0.8,0.4,1.5,0.9,2.1C209.5,332.4,208.7,334.8,208.4,335z"/>
			<path class="st4" d="M208.3,335c-1,0.1-2.1,0.1-3.1,0c-0.4,0-0.7-0.3-0.7-0.7v-0.9c0.3-1.3,0.7-2.6,1.3-2.9
				C205.7,330.5,207.4,330.3,208.3,335z"/>
			<polygon class="st5" points="203.9,330.4 204.4,336.2 204.9,336.2 204.9,329.9 			"/>
			<path class="st4" d="M205.4,229.3c-1.6,0.1-3.1,0.6-4.4,1.4c-0.4,0.2-0.7,0.5-0.9,0.9c-0.1,0.3-0.1,0.7-0.1,1
				c0,3-3.3,5.2-3.2,8.2c0,1.2,0.6,2.3,0.7,3.4c0.2,2-1,3.8-2.1,5.4c1.1,0.1,2.3-0.3,3.1-1.1c1.2,3.9,1.3,8.1,0.4,12.1h1.6
				c0.2,0,0.3,0,0.5,0.1c0.1,0.1,0.3,0.2,0.4,0.3c1.5,1.5,2.5,3.7,1.9,5.7l3.4-1.3c0.8-0.3,1.6-0.6,2.4-1.1c0.7-0.5,1.2-1.2,1.4-2.1
				c0.1-0.5,0.1-1.1,0.5-1.4c0.2-0.1,0.4-0.2,0.7-0.2c0.9-0.5,1.5-1.4,1.5-2.4c0.2-1.2,0.3-2.4,0.2-3.6c-0.1-2-0.8-4.1-0.3-6.1
				c0.4-1.1,0.7-2.2,0.9-3.3c0.1-1.9-1.4-3.5-1.6-5.4c-0.1-1.3,0.3-2.6,0.2-3.9c-0.2-1.4-1-2.6-2.2-3.2c-0.4-0.2-0.9-0.4-1.3-0.6
				c-0.8-0.7-1.6-1.4-2.4-2.2c-0.9-0.7-2.3-0.9-2.9,0L205.4,229.3z"/>
			<path class="st14" d="M205.4,229.3c-1.6,0.1-3.1,0.6-4.4,1.4c-0.4,0.2-0.7,0.5-0.9,0.9c-0.1,0.3-0.1,0.7-0.1,1
				c0,3-3.3,5.2-3.2,8.2c0,1.2,0.6,2.3,0.7,3.5c0.2,2-1,3.8-2.1,5.4c1.1,0.1,2.3-0.3,3.2-1c1.2,3.9,1.3,8.1,0.4,12.1h1.6
				c0.2,0,0.3,0,0.5,0.1c0.1,0.1,0.3,0.2,0.4,0.3c1.6,1.4,2.3,3.6,1.9,5.7l3.4-1.3c0.8-0.3,1.6-0.6,2.4-1.1c0.7-0.5,1.2-1.2,1.4-2.1
				c0.1-0.5,0.1-1.1,0.5-1.4c0.2-0.1,0.4-0.2,0.7-0.2c0.9-0.5,1.5-1.4,1.5-2.4c0.2-1.2,0.3-2.4,0.2-3.6c-0.1-2-0.8-4.1-0.3-6.1
				c0.4-1.1,0.7-2.2,0.9-3.3c0.1-1.9-1.4-3.5-1.6-5.4c-0.2-1.3,0.3-2.6,0.2-3.9c-0.2-1.4-1-2.6-2.2-3.2c-0.4-0.2-0.9-0.4-1.3-0.6
				c-0.8-0.7-1.6-1.4-2.4-2.2c-0.9-0.7-2.3-0.9-2.9,0L205.4,229.3z"/>
			<g class="st15">
				<path d="M200.2,231.8L200.2,231.8z"/>
				<path d="M212.6,238.7c0.1-0.9,0.2-1.8,0.2-2.8C212.7,236.9,212.6,237.8,212.6,238.7z"/>
				<path d="M197.6,243.3c-0.1-1.1-0.6-2.1-0.7-3.1c0,0.2,0,0.4,0,0.6c0,1.2,0.6,2.3,0.7,3.4C197.7,243.9,197.7,243.6,197.6,243.3z"
					/>
				<path d="M213.3,247.6c-0.2,0.7-0.2,1.4-0.2,2.1c0-0.4,0.1-0.8,0.2-1.2c0.4-1.1,0.8-2.2,1-3.3c0-0.2,0-0.4,0-0.6
					C214,245.6,213.7,246.6,213.3,247.6z"/>
				<path d="M198.7,247.7c-0.7,0.6-1.6,0.9-2.5,1c-0.2,0.3-0.4,0.6-0.6,0.9c1.1,0.1,2.3-0.3,3.1-1c0.6,2.1,1,4.3,1,6.5
					C199.8,252.5,199.4,250.1,198.7,247.7z"/>
				<path d="M213.4,257.2c-0.1,1-0.6,1.9-1.5,2.4c-0.2,0-0.5,0.1-0.7,0.2c-0.4,0.3-0.4,0.9-0.5,1.4c-0.2,0.9-0.7,1.6-1.4,2.1
					c-0.7,0.5-1.5,0.8-2.3,1.1l-3.2,1.2c0,0.3-0.1,0.7-0.1,1l3.4-1.3c0.8-0.3,1.6-0.6,2.3-1.1c0.7-0.5,1.3-1.2,1.4-2.1
					c0.1-0.5,0.1-1.1,0.5-1.4c0.2-0.1,0.4-0.2,0.7-0.2c0.9-0.5,1.5-1.4,1.5-2.4c0.2-1,0.3-2,0.2-3.1
					C213.6,255.8,213.5,256.5,213.4,257.2z"/>
				<path d="M201.6,260.2c-0.2-0.2-0.5-0.4-0.8-0.3h-1.3c-0.1,0.3-0.1,0.6-0.2,0.9h1.5c0.3,0,0.6,0.1,0.8,0.3c1.1,1,1.7,2.4,1.9,3.8
					C203.6,263.1,202.9,261.4,201.6,260.2z"/>
			</g>
			<path class="st4" d="M193.7,266c0,0,1.3-0.5,1.6,0C195.5,266.5,193.7,266,193.7,266z"/>
			<path class="st4" d="M194.1,266.9c0,0,1.3-0.5,1.6,0C196,267.4,194.1,266.9,194.1,266.9z"/>
		</g>
		<path class="st16" d="M102.8,57.7l0.1,0.9l3.9,0.5c0,0,0.3-0.2,0.8-0.6c1.1-0.8,2.4-1.4,3.8-1.8c2-0.4,8.5-3.3,6.4-3.5
			s-1.9,0.2-1.9,0.2c-1.3-1.3-3.3-1.4-4.7-0.2c-1.8,1.6-5.7,3.2-7.5,4L102.8,57.7z"/>
		<path class="st17" d="M118.3,47.5c0.6-0.2,1.2-0.4,1.8-0.5c0.6-0.1,1.3,0.1,1.8,0.6c0.2,0.2,0.4,0.6,0.7,0.8
			c1.2,1.3,3.5,0.3,4.9,1.3c0.8,0.7,1.3,1.7,1.5,2.8c0.3,1,0.9,2.1,1.9,2.4c0.5,0,1,0,1.5-0.1c0.5-0.1,1,0.1,1.3,0.5
			c0.5,0.7-0.2,2,0.5,2.5s1.8-0.2,2.2,0.5c0.2,0.4,0.1,0.8-0.1,1.1c-0.3,0.3-0.5,0.6-0.7,0.9c-0.4,0.6-0.2,1.5,0.5,1.8
			c0.3,0.1,0.6,0.2,0.9,0.2c0.4,0,0.9-0.3,1.3-0.1c0.2,0.2,0.4,0.4,0.4,0.7c0.1,1-0.7,1.9-1.7,2c-0.8,0-1.5-0.3-2.1-0.7
			c-0.6-0.4-1.4-0.5-2.2-0.3c-0.3,0.2-0.6,0.4-0.9,0.6c-0.8,0.7-1.7,1.2-2.7,1.6c-0.8,0.4-1.8,0.5-2.7,0.1c-0.9-0.5-1.4-1.6-2.4-2
			c-1-0.4-2.1,0.3-3,0.8c-0.9,0.5-2.2,1-3,0.3s-0.6-2.2-1.2-3.2c-0.2-0.4-0.5-0.7-0.9-1c-0.6-0.5-1.3-0.8-1.9-1.3
			c-0.7-0.4-1.1-1.1-1.3-1.9c-0.1-1,0.2-1.9,0.8-2.7c0.6-0.8,1-1.6,1.3-2.5c0.1-0.7,0-1.4,0.2-2.1c0.2-0.8,0.9-1.5,1.7-1.8
			c0.5-0.2,0.5-0.1,0.8-0.5C117.5,47.9,117.8,47.6,118.3,47.5z"/>
		<g class="st15">
			<path d="M133.8,55.6c0.1,0.4,0.1,0.8,0.1,1.2C133.8,56.4,133.7,56,133.8,55.6z"/>
			<path d="M135.5,60.3c-0.1,0.1-0.1,0.3-0.1,0.5c-0.2-0.4-0.2-0.8,0-1.1c0.2-0.3,0.5-0.6,0.7-0.9c0.1-0.1,0.2-0.3,0.2-0.4l0,0
				c0.2,0.4,0.1,0.8-0.2,1.1C135.9,59.6,135.7,59.9,135.5,60.3z"/>
			<path d="M113.8,59.2c0.6,0.5,1.3,0.8,2,1.3c0.4,0.3,0.7,0.6,0.9,1c0.6,1,0.3,2.5,1.2,3.2c0.9,0.7,2.1,0.2,3-0.3
				c0.9-0.6,2-1.2,3-0.8s1.4,1.5,2.4,2c0.9,0.3,1.8,0.3,2.7-0.1c1-0.4,1.9-0.9,2.7-1.6c0.3-0.2,0.5-0.5,0.9-0.6
				c0.7-0.2,1.5-0.1,2.2,0.4c0.6,0.4,1.4,0.7,2.1,0.7c0.9-0.1,1.6-0.8,1.7-1.7c0.1,0.1,0.1,0.2,0.1,0.4c0.1,1-0.7,1.9-1.7,2
				c-0.8,0-1.5-0.3-2.1-0.7c-0.6-0.4-1.4-0.5-2.2-0.4c-0.3,0.2-0.6,0.4-0.8,0.6c-0.8,0.7-1.7,1.2-2.7,1.6c-0.8,0.4-1.8,0.5-2.7,0.1
				c-0.9-0.5-1.4-1.6-2.4-2c-1-0.4-2.1,0.3-3,0.8s-2.2,1-3,0.3c-0.8-0.7-0.6-2.2-1.2-3.2c-0.2-0.4-0.5-0.7-0.9-1
				c-0.6-0.5-1.3-0.8-2-1.3c-0.7-0.4-1.1-1.1-1.3-1.9c0-0.2-0.1-0.3-0.1-0.5C112.8,58.1,113.3,58.7,113.8,59.2z"/>
		</g>
		<path class="st18" d="M115.5,80.4l-1.4,0.3c0.6,1.2,2.1,1.6,3.3,0.9c0.1,0,0.2-0.1,0.2-0.2C119.8,80,115.5,80.4,115.5,80.4z"/>
		<path class="st4" d="M115.5,80.4l-1.4,0.3c0.6,1.2,2.1,1.6,3.3,0.9c0.1,0,0.2-0.1,0.2-0.2C119.8,80,115.5,80.4,115.5,80.4z"/>
		<path class="st16" d="M146,101.6c0,0,1.9,1,3.8,2.2c1.1,0.6,2.1,1.4,2.9,2.4c1,1.6,5.7,3.4,5.7,3.4l4.7,3.6c1.1,0.5,2,1.3,2.6,2.3
			c0.1,0.2,0.2,0.3,0.2,0.3l1.9-0.2l1-1.3c0,0,0.2-2.8-1.7-2.8c-0.4,0-0.8-0.1-1.1-0.3c-1.8-1-3.5-2.3-5-3.8c0,0-5-6.2-6.4-6.4
			c-0.2,0-0.3-0.1-0.4-0.2c-1.3-0.6-2.6-1.5-3.7-2.5L146,101.6z"/>
		<path class="st16" d="M126.7,119.5c0.8,3.4,1.9,6.7,3.5,9.9c0.7,1.4,1.1,2.9,1.4,4.4l0.3,2.1c0.1,0.3,0.2,0.6,0.3,0.8
			c0.1,0.1,0.2,0.3,0.2,0.4l3.7-1.1c0,0-0.2-0.9-0.5-1.9c-0.3-1-0.7-1.9-1.3-2.7c-0.9-0.9-1-4.1-1-4.1s-0.8-6.1-1-6.8
			c-0.2-0.7-0.4-1.5-0.4-2.2c0-0.4-0.1-0.9-0.1-1.4c-0.1-1.5-0.3-3-0.6-4.5l-4.4,0.8l-0.1,4.9C126.6,118.5,126.6,119,126.7,119.5z"
			/>
		<path class="st4" d="M165.6,115.5l0.2,0.3l1.9-0.2l1-1.3c0,0,0.2-2.8-1.7-2.8c-0.4,0-0.7-0.1-1.1-0.3c-0.2,0.8,0.8,1.5,0.8,1.5
			s0.4,0.3,0.3,1.6C166.9,115.2,166.1,115.4,165.6,115.5z"/>
		<path class="st19" d="M165.4,115.7c0.1,0.4,1.3,1.1,2.1,1.5c0.4,0.2,0.7,0.3,0.8,0.4s1.2-1,1.3-1.9s2.5-3.7,2.5-3.7
			c0.5-1.1,0.8-2.3,0.9-3.5c0.1-1.2-0.4-1.3-1-1c-0.4,0.2-0.8,0.5-1.1,0.9c-0.4,0.4-0.9,0.6-1.4,0.8c-0.7,0.2-1.4,0.5-2.1,0.9
			c-0.6,0.4-1.1,0.8-1.2,1.2c-0.2,0.9,0.8,1.6,0.8,1.6s0.4,0.3,0.3,1.6S165.4,115.6,165.4,115.7z"/>
		<path class="st4" d="M167.5,117.2c0.4,0.2,0.7,0.3,0.8,0.4s1.2-1,1.3-1.9s2.5-3.7,2.5-3.7c0.5-1.1,0.8-2.3,0.9-3.5
			c0.1-1.2-0.4-1.3-1-1c-0.1,1.3-0.4,2.6-0.9,3.8C170.6,112.5,168.2,116.2,167.5,117.2z"/>
		<path class="st4" d="M132.2,136.6L132.2,136.6c0.1,0.2,0.2,0.4,0.3,0.5l3.7-1.1c0,0-0.2-0.9-0.5-1.9c-1.5-0.4-3.6,2.2-3.6,2.2
			L132.2,136.6z"/>
		<path class="st19" d="M132,139.4c0,0,3.1,1.1,4.5,0.9c1.1-0.1,1.1-0.6,1-1.6c0-0.3-0.1-0.7-0.1-1.1c-0.1-1.8-0.8-2.2-0.8-2.2
			c-1.2-3.1-4.6,1.1-4.6,1.1l0.2,0.3c-0.3,0.5-0.4,1.1-0.4,1.7C131.9,138.8,131.9,139.1,132,139.4z"/>
		<path class="st4" d="M132,139.4c0,0,3.1,1.1,4.5,0.9c1.1-0.1,1.1-0.6,1-1.6c-0.7,0.6-1.6,0.9-2.5,0.7c-1.1-0.1-2.1-0.5-3.1-0.9
			C131.9,138.8,131.9,139.1,132,139.4z"/>
		<path class="st16" d="M116.5,63.7l1.2,5.3l0.2,1.1l2.3,0.3l2.3,0.3l2.6-0.9c0.4-1.4,0.4-2.8,0.1-4.2c-0.2-0.6-0.6-1.2-1.2-1.6
			c-0.2-0.1-0.3-0.2-0.5-0.4c-0.2-0.2-0.3-0.4-0.4-0.6c-0.1-0.3-0.2-0.6-0.2-0.9c0-1.1,0.3-2.1,0.8-3c0,0-5.4-1.8-5-0.6
			c0.3,0.8-0.5,2.1-1,3c-0.3,0.5-0.6,0.8-0.6,0.8L116.5,63.7z"/>
		<circle class="st4" cx="121.3" cy="57" r="4.7"/>
		<circle class="st16" cx="121.3" cy="56.8" r="4.7"/>
		<path class="st19" d="M116.6,81.4c0.3,0.9,0.7,1.8,1.2,2.6l6.5,1.6l4.6-4.8l0,0c-0.1-0.4-1.9-6.2-0.6-7.6c1.3-1.4,0.9-5.6,0.9-5.6
			s-2.3-2.7-2.8-3.3c-0.5-0.7-3.4-1.2-3.4-1.2l0.4,0.6c0.3,0.5,0.6,1,0.7,1.6c0.2,0.6,0.2,1.2-0.1,1.7c-0.1,0.1-0.1,0.3-0.2,0.4
			c-0.5,2.2-2.8,1.9-3.8,1.7l-0.4-0.1l-2.2,0.1h-1.4c0,0,0.6,11,0.5,11.8C116.6,81,116.6,81.2,116.6,81.4z"/>
		<path class="st20" d="M116.3,69.6l4-0.5h-0.1l-0.4-0.1l-2.2,0.1h-1.4L116.3,69.6z"/>
		<polygon class="st20" points="120.8,84.8 122.6,85.2 125.3,84.8 126.1,84.1 		"/>
		<polygon class="st20" points="123.8,85.5 124.6,85.7 124.9,85.3 		"/>
		<path class="st4" d="M117,81.4c1,0.1,2,0.2,2,0.2l5.4-0.2v-5.6c-0.6-0.6-1.4-1.1-2.2-1.4c-0.9-0.3-2-1.3-1.8-3.9
			c0-0.2,0-0.3,0-0.5c0-0.3,0-0.6,0-0.9c0-1.3-0.5-2.6-1.4-3.5l-0.1-0.1l-0.9-4.1h-0.1c-0.3,0.5-0.6,0.8-0.6,0.8l-0.6,1.4l1.2,5.3
			h-1.4c0,0,0.6,11,0.5,11.8C116.9,81.1,116.9,81.2,117,81.4z"/>
		<path class="st21" d="M118.6,81.6l5.4-0.2v-5.6c-0.6-0.6-1.4-1.1-2.2-1.4c-1-0.3-2.2-1.4-1.8-4.4c0.3-1.6-0.3-3.2-1.4-4.3
			l-0.1-0.1l-0.9-4.1c-0.6,0-1.1,0.3-1.4,0.8c-0.1,0.1-0.2,0.3-0.3,0.5c-0.2,0.4-0.7,0.5-1.1,0.3c-0.6-0.2-3-1.3-3.5-0.3
			s-0.7,7-0.7,7c0.8,0.7,1.4,1.6,1.6,2.6c0.4,1.7,1,1.8,1,1.8l0.7,4.9c0,0,0.6,1.1,0.2,1.7"/>
		<path class="st21" d="M116,62.8l0.9,2.7l1.8,0.2l-0.1-0.1l-0.9-4.1c-0.6,0.1-1.1,0.3-1.4,0.8C116.2,62.5,116.1,62.6,116,62.8z"/>
		<path class="st4" d="M102.8,57.7l0.1,0.9l3.9,0.5c0,0,0.3-0.2,0.8-0.6c-0.4-0.1-2.3-0.5-3.3-0.8c-0.4-0.1-0.6-0.2-0.6-0.3
			c0-0.1,0-0.1,0.1-0.1L102.8,57.7z"/>
		<path class="st21" d="M98.3,63.5c0,0,4.4,3.3,7.1,3.9c0,0,3.8,1.1,5.3,2.4l1.7-6.3l-1-0.7c-0.7,0.4-1.5,0.6-2.2,0.5
			c-1-0.2-2.2-0.4-2.2-0.4c-0.9-0.3-1.8-0.6-2.8-0.8c-0.7-0.1-0.4-1,0.3-1.5c0.1-0.1,0.2-0.1,0.3-0.2c0.3,0.4,0.8,0.5,1.2,0.3
			c0.3-0.2,0.5-0.4,0.7-0.7l0,0c0.3-0.4,0.6-0.8,0.8-1.2c0,0-2.3-0.5-3.4-0.8c-0.4-0.1-0.6-0.2-0.6-0.3c0-0.3,2-1.1,2-1.1
			s-1.8-0.9-2.5-0.2c0,0,0.5,0.4,0.1,0.7s-4.9,3.8-4.9,3.8S96,62,98.3,63.5z"/>
		<path class="st4" d="M102.1,60.3l2.4,0.4c0.1-0.1,0.2-0.1,0.3-0.2c0.3,0.4,0.8,0.5,1.2,0.3c0.3-0.2,0.5-0.4,0.7-0.7l0,0
			c0.2-0.3,0.5-0.7,0.7-1c0,0-2.3-0.5-3.4-0.9L102.1,60.3z"/>
		<path class="st21" d="M102.2,60.1l2.6,0.4c0.3,0.4,0.8,0.5,1.2,0.3c0.6-0.5,1.2-1.2,1.5-1.9c0,0-2.3-0.5-3.4-0.8L102.2,60.1z"/>
		<path class="st4" d="M150.3,98.4l-4.3,3.3c0,0,1.9,1,3.8,2.2c1.6-1.1,3.1-2.1,4.2-3C152.6,100.2,151.4,99.4,150.3,98.4z"/>
		<path class="st4" d="M126.7,119.5c1.1-0.1,2.1-0.4,3.2-0.8c0.7-0.2,1.3-0.3,2-0.6c0-0.4-0.1-0.9-0.1-1.4c-0.1-1.5-0.3-3-0.6-4.5
			l-4.4,0.8l-0.1,4.9C126.6,118.5,126.6,119,126.7,119.5z"/>
		<path class="st19" d="M119,99.8c0.9,1.3,3.3,6.8,3.3,6.8c0.5,1,1.1,1.9,1.8,2.8c1,1.2,1.6,3.9,2.3,6.1s-0.2,1.8-0.1,2.9
			s4.2-0.3,4.2-0.3s8.4-1.8,10.9-7s12.8-9.8,14.8-12.6s-0.6-1.7-0.5-3.2c0-1.1-0.4-2.1-1.1-2.9c0,0-3.9-1.1-4.5-1.8
			c-1.2-1-2.4-1.9-3.7-2.7c-1.1-0.5-2.2-1-3.3-1.7c-1.5-0.9-3.2-1.6-4.9-2.1c-0.8-0.4-1.6-1-2.1-1.8c0,0-0.6,0.1-1.6-0.8
			s-5-1.7-5-1.7C122.8,84.8,118,84,118,84l-0.1,1C114.3,89.8,118.1,98.5,119,99.8z"/>
		<path class="st4" d="M117.9,85c0,0,5.9,2,11.8-5.3C122.8,84.8,118,84,118,84L117.9,85z"/>
		<path class="st4" d="M128.2,88.4c0,0,8,11.5,8.5,12S128.6,88.3,128.2,88.4z"/>
		<path class="st4" d="M124.5,87.5c0,0,5.5,8.6,5.4,9.8C129.9,97.3,124.6,89,124.5,87.5z"/>
		<path class="st4" d="M121.3,89.9c0,0,1,4.8-0.5,7.5L121.3,89.9z"/>
		<path class="st4" d="M119.1,90.2c0,0-0.1,4.2-0.5,5L119.1,90.2z"/>
		<polygon class="st4" points="132.7,86.4 140.1,89.3 137.4,89.7 		"/>
		<path class="st4" d="M118.2,54.2c0.4,0.2,0.7,0.6,1.1,0.7c0.3,0,0.6-0.1,0.9-0.2c0.7-0.4,1.5-0.5,2.3-0.3c1.1,0.4,1.7,1.6,2.8,2
			c0.5,0.2,1.1,0.1,1.6-0.2c0.4-0.3,0.7-0.7,0.8-1.2c0.1-0.9-0.2-1.7-0.8-2.3c-0.7-0.5-1.4-0.9-2.3-1c-2.2-0.4-4.4-0.4-6.6-0.2
			c-0.2,0-0.4,0-0.5,0.1c-0.5,0.5-0.8,1.2-0.8,1.9C116.9,54.2,118.2,53.8,118.2,54.2z"/>
		<path class="st17" d="M118.2,54.1c0.4,0.2,0.7,0.6,1.1,0.7c0.3,0,0.6-0.1,0.9-0.2c0.7-0.4,1.5-0.5,2.3-0.3c1.1,0.4,1.7,1.6,2.8,2
			c0.5,0.2,1.1,0.1,1.6-0.2c0.4-0.3,0.7-0.7,0.8-1.2c0.1-0.9-0.2-1.7-0.8-2.3c-0.7-0.5-1.5-0.9-2.3-1c-2.2-0.4-4.4-0.4-6.6-0.2
			c-0.2,0-0.4,0-0.5,0.1c-0.5,0.5-0.8,1.2-0.8,1.9C116.8,54,118.1,53.6,118.2,54.1z"/>
		<path class="st16" d="M146.7,57.5l0.7,2.8l0.9-0.5l5-3c0,0,3.8-0.1,4.1-3.2s-4.2,0-4.4,0.2c-0.2,0.2-0.5,0.4-0.8,0.6l-4.6,2.6
			L146.7,57.5z"/>
		<path class="st4" d="M146.7,57.5l0.7,2.8l0.9-0.5c-0.1-1-0.4-1.9-0.8-2.7L146.7,57.5z"/>
		<path class="st4" d="M122.2,76.1l1,5.9l6-1.3c-0.1-0.4-1.9-6.2-0.6-7.6c1.3-1.4,0.8-5.6,0.8-5.6s-2.3-2.7-2.8-3.3
			s-3.5-1.2-3.5-1.2c-0.1-0.3-0.2-0.5-0.2-0.8c-0.1,0.2-0.2,0.4-0.2,0.6c-0.1,1.1,0.6,2,1.6,2.4l0.3,0.1l0.6,0.2h0.1
			c1,0.2,1.9,0.8,2.3,1.7c0.7,0.9,1,2,0.9,3.1C128.3,72.3,122.2,76.1,122.2,76.1z"/>
		<path class="st21" d="M122.5,75.9l1,5.9l6.7-1.4c-0.1-1.1-0.3-2.1-0.7-3.2c-0.5-0.9-0.4-4.5-0.4-4.5c2.9-3.1,1.4-5.6,1.4-5.6
			s8.4-1.4,8.6-1.6c1-0.6,2-1.2,3-1.8c1.2-0.3,2.4-0.7,3.5-1.2c0.2-0.2,0.3-0.3,0.5-0.5l0.2-0.1l0.2,1.9h0.1c0.5,0,1-0.2,1.4-0.5
			c0.7-0.5-0.2-6.4-0.9-6.6c-0.1,0-0.3,0-0.4,0c-0.5,0.2-1,0.4-1.5,0.8l-0.1,0.1l0,0c-1.6,0.6-3.1,1.3-4.6,2.2
			c-0.8,0.7-6.7,1.6-6.7,1.6s-2.6,0.6-3,0.2c-0.4-0.4-4.4-1-4.7-0.4s-1.3,0.5-1.3,0.5c-0.7-0.8-1.1-0.5-1.4,0
			c-0.2,0.3-0.3,0.5-0.3,0.8c0,1.2,0.8,2.2,1.9,2.5c0.2,0.1,0.5,0.2,0.7,0.2c1,0.2,1.8,0.8,2.3,1.7c0.7,0.9,1,2,0.9,3.1
			C128.6,72.1,122.5,75.9,122.5,75.9z"/>
		<path class="st4" d="M146.6,56.9c0.1,0,0.1,0,0.2,0c0.7,0.2,1.6,6,0.9,6.6c-0.4,0.3-0.8,0.4-1.2,0.5h-0.1l-0.2-1.9
			c-0.1,0-0.1,0.1-0.2,0.1v-0.1c0.3-1.5,0-3.1-1-4.3L146.6,56.9z"/>
		<path class="st21" d="M146.2,62.2l0.2,1.9c0.5,0,1-0.2,1.5-0.5c0.7-0.5-0.2-6.4-0.9-6.6s-1.5,0.5-1.9,0.8
			C146.2,59,146.6,60.7,146.2,62.2z"/>
		<path class="st21" d="M124.9,65.3l1-0.9l-2.6-2.5c-0.2,0.3-0.3,0.5-0.4,0.9C123,64,123.8,65.1,124.9,65.3z"/>
		<path class="st4" d="M118.2,53.7c0.4,0.2,0.7,0.6,1.1,0.7c0.3,0,0.6-0.1,0.9-0.2c0.7-0.4,1.5-0.5,2.3-0.3c1.1,0.4,1.7,1.6,2.8,2
			c0.5,0.2,1.1,0.1,1.6-0.2c0.4-0.3,0.7-0.7,0.8-1.2c0-0.2,0-0.3,0-0.5c0.1,0.3,0.1,0.6,0,0.8c-0.2,1-1.3,1.6-2.3,1.4
			c-0.1,0-0.1,0-0.2,0c-1.1-0.4-1.7-1.6-2.8-2c-0.8-0.2-1.6-0.1-2.3,0.3c-0.3,0.2-0.6,0.2-0.9,0.2c-0.4,0-0.8-0.5-1.1-0.7
			c-0.1-0.5-1.3,0-1.5-0.6c0-0.1,0-0.2,0-0.3C116.9,53.6,118.1,53.3,118.2,53.7z"/>
		<path class="st4" d="M122.1,67.1c0,0-0.5,1.5,0.1,2c0,0-0.7-2-1.2-2"/>
		<path class="st16" d="M155.5,52.4c0,0-3.5,3-1,3.5C156.9,56.4,155.5,52.4,155.5,52.4z"/>
		<polygon class="st6" points="142,55.1 142.6,72.6 161.9,55.1 		"/>
		<polygon class="st7" points="142,55.1 142.6,72.6 161.9,55.1 		"/>
		<ellipse class="st3" cx="370.3" cy="326.2" rx="14.3" ry="2.8"/>
		<ellipse class="st2" cx="370" cy="325.1" rx="1.7" ry="2.2"/>
		<ellipse class="st2" cx="370" cy="322.4" rx="1.7" ry="2.2"/>
		<ellipse class="st2" cx="370" cy="319.7" rx="1.7" ry="2.2"/>
		<ellipse class="st2" cx="370" cy="317" rx="1.7" ry="2.2"/>
		<ellipse class="st2" cx="370" cy="314.4" rx="1.7" ry="2.2"/>
		<ellipse class="st2" cx="370" cy="311.7" rx="1.7" ry="2.2"/>
		<ellipse class="st2" cx="370" cy="309" rx="1.7" ry="2.2"/>
		<path class="st3" d="M376.3,290.7c0.2-0.3,0.4-0.6,0.6-0.9l-4.4-0.7h4.7c0.9-2,1-4.3,0.1-6.3l-6.4,3.3l5.9-4.3
			c-2-3.9-6.8-5.5-10.8-3.5s-5.5,6.8-3.5,10.8c0.1,0.3,0.3,0.5,0.4,0.8c0.2,0.3,0.4,0.6,0.6,0.9c-0.4,0.5-0.7,0.9-0.9,1.5l5.7,3
			l-6.1-2c-0.9,2.6-0.4,5.4,1.3,7.5c-2.7,3.5-2.1,8.5,1.3,11.2c3.5,2.7,8.5,2.1,11.2-1.3c2.3-2.9,2.3-7,0-9.9
			C378.5,297.8,378.5,293.7,376.3,290.7L376.3,290.7z"/>
		<path class="st4" d="M362,295.7c0,1.8,0.6,3.5,1.7,4.9c-2.7,3.5-2.1,8.5,1.3,11.2c3.5,2.7,8.5,2.1,11.2-1.3c2.3-2.9,2.3-7,0-9.9
			C377.3,299.3,362,294.8,362,295.7z"/>
	</g>
</g>
</svg>
