<?xml version="1.0" encoding="utf-8"?>
<!-- Generator: Adobe Illustrator 24.1.0, SVG Export Plug-In . SVG Version: 6.00 Build 0)  -->
<svg version="1.1" id="レイヤー_1" xmlns="http://www.w3.org/2000/svg" xmlns:xlink="http://www.w3.org/1999/xlink" x="0px"
	 y="0px" viewBox="0 0 268.4 257.9" style="enable-background:new 0 0 268.4 257.9;" xml:space="preserve">
<style type="text/css">
	.st0{fill:none;}
	.st1{fill:url(#SVGID_1_);}
	.st2{fill:#FFFFFF;}
	.st3{fill:#F5F5F5;}
	.st4{fill:url(#SVGID_2_);}
	.st5{fill:url(#SVGID_3_);}
	.st6{fill:url(#SVGID_4_);}
	.st7{fill:#E751FF;}
	.st8{fill:url(#SVGID_5_);}
	.st9{clip-path:url(#SVGID_7_);}
	.st10{fill:#FBBC05;}
	.st11{fill:#EA4335;}
	.st12{fill:#34A853;}
	.st13{fill:#4285F4;}
	.st14{fill:url(#SVGID_8_);}
	.st15{fill:url(#SVGID_9_);}
	.st16{fill:url(#SVGID_10_);}
	.st17{fill:#6B0094;}
	.st18{fill:url(#SVGID_11_);}
	.st19{fill:url(#SVGID_12_);}
	.st20{fill:url(#SVGID_13_);}
	.st21{fill:url(#SVGID_14_);}
	.st22{fill:url(#SVGID_15_);}
	.st23{fill:#F4BD27;}
	.st24{fill:url(#SVGID_16_);}
	.st25{fill:url(#SVGID_17_);}
	.st26{fill:url(#SVGID_18_);}
	.st27{fill:url(#SVGID_19_);}
	.st28{fill:url(#SVGID_20_);}
	.st29{fill:url(#SVGID_21_);}
	.st30{fill:#010202;}
	.st31{fill:#E52620;}
</style>
<g id="レイヤー_2_1_">
	<g id="_238b333a-178b-4cd4-ac1d-e298890126cc">
		<polygon class="st0" points="268.3,211 0,350.7 0,-153 268.3,-11.2 		"/>
		
			<linearGradient id="SVGID_1_" gradientUnits="userSpaceOnUse" x1="135.59" y1="342.2856" x2="135.59" y2="215.6456" gradientTransform="matrix(1 0 0 1 0 -87.4456)">
			<stop  offset="0" style="stop-color:#808080;stop-opacity:0.25"/>
			<stop  offset="0.54" style="stop-color:#808080;stop-opacity:0.12"/>
			<stop  offset="1" style="stop-color:#808080;stop-opacity:0.1"/>
		</linearGradient>
		<polygon class="st1" points="2.8,162.7 268.4,128.2 268.4,169.1 2.8,254.8 		"/>
		<polygon class="st2" points="6.2,165.2 267.6,129.7 267.6,167.2 6.2,248.9 		"/>
		<polygon class="st3" points="39.5,176.6 215.4,146.3 215.4,174.1 39.5,222.8 		"/>
		
			<linearGradient id="SVGID_2_" gradientUnits="userSpaceOnUse" x1="411.2345" y1="437.494" x2="411.2345" y2="406.6252" gradientTransform="matrix(1 0 0 1 -164.05 -267.9956)">
			<stop  offset="0" style="stop-color:#B3B3B3;stop-opacity:0.25"/>
			<stop  offset="0.54" style="stop-color:#B3B3B3;stop-opacity:0.1"/>
			<stop  offset="1" style="stop-color:#B3B3B3;stop-opacity:5.000000e-02"/>
		</linearGradient>
		<path class="st4" d="M250.9,141.7c-2.8-4.6-7.7-4-10.9,1.6s-3.4,14.3-0.2,18.9c2.7,3.9,6.9,3.5,9.9-0.8l5.2,8
			c0.1,0.2,0.4,0.1,0.5-0.1l0,0l1.3-2.5c0.1-0.3,0.1-0.6,0-0.9l0,0l-5.1-8C253.6,152.4,253.4,145.7,250.9,141.7z M249.2,157.5
			c-2.1,4.1-5.6,4.9-7.8,1.6s-2.1-9.3,0.2-13.4s5.7-4.5,7.8-1.2S251.4,153.5,249.2,157.5L249.2,157.5z"/>
		
			<linearGradient id="SVGID_3_" gradientUnits="userSpaceOnUse" x1="405.4081" y1="419.6156" x2="405.4081" y2="417.9452" gradientTransform="matrix(1 0 0 1 -164.05 -267.9956)">
			<stop  offset="0" style="stop-color:#000000;stop-opacity:0.12"/>
			<stop  offset="0.55" style="stop-color:#000000;stop-opacity:9.000000e-02"/>
			<stop  offset="1" style="stop-color:#000000;stop-opacity:2.000000e-02"/>
		</linearGradient>
		<path class="st5" d="M241.4,150c-0.6,0.1-0.6,1.8,0,1.6S242,149.8,241.4,150z"/>
		
			<linearGradient id="SVGID_4_" gradientUnits="userSpaceOnUse" x1="409.8593" y1="416.9916" x2="409.8593" y2="411.8144" gradientTransform="matrix(1 0 0 1 -164.05 -267.9956)">
			<stop  offset="0" style="stop-color:#000000;stop-opacity:0.12"/>
			<stop  offset="0.55" style="stop-color:#000000;stop-opacity:9.000000e-02"/>
			<stop  offset="1" style="stop-color:#000000;stop-opacity:2.000000e-02"/>
		</linearGradient>
		<path class="st6" d="M245.7,143.9c-1.6,0.2-3.1,1.8-4,4.3c-0.3,0.8,0.5,1.2,0.8,0.5c0.7-1.9,2-3.3,3.3-3.5s2.7,0.8,3.4,2.7
			c0.2,0.7,0.9-0.1,0.7-0.8C249,144.9,247.4,143.6,245.7,143.9z"/>
		<path class="st7" d="M250.9,140.3c-2.8-4.6-7.7-4.1-10.9,1.5s-3.4,14.3-0.2,18.9c2.7,3.9,6.9,3.6,9.9-0.7l5.2,8
			c0.1,0.2,0.4,0.1,0.5-0.1l0,0l1.3-2.5c0.1-0.3,0.1-0.6,0-0.9l0,0l-5.1-8.1C253.6,151,253.4,144.3,250.9,140.3z M249.2,156.1
			c-2.1,4-5.6,4.8-7.8,1.6s-2.1-9.3,0.2-13.4s5.7-4.5,7.8-1.2S251.4,152.1,249.2,156.1L249.2,156.1z"/>
		<path class="st7" d="M241.4,148.5c-0.6,0.1-0.6,1.8,0,1.6S242,148.4,241.4,148.5z"/>
		<path class="st7" d="M245.7,142.4c-1.6,0.2-3.1,1.8-4,4.3c-0.3,0.8,0.5,1.2,0.8,0.5c0.7-1.9,2-3.3,3.3-3.5s2.7,0.8,3.4,2.7
			c0.2,0.7,0.9-0.1,0.7-0.8C249,143.5,247.4,142.2,245.7,142.4z"/>
		<g id="b66f4108-1dd3-4103-b715-537ec4a4772e">
			
				<linearGradient id="SVGID_5_" gradientUnits="userSpaceOnUse" x1="334.9565" y1="327.4837" x2="334.9565" y2="268.8884" gradientTransform="matrix(1 0 0 1 -164.05 -267.9956)">
				<stop  offset="0" style="stop-color:#808080;stop-opacity:0.25"/>
				<stop  offset="0.54" style="stop-color:#808080;stop-opacity:0.12"/>
				<stop  offset="1" style="stop-color:#808080;stop-opacity:0.1"/>
			</linearGradient>
			<path class="st8" d="M192.5,30.1L173,25.3v11.1l11.5,2.4c-1,6.6-5.4,9.8-11.5,8.7c-7.4-1.4-13.6-10.6-13.5-20.4
				c0.1-9.6,6.2-15.6,13.5-13.6c3.3,1.1,6.1,3.2,8,6l6-6.4c-8.7-12.9-22.9-16.4-31.7-6.7c-9.3,10.3-8.3,30.2,2.2,43.3
				c4.4,5.5,9.9,8.9,15.4,9.6c10.7,1.4,19.9-7.1,19.9-24.2C192.9,33.4,192.7,31.7,192.5,30.1z"/>
		</g>
		<g>
			<defs>
				<path id="SVGID_6_" d="M189.8,30.1L173,26v9.5l9.9,2.1c-0.9,5.7-4.7,8.4-9.9,7.4c-6.4-1.1-11.7-8.9-11.7-17.2
					s5.3-13.6,11.7-11.9l0,0c2.8,0.9,5.2,2.7,6.9,5.1l5.2-5.5c-7.5-11-19.6-13.9-27.1-5.5c-7.8,8.8-7,25.7,1.9,36.8
					c3.8,4.7,8.4,7.7,13.2,8.4c9.2,1.4,17.2-5.9,17.2-20.7C190.2,33,190,31.5,189.8,30.1z"/>
			</defs>
			<clipPath id="SVGID_7_">
				<use xlink:href="#SVGID_6_"  style="overflow:visible;"/>
			</clipPath>
			<g class="st9">
				<path class="st10" d="M149.6,40.8V9.5l16.2,19.4L149.6,40.8z"/>
				<path class="st11" d="M149.6,9.5l16.2,19.4l6.2-5.4l19.6,0.8V9.5l-42-13.3L149.6,9.5z"/>
				<path class="st12" d="M149.6,40.8l27.6-20.4l6.5,2.8l7.9-13.7V60l-42-5.9L149.6,40.8z"/>
				<path class="st13" d="M191.7,60l-25.8-31.2l-3.7-4.3l29.5-3.4L191.7,60z"/>
			</g>
		</g>
		<g id="d8826248-d006-481d-80db-43bc27daf51c">
			<g id="_90809b75-c047-41d3-8e27-ed57a95840b3">
				<g id="_4e8d5321-71ab-4cf6-9531-1699e46183bc">
					
						<linearGradient id="SVGID_8_" gradientUnits="userSpaceOnUse" x1="277.09" y1="395.7013" x2="277.09" y2="332.1161" gradientTransform="matrix(1 0 0 1 -164.05 -267.9956)">
						<stop  offset="0" style="stop-color:#808080;stop-opacity:0.25"/>
						<stop  offset="0.54" style="stop-color:#808080;stop-opacity:0.12"/>
						<stop  offset="1" style="stop-color:#808080;stop-opacity:0.1"/>
					</linearGradient>
					<path class="st14" d="M115.5,64.3c16.3,1.6,27.7,15.4,27.7,32s-11.5,30.1-27.8,31.3c-17.9,1.4-32.7-12.5-32.7-32.1
						S97.7,62.5,115.5,64.3z"/>
				</g>
				<g id="cd9086b0-0465-4ddd-b26e-08d7ca60be30">
					<g id="_26e2b761-0ff4-4c57-a74a-b23f719f2f6e">
						<g id="aa638075-2341-4c20-8c97-6443789b9aee">
							
								<linearGradient id="SVGID_9_" gradientUnits="userSpaceOnUse" x1="277.735" y1="383.6656" x2="277.735" y2="348.4656" gradientTransform="matrix(1 0 0 1 -164.05 -267.9956)">
								<stop  offset="0" style="stop-color:#808080;stop-opacity:0.25"/>
								<stop  offset="0.54" style="stop-color:#808080;stop-opacity:0.12"/>
								<stop  offset="1" style="stop-color:#808080;stop-opacity:0.1"/>
							</linearGradient>
							<path class="st15" d="M114.2,85c0.1-1.1,0.2-2.2,0.3-3.3L90,80.5V84c2.6,0.3,5.1,0.6,7.7,0.9c4.7,6.1,9.2,12.1,13.8,18v9
								c-2.5,0.3-5.1,0.5-7.7,0.9v3l22.6-0.9V112c-2.3-0.1-4.7-0.1-7-0.1c0.1-3.1,0.1-6.3,0.2-9.4c4.1-4,8-7.9,11.9-11.8
								c2-0.1,3.9-0.2,5.9-0.4v-3.6c-5.8-0.1-11.6-0.3-17.8-0.4v3.2c2.3,0.2,4.6,0.4,6.8,0.5c-2.9,2.7-5.9,5.4-8.9,8.3
								c-3.2-4.3-6.4-8.7-9.6-13.1C110,85.2,112.1,85.1,114.2,85z"/>
						</g>
					</g>
				</g>
				<g id="c909fb51-d884-4b77-9a53-133209191f18">
					<g id="fad3897a-b382-46ab-97cd-992d89cd1312">
						<g id="b723b098-9615-45ec-9744-2c024445d2d9">
							
								<linearGradient id="SVGID_10_" gradientUnits="userSpaceOnUse" x1="316.255" y1="393.4056" x2="316.255" y2="337.3656" gradientTransform="matrix(1 0 0 1 -164.05 -267.9956)">
								<stop  offset="0" style="stop-color:#808080;stop-opacity:0.25"/>
								<stop  offset="0.54" style="stop-color:#808080;stop-opacity:0.12"/>
								<stop  offset="1" style="stop-color:#808080;stop-opacity:0.1"/>
							</linearGradient>
							<path class="st16" d="M160.2,71.5l-13.9-2.1c-0.2,13.7-0.5,27.4-0.7,41.1l6.8,0.6C155,97.7,157.7,84.5,160.2,71.5z
								 M144.9,125.4l8.2-0.6v-8.1l-8.9-0.4C144.4,119.4,144.7,122.4,144.9,125.4z"/>
						</g>
					</g>
				</g>
			</g>
		</g>
		<g id="c54374c9-5ce3-408c-944d-67488ba47ad9">
			<g id="_0625f036-f82d-4f60-b46b-c9ebda46575e">
				<path id="_0af1f165-b901-461e-ab4c-b27d5265da26" class="st17" d="M116.6,67.7c14.6,1.3,24.9,13.7,24.9,28.6s-10.4,27.1-24.9,28
					c-15.8,1-28.9-11.4-28.9-28.7S100.8,66.2,116.6,67.7z"/>
				<g id="c03fa78e-fbaa-491c-9ca6-f015ede67acc">
					<g id="_88a9ccd2-aa29-411b-a295-ecc501fde54c">
						<path id="f24379df-238d-4d18-84fa-01d663e5d57c" class="st2" d="M115.4,86.2c0.1-1,0.1-2,0.3-2.9l-21.7-1v3.1
							c2.3,0.2,4.5,0.5,6.7,0.8l12.2,16v8c-2.2,0.3-4.5,0.5-6.8,0.8v2.7l20.1-0.7v-2.5c-2.1-0.1-4.2-0.1-6.3-0.1
							c0.1-2.8,0.1-5.6,0.2-8.4c3.7-3.6,7.2-7.1,10.7-10.5c1.8-0.1,3.5-0.2,5.3-0.3v-3.2c-5.2-0.1-10.5-0.3-16-0.3v2.9
							c2.1,0.2,4.1,0.3,6.1,0.4c-2.6,2.5-5.3,4.9-8,7.4c-2.8-3.8-5.7-7.8-8.6-11.7C111.7,86.4,113.6,86.3,115.4,86.2z"/>
					</g>
				</g>
				<g id="bed980a8-54d9-4ead-8aa7-7019110c4f84">
					<g id="_4054f81e-5c95-4b6b-9e19-71fd8b4446f2">
						<path id="_131db97b-3cb7-4435-addf-77d62cece6dc" class="st17" d="M157,73.8L144.3,72c-0.2,12.3-0.4,24.8-0.7,37.1l6.2,0.6
							C152.2,97.5,154.6,85.6,157,73.8z M143,122.5l7.4-0.5v-7.3l-8.1-0.4C142.6,117.1,142.8,119.8,143,122.5z"/>
					</g>
				</g>
			</g>
		</g>
		<g id="_8dc6b1c1-e606-4fc7-a28b-e59b8b7d9e91">
			<g id="_3383feb4-8fcc-4817-9f82-bc69d4bd9416">
				
					<linearGradient id="SVGID_11_" gradientUnits="userSpaceOnUse" x1="188.395" y1="209.2656" x2="188.395" y2="169.0156" gradientTransform="matrix(1 0 0 1 0 -87.4456)">
					<stop  offset="0" style="stop-color:#808080;stop-opacity:0.25"/>
					<stop  offset="0.54" style="stop-color:#808080;stop-opacity:0.12"/>
					<stop  offset="1" style="stop-color:#808080;stop-opacity:0.1"/>
				</linearGradient>
				<polygon class="st18" points="183.8,121.8 176.9,115.8 176.9,81.6 183.9,84.8 183.9,107.3 177.1,115.5 193.1,103.7 188.8,101.1 
					185.9,92.4 199.9,98.6 199.9,107.8 				"/>
			</g>
			<g id="adf0c4a8-c861-4f67-ad45-bfc4516b4b15">
				<g id="_5241a0fb-1782-4a0b-a8f5-d9d23bc6ad1c">
					
						<linearGradient id="SVGID_12_" gradientUnits="userSpaceOnUse" x1="376.4709" y1="380.9356" x2="376.4709" y2="357.6456" gradientTransform="matrix(1 0 0 1 -164.05 -267.9956)">
						<stop  offset="0" style="stop-color:#808080;stop-opacity:0.25"/>
						<stop  offset="0.54" style="stop-color:#808080;stop-opacity:0.12"/>
						<stop  offset="1" style="stop-color:#808080;stop-opacity:0.1"/>
					</linearGradient>
					<path class="st19" d="M209.4,110.5L209.4,110.5v2.2l-1.7,0.1V89.7l1.7,0.8v9.4l0,0c0.8-2,2-3.1,3.6-3c1.3,0,2.5,0.9,3.1,2.1
						c0.8,1.7,1.2,3.6,1.1,5.4c0.1,2.1-0.3,4.2-1.2,6.1c-0.6,1.4-1.9,2.3-3.4,2.4C211.2,113.1,210,112.1,209.4,110.5z M209.4,104.2
						v2.2c0,1.1,0.3,2.3,0.9,3.2c1.2,1.7,3,1.7,4.2-0.1c0.1-0.1,0.2-0.3,0.3-0.5c0.6-1.5,0.9-3.1,0.9-4.7c0.1-1.4-0.2-2.8-0.8-4
						c-0.4-0.9-1.2-1.4-2.1-1.4c-1,0-1.9,0.6-2.4,1.5C209.6,101.6,209.3,102.9,209.4,104.2L209.4,104.2z"/>
				</g>
				<g id="e9bd7740-3bac-4f11-9098-850597dc5964">
					
						<linearGradient id="SVGID_13_" gradientUnits="userSpaceOnUse" x1="384.0426" y1="380.2856" x2="384.0426" y2="358.8255" gradientTransform="matrix(1 0 0 1 -164.05 -267.9956)">
						<stop  offset="0" style="stop-color:#808080;stop-opacity:0.25"/>
						<stop  offset="0.54" style="stop-color:#808080;stop-opacity:0.12"/>
						<stop  offset="1" style="stop-color:#808080;stop-opacity:0.1"/>
					</linearGradient>
					<path class="st20" d="M220,93.9c-0.3,0-0.6-0.2-0.7-0.4c-0.2-0.3-0.3-0.7-0.3-1.1c0-0.9,0.4-1.5,1-1.5l0,0
						c0.3,0,0.6,0.2,0.7,0.5c0.4,0.7,0.4,1.5,0,2.2l0,0C220.6,93.8,220.3,93.9,220,93.9z M220.8,112.2l-1.6,0.1v-15h1.6V112.2z"/>
				</g>
				<g id="_9d1a5a1d-38c0-45ad-a4b7-043d8bfe2cf6">
					
						<linearGradient id="SVGID_14_" gradientUnits="userSpaceOnUse" x1="391.219" y1="380.0956" x2="391.219" y2="365.1053" gradientTransform="matrix(1 0 0 1 -164.05 -267.9956)">
						<stop  offset="0" style="stop-color:#808080;stop-opacity:0.25"/>
						<stop  offset="0.54" style="stop-color:#808080;stop-opacity:0.12"/>
						<stop  offset="1" style="stop-color:#808080;stop-opacity:0.1"/>
					</linearGradient>
					<path class="st21" d="M231,111.8l-1.4,0.1v-8.2c0-3-0.7-4.6-2.1-4.6c-0.8,0-1.5,0.5-1.9,1.3c-0.5,1-0.8,2.2-0.7,3.3v8.3
						l-1.5,0.1V97.4h1.5v2.4l0,0c0.7-1.8,1.7-2.8,3.1-2.7c1,0,1.9,0.6,2.3,1.6c0.6,1.4,0.9,2.9,0.8,4.4V111.8z"/>
				</g>
				<g id="d360da2a-da29-47f1-af73-68a568081c1c">
					
						<linearGradient id="SVGID_15_" gradientUnits="userSpaceOnUse" x1="400.9029" y1="386.1224" x2="400.9029" y2="365.1756" gradientTransform="matrix(1 0 0 1 -164.05 -267.9956)">
						<stop  offset="0" style="stop-color:#808080;stop-opacity:0.25"/>
						<stop  offset="0.54" style="stop-color:#808080;stop-opacity:0.12"/>
						<stop  offset="1" style="stop-color:#808080;stop-opacity:0.1"/>
					</linearGradient>
					<path class="st22" d="M240.8,110.2c0,5-1.5,7.7-4.4,7.9c-1,0.1-2-0.2-2.8-0.8l0.4-2c0.7,0.6,1.5,0.9,2.4,0.9
						c2-0.1,3.1-2,3.1-5.6v-1.5l0,0c-0.6,1.8-1.6,2.7-2.9,2.8c-1.2,0-2.2-0.7-2.6-1.8c-0.7-1.6-1.1-3.3-1-5.1
						c-0.1-2,0.3-3.9,1.1-5.7c0.4-1.2,1.6-2.1,2.9-2.1c1.1,0,2,0.7,2.5,2.2l0,0v-1.8h1.4L240.8,110.2z M239.5,105.2v-2
						c0-2.2-1.1-3.9-2.4-4c-2,0-2.7,2.9-2.7,5.8c0,2.8,0.8,5,2.5,5S239.4,107.7,239.5,105.2L239.5,105.2z"/>
				</g>
			</g>
		</g>
		<g id="b32b3bd2-e2ac-448f-8e9d-3efea7831205">
			<path id="_862837c3-f02c-4075-80e2-0d6e8e0a806a" class="st23" d="M185.6,120.6l-6.4-5.6V82.8l6.5,3V107l-6.3,7.7l14.9-11.1
				l-4-2.5l-2.8-8.2l13.2,5.8v8.7L185.6,120.6z"/>
			<g id="b78c3c1b-fd7c-4cdd-831f-943502e589c6">
				<path id="a1aaba5c-87d1-494e-b4db-e2424d267e74" class="st23" d="M209.6,110L209.6,110v2.1l-1.6,0.1V90.4l1.6,0.8v8.9l0,0
					c0.8-1.9,1.9-2.9,3.4-2.9c1.3,0,2.4,0.8,2.9,2c0.7,1.6,1.1,3.4,1,5.1c0.1,2-0.3,4-1.2,5.8c-0.5,1.3-1.8,2.2-3.2,2.2
					C211.3,112.4,210.2,111.6,209.6,110z M209.6,104.1v2c0,1.1,0.2,2.1,0.8,3.1c1.1,1.6,2.9,1.6,4,0c0.1-0.1,0.2-0.3,0.3-0.4
					c0.6-1.4,0.9-2.9,0.8-4.5c0.1-1.3-0.2-2.6-0.7-3.8c-0.3-0.8-1.1-1.3-2-1.4c-0.9,0-1.8,0.6-2.2,1.4
					C209.9,101.6,209.6,102.8,209.6,104.1L209.6,104.1z"/>
				<path id="c2b46ba4-c904-4cc9-9109-f48bfd422836" class="st23" d="M219.6,94.3c-0.3,0-0.5-0.2-0.7-0.4c-0.2-0.3-0.3-0.7-0.3-1.1
					c0-0.8,0.4-1.4,0.9-1.4l0,0c0.3,0,0.6,0.2,0.7,0.4c0.4,0.6,0.4,1.4,0,2.1l0,0C220.2,94.2,219.9,94.3,219.6,94.3z M220.4,111.7
					l-1.5,0.1V97.6h1.5V111.7z"/>
				<path id="e38629ea-396c-4cd4-a9ef-8c6412e7dcde" class="st23" d="M230.1,111.3l-1.4,0v-7.8c0-2.9-0.7-4.3-2-4.4
					c-0.8,0-1.5,0.5-1.8,1.2c-0.5,1-0.7,2.1-0.7,3.2v7.9l-1.4,0.1v-14h1.4v2.3l0,0c0.7-1.8,1.6-2.6,2.9-2.6c1,0,1.8,0.6,2.2,1.5
					c0.6,1.3,0.8,2.7,0.7,4.1L230.1,111.3z"/>
				<path id="b7a43e19-a069-4d09-9407-0ca788ab83ee" class="st23" d="M239.4,109.8c0,4.8-1.4,7.3-4.2,7.5c-1,0.1-1.9-0.2-2.7-0.8
					l0.4-1.9c0.6,0.6,1.5,0.9,2.3,0.9c1.9-0.1,3-1.9,3-5.3v-1.5l0,0c-0.6,1.7-1.5,2.6-2.8,2.6c-1.1,0-2.1-0.7-2.5-1.7
					c-0.7-1.5-1.1-3.1-1-4.8c-0.1-1.9,0.3-3.7,1.1-5.4c0.4-1.2,1.5-2,2.8-2c1.1,0,1.9,0.7,2.4,2.1l0,0v-1.7h1.3L239.4,109.8z
					 M238.1,105v-2c0-2.1-1-3.7-2.3-3.8c-1.9,0-2.6,2.8-2.6,5.5s0.8,4.8,2.4,4.7S238.1,107.3,238.1,105z"/>
			</g>
		</g>
		<g id="_79792e90-82bf-4238-a4af-cd0948953fb1">
			<g id="d238b1b1-b934-4f75-9b9b-f38f789b39c3">
				
					<linearGradient id="SVGID_16_" gradientUnits="userSpaceOnUse" x1="405.3302" y1="348.9056" x2="405.3302" y2="332.6456" gradientTransform="matrix(1 0 0 1 -164.05 -267.9956)">
					<stop  offset="0" style="stop-color:#808080;stop-opacity:0.25"/>
					<stop  offset="0.54" style="stop-color:#808080;stop-opacity:0.12"/>
					<stop  offset="1" style="stop-color:#808080;stop-opacity:0.1"/>
				</linearGradient>
				<path class="st24" d="M242,65c-0.9-0.1-1.9,0.8-1.9,0.8v-0.7c0-0.2,0-0.2-0.1-0.2l-1.2-0.2c-0.1,0-0.1,0.1-0.1,0.2v15.4
					c0,0.2,0,0.3,0.1,0.3l1.2,0.1c0.1,0,0.1-0.1,0.1-0.2V67.3c0.3-0.3,0.8-0.4,1.2-0.4c0.6,0.1,1.1,0.7,1.1,1.8v11.9
					c0,0.1,0,0.2,0.1,0.3s0,0,0,0l1.1,0.1c0.1,0,0.1-0.1,0.1-0.2V68.2C243.9,66.3,243.2,65.2,242,65z"/>
			</g>
			<g id="_917579d8-8aae-424a-b443-a10d1fe52665">
				
					<linearGradient id="SVGID_17_" gradientUnits="userSpaceOnUse" x1="412.115" y1="349.6656" x2="412.115" y2="326.7527" gradientTransform="matrix(1 0 0 1 -164.05 -267.9956)">
					<stop  offset="0" style="stop-color:#808080;stop-opacity:0.25"/>
					<stop  offset="0.54" style="stop-color:#808080;stop-opacity:0.12"/>
					<stop  offset="1" style="stop-color:#808080;stop-opacity:0.1"/>
				</linearGradient>
				<path class="st25" d="M250.7,59l-1.1-0.2c-0.1,0-0.1,0-0.1,0.2v7.4c-0.3-0.3-0.7-0.5-1.1-0.6c-1.8-0.3-3.1,2.5-3.1,8.2
					c0,4.9,1.2,7.6,2.8,7.7c0.6,0.1,1.2-0.6,1.6-1.1l0.2,0.7c0,0.1,0.1,0.2,0.2,0.2l0.6,0.1c0.1,0,0.1-0.1,0.1-0.2V59.2
					C250.8,59.1,250.8,59,250.7,59L250.7,59z M246.8,73.7c0-3.1,0.5-6.1,1.6-6c0.5,0.1,0.8,0.4,1.1,0.8v10.9c-0.3,0.3-0.6,0.4-1,0.4
					C247.3,79.6,246.7,77.2,246.8,73.7L246.8,73.7z"/>
			</g>
			<g id="_8c6db44b-25c2-4c11-b17a-480760c306ff">
				
					<linearGradient id="SVGID_18_" gradientUnits="userSpaceOnUse" x1="418.565" y1="350.1656" x2="418.565" y2="334.7256" gradientTransform="matrix(1 0 0 1 -164.05 -267.9956)">
					<stop  offset="0" style="stop-color:#808080;stop-opacity:0.25"/>
					<stop  offset="0.54" style="stop-color:#808080;stop-opacity:0.12"/>
					<stop  offset="1" style="stop-color:#808080;stop-opacity:0.1"/>
				</linearGradient>
				<path class="st26" d="M254.7,66.8c-1.7-0.3-2.6,3.6-2.6,8c0,4.6,1.2,7.3,2.8,7.4c0.7,0,1.3-0.3,1.8-0.8c0.1-0.1,0.1-0.2,0.1-0.3
					l-0.1-1c0-0.1-0.1-0.2-0.1-0.2l0,0c-0.4,0.1-0.8,0.2-1.1,0.2c-1.3-0.1-1.9-2.2-1.9-4.9v-0.6c0.3,0.1,0.7,0.2,1,0.3l2.4,0.3V74
					C256.9,69.5,256,67,254.7,66.8L254.7,66.8z M254.6,73.1c-0.4,0-0.7,0-1.1,0c0,0,0-0.5,0-0.9c0.2-2.5,0.5-3.7,1.1-3.6
					s0.9,1.4,0.9,3.7c0,0.5,0,1,0,1L254.6,73.1L254.6,73.1z"/>
			</g>
			<g id="c697e1ca-ddd9-45ac-9ec9-31a6877d9bb6">
				
					<linearGradient id="SVGID_19_" gradientUnits="userSpaceOnUse" x1="398.0619" y1="348.4994" x2="398.0619" y2="331.5876" gradientTransform="matrix(1 0 0 1 -164.05 -267.9956)">
					<stop  offset="0" style="stop-color:#808080;stop-opacity:0.25"/>
					<stop  offset="0.54" style="stop-color:#808080;stop-opacity:0.12"/>
					<stop  offset="1" style="stop-color:#808080;stop-opacity:0.1"/>
				</linearGradient>
				<path class="st27" d="M236.4,66c-0.4-1.5-1.3-2.3-2.2-2.4c-0.8,0-1.5,0.1-2.2,0.5c-0.1,0.1-0.2,0.1-0.2,0.3c0,0.1,0,0.2,0.1,0.3
					l0.4,1.5c0,0.1,0.1,0.2,0.2,0.2c0.1,0,0.1,0,0.2-0.1c0.6-0.6,1.1-0.8,1.4-0.8s0.8,0.6,1,1.4c0.2,0.9,0.3,1.9,0.2,2.8v0.3
					c-0.4-0.4-0.9-0.7-1.4-0.8c-1.8-0.2-2.8,2.4-2.8,5.4c0,3.2,1.1,5.6,2.5,5.8c0.8,0.1,1.4-0.6,1.9-1.4c0,0,0.2,1,0.3,1.1
					s0.1,0.2,0.1,0.2l0.7,0.1c0.1,0,0.1-0.1,0.1-0.2v-9C236.9,69.4,236.8,67.7,236.4,66L236.4,66z M235.3,77.7
					c-0.2,0.4-0.7,0.7-1.1,0.7c-0.4-0.1-0.8-0.5-0.9-0.9c-0.3-0.9-0.5-1.8-0.4-2.8c0-1.7,0.4-3.5,1.2-3.4c0.5,0.1,1,0.4,1.2,0.9
					L235.3,77.7L235.3,77.7z"/>
			</g>
			<g id="ff4fa252-6ee1-4f25-bde5-0a4b374039a4">
				
					<linearGradient id="SVGID_20_" gradientUnits="userSpaceOnUse" x1="424.0394" y1="350.4356" x2="424.0394" y2="335.5156" gradientTransform="matrix(1 0 0 1 -164.05 -267.9956)">
					<stop  offset="0" style="stop-color:#808080;stop-opacity:0.25"/>
					<stop  offset="0.54" style="stop-color:#808080;stop-opacity:0.12"/>
					<stop  offset="1" style="stop-color:#808080;stop-opacity:0.1"/>
				</linearGradient>
				<path class="st28" d="M262.2,68.2l-0.9-0.1c-0.1,0-0.1,0.1-0.2,0.2s-0.4,2-0.6,2.7c-0.1,0.5-0.4,2-0.4,2l0,0l-0.3-1.7
					c-0.1-0.5-0.6-2.9-0.7-3.2s-0.1-0.3-0.2-0.3l-1-0.1c-0.1,0-0.1,0.1-0.1,0.3s0,0,0,0.1s1.6,6.7,1.6,6.7s-1.7,7-1.7,7.1
					c0,0.1,0,0.3,0,0.4c0,0,0.1,0,0.1,0l0.9,0.1c0.1,0,0.2-0.1,0.2-0.3c0.1-0.6,0.3-1.4,0.6-2.8c0.2-0.9,0.4-2.4,0.4-2.4l0,0
					c0,0,0.3,1.6,0.4,2.1c0.3,1.3,0.6,3,0.7,3.2s0.1,0.3,0.2,0.3l0.9,0.1c0.1,0,0.1-0.2,0.1-0.4c-0.1-0.4-1-4.5-1.6-7.1
					c0,0,1.6-6.3,1.6-6.4S262.3,68.2,262.2,68.2L262.2,68.2z"/>
			</g>
			<g id="_79f0924f-12b4-4187-96c3-4ef7db672aef">
				
					<linearGradient id="SVGID_21_" gradientUnits="userSpaceOnUse" x1="391.9446" y1="347.5856" x2="391.9446" y2="320.9456" gradientTransform="matrix(1 0 0 1 -164.05 -267.9956)">
					<stop  offset="0" style="stop-color:#808080;stop-opacity:0.25"/>
					<stop  offset="0.54" style="stop-color:#808080;stop-opacity:0.12"/>
					<stop  offset="1" style="stop-color:#808080;stop-opacity:0.1"/>
				</linearGradient>
				<path class="st29" d="M232.4,53.3L231,53c-0.1,0-0.2,0.1-0.2,0.2s-2.2,10.1-2.3,11c-0.1,0.6-0.5,2.7-0.6,3.2l-0.8-3.4
					c-0.2-0.9-2-9-2-9.3s-0.1-0.4-0.3-0.4l-1.5-0.3c-0.1,0-0.2,0.1-0.2,0.3v0.1c0,0.1,2.7,11.5,3.7,15.8v9.1c0,0.2,0,0.3,0.1,0.3
					l1.3,0.1c0.1,0,0.1-0.1,0.1-0.2v-9c0.9-3.7,4-16.6,4-16.8S232.6,53.3,232.4,53.3L232.4,53.3z"/>
			</g>
		</g>
		<g id="d1c7a373-120e-4263-88e0-20e0671c3dc9">
			<path id="_8b7152ff-683f-476b-a613-e78fe121e9f8" class="st30" d="M242.2,65.2c-0.7,0-1.3,0.3-1.7,0.8v-0.7c0-0.1,0-0.2-0.1-0.2
				l-1.1-0.2c-0.1,0-0.1,0.1-0.1,0.2v14.3c0,0.1,0,0.2,0.1,0.2l1.1,0.1c0.1,0,0.1-0.1,0.1-0.2V67.4c0.3-0.3,0.7-0.4,1.1-0.4
				c0.6,0.1,1.1,0.6,1.1,1.6v11.1c0,0.1,0,0.2,0.1,0.2l0,0l1.1,0.1c0.1,0,0.1-0.1,0.1-0.2V68.2C243.9,66.4,243.3,65.4,242.2,65.2z"
				/>
			<path id="c6648a63-5afe-4686-8775-d8042d885f82" class="st30" d="M250.3,59.6l-1-0.2c-0.1,0-0.1,0.1-0.1,0.2l0,0v6.9
				c-0.3-0.3-0.6-0.5-1-0.6c-1.7-0.2-2.8,2.3-2.8,7.6c0,4.5,1.1,7.1,2.6,7.2c0.6,0.1,1.1-0.5,1.5-1l0.2,0.7c0,0.1,0.1,0.2,0.1,0.2
				h0.6c0.1,0,0.1-0.1,0.1-0.2V59.8C250.4,59.7,250.4,59.6,250.3,59.6L250.3,59.6z M246.6,73.3c0-2.9,0.5-5.7,1.5-5.6
				c0.4,0.1,0.8,0.4,1,0.8v10.1c-0.2,0.2-0.6,0.4-0.9,0.4C247.1,78.9,246.6,76.6,246.6,73.3L246.6,73.3z"/>
			<path id="_8ebde601-e4a8-4ba4-a58e-6ed2eed807f8" class="st30" d="M254,66.9c-1.6-0.2-2.4,3.4-2.4,7.5c0,4.3,1.2,6.8,2.6,6.9
				c0.6,0,1.2-0.3,1.7-0.7c0.1-0.1,0.1-0.2,0.1-0.3l-0.1-0.9c0-0.1-0.1-0.2-0.1-0.2l0,0c-0.3,0.1-0.7,0.2-1.1,0.2
				c-1.2-0.1-1.8-2-1.8-4.6v-0.6c0.3,0.1,0.7,0.2,1,0.3l2.2,0.3v-1.1C256.1,69.4,255.3,67,254,66.9L254,66.9z M253.9,72.8
				c-0.3,0-0.7,0-1,0c0,0,0-0.5,0-0.9c0.1-2.3,0.5-3.4,1-3.4s0.8,1.3,0.9,3.4c0,0.4,0,0.9,0,0.9L253.9,72.8z"/>
			<path id="b4bb227d-30ce-41b9-90ac-a7d472bb05c4" class="st30" d="M237,66.2c-0.4-1.4-1.2-2.1-2-2.2c-0.7,0-1.4,0.1-2,0.5
				c-0.1,0.1-0.2,0.1-0.2,0.3c0,0.1,0,0.2,0.1,0.3l0.4,1.4c0,0.1,0.1,0.2,0.2,0.2c0.1,0,0.1,0,0.1-0.1c0.6-0.5,1-0.8,1.3-0.7
				s0.7,0.6,0.9,1.3c0.2,0.9,0.3,1.7,0.2,2.6V70c-0.3-0.4-0.8-0.6-1.3-0.7c-1.7-0.2-2.6,2.2-2.6,5c0,3,1.1,5.2,2.3,5.3
				c0.7,0.1,1.3-0.6,1.8-1.3c0,0,0.2,0.9,0.2,1s0.1,0.2,0.1,0.2l0.7,0.1c0.1,0,0.1-0.1,0.1-0.2v-8.4C237.5,69.3,237.4,67.7,237,66.2
				L237,66.2z M236,77c-0.2,0.4-0.6,0.7-1.1,0.7c-0.4-0.1-0.7-0.4-0.8-0.8c-0.3-0.8-0.4-1.7-0.4-2.6c0-1.6,0.4-3.2,1.1-3.1
				c0.5,0.1,0.9,0.4,1.2,0.8V77z"/>
			<path id="_0e65a99c-9adc-4d1d-86b7-022bb92efd88" class="st30" d="M261,68.2l-0.8-0.1c-0.1,0-0.1,0.1-0.2,0.2s-0.4,1.8-0.5,2.5
				c-0.1,0.5-0.4,1.8-0.4,1.8l0,0c0,0-0.2-1.1-0.3-1.6s-0.5-2.7-0.6-3s-0.1-0.3-0.2-0.3l-0.9-0.1c-0.1,0-0.1,0.1-0.1,0.2
				c0,0,0,0,0,0.1l1.5,6.3c0,0-1.6,6.5-1.6,6.6c0,0.1,0,0.3,0.1,0.4l0,0l0.8,0.1c0.1,0,0.2-0.1,0.2-0.3c0.1-0.6,0.3-1.4,0.5-2.6
				c0.2-0.8,0.4-2.2,0.4-2.2l0,0c0,0,0.3,1.5,0.4,2c0.3,1.2,0.6,2.9,0.6,3s0.1,0.3,0.2,0.3l0.9,0.1c0.1,0,0.1-0.2,0.1-0.3
				c-0.1-0.4-1-4.2-1.5-6.7c0,0,1.5-5.9,1.6-6S261.1,68.2,261,68.2L261,68.2z"/>
			<path id="c96c6d06-e931-4679-98ae-89e17d7c35f9" class="st31" d="M233.3,54.4l-1.3-0.2c-0.1,0-0.2,0-0.2,0.2s-2,9.4-2.1,10.2
				c-0.1,0.6-0.4,2.5-0.5,3l-0.7-3.1c-0.2-0.9-1.8-8.3-1.9-8.6s-0.1-0.4-0.3-0.4l-1.4-0.2c-0.1,0-0.2,0.1-0.2,0.3c0,0,0,0.1,0,0.1
				c0,0.1,2.5,10.6,3.4,14.6v8.4c0,0.1,0,0.2,0.1,0.2l1.2,0.1c0.1,0,0.1-0.1,0.1-0.2v-8.4c0.8-3.4,3.6-15.4,3.7-15.5
				S233.4,54.4,233.3,54.4L233.3,54.4z"/>
		</g>
	</g>
</g>
</svg>
