<svg xmlns="http://www.w3.org/2000/svg" viewBox="0 0 586.62 365.86"><defs><style>.cls-1{fill:#3f3d56;}.cls-2{fill:#9800bf;}.cls-3{fill:#d0cde1;}.cls-4{fill:#ffb9b9;}.cls-5{fill:#2f2e41;}.cls-6{fill:#575a89;}.cls-7{fill:#cfcce0;}</style></defs><g id="レイヤー_2" data-name="レイヤー 2"><g id="レイヤー_2-2" data-name="レイヤー 2"><polygon class="cls-1" points="580.65 116.01 451.82 365.86 122.49 303.8 121.84 303.68 103.18 300.16 19.3 284.35 0 280.72 26.68 226.41 31.18 217.25 35.41 208.65 35.79 207.87 42.87 193.46 72.81 132.52 74.31 129.46 76.4 125.22 76.88 124.24 77.94 122.06 84.02 109.7 94.94 87.48 96.84 83.61 105.47 66.04 137.92 0 580.65 116.01"/><path class="cls-2" d="M284.51,98.35A77.91,77.91,0,1,0,174.44,208.64L284.73,318.71,394.8,208.42A77.91,77.91,0,0,0,284.55,98.31Z"/><polygon class="cls-3" points="426.3 211.17 425.53 210.4 427.46 208.47 425.53 206.54 426.3 205.77 429 208.47 426.3 211.17"/><path class="cls-3" d="M325.44,312.23l-.78-.77,4.59-4.59.77.77Zm9.17-9.18-.78-.77,4.59-4.6.77.77Zm9.17-9.19-.78-.77,4.59-4.6.77.78Zm9.17-9.19-.78-.77,4.59-4.59.77.77Zm9.17-9.19-.78-.77,4.59-4.59.77.77Zm9.17-9.18-.78-.77,4.59-4.6.77.77Zm9.16-9.19-.77-.77,4.59-4.59.77.77Zm9.17-9.19-.77-.77,4.59-4.59.77.77Zm9.17-9.18L398,238l4.59-4.59.77.77Zm9.17-9.19-.77-.77,4.59-4.6.77.77Zm9.17-9.19-.77-.77L421,215l.77.77Z"/><polygon class="cls-3" points="318.15 319.53 315.45 316.83 316.22 316.06 318.15 317.99 320.08 316.06 320.85 316.83 318.15 319.53"/><path class="cls-3" d="M310.86,312.25l-4.6-4.59.77-.77,4.6,4.58Zm-9.19-9.17-4.6-4.59.78-.77,4.59,4.59Zm-9.19-9.17-4.59-4.59.77-.77,4.59,4.59Zm-9.19-9.17-4.59-4.59.77-.77,4.59,4.59Zm-9.18-9.17-4.6-4.59.77-.77,4.6,4.59Zm-9.19-9.17-4.59-4.59.77-.77,4.59,4.59Zm-9.19-9.17-4.59-4.58.77-.78,4.59,4.59Zm-9.19-9.17L242,243.48l.77-.78,4.6,4.59Zm-9.18-9.17-4.6-4.58.77-.78,4.6,4.59Zm-9.19-9.17-4.59-4.58.77-.78,4.59,4.59ZM219,220.55,214.39,216l.77-.78,4.59,4.59Z"/><polygon class="cls-3" points="209.79 211.38 207.09 208.68 209.79 205.98 210.56 206.75 208.63 208.68 210.57 210.61 209.79 211.38"/><path class="cls-3" d="M215.15,202.16l-.78-.78,4.59-4.59.77.77Zm9.17-9.19-.78-.77,4.59-4.6.77.77Zm9.17-9.19-.78-.77,4.59-4.59.77.77Zm9.17-9.19-.78-.77,4.59-4.59.77.77Zm9.17-9.18-.78-.77,4.59-4.6.77.77Zm9.17-9.19-.78-.77,4.59-4.6.77.78Zm9.16-9.19-.77-.77,4.59-4.59.77.77Zm9.17-9.19-.77-.77,4.59-4.59.77.77Zm9.17-9.18-.77-.77,4.59-4.6.77.77Zm9.17-9.19-.77-.77,4.59-4.59.77.77Zm9.17-9.19-.77-.77,4.59-4.59.77.77Z"/><polygon class="cls-3" points="319.87 101.09 317.94 99.16 316.01 101.1 315.24 100.32 317.94 97.62 320.64 100.32 319.87 101.09"/><path class="cls-3" d="M420.93,202l-4.59-4.59.77-.77,4.59,4.58Zm-9.18-9.17-4.6-4.59.77-.77,4.6,4.58Zm-9.19-9.17L398,179l.78-.77,4.59,4.59Zm-9.19-9.17-4.59-4.59.77-.77,4.59,4.59Zm-9.19-9.17-4.59-4.59.77-.77,4.59,4.59ZM375,156.11l-4.6-4.59.77-.77,4.6,4.59Zm-9.19-9.17-4.59-4.59.77-.77,4.59,4.59Zm-9.19-9.17L352,133.19l.77-.78,4.59,4.59Zm-9.19-9.17L342.84,124l.77-.78,4.6,4.59Zm-9.18-9.17-4.6-4.58.77-.78,4.6,4.59Zm-9.19-9.17-4.59-4.58.77-.78,4.59,4.59Z"/><path class="cls-3" d="M261.33,232c-2.21,0-4.45-.18-6.65-.41l.12-1.09c2.17.23,4.37.36,6.55.41Zm6.66-.15-.07-1.09c2.17-.14,4.37-.37,6.53-.7l.16,1.08C272.42,231.45,270.19,231.69,268,231.83Zm-19.89-1.24c-2.18-.41-4.36-.93-6.49-1.52l.3-1.06c2.1.59,4.25,1.1,6.39,1.51Zm33-.73-.26-1.07c2.13-.5,4.25-1.11,6.32-1.79l.35,1C285.46,228.73,283.3,229.34,281.15,229.86ZM235.29,227c-2.07-.77-4.14-1.65-6.13-2.6l.47-1c2,.93,4,1.8,6,2.56Zm58.5-1.31-.43-1c2-.86,4-1.81,5.92-2.84l.51,1C297.84,223.84,295.82,224.81,293.79,225.68Zm-70.51-4.41c-1.91-1.11-3.79-2.33-5.6-3.6l.63-.89c1.78,1.25,3.64,2.45,5.52,3.55Zm82.25-1.85-.59-.92c1.83-1.18,3.63-2.46,5.35-3.8l.67.86C309.21,216.92,307.39,218.22,305.53,219.42Zm-93.12-5.82c-1.68-1.42-3.33-2.94-4.9-4.5l.77-.77c1.55,1.54,3.17,3,4.84,4.43Zm103.64-2.35-.74-.8c.79-.73,1.58-1.49,2.35-2.26s1.54-1.57,2.28-2.39l.81.74c-.76.82-1.54,1.64-2.32,2.42s-1.58,1.56-2.38,2.29ZM203,204.2c-1.43-1.69-2.81-3.46-4.09-5.26l.89-.63c1.26,1.78,2.62,3.52,4,5.19ZM325,201.45l-.86-.67c1.33-1.73,2.61-3.53,3.79-5.36l.91.59c-1.19,1.86-2.48,3.69-3.84,5.44Zm-129.76-8.1c-1.13-1.9-2.18-3.88-3.14-5.87l1-.48c.94,2,2,3.92,3.09,5.8Zm137-3.08-1-.51c1-1.92,2-3.92,2.82-5.93l1,.43C334.25,186.3,333.29,188.32,332.25,190.27Zm-142.73-8.92c-.78-2.07-1.49-4.19-2.09-6.32l1-.3c.6,2.1,1.29,4.2,2.06,6.24ZM337.46,178l-1-.34c.68-2.07,1.27-4.2,1.78-6.32l1.06.25C338.75,173.77,338.14,175.93,337.46,178Zm-151.58-9.48c-.42-2.17-.75-4.39-1-6.59l1.09-.11c.23,2.17.56,4.35,1,6.49Zm154.63-3.47-1.08-.16c.32-2.16.55-4.36.69-6.53l1.09.07C341.07,160.66,340.83,162.89,340.51,165.08Zm-156-9.76c0-.57,0-1.14,0-1.71,0-1.64.05-3.31.15-5l1.09.07c-.1,1.62-.15,3.26-.15,4.88,0,.56,0,1.12,0,1.68Zm155.79-3.5c-.05-2.18-.19-4.38-.42-6.55l1.08-.12c.24,2.2.38,4.44.43,6.65ZM186.37,142.2l-1.08-.16c.32-2.19.74-4.39,1.24-6.54l1.07.25C187.1,137.87,186.68,140,186.37,142.2Zm152.48-3.43c-.41-2.14-.92-4.29-1.52-6.39l1.05-.29c.61,2.12,1.12,4.3,1.55,6.48Zm-149.48-9.35-1-.33c.69-2.11,1.48-4.2,2.34-6.24l1,.43C190.82,125.28,190.05,127.35,189.37,129.42Zm145.91-3.27c-.77-2-1.64-4.08-2.58-6l1-.48c1,2,1.84,4.06,2.62,6.13Zm-140.78-8.8-1-.51c1-2,2.17-3.89,3.36-5.75l.92.6C196.63,113.52,195.51,115.43,194.5,117.35Zm135.11-3c-1.11-1.88-2.31-3.73-3.58-5.51l.89-.64c1.29,1.81,2.5,3.69,3.63,5.6Zm-128-8-.87-.67c1.35-1.75,2.8-3.46,4.29-5.09l.81.73C204.35,102.91,202.93,104.6,201.6,106.33ZM322,103.61c-1.41-1.66-2.91-3.29-4.46-4.83l-.05-.06.76-.78.08.08c1.55,1.55,3.07,3.2,4.5,4.88Zm-111.55-7-.74-.8c1.63-1.51,3.34-3,5.09-4.31l.67.86C213.76,93.74,212.07,95.17,210.46,96.65Zm102.19-2.37c-1.67-1.4-3.42-2.75-5.19-4l.63-.89c1.8,1.27,3.57,2.64,5.27,4.07Zm-91.82-5.69-.6-.91c1.86-1.21,3.79-2.35,5.74-3.39l.52,1C224.56,86.28,222.66,87.4,220.83,88.59Zm81.11-1.87c-1.88-1.1-3.83-2.13-5.8-3.07l.47-1c2,1,4,2,5.88,3.12Zm-69.53-4.31-.43-1c2-.87,4.12-1.67,6.23-2.36l.34,1C236.48,80.77,234.41,81.55,232.41,82.41Zm57.68-1.32c-2-.77-4.14-1.45-6.24-2l.3-1c2.13.59,4.26,1.29,6.33,2.06Zm-45.22-2.8-.26-1.06c2.15-.51,4.35-.94,6.54-1.27l.16,1.08c-2.15.32-4.32.74-6.44,1.25Zm32.59-.74c-2.14-.41-4.33-.73-6.5-1l.12-1.09c2.2.23,4.41.56,6.58,1Zm-19.62-1.21-.07-1.09c2.21-.15,4.45-.2,6.66-.16l0,1.1c-2.18,0-4.39,0-6.57.15Z"/><path class="cls-3" d="M371.51,231.87c-2.21,0-4.44-.18-6.64-.41l.11-1.09c2.17.23,4.38.37,6.55.41Zm6.66-.15-.07-1.09c2.18-.14,4.37-.37,6.53-.69l.16,1.07c-2.19.33-4.41.57-6.62.71Zm-19.89-1.23c-2.17-.42-4.35-.93-6.48-1.53l.29-1.05c2.1.59,4.25,1.09,6.39,1.5Zm33.05-.74-.25-1.06c2.12-.51,4.25-1.11,6.32-1.79l.34,1c-2.1.69-4.25,1.31-6.41,1.82Zm-45.86-2.86c-2.07-.78-4.13-1.65-6.13-2.61l.47-1c2,.94,4,1.8,6,2.57Zm58.5-1.31-.43-1c2-.85,4-1.81,5.92-2.84l.52,1c-2,1-4,2-6,2.88Zm-70.51-4.41c-1.91-1.12-3.79-2.33-5.59-3.61l.63-.89c1.78,1.26,3.63,2.45,5.51,3.56Zm82.26-1.86-.6-.91c1.83-1.19,3.63-2.47,5.36-3.81l.67.86C419.4,216.82,417.57,218.11,415.72,219.31Zm-93.12-5.82c-1.69-1.42-3.34-2.93-4.91-4.5l.77-.77c1.55,1.54,3.18,3,4.84,4.44Zm103.63-2.34-.74-.8c.79-.73,1.58-1.49,2.35-2.27s1.55-1.58,2.29-2.38l.8.73c-.75.82-1.53,1.64-2.31,2.42s-1.59,1.56-2.39,2.3Zm-113-7.05c-1.44-1.69-2.81-3.46-4.09-5.26l.89-.64c1.26,1.78,2.61,3.52,4,5.19Zm122.05-2.76-.87-.67c1.34-1.72,2.61-3.53,3.79-5.35l.92.59c-1.2,1.85-2.49,3.68-3.84,5.43Zm-129.77-8.09c-1.12-1.91-2.18-3.88-3.14-5.88l1-.47c.94,2,2,3.92,3.09,5.79Zm137-3.08-1-.52c1-1.92,2-3.91,2.82-5.92l1,.43C444.43,186.19,443.47,188.21,442.43,190.17ZM299.7,181.25c-.78-2.07-1.48-4.2-2.09-6.33l1.05-.3c.6,2.1,1.29,4.2,2.06,6.24Zm147.94-3.33-1-.34c.68-2.07,1.28-4.2,1.78-6.32l1.06.25c-.51,2.16-1.11,4.31-1.8,6.41Zm-151.57-9.48c-.42-2.16-.75-4.38-1-6.58l1.08-.12c.24,2.17.57,4.36,1,6.5ZM450.69,165l-1.08-.16c.32-2.16.55-4.35.69-6.53l1.09.07C451.25,160.56,451,162.78,450.69,165Zm-156-9.76c0-.57,0-1.13,0-1.7,0-1.65.05-3.31.15-5l1.09.07c-.1,1.62-.15,3.27-.15,4.88,0,.57,0,1.13,0,1.69Zm155.78-3.49c-.05-2.19-.19-4.39-.42-6.56l1.09-.11c.23,2.19.37,4.43.42,6.64Zm-153.88-9.63-1.08-.16c.32-2.19.74-4.39,1.25-6.54l1.06.25C297.28,137.76,296.87,139.93,296.55,142.09ZM449,138.67c-.42-2.15-.93-4.3-1.52-6.39l1.05-.3c.6,2.13,1.12,4.31,1.54,6.48Zm-149.49-9.35-1-.34c.68-2.1,1.47-4.2,2.33-6.23l1,.42C301,125.18,300.23,127.24,299.55,129.32ZM445.46,126c-.77-2-1.64-4.07-2.58-6l1-.47c1,2,1.84,4.06,2.62,6.12Zm-140.78-8.8-1-.51c1-2,2.17-3.88,3.37-5.74l.92.59C306.81,113.41,305.7,115.32,304.68,117.24Zm135.11-3c-1.11-1.88-2.31-3.73-3.57-5.51l.89-.63c1.28,1.8,2.5,3.68,3.62,5.59Zm-128-8-.86-.67c1.35-1.75,2.79-3.46,4.29-5.09l.8.74c-1.47,1.61-2.9,3.3-4.23,5Zm120.41-2.72c-1.41-1.66-2.91-3.29-4.45-4.83l-.06-.06.77-.77.06.06c1.57,1.56,3.08,3.21,4.51,4.9Zm-111.54-7-.74-.8c1.63-1.5,3.34-2.95,5.08-4.31l.67.86C323.94,93.63,322.25,95.06,320.65,96.54Zm102.19-2.36c-1.67-1.41-3.42-2.76-5.2-4l.63-.89c1.8,1.27,3.58,2.64,5.27,4.06ZM331,88.49l-.59-.92c1.85-1.2,3.78-2.34,5.74-3.39l.51,1C334.75,86.17,332.84,87.3,331,88.49Zm81.11-1.88c-1.88-1.1-3.83-2.13-5.8-3.07l.47-1c2,1,4,2,5.88,3.11Zm-69.53-4.3-.43-1c2-.87,4.13-1.66,6.23-2.36l.34,1C346.66,80.66,344.59,81.45,342.59,82.31ZM400.28,81c-2-.76-4.14-1.45-6.24-2l.29-1c2.13.6,4.26,1.29,6.33,2.07Zm-45.23-2.8-.25-1.06c2.15-.51,4.35-.94,6.54-1.27l.16,1.08C359.34,77.26,357.17,77.68,355.05,78.18Zm32.59-.74c-2.14-.41-4.32-.73-6.49-1l.11-1.08c2.2.23,4.42.55,6.59,1ZM368,76.23,368,75.14c2.2-.14,4.44-.2,6.65-.15l0,1.09c-2.18,0-4.39,0-6.56.15Z"/><rect class="cls-3" x="49.48" y="318.64" width="3.28" height="1.09"/><path class="cls-3" d="M576.79,319.23h-6.55v-1.09h6.55Zm-13.1,0h-6.55v-1.1h6.55Zm-13.1,0H544v-1.09h6.55Zm-13.1,0h-6.55v-1.09h6.55Zm-13.1,0h-6.55v-1.09h6.55Zm-13.1,0h-6.55v-1.1h6.55Zm-13.1,0h-6.55v-1.09h6.55Zm-13.1,0h-6.55v-1.09h6.55Zm-13.1,0h-6.55v-1.09H472Zm-13.1,0h-6.55v-1.1h6.56Zm-13.1,0h-6.56v-1.09h6.55Zm-13.11,0h-6.55v-1.09h6.55Zm-13.1,0H413v-1.09h6.55Zm-13.1,0h-6.55v-1.1h6.55Zm-13.1,0h-6.55v-1.09h6.55Zm-13.1,0h-6.55v-1.09h6.55Zm-13.1,0h-6.55v-1.09h6.55Zm-13.1,0h-6.55v-1.09h6.55Zm-13.1,0h-6.55v-1.09H341Zm-13.1,0h-6.55v-1.09h6.55Zm-13.1,0h-6.55v-1.09h6.55Zm-13.1,0h-6.55v-1.09h6.55Zm-13.11,0H282v-1.09h6.55Zm-13.1,0h-6.55v-1.09h6.55Zm-13.1,0h-6.55v-1.1h6.55Zm-13.1,0h-6.55v-1.09h6.55Zm-13.1,0h-6.55v-1.09h6.55Zm-13.1,0h-6.55v-1.09h6.55Zm-13.1,0h-6.55v-1.1H210Zm-13.1,0h-6.55v-1.09h6.55Zm-13.1,0h-6.55v-1.09h6.55Zm-13.1,0h-6.55v-1.09h6.55Zm-13.1,0H151v-1.1h6.56Zm-13.1,0h-6.56v-1.09h6.55Zm-13.11,0h-6.55v-1.09h6.55Zm-13.1,0h-6.55v-1.09h6.55Zm-13.1,0H98.61v-1.1h6.55Zm-13.1,0H85.51v-1.09h6.55Zm-13.1,0H72.41v-1.09H79Zm-13.1,0H59.31v-1.09h6.55Z"/><rect class="cls-3" x="583.34" y="318.13" width="3.28" height="1.09"/><polygon class="cls-4" points="121.76 303.93 121.84 303.68 123.41 298.91 103.18 300.16 121.76 303.93"/><path class="cls-4" d="M98.73,210.65l12.33,31.28S110,268.75,124.49,266.5s-2.26-29.05-2.26-29.05l-9-32.41S102.08,202.82,98.73,210.65Z"/><circle class="cls-4" cx="77.94" cy="90.53" r="20.12"/><path class="cls-4" d="M62.86,96.69S56.18,119,51.71,119.05s30.18,13.38,30.18,13.38-9-8.93,0-25.7Z"/><path class="cls-5" d="M121.79,303.93l.73-.13c5.87-1.07,9.62-2.32,9.86-3.78.46-2.79-3.54-17.38-8.37-33.46-5.41-18-11.85-37.9-14.24-45.21l-.94-2.89L106.66,205l-2.33-14.48L49.58,205.11l-7.81,13.41-1.66,4.86h0l-2.44,7.17-4.82,14.12L19.32,284.35l83.89,15.81Z"/><path class="cls-6" d="M58.41,116.81s15.5,4.1,20,8.74l7.9,4.64,10.08,21.23s7.83,3.34,7.84,17.87S115.5,208.4,115.5,208.4s7.82,6.69,2.24,10a26.93,26.93,0,0,1-12.29,3.37s5.57-21.24-5.61-22.35-16.77-2.22-17.88,0S50.7,234.16,38.4,230.82,32.78,194,32.78,194l10-78.24s7.82-1.13,12.3,0S58.41,116.81,58.41,116.81Z"/><circle class="cls-7" cx="73.07" cy="273.59" r="3.38"/><path class="cls-7" d="M60,275.65l3.37,3,32.83,10.46.49-.89L77.6,277.65a6.08,6.08,0,1,1,1.31-2.37l19,10.56.49-.89L72.17,262.67,68,261.18l1.18-2.12-3-1.64-2.29,4.14L46.46,251.9l-5.89,10.64L58,272.2l-2.29,4.14,3,1.64Z"/><path class="cls-4" d="M20.5,210.72,32.83,242s-1.1,26.83,13.43,24.58S44,237.52,44,237.52l-9-32.4S23.85,202.9,20.5,210.72Z"/><path class="cls-6" d="M45.13,116.82l-2.24-1.12S36.18,109,28.36,118s-15.59,55.9-15.59,55.9v14.53s-8.92,12.3-1.1,19,9,7.81,9,7.81,7.82-11.18,16.76-5.6l1.11-4.47a14,14,0,0,0,2.24-3.36c1.11-2.23,3.35,1.12,2.23-2.24s0-4.47,0-5.58,1.12-6.71,1.12-6.71l-1.16-34.64Z"/><path class="cls-5" d="M103,85.74s16.31-35.65-26.4-35.57c0,0-26.22-13.74-46.14,18.2L9.9,102l5.26-1.06.67,5.24,6.72,4.11L27.6,105l-.83,8,57.86,24.51S62.8,113.4,71.19,84.92l3.42,7Z"/><ellipse class="cls-4" cx="67.8" cy="96.23" rx="2.82" ry="5.65"/></g></g></svg>