<svg xmlns="http://www.w3.org/2000/svg" viewBox="0 0 571.82 296.3"><defs><style>.cls-1{fill:#3f3d56;}.cls-2{fill:#9800bf;}.cls-3{fill:#d0cde1;}.cls-4{fill:#ffb8b8;}.cls-5{fill:#2f2e41;}.cls-6{fill:#575a89;}.cls-7{opacity:0.2;isolation:isolate;}</style></defs><g id="レイヤー_2" data-name="レイヤー 2"><g id="レイヤー_2-2" data-name="レイヤー 2"><rect class="cls-1" x="286.28" y="-24.29" width="169.19" height="299.92" transform="translate(149.03 448.34) rotate(-74.21)"/><circle class="cls-2" cx="254.57" cy="10.27" r="2.39"/><circle class="cls-2" cx="261.93" cy="12.35" r="2.39"/><circle class="cls-2" cx="269.29" cy="14.43" r="2.39"/><path class="cls-2" d="M402.75,106.76a28,28,0,0,0-11.66.28,28,28,0,0,0,.82-11.79A27.75,27.75,0,0,0,381.49,102a27.73,27.73,0,0,0-5.36-11.19,28,28,0,0,0-5.47,10.47,27.92,27.92,0,0,0-9.79-6.34s-1.74,8.85,2.45,16.12c3.73,6.46,10.9,9.49,12.43,10.07l0,0,0,0,.25.09s0-.17.07-.48l.09-.11s0,.1,0,.14c-.12.28-.18.45-.18.45l.25,0v0l.06,0c1.61.3,9.3,1.47,15.86-2.08C399.6,115.22,402.75,106.76,402.75,106.76Z"/><circle class="cls-2" cx="388.45" cy="77.93" r="6.21"/><rect class="cls-2" x="370.41" y="37.2" width="4.22" height="194.09" transform="translate(141.98 456.18) rotate(-74.21)"/><rect class="cls-2" x="286.29" y="134.91" width="33.46" height="33.46" transform="translate(74.64 401.97) rotate(-74.21)"/><rect class="cls-2" x="346.09" y="151.82" width="33.46" height="33.46" transform="translate(101.9 471.82) rotate(-74.21)"/><rect class="cls-2" x="405.89" y="168.73" width="33.46" height="33.46" transform="translate(129.15 541.67) rotate(-74.21)"/><rect class="cls-2" x="294.82" y="163.13" width="2.87" height="24.86" transform="translate(46.7 412.87) rotate(-74.21)"/><rect class="cls-2" x="354.62" y="180.05" width="2.87" height="24.86" transform="translate(73.96 482.72) rotate(-74.21)"/><rect class="cls-2" x="414.42" y="196.96" width="2.87" height="24.86" transform="translate(101.21 552.57) rotate(-74.21)"/><ellipse class="cls-3" cx="163.13" cy="223.35" rx="159.98" ry="5.91"/><ellipse class="cls-3" cx="447.33" cy="290.38" rx="124.49" ry="5.91"/><path class="cls-1" d="M386.22,244.31h36v15.2H401.43v15.21h20.84v14.65h-36Zm43.37,0h35.49v12.95H444.24v2.82h20.84v29.85H429.59V276.41h20.84V273.6H429.59V244.31Zm42.81,0h36.05v12.95H487.61v2.82h20.84v29.85H472.4V276.41h20.84V273.6H472.4V244.31Z"/><path class="cls-1" d="M72.46,175.58H87.1v14.65h13.52V175.58h14.65v44.5H100.62V205.44H87.1v14.64H72.46v-44.5ZM135,190.23H122V175.58h41.12v14.65H149.63v29.85H135V190.23Zm34.37-14.65h15.52l9.55,15.64L204,175.58h15.53v44.5H204.83V198.16l-10.28,15.73h-.26L184,198.16v21.92H169.35Zm57.45,0h14.65v29.86h20.84v14.64H226.8v-44.5Z"/><polygon class="cls-4" points="46.48 206.22 45.27 220 55 219.19 55 207.44 46.48 206.22"/><polygon class="cls-4" points="37.03 206.22 38.25 220 28.52 219.19 28.52 207.44 37.03 206.22"/><path class="cls-5" d="M62.83,100.42s3.24,19.46,3.24,22.3-1.21,21.08-3.24,24.72-2.43,5.27-1.62,6.89.4,1.22,0,2.44-1.22.81,0,2.43a4.24,4.24,0,0,1,0,4.86c-.81,1.22,1.62,34.05-1.62,36.48s-4.06,10.54-4.06,10.54l-10.67-1.21V201c.13,0-2.3-6.49-.68-10.54s2.44-25.54,2.44-25.54a7.94,7.94,0,0,1,0-3.24,1.8,1.8,0,0,0-.82-2.43c-.81-.41-1.21-2-1.21-2l-1.22-29.59-4.86,29.19s4.86,39.72-.41,45v9.31H28L29.59,201S26.35,191.63,28,189.6s-4.86-34.45-4-35.67.4-1.62,0-2.43-1.63-1.62-1.22-2.44a4.59,4.59,0,0,0,0-2.43s-7.7-38.1-4.05-41.75S62.83,100.42,62.83,100.42Z"/><path class="cls-5" d="M47.43,214.73s.81-3.89,7.29-2.55c0,0,1.62,3.36,1.62,5S58,229.73,58,229.73s6.48,10.94-1.63,10.94S45.4,237.84,45,235s.41-3.65-1.21-4.86-2.43-1.22-2-2.84S43,217.57,43,217.57s.4-6.08,2.63-4.46l2.23,1.62"/><path class="cls-5" d="M36.08,214.73s-.81-3.89-7.3-2.55c0,0-1.62,3.36-1.62,5s-1.62,12.57-1.62,12.57-6.49,10.94,1.62,10.94S38.1,237.84,38.51,235s-.41-3.65,1.21-4.86,2.44-1.22,2-2.84-1.21-9.73-1.21-9.73-.41-6.08-2.64-4.46l-2.23,1.62"/><circle class="cls-4" cx="47.83" cy="14.89" r="10.94"/><path class="cls-4" d="M38.91,16.52S34.45,34,33.64,34.35s18.65,2,18.65,2-4.86-15,0-17.43Z"/><path class="cls-3" d="M36.07,27.14h0L22.7,36.38l2.43,72.56s17.84-2,21.89-1.63,17-3.64,17-3.64L58.36,35.49a5.61,5.61,0,0,0-5.18-5.13l-2.44-.17s-2.43,6-9.75,2.92A8.53,8.53,0,0,1,36.07,27.14Z"/><path class="cls-6" d="M36.39,26.48,19.86,34.35,16.62,81s-6.49,28-1.22,36.07A20.53,20.53,0,0,0,29.59,126S41.35,79.34,38.1,63.54,36.39,26.48,36.39,26.48Z"/><path class="cls-4" d="M5.43,96.72v6.08s-2.44,13.38,5.27,13,4.05-14.59,4.05-14.59l-2.43-4.46Z"/><path class="cls-4" d="M76.61,108.94l-.81,6.89s4,13.78-3.65,14.18S70,115.91,70,115.91l2.52-7.79Z"/><path class="cls-6" d="M50.5,28.78h0a47.75,47.75,0,0,1,20,10.37l.07.06-5.67,30-.81,11s15,53.5-2.44,45.8c0,0-15-46.62-13-68.1S50.5,28.78,50.5,28.78Z"/><path class="cls-6" d="M65.26,38.81c.41-.41,5.27.56,5.27.56s8.92,31.46,8.92,36.73,1.21,35.27,1.21,35.27L70,112.45,61.3,70.77Z"/><path class="cls-6" d="M22.7,34.19H19.86s-8.1,3.25-8.51,6.9S0,81.62,0,81.62l2.84,18.65,10.54-1.62L15.4,78l10.54-22.7Z"/><path class="cls-5" d="M45.71,18,46.12,15c.1-.68.5-1.58,1.17-1.39s1.79.64,2,.5c.77-.55,1.94.4,2.75-.08.34-.2.56-.64,1-.67a1.11,1.11,0,0,1,.7.32,4.9,4.9,0,0,0,1.82,1,2,2,0,0,0,1.91-.53,1,1,0,0,1,.34-.32.72.72,0,0,1,.48,0l2.07.57a7.94,7.94,0,0,0-1.06-6.55,13.26,13.26,0,0,0-3-3q-1.92-1.45-4-2.75A13,13,0,0,0,47.44.07a5.17,5.17,0,0,0-4.8,1.59A3,3,0,0,1,41.53.16a1.14,1.14,0,0,0-.08,1.61l.15.14L39.85.79c-.49.51.47,1.45,0,2a1.14,1.14,0,0,1-.47.31,8.08,8.08,0,0,0-2.57,1.61,9.56,9.56,0,0,0-2,3.73c-1.05,3-1.81,6.43-.32,9.23.17.32,2.38,5.56,2.68,5.76,1,.7.35-1,1.06,0,.57.77.46-2.17,1.3-1.53a2.08,2.08,0,0,0,2.26.11c.35-.24.23-1.58,0-2.8a1.44,1.44,0,0,1,1.75-1.62A6.56,6.56,0,0,0,45.71,18Z"/><polygon class="cls-7" points="66.28 75.61 70.73 112.49 67.9 112.49 66.28 75.61"/><polygon class="cls-7" points="19.25 61.23 17 75.42 21.28 61.23 20.07 61.23 19.25 61.23"/></g></g></svg>