<svg xmlns="http://www.w3.org/2000/svg" viewBox="0 0 400.59 383.74"><defs><style>.cls-1{fill:#f2f2f2;}.cls-2{fill:#3f3d56;}.cls-3{opacity:0.1;isolation:isolate;}.cls-4{fill:#2f2e41;}.cls-5{fill:#fb503b;}.cls-6{fill:#ffb9b9;}.cls-7{fill:#d0cde1;}.cls-8{fill:#9800bf;}.cls-9{fill:#4dba87;}.cls-10{fill:#435466;}</style></defs><g id="レイヤー_2" data-name="レイヤー 2"><g id="レイヤー_2-2" data-name="レイヤー 2"><path class="cls-1" d="M343.53,143.61C322.68,61.63,250.64,2.45,166.08.07c-44.7-1.25-91.74,13.57-126,65.46-61.23,92.74,3.76,156.83,49.07,187.29a283.39,283.39,0,0,1,58.59,52.67c30.61,36.31,89.48,81.44,159.6,10.73C358.17,265,357.42,198.22,343.53,143.61Z"/><path class="cls-2" d="M400.12,326.18c0,20.13-87.82,57.56-198.43,57.56S0,348.63,0,328.51s91.07-17.64,201.69-17.64S400.12,306.06,400.12,326.18Z"/><path class="cls-3" d="M400.12,326.18c0,20.13-87.82,57.56-198.43,57.56S0,348.63,0,328.51s91.07-17.64,201.69-17.64S400.12,306.06,400.12,326.18Z"/><ellipse class="cls-2" cx="200.29" cy="328.27" rx="200.29" ry="36.44"/><polygon class="cls-4" points="275.99 204.09 275.99 301.71 292.26 328.32 293.5 330.34 357.69 330.34 358.99 204.09 275.99 204.09"/><polygon class="cls-3" points="275.99 204.55 275.99 302 292.24 328.57 293.24 204.55 275.99 204.55"/><polygon class="cls-4" points="120.96 201.76 120.96 299.38 104.69 326 103.45 328.02 39.26 328.02 37.97 201.76 120.96 201.76"/><polygon class="cls-3" points="120.96 201.76 120.96 299.21 104.71 325.78 103.71 201.76 120.96 201.76"/><polygon class="cls-4" points="378.58 200.05 378.58 205.94 29.05 205.94 29.05 197.43 61.53 180.41 349.99 180.41 378.58 200.05"/><polygon class="cls-3" points="378.58 199.69 378.58 205.48 29.05 205.48 29.05 197.12 378.58 199.69"/><polygon class="cls-3" points="79.42 229.15 63.51 229.15 56.88 224.51 86.72 224.51 79.42 229.15"/><polygon class="cls-3" points="79.42 247.72 63.51 247.72 56.88 243.08 86.72 243.08 79.42 247.72"/><polygon class="cls-3" points="79.42 274.64 63.51 274.64 56.88 270 86.72 270 79.42 274.64"/><polygon class="cls-3" points="79.42 301.1 63.51 301.1 56.88 296.46 86.72 296.46 79.42 301.1"/><polygon class="cls-3" points="317.55 231.47 333.46 231.47 340.09 226.83 310.25 226.83 317.55 231.47"/><polygon class="cls-3" points="317.55 250.5 333.46 250.5 340.09 245.86 310.25 245.86 317.55 250.5"/><polygon class="cls-3" points="317.55 276.96 333.46 276.96 340.09 272.32 310.25 272.32 317.55 276.96"/><polygon class="cls-3" points="317.55 303.88 333.46 303.88 340.09 299.24 310.25 299.24 317.55 303.88"/><path class="cls-2" d="M247.18,164.05,245,177.89s-10.66,5.67-3.16,5.83,42.84,0,42.84,0,6.83,0-4-6l-2.17-14.5Z"/><path class="cls-3" d="M240.34,183.42a29.57,29.57,0,0,1,4.67-3.1l2.17-13.83,31.34,0,2.17,13.64a28.11,28.11,0,0,1,5,3.29c1.39-.32,2.91-1.5-5-5.88l-2.17-14.51-31.34.84L245,177.73S236.05,182.5,240.34,183.42Z"/><rect class="cls-2" x="191.98" y="67.62" width="141.11" height="98.41" rx="4.96"/><rect class="cls-1" x="196.62" y="72.72" width="131.83" height="73.8"/><circle class="cls-1" cx="262.69" cy="70.53" r="0.83"/><path class="cls-2" d="M333.09,152.56v8.54a4.94,4.94,0,0,1-5,4.92H196.94a4.94,4.94,0,0,1-5-4.92h0v-8.54Z"/><circle class="cls-1" cx="262.69" cy="159.22" r="3.17"/><polygon class="cls-2" points="257.89 192.62 257.89 194.34 168.3 194.34 168.3 192.97 168.43 192.62 170.64 186.45 256.06 186.45 257.89 192.62"/><path class="cls-2" d="M292.26,191.09c-.16.7-.78,1.44-2.17,2.14-5,2.5-15.17-.67-15.17-.67s-7.84-1.34-7.84-4.84a5.9,5.9,0,0,1,.69-.4c2.1-1.12,9.08-3.86,21.44.11a5.22,5.22,0,0,1,2.35,1.54A2.45,2.45,0,0,1,292.26,191.09Z"/><path class="cls-3" d="M292.26,191.09c-6.12,2.35-11.57,2.52-17.17-1.37a12.27,12.27,0,0,0-7.32-2.4c2.1-1.12,9.08-3.86,21.44.11a5.22,5.22,0,0,1,2.35,1.54A2.45,2.45,0,0,1,292.26,191.09Z"/><ellipse class="cls-1" cx="284.59" cy="189.06" rx="2.17" ry="0.67"/><polygon class="cls-3" points="257.89 192.48 257.89 194.34 168.3 194.34 168.3 193.06 168.19 192.48 257.89 192.48"/><path class="cls-5" d="M309,107.67c-.71-.71-9.79-12.15-11.32-14s-2.36-1.53-3.42-1.41-12.5,2.12-13.8,2.24-2.12.71-1.3,1.89,8.26,11.67,9.91,14.15L259,117.69l-23.82-40c-1-1.41-1.18-1.88-3.31-1.77s-18.75,1.54-19.93,1.54-2.47.59-1.29,3.42,20,43.39,20.52,44.57,1.88,3.07,5.07,2.36,14.62-3.77,20.87-5.42c3.3,5.89,9.91,17.92,11.2,19.69,1.66,2.36,2.83,1.89,5.31,1.18,2-.59,30.9-11,32.2-11.56s2.12-.94,1.18-2.24c-.71-.94-8.26-11.2-12.27-16.51,2.71-.7,12.5-3.3,13.56-3.65s1.42-.95.71-1.65Zm-54.6,11.2c-.36.12-17.22,4.13-18.05,4.36s-.94.12-.94-.23c-.23-.36-20-41.4-20.4-41.87s-.24-.94,0-.94,15.92-1.42,16.39-1.42.47.12.71.48c0,0,22,38.09,22.41,38.68s.23.82-.12.94Zm47.41,8.84c.23.48.59.71-.36,1s-28.42,9.67-29,9.9-.94.36-1.65-.7-9.67-16.51-9.67-16.51l29.37-7.67c.7-.23.94-.35,1.41.35s9.67,13.33,9.91,13.68ZM303.69,107c-.7.12-11.44,2.83-11.44,2.83l-8.84-12c-.24-.35-.47-.71.12-.83s10.61-1.88,11.08-2,.83-.24,1.42.59,8.14,10.38,8.49,10.73-.12.59-.83.71Z"/><circle class="cls-6" cx="183.18" cy="72.36" r="17.75"/><path class="cls-6" d="M170.16,81.36v28h29S195.39,86,197.26,79Z"/><path class="cls-7" d="M227.76,119.08s-27.57-13.55-27.57-14.48-2.8-7-4.67-7-17.75-5.14-26.63,2.34L168,106l-34.1,22.43,9.34,34.1s6.08,6.54,4.21,11.21,1.4,28.5,1.4,28.5l73.35-2.33V168.14s2.33-7.48,3.74-9.81,0-9.35,0-9.35l11.21-14S235.7,121.89,227.76,119.08Z"/><path class="cls-3" d="M134.83,139.87l2.1-11.44s-12.15,52.79-10.74,58.86,11.68,15.42,13.08,15.89S153.75,163,153.75,163Z"/><path class="cls-7" d="M141.6,127l-7.94,1.41s-12.15,52.79-10.74,58.86,11.67,15.42,13.08,15.89S150.48,163,150.48,163Z"/><path class="cls-3" d="M230.19,142.68l4-7.71s5.61,52.79,1.87,57.93S217.51,200,217.51,200l-.17-38.36Z"/><path class="cls-7" d="M230.87,128.89,237,135s5.6,52.79,1.86,57.93S220.29,200,220.29,200l-.16-38.36Z"/><path class="cls-2" d="M140.2,209.38s-13.55-5.14-15.88,4.67,5.6,53.73,5.6,53.73,5.14,33.17,8.41,34.1,17.76,1.41,20.09-2.8-7-47.18-7-47.18l54.2-.94s-3.27,37.38-5.14,40.65-1.87,14.48,0,14.48,22.42-.94,23.83-3.74,9.34-65.87,9.34-65.87,6.54-22-.94-20.56S140.2,209.38,140.2,209.38Z"/><path class="cls-4" d="M220,300.35s4.67-3.27,7,0,3.27,7-7,12.62-18.22,4.2-18.22,3.27V302.69Z"/><path class="cls-4" d="M139.41,299s-4.67-3.27-7,0-3.27,7,7,12.61,18.22,4.21,18.22,3.28V301.29Z"/><path class="cls-4" d="M183.3,50a15.14,15.14,0,0,0-5.22.74,19.7,19.7,0,0,0-3.71,2l-7.84,4.87A3.67,3.67,0,0,0,164.32,61l-1,7.34c-.25,1.85-.48,3.83.35,5.5.69,1.4,2,2.35,3.1,3.47a12.83,12.83,0,0,1,3.36,6.53c.56,3.06.2,6.75,2.62,8.7a8.24,8.24,0,0,0,4.79,1.36,71.35,71.35,0,0,0,13.78-.53,5.44,5.44,0,0,0,2.09-.58,5.7,5.7,0,0,0,1.82-2.18c1.75-3,3.56-6.15,3.54-9.6,0-1.71-.45-3.55.37-5a21.16,21.16,0,0,1,1.41-1.83,10,10,0,0,0,1.38-5c.53-5.57,0-9.81-4.13-13.74C194,51.69,188.53,50,183.3,50Z"/><polygon class="cls-4" points="139.69 264.54 124.1 343.8 131.89 343.8 146.84 265.84 139.69 264.54"/><polygon class="cls-4" points="189.71 270.95 199.46 361.9 205.96 361.9 200.11 268.35 189.71 270.95"/><polygon class="cls-4" points="216.35 268.53 229.99 328.95 236.49 328.95 223.5 267.23 216.35 268.53"/><polygon class="cls-4" points="164.37 268.14 162.41 316.42 167.63 316.42 171.54 268.14 164.37 268.14"/><path class="cls-8" d="M128.64,256s-10.39-69.52,18.84-71.47,70.82,0,70.82,0,24-1.95,16.89,71.47c0,0,6.5,21.44-52,19.49S128.64,256,128.64,256Z"/><path class="cls-8" d="M395,284.39c0,12.12-7.21,16.35-16.1,16.35s-16.1-4.23-16.1-16.35,16.1-27.55,16.1-27.55S395,272.26,395,284.39Z"/><polygon class="cls-2" points="378.11 288.74 385.36 276.19 378.11 287.15 378.11 282.59 383.33 273.51 378.58 281.38 378.58 273.18 383.81 265.95 379.04 271.89 379.04 256.84 378.35 275.9 373.23 268.06 378.29 277.51 377.81 286.68 377.8 286.43 371.86 278.14 377.78 287.29 377.72 288.44 377.71 288.45 377.71 288.55 376.5 300.63 378.12 300.63 378.32 299.79 384.22 290.66 378.11 298.89 378.11 288.74"/><polygon class="cls-4" points="389.13 327.09 370.07 327.09 365.14 299.24 392.99 299.24 389.13 327.09"/><rect class="cls-2" x="67.11" y="137.71" width="39.92" height="46.88"/><rect class="cls-1" x="73.61" y="144.67" width="27.39" height="32.49"/><path class="cls-9" d="M90,151.63l-2.79,4.84-2.8-4.84H75.12l12.11,21,12.1-21Z"/><path class="cls-10" d="M90,151.63l-2.79,4.84-2.8-4.84H80l7.26,12.58,7.26-12.58Z"/></g></g></svg>