<svg xmlns="http://www.w3.org/2000/svg" viewBox="0 0 469.91 397.99"><defs><style>.cls-1{fill:#f2f2f2;}.cls-2{fill:#3f3d56;}.cls-3,.cls-6{fill:none;}.cls-4{fill:#9800bf;}.cls-5{fill:#f500e7;opacity:0.3;}.cls-5,.cls-8{isolation:isolate;}.cls-6{stroke:#2f2e41;stroke-miterlimit:10;stroke-width:2px;}.cls-7{fill:#ff6584;}.cls-8{opacity:0.1;}.cls-9{fill:#575a89;}.cls-10{fill:#2f2e41;}.cls-11{fill:#ffb9b9;}</style></defs><g id="レイヤー_2" data-name="レイヤー 2"><g id="レイヤー_2-2" data-name="レイヤー 2"><path class="cls-1" d="M251.92,368.14C133.87,359.16-6.9,267.69.26,173.51S143.77-8.35,261.82.64s186,185,178.84,279.17S370,377.12,251.92,368.14Z"/><rect class="cls-2" x="0.44" y="34.55" width="224.02" height="231.81"/><path class="cls-3" d="M113.73,103.75l-1.11,0a46.74,46.74,0,1,0,41.12,24.5L115.05,157.3Z"/><path class="cls-4" d="M153.74,128.23a46.73,46.73,0,1,1-41.12-24.5l1.11,0-.5-20h-.61a66.72,66.72,0,1,0,57.2,32.37Z"/><path class="cls-5" d="M153.74,128.23l16.08-12.09a66.67,66.67,0,0,0-56.59-32.36l.5,20A46.73,46.73,0,0,1,153.74,128.23Z"/><line class="cls-6" x1="146.17" y1="208.17" x2="169.6" y2="231.82"/><line class="cls-6" x1="162.13" y1="63.27" x2="145.84" y2="92.3"/><rect class="cls-1" x="150.44" y="231.79" width="38.47" height="8.77"/><rect class="cls-1" x="141.67" y="54.52" width="38.47" height="8.77"/><rect class="cls-2" x="245.89" y="32.6" width="224.02" height="93.5"/><path class="cls-7" d="M336.55,104.68H311.23a88.46,88.46,0,0,1,0-30.19h25.32A54.37,54.37,0,0,0,336.55,104.68Z"/><path class="cls-7" d="M407.33,104.68H382a88.46,88.46,0,0,1,0-30.19h25.32A54.37,54.37,0,0,0,407.33,104.68Z"/><path class="cls-4" d="M300.6,84.23H275.27a89,89,0,0,1,0-30.2H300.6A54.4,54.4,0,0,0,300.6,84.23Z"/><path class="cls-4" d="M345.89,84.23h25.32a88.51,88.51,0,0,0,0-30.2H345.89A54.4,54.4,0,0,1,345.89,84.23Z"/><path class="cls-4" d="M415.53,84.23h25.32a88.51,88.51,0,0,0,0-30.2H415.53A54.4,54.4,0,0,1,415.53,84.23Z"/><path class="cls-2" d="M427.22,369.15c0,9.71-45.38,28.84-101.05,28.84S225.6,378.86,225.6,369.15s44.89-6.33,100.57-6.33S427.22,359.44,427.22,369.15Z"/><path class="cls-8" d="M427.22,369.15c0,9.71-45.38,28.84-101.05,28.84S225.6,378.86,225.6,369.15s44.89-6.33,100.57-6.33S427.22,359.44,427.22,369.15Z"/><ellipse class="cls-2" cx="326.17" cy="369.2" rx="100.81" ry="17.58"/><ellipse class="cls-8" cx="326.17" cy="369.2" rx="78.89" ry="13.76"/><path class="cls-4" d="M291.35,264.9H266a88.46,88.46,0,0,1,0-30.19h25.33A54.19,54.19,0,0,0,291.35,264.9Z"/><path class="cls-9" d="M371.46,112l3.49,1.74s18.86,47.3,12.48,58.62S361,204.9,361,204.9l-3.78-10.74,15.43-33.45Z"/><path class="cls-8" d="M371.46,112l3.49,1.74s18.86,47.3,12.48,58.62S361,204.9,361,204.9l-3.78-10.74,15.43-33.45Z"/><path class="cls-1" d="M367.69,348.55s4.94,11.32,2.32,12.19-5.8.87-9,.87-7-1.16-7.55-2.32,2.32-8.71,2.32-8.71Z"/><path class="cls-1" d="M301.24,354.36s3.19,10.15,1.74,10.73-6.1,3.2-8.71,2.33-6.67-2.91-7.55-3.78,0-5.51,0-5.51l4.07-5.8Z"/><path class="cls-10" d="M358.41,203.45l4.16,1.45s1.06,9.87-.1,13.35-3.77,28.73-2.32,34,.58,13.63.58,13.63,8.7,28.44,7,34.54-1.45,14.8.29,19.15,3.19,6.1,2.32,9.58-2.61,5.22-.87,8.12,5.23,3.78,3.49,6.39-3.49,4.64-2.91,6.38-15.38,4.94-16.83,2.33c0,0,4.64-4.07,0-6.39s-3.19-11-3.19-11-8.13-33.37-7.84-36-12.77-43.24-12.77-43.24-19.15,58-20.31,60.65,1.45,9,0,10.74.58,6.09-1.45,7.83,3.48,8.13,0,10.45-5.22,9.58-4.93,11-14.51-.29-14.51-2.32a14.79,14.79,0,0,0-1.16-7.26c-1.46-3.48-2.33-5.8-1.17-7s2-2.62.88-6.68,1.74-16.54.87-18.86-.58-18-.58-18,2.9-22.93,2-26.7,0-4.65.29-6.1,2-17.12,3.19-19.44S295.14,202,301.82,200,358.41,203.45,358.41,203.45Z"/><path class="cls-10" d="M360.73,359s10.44-1.74,11,0,2.33,15.38-1.74,15.67-11,1.16-12.19-1.45-6.67-4.35-6.67-4.35-8.13-2.32-8.13-4.94.29-6.67,1.75-7,7.25-3.48,7.25-4.64S360.73,359,360.73,359Z"/><path class="cls-10" d="M295.43,363.64s7.55-2.32,9.29-.87,4.06,17.42,0,17.12-14.8,1.46-15.38-.87-8.42-2.9-8.42-2.9-8.42-4.06-7.83-8.41,1.45-5.81,4.93-6.1,6.09-4.35,6.38-4.64,2.85-2.41,3.17-.05S291.66,364.51,295.43,363.64Z"/><circle class="cls-11" cx="319.23" cy="64.73" r="17.7"/><path class="cls-11" d="M334.61,68.8s1.16,19.44,5.51,21.18-22.05,1.74-22.05,1.74-.29-12.19-4.07-15.09S334.61,68.8,334.61,68.8Z"/><path class="cls-9" d="M341.57,85.63s-18-6.68-24.37,3.77c0,0-20.32,9.58-21.77,15.38s12.19,49.34,12.19,49.34,0,36-2.9,39.75-8.42,7.84-4.65,8.71,63,7.26,62.69,3.48-4.06-7,0-9.28.58-4.94,3.19-12.48,9-69.94,9-69.94-4.36-7.84-5.23-8.71S341.57,85.63,341.57,85.63Z"/><path class="cls-11" d="M289.63,212.74s-11.32,25.54-1.45,29,9.28-27,9.28-27Z"/><path class="cls-10" d="M327.72,68c-1-2.06-2.56-4.43-4.86-4.31A8.46,8.46,0,0,0,319.67,65a3.27,3.27,0,0,1-3.31.18c-1.38-1-.95-3.33-2.19-4.5s-4.06-.56-4.94-2.2c-.46-.87-.09-2-.29-2.92a10.69,10.69,0,0,1-4.18-.49,3.19,3.19,0,0,1-1.11-5.67c1.78-1.62,4.36-1.94,6.56-2.92,1.76-.78,3.28-2,5-2.85a18.68,18.68,0,0,1,9.68-1.49c5,.38,10,2,13.66,5.5s5.54,8.92,4,13.67c-.88,2.7-2.76,5-3.8,7.6a26.83,26.83,0,0,0-1.33,5.58L336.66,79c.11-.71-1.43-2.47-1.93-2.88-1.11-.92-2.71-.61-3.73-1.45C329.48,73.46,328.61,69.81,327.72,68Z"/><path class="cls-8" d="M302.11,102.75l-4.65,2.9s-7.54,45.56-6.67,51.95-3.48,42.37-2,45.27,2,3.48,2,5.22-4.07,8.13-1.45,9.29,12.19,3.19,12.19,0-1.75-7.54,1.45-9.58,5.51-15.09,5.51-15.09,1.45-13.35,2.9-16,3.48-12.19,3.48-16.25,3.49-20.6,1.46-29S313.71,100.43,302.11,102.75Z"/><path class="cls-9" d="M300.07,101.88l-4.64,2.9s-7.54,45.56-6.67,51.95-3.49,42.37-2,45.27,2,3.48,2,5.22-4.07,8.13-1.45,9.29,12.18,3.19,12.18,0-1.74-7.55,1.45-9.58,5.52-15.09,5.52-15.09,1.45-13.35,2.9-16,3.48-12.19,3.48-16.25,3.49-20.6,1.45-29S311.68,99.56,300.07,101.88Z"/></g></g></svg>