<svg xmlns="http://www.w3.org/2000/svg" xmlns:xlink="http://www.w3.org/1999/xlink" viewBox="0 0 725.94 497"><defs><style>.cls-1{fill:url(#名称未設定グラデーション_3);}.cls-2{fill:#fff;}.cls-3{fill:#f5f5f5;}.cls-4{fill:url(#名称未設定グラデーション_2);}.cls-5{fill:url(#名称未設定グラデーション_4);}.cls-6{fill:url(#名称未設定グラデーション_4-2);}.cls-7{fill:#9800bf;}.cls-8{fill:#e0e0e0;}</style><linearGradient id="名称未設定グラデーション_3" x1="-2997.03" y1="502.47" x2="-2997.03" y2="636.5" gradientTransform="matrix(1, 0, 0, -1, 3360, 636.5)" gradientUnits="userSpaceOnUse"><stop offset="0" stop-color="gray" stop-opacity="0.25"/><stop offset="0.54" stop-color="gray" stop-opacity="0.12"/><stop offset="1" stop-color="gray" stop-opacity="0.1"/></linearGradient><linearGradient id="名称未設定グラデーション_2" x1="-2586.64" y1="362.21" x2="-2586.64" y2="462.36" gradientTransform="matrix(1, 0, 0, -1, 3195.95, 484.8)" gradientUnits="userSpaceOnUse"><stop offset="0" stop-color="#b3b3b3" stop-opacity="0.25"/><stop offset="0.54" stop-color="#b3b3b3" stop-opacity="0.1"/><stop offset="1" stop-color="#b3b3b3" stop-opacity="0.05"/></linearGradient><linearGradient id="名称未設定グラデーション_4" x1="-2617.56" y1="426.64" x2="-2617.56" y2="431.46" gradientTransform="matrix(1, 0, 0, -1, 3195.95, 484.8)" gradientUnits="userSpaceOnUse"><stop offset="0" stop-opacity="0.12"/><stop offset="0.55" stop-opacity="0.09"/><stop offset="1" stop-opacity="0.02"/></linearGradient><linearGradient id="名称未設定グラデーション_4-2" x1="-2595.42" y1="432.17" x2="-2595.42" y2="446.91" xlink:href="#名称未設定グラデーション_4"/></defs><g id="レイヤー_2" data-name="レイヤー 2"><g id="レイヤー_2-2" data-name="レイヤー 2"><rect class="cls-1" width="725.94" height="134.03"/><rect class="cls-2" x="4.99" y="4.99" width="715.95" height="122.38"/><rect class="cls-3" x="49.12" y="29.14" width="416.25" height="73.26"/><path class="cls-4" d="M626.62,34.28A38.56,38.56,0,1,0,620.31,93l27.88,29a1.87,1.87,0,0,0,2.65,0h0l6.95-6.68a1.88,1.88,0,0,0,.05-2.65L630,83.74A38.56,38.56,0,0,0,626.62,34.28Zm-8.68,46.61a27.58,27.58,0,1,1,.77-39,27.58,27.58,0,0,1-.77,39Z"/><path class="cls-5" d="M578.39,53.34c-3.1,0-3.1,4.82,0,4.82S581.5,53.34,578.39,53.34Z"/><path class="cls-6" d="M600,37.9a23.17,23.17,0,0,0-20,10.32c-1.32,2.06,2.42,3.88,3.74,1.83a19.09,19.09,0,0,1,16.56-8.38,21.11,21.11,0,0,1,17.23,10c1.32,2.17,4.77.19,3.46-2A25.57,25.57,0,0,0,600,37.9Z"/><path class="cls-7" d="M626.62,30a38.56,38.56,0,1,0-6.31,58.74l27.88,29a1.87,1.87,0,0,0,2.65,0l6.95-6.67a1.89,1.89,0,0,0,.05-2.66L630,79.5A38.56,38.56,0,0,0,626.62,30Zm-8.68,46.61a27.58,27.58,0,1,1,.77-39,27.58,27.58,0,0,1-.77,39Z"/><path class="cls-7" d="M578.39,49.1c-3.1,0-3.1,4.82,0,4.82S581.5,49.1,578.39,49.1Z"/><path class="cls-7" d="M600,33.66A23.17,23.17,0,0,0,580,44c-1.32,2.06,2.42,3.89,3.74,1.83a19.11,19.11,0,0,1,16.56-8.38,21.11,21.11,0,0,1,17.23,10c1.32,2.17,4.77.2,3.46-2A25.57,25.57,0,0,0,600,33.66Z"/><rect class="cls-7" x="4.16" y="200.63" width="721.77" height="49.12"/><rect class="cls-8" x="4.16" y="283.05" width="721.77" height="49.12"/><rect class="cls-8" x="4.16" y="365.47" width="721.77" height="49.12"/><rect class="cls-8" x="4.16" y="447.88" width="721.77" height="49.12"/></g></g></svg>