<svg xmlns="http://www.w3.org/2000/svg" viewBox="0 0 514.98 318.51"><defs><style>.cls-1{fill:#f1f1f1;}.cls-2{fill:#3f3d56;}.cls-3{fill:#2f2e41;}.cls-4{fill:#ffb8b8;}.cls-5{opacity:0.1;isolation:isolate;}.cls-6{fill:#d0cde1;}.cls-7{fill:#9800bf;}.cls-8{fill:#ff6584;}</style></defs><g id="レイヤー_2" data-name="レイヤー 2"><g id="レイヤー_2-2" data-name="レイヤー 2"><rect class="cls-1" x="148.59" y="7.76" width="218.51" height="271.99" transform="translate(46.01 349.36) rotate(-73.29)"/><ellipse class="cls-2" cx="124.79" cy="305.27" rx="124.79" ry="13.24"/><rect class="cls-3" x="105.98" y="34.89" width="30.05" height="44.31"/><path class="cls-4" d="M111.93,55.29S113.07,77.08,103,78c-7.06.62,13.75,19.93,13.75,19.93l17.87-24.75s-13.4,1.38-4.81-13.75Z"/><path class="cls-5" d="M134.62,73.17,129,81,116.75,97.91s-10.22-9.48-13.9-15.37c-1.39-2.21-1.86-3.92-.51-4.42,0,0,0,0,0,0A2,2,0,0,1,103,78h0a6.7,6.7,0,0,0,1.72-.38c8.23-3.08,7.22-22.3,7.22-22.3l17.88,4.12c-5.73,10.09-1.67,12.84,1.67,13.55a11.79,11.79,0,0,0,2.22.24C134.27,73.2,134.62,73.17,134.62,73.17Z"/><path class="cls-3" d="M139.88,37.39c-3.28,9.69-8.29,18.52-18.52,18.52s-17.94-8.31-18.52-18.52c-.74-13,8-18.58,18.52-18.52C133.72,18.93,143.76,25.89,139.88,37.39Z"/><path class="cls-4" d="M96.12,195l4.81,33.69s-4.12,20.62-2.06,35.06l2.06,15.13h9.63l2.75-15.82s2.75-16.5,2.75-24.06c0,0,7.56-34.38,2.75-41.25Z"/><path class="cls-4" d="M154.56,192.92l-4.81,35.76s4.12,20.62,2.06,35.06l-2.06,15.13h-9.63l-2.75-15.82s-2.75-16.5-2.75-24.06c0,0-7.56-36.44-2.75-43.31Z"/><path class="cls-3" d="M144.94,276.67s5.5-2.06,6.18.69,2.07,17.19,2.07,17.19,4.12,6.19,6.87,6.88,8.94,9.62,1.38,10.31-15.13-2.06-15.13-3.44-2.75-2.06-4.12-2.06-6.19-2.06-5.51-4.13S139.43,276,139.43,276Z"/><path class="cls-3" d="M105.75,276.67s-5.5-2.06-6.19.69-2.06,17.19-2.06,17.19-4.13,6.19-6.88,6.88-8.94,9.62-1.38,10.31,15.13-2.06,15.13-3.44,2.75-2.06,4.13-2.06,6.18-2.06,5.5-4.13S111.25,276,111.25,276Z"/><circle class="cls-4" cx="122.25" cy="49.1" r="14.26"/><path class="cls-4" d="M175.87,127.48s-28.87,12.37-31.62-.69A189.37,189.37,0,0,1,140.81,102h0c-.4-.24-14.63-9-11.83-21a18.32,18.32,0,0,1,3.59-7.14s.42-.27,1.14-.65A22.58,22.58,0,0,1,136.3,72c4.86-1.85,12.93-2.89,14.82,9.4a282.44,282.44,0,0,1,2.75,37.13s8.25,4.82,19.25,0,22-2.06,22.7,4.13S175.87,127.48,175.87,127.48Z"/><path class="cls-4" d="M103,78l-.14,4.57-1.64,51.51-.28,8.55L76.87,169.42s-4.81,14.43-15.13,16.5S68.62,166,68.62,166L92,131.6l0-1.15a130.61,130.61,0,0,0-2.39-28.73A34.18,34.18,0,0,1,89.25,91c1-7.67,7.26-11,11-12.31a19.36,19.36,0,0,1,2.1-.61s0,0,0,0A5.83,5.83,0,0,1,103,78Z"/><path class="cls-6" d="M141.63,127.48v2.72c-10.06,12.3-32.33,6.49-40.44,3.84-1.91-.63-3-1.08-3-1.08a7.11,7.11,0,0,0,.69-2.76V124s.71-.68,1.39-1.37-2-4.82-2-4.82C91.31,113.73,95.43,102,95.43,102l4.95-10.31v-13a16.87,16.87,0,0,1,2.1-.62s0,0,0,0a2.08,2.08,0,0,1,.6-.13h0a6.32,6.32,0,0,0,1.72-.39,11.44,11.44,0,0,0,10,6.61c7.07.51,13.78-7.12,16.87-11.25a11.89,11.89,0,0,0,2.23.24,22.93,22.93,0,0,1,2.62-1.2l-3.07,12.9c-2.72,6.79,7.24,16.91,7.58,17.26h0v7.49l-1,8.25-.68,2.07,1.37,2.06-.69,2.06.69,1.38A9,9,0,0,1,141.63,127.48Z"/><path class="cls-3" d="M99.56,132.29l-2.06-.69s-24.76,61.88-8.26,64.63,28.88,7.57,31.63,2.75,1.38-22,1.38-22l2.75-.69s-4.82,25.44,4.81,23.38,36.44-5.5,36.44-8.25-24.75-62.15-24.75-62.15S131.18,135.73,99.56,132.29Z"/><circle class="cls-3" cx="121.36" cy="15.46" r="7.31"/><path class="cls-3" d="M112.59,11.56a7.31,7.31,0,0,1,6.58-7.28c-.25,0-.49,0-.74,0a7.31,7.31,0,0,0,0,14.62c.25,0,.49,0,.74,0A7.31,7.31,0,0,1,112.59,11.56Z"/><path class="cls-3" d="M115.47,30.74s-.15-.85-6.12,1.39-9.55,18.76-6.56,28.46c1.2,3.91.22,6.73-1.38,8.7-6,7.4-3.63,18.52,5.1,22.33l.75.31L111,94.17a17.07,17.07,0,0,1-2.37-14.26,41,41,0,0,0,.74-21c-.27-1.18-.58-2.39-.94-3.62-3-10.45-1.53-9.24,8.92-19.69a66.47,66.47,0,0,0,11.19,6.72c5.22,2.24,9.7,4.48,6,11.94s-12.69,14.18-6.72,23.88,6.72,6,6,9.7h0L133,91.56l4.48-4.48-3,6s9.7,0,12.69-7.46l1.49,1.49s6-10.44-5.22-20.14c0,0-3.74-2.24,1.49-9.71s1.21-23.5-5.51-26.49S115.47,30.74,115.47,30.74Z"/><path class="cls-7" d="M193,146.85l20.07-6.29a73.59,73.59,0,0,0-7.5-23.94l-20.07,6.29A45.17,45.17,0,0,1,193,146.85Z"/><rect class="cls-2" x="232.8" y="1.79" width="282.17" height="115.11"/><path class="cls-8" d="M273.27,44.57H252.33a73.15,73.15,0,0,1,0-25h20.94A44.88,44.88,0,0,0,273.27,44.57Z"/><path class="cls-7" d="M291.59,55.27h20.93a73.15,73.15,0,0,0,0-25H291.59A44.88,44.88,0,0,1,291.59,55.27Z"/><path class="cls-1" d="M338.31,18.44a188.91,188.91,0,0,1,2.92,52.9q-.6,6.91-1.71,13.76c-.33,2.07-.72,4.14-1.11,6.21-.23,1.18-.71,2.65,0,3.77,1.45,2.17,6.41,1.6,8.6,1.67,4.56.15,13.67.28,13.67.28l13.7.51,6.59.12a49.19,49.19,0,0,0,7,.1c2.95-.38,2.23-3.47,2.19-5.76q-.14-6.81-.36-13.61-.92-27-3.36-53.83c-.21-2.29-.08-5-.7-7.23-.25-.9-.5-1.16-1.47-1.32-2.22-.36-4.87,0-7.12,0l-7.45.51H339.27s-.75.2-.73.63.73.9.73.9h25l11-.51,6,0c1.23,0,2.37-.38,3.14,1,.49.86.29,3,.38,4Q387,46.39,388,70.39c.16,4,.31,8,.42,12,.05,1.67.09,3.34.13,5,0,1,.05,2,.07,3s.45,3.06.07,4c-.8,2-4.36,1.16-6.1,1.13h-6.1l-12.18.5H352.09a60.9,60.9,0,0,0-6-.82c-.67,0-1.34-.06-2-.11-2-.14-4.13.33-4.36-2.42-.15-1.69.78-4,1.07-5.72q.48-2.86.89-5.75c.5-3.59.89-7.2,1.19-10.81A190.37,190.37,0,0,0,339.78,18c-.19-1-1.66-.55-1.47.41Z"/><path class="cls-1" d="M438.65,18.44a188.91,188.91,0,0,1,2.92,52.9q-.6,6.91-1.71,13.76c-.34,2.07-.72,4.14-1.12,6.21-.22,1.18-.7,2.65.05,3.77,1.45,2.17,6.41,1.6,8.6,1.67,4.56.15,13.67.28,13.67.28l13.7.51,6.59.12a49.19,49.19,0,0,0,7,.1c2.95-.38,2.23-3.47,2.19-5.76q-.13-6.81-.37-13.61-.9-27-3.36-53.83c-.2-2.29-.07-5-.69-7.23-.25-.9-.5-1.16-1.47-1.32-2.22-.36-4.87,0-7.12,0l-7.45.51H439.61s-.75.2-.73.63.73.9.73.9h24.95l11-.51,6,0c1.23,0,2.37-.38,3.14,1,.49.86.29,3,.38,4q2.24,23.9,3.24,47.9c.16,4,.31,8,.42,12,0,1.67.09,3.34.13,5,0,1,0,2,.07,3s.45,3.06.07,4c-.8,2-4.36,1.16-6.1,1.13h-6.1l-12.18.5H452.43a60.9,60.9,0,0,0-6-.82c-.67,0-1.34-.06-2-.11-2-.14-4.13.33-4.36-2.42-.15-1.69.78-4,1.07-5.72q.48-2.86.89-5.75c.5-3.59.89-7.2,1.19-10.81A190.37,190.37,0,0,0,440.12,18c-.19-1-1.66-.55-1.47.41Z"/><path class="cls-1" d="M345.34,22.16h10.1a.77.77,0,0,0,0-1.53h-10.1a.77.77,0,0,0,0,1.53Z"/><path class="cls-1" d="M345.33,25.82l9.53-.36c1,0,1-1.57,0-1.53l-9.53.36C344.35,24.33,344.35,25.86,345.33,25.82Z"/><path class="cls-1" d="M345.34,28.78h9.24a.75.75,0,0,0,.73-.79.76.76,0,0,0-.73-.74h-9.24a.76.76,0,0,0-.74.79A.75.75,0,0,0,345.34,28.78Z"/><path class="cls-1" d="M376,21.65c-2.08-1.08-4,.7-4.25,2.74a4.51,4.51,0,0,0,.46,3.19,4,4,0,0,0,2.92,1.29,4.31,4.31,0,0,0,4.56-3,3.74,3.74,0,0,0-2.33-4.43c-.93-.33-1.33,1.15-.41,1.47a2.15,2.15,0,0,1,1.31,2.22,2.46,2.46,0,0,1-2,2.14c-1.26.29-2.74,0-3-1.44-.18-1.07.4-3.69,2-2.86.87.46,1.64-.86.77-1.32Z"/><path class="cls-1" d="M445.68,22.16h10.1a.77.77,0,0,0,0-1.53h-10.1a.77.77,0,0,0,0,1.53Z"/><path class="cls-1" d="M445.67,25.82l9.53-.36c1,0,1-1.57,0-1.53l-9.53.36C444.69,24.33,444.69,25.86,445.67,25.82Z"/><path class="cls-1" d="M445.68,28.78h9.24a.75.75,0,0,0,.73-.79.76.76,0,0,0-.73-.74h-9.24a.76.76,0,0,0-.74.79A.75.75,0,0,0,445.68,28.78Z"/><path class="cls-1" d="M476.3,21.65c-2.08-1.08-4,.7-4.25,2.74a4.46,4.46,0,0,0,.46,3.19,4,4,0,0,0,2.92,1.29,4.31,4.31,0,0,0,4.56-3,3.74,3.74,0,0,0-2.33-4.43c-.93-.33-1.33,1.15-.41,1.47a2.15,2.15,0,0,1,1.31,2.22,2.46,2.46,0,0,1-2,2.14c-1.26.29-2.74,0-3-1.44-.18-1.07.4-3.69,2-2.86.88.46,1.65-.86.78-1.32Z"/><path class="cls-1" d="M347.36,37.1q16.67.18,33.31-1l-.73-1c-1.82,4.6-1.77,9.45-1.53,14.32a18.56,18.56,0,0,1,.2,4.07c-.32,1.52-1.68,1.15-3,1.2q-4.47.13-9,.21-4.23.06-8.47,0l-4,0c-1.56,0-3.33.43-3.74-1.38-.25-1.15-.47-3.87-.47-3.87l.51-4.35V36.62s-.39-.75-.82-.73-1.22.73-1.22.73l.51,10.65V52.1a9.39,9.39,0,0,0,.12,3c.83,2.09,4.4,1.31,6.11,1.32,3.48,0,7,0,10.46,0s7-.12,10.45-.24c1.5-.05,3.58.29,4-1.56.32-1.3-.06-3-.12-4.32-.08-1.51-.17-3-.19-4.53a26.66,26.66,0,0,1,1.61-10.29.77.77,0,0,0-.54-.94l-.2,0q-16.64,1.2-33.31,1a.76.76,0,0,0,0,1.52Z"/><path class="cls-1" d="M350.52,37.93a113,113,0,0,1,13.89,6c4,2.08,9.3,4.36,12.07,8.08.58.78,1.91,0,1.32-.78C375,47.44,370.1,45.2,366,43a115.26,115.26,0,0,0-15.08-6.58c-.93-.33-1.33,1.15-.41,1.47Z"/><path class="cls-1" d="M380.41,35.21c-5.05,2.16-9.32,6.32-13.84,9.41q-7.32,5-15.09,9.31a.76.76,0,0,0,.77,1.32q7.75-4.32,15.09-9.32c4.52-3.08,8.8-7.24,13.84-9.4.91-.38.13-1.7-.77-1.32Z"/><path class="cls-1" d="M447.7,37.1q16.67.18,33.31-1l-.73-1c-1.82,4.6-1.77,9.45-1.53,14.32a18.56,18.56,0,0,1,.2,4.07c-.32,1.52-1.68,1.15-3,1.2q-4.47.13-9,.21-4.23.06-8.47,0l-4,0c-1.56,0-3.33.43-3.74-1.38-.25-1.15-.47-3.87-.47-3.87l.51-4.35V36.62s-.39-.75-.82-.73-1.22.73-1.22.73l.51,10.65V52.1a9.39,9.39,0,0,0,.12,3c.83,2.09,4.4,1.31,6.1,1.32,3.49,0,7,0,10.46,0s7-.12,10.46-.24c1.5-.05,3.58.29,4-1.56.32-1.3-.06-3-.12-4.32-.08-1.51-.17-3-.19-4.53a26.66,26.66,0,0,1,1.61-10.29.77.77,0,0,0-.54-.94l-.2,0q-16.63,1.2-33.31,1a.76.76,0,0,0,0,1.52Z"/><path class="cls-1" d="M450.86,37.93a113,113,0,0,1,13.89,6c4,2.08,9.3,4.36,12.07,8.08.58.78,1.91,0,1.32-.78-2.83-3.79-7.7-6-11.79-8.19a115.26,115.26,0,0,0-15.08-6.58c-.93-.33-1.33,1.15-.41,1.47Z"/><path class="cls-1" d="M480.75,35.21c-5.05,2.16-9.33,6.32-13.84,9.41q-7.32,5-15.09,9.31c-.86.48-.09,1.8.77,1.32q7.76-4.32,15.09-9.32c4.52-3.08,8.8-7.24,13.84-9.4.9-.38.13-1.7-.77-1.32Z"/><path class="cls-1" d="M447.7,67.66q16.67.18,33.31-1l-.73-1c-1.82,4.6-1.77,9.45-1.53,14.32a18.56,18.56,0,0,1,.2,4.07c-.32,1.52-1.68,1.15-3,1.2-3,.1-6,.16-9,.21q-4.23.06-8.47,0l-4,0c-1.56,0-3.33.43-3.74-1.38-.25-1.15-.47-3.87-.47-3.87l.51-4.35v-8.7s-.39-.76-.82-.74-1.22.74-1.22.74l.51,10.64v4.83a9.39,9.39,0,0,0,.12,3c.83,2.1,4.4,1.31,6.1,1.32,3.49,0,7,0,10.46,0s7-.12,10.46-.24c1.5,0,3.58.29,4-1.56.32-1.3-.06-3-.12-4.32-.08-1.51-.17-3-.19-4.53a26.66,26.66,0,0,1,1.61-10.29.77.77,0,0,0-.54-.94l-.2,0q-16.63,1.2-33.31,1a.76.76,0,0,0,0,1.52Z"/><path class="cls-1" d="M450.86,68.5a111.4,111.4,0,0,1,13.89,6c4,2.08,9.3,4.36,12.07,8.08.58.78,1.91,0,1.32-.78-2.83-3.79-7.7-6-11.79-8.19A115.26,115.26,0,0,0,451.27,67C450.34,66.69,449.94,68.17,450.86,68.5Z"/><path class="cls-1" d="M480.75,65.77c-5.05,2.16-9.33,6.32-13.84,9.41q-7.32,5-15.09,9.31c-.86.48-.09,1.8.77,1.32q7.76-4.32,15.09-9.31c4.52-3.09,8.8-7.25,13.84-9.41C482.42,66.71,481.65,65.39,480.75,65.77Z"/><path class="cls-1" d="M350.24,66.51q15.47.24,30.9-.12a.77.77,0,0,0,0-1.53q-15.43.36-30.9.12a.76.76,0,0,0-.73.8A.75.75,0,0,0,350.24,66.51Z"/><path class="cls-1" d="M351.11,73.44q15.88.25,31.77-.14a.76.76,0,0,0,0-1.52q-15.88.39-31.77.13A.77.77,0,0,0,351.11,73.44Z"/><path class="cls-1" d="M350,80.92l30-1.39c1,0,1-1.58,0-1.53l-30,1.39C349,79.44,349,81,350,80.92Z"/><path class="cls-1" d="M396.73,59.34h28.59a.77.77,0,0,0,0-1.53H396.73a.76.76,0,0,0-.73.79A.75.75,0,0,0,396.73,59.34Z"/><path class="cls-1" d="M424.07,50.6l4.47,4.07a13.19,13.19,0,0,1,2.23,2c.66,1.26,0,1-1.17,1.41a25,25,0,0,0-7.52,4.67c-.74.65.34,1.73,1.08,1.08A23.15,23.15,0,0,1,430,59.6c.9-.36,2.61-.57,3-1.64.52-1.32-1.14-2.29-1.94-3l-6-5.43c-.73-.66-1.81.41-1.08,1.08Z"/><path class="cls-7" d="M354.75,110.28h20.93a73.15,73.15,0,0,0,0-25H354.75A44.88,44.88,0,0,1,354.75,110.28Z"/><path class="cls-7" d="M267.14,91.43h20.93a73.15,73.15,0,0,0,0-25H267.14A44.88,44.88,0,0,1,267.14,91.43Z"/><path class="cls-7" d="M400.08,36.42H421a73.15,73.15,0,0,0,0-25H400.08A44.88,44.88,0,0,1,400.08,36.42Z"/></g></g></svg>