<svg xmlns="http://www.w3.org/2000/svg" xmlns:xlink="http://www.w3.org/1999/xlink" viewBox="0 0 427.97 304.34"><defs><style>.cls-1,.cls-4{fill:#9800bf;}.cls-1,.cls-16,.cls-5{opacity:0.1;}.cls-1,.cls-10,.cls-13,.cls-5,.cls-8{isolation:isolate;}.cls-2{opacity:0.2;}.cls-3{fill:#3f3d56;}.cls-6{fill:#35323e;}.cls-10,.cls-7{fill:#fff;}.cls-10,.cls-8{opacity:0.03;}.cls-9{fill:#464353;}.cls-11{fill:url(#名称未設定グラデーション_27);}.cls-12{fill:#be6f72;}.cls-13{opacity:0.15;}.cls-14{fill:#a1616a;}.cls-15{fill:#a26565;}.cls-17{fill:#efb7b9;}.cls-18{fill:#f86d70;}.cls-19{fill:#4c4981;}.cls-20{fill:#ff6484;}.cls-21{fill:#925978;}.cls-22{fill:#444053;}</style><linearGradient id="名称未設定グラデーション_27" x1="-3069.72" y1="2459.14" x2="-3069.72" y2="2569.57" gradientTransform="matrix(1, 0, 0, -1, 3264.77, 2763.48)" gradientUnits="userSpaceOnUse"><stop offset="0" stop-color="gray" stop-opacity="0.25"/><stop offset="0.54" stop-color="gray" stop-opacity="0.12"/><stop offset="1" stop-color="gray" stop-opacity="0.1"/></linearGradient></defs><g id="レイヤー_2" data-name="レイヤー 2"><g id="レイヤー_2-2" data-name="レイヤー 2"><path class="cls-1" d="M248.65,47.23c-27.43-1-53.56-9.81-78.52-19.5S120.47,7.3,93.69,2.16c-17.23-3.3-36.93-3.77-50.8,5.46-13.36,8.91-17.67,24.23-20,38.47-1.75,10.7-2.77,22,2,32,3.32,7,9.21,12.81,13.29,19.48C52.39,120.76,42.36,149.37,27,172c-7.21,10.63-15.58,20.77-21.15,32.07S-2.3,228.36,2.57,239.9s16.33,20,28.79,26.07c25.3,12.27,55.11,15.78,84.19,17.77,64.37,4.4,129.07,2.5,193.6.59,23.89-.71,47.87-1.42,71.37-5.12,13.05-2,26.51-5.3,36-13.14,12-10,15-26.87,6.94-39.37-13.51-21-50.87-26.19-60.33-48.71-5.19-12.39.14-26.2,7.7-37.69C387,115.64,414.2,94,415.63,65.83c1-19.36-12.08-38.75-32.27-47.91-21.17-9.6-50.52-8.39-66.13,7.5C301.14,41.77,272.88,48.07,248.65,47.23Z"/><g class="cls-2"><path class="cls-3" d="M105.54,265.91a10.64,10.64,0,0,1,.64,1.52q-5.09,1.92-10.18,4l-.21-.38a8.68,8.68,0,0,1-1.05-4.43,5.16,5.16,0,0,1,2.54-4.53,5.23,5.23,0,0,1,5.17.43A8.71,8.71,0,0,1,105.54,265.91Z"/><ellipse class="cls-3" cx="96.54" cy="260.68" rx="5.52" ry="7.23" transform="translate(-110.56 75.26) rotate(-27.84)"/><ellipse class="cls-3" cx="92.42" cy="252.87" rx="5.52" ry="7.23" transform="translate(-107.39 72.43) rotate(-27.84)"/><ellipse class="cls-3" cx="88.29" cy="245.06" rx="5.52" ry="7.23" transform="matrix(0.88, -0.47, 0.47, 0.88, -104.22, 69.6)"/><ellipse class="cls-3" cx="84.16" cy="237.25" rx="5.52" ry="7.23" transform="translate(-101.05 66.76) rotate(-27.84)"/><path class="cls-4" d="M37.66,193.39a28.33,28.33,0,0,1-3.23-1.69l11.72-8.91-13.82,7.44a26.49,26.49,0,0,1-10.23-18.3l23.71-.17L22,168.22A26.44,26.44,0,1,1,74.42,174a26.78,26.78,0,0,1,4.91,2.86L67.26,194.29,81.86,179a26.48,26.48,0,0,1,7.83,23.95,26.44,26.44,0,1,1-36.76,19.4,26.44,26.44,0,0,1-15.26-28.9Z"/><path class="cls-5" d="M87.05,185.87A26.32,26.32,0,0,1,89.69,203a26.45,26.45,0,1,1-36.76,19.41C47.7,220.05,85.67,183.24,87.05,185.87Z"/></g><g class="cls-2"><path class="cls-3" d="M293.16,210.58a13.07,13.07,0,0,0-.58,2.21q7.38,1.65,14.77,3.6c.08-.18.15-.38.22-.57a12,12,0,0,0,.59-6.31,6.67,6.67,0,0,0-11.4-4.15A12.17,12.17,0,0,0,293.16,210.58Z"/><ellipse class="cls-3" cx="304.55" cy="201.67" rx="10.03" ry="7.66" transform="translate(11.04 419.08) rotate(-70.04)"/><ellipse class="cls-3" cx="308.28" cy="189.8" rx="10.03" ry="7.66" transform="translate(24.94 415.14) rotate(-70.11)"/><ellipse class="cls-3" cx="312.92" cy="178.61" rx="10.03" ry="7.66" transform="translate(38.22 411.76) rotate(-70.04)"/><ellipse class="cls-3" cx="317.11" cy="167.08" rx="10.03" ry="7.66" transform="translate(51.81 408.11) rotate(-70.04)"/><path class="cls-4" d="M372.74,98.17a35.27,35.27,0,0,0,4.12-3l-17.81-10,20.42,7.59a36.76,36.76,0,0,0,10.6-27.11L357.43,70l32.1-9.42A36.72,36.72,0,0,0,317.22,73.4a35.63,35.63,0,0,0,1.28,5.08,36.54,36.54,0,0,0-6.22,4.86L332.2,105l-23-18.32A36.71,36.71,0,0,0,303,121.14a36.72,36.72,0,1,0,54.26,19.71,36.74,36.74,0,0,0,15.5-42.68Z"/><path class="cls-5" d="M303.36,97a36.5,36.5,0,0,0-.37,24,36.71,36.71,0,1,0,54.26,19.71C364,136.5,304.76,93.08,303.36,97Z"/></g><ellipse class="cls-4" cx="76.51" cy="272.36" rx="28.53" ry="5.49"/><ellipse class="cls-3" cx="76.03" cy="270.03" rx="3.32" ry="4.35"/><ellipse class="cls-3" cx="76.03" cy="264.71" rx="3.32" ry="4.35"/><ellipse class="cls-3" cx="76.03" cy="259.39" rx="3.32" ry="4.35"/><ellipse class="cls-3" cx="76.03" cy="254.08" rx="3.32" ry="4.35"/><ellipse class="cls-3" cx="76.03" cy="248.77" rx="3.32" ry="4.35"/><ellipse class="cls-3" cx="76.03" cy="243.45" rx="3.32" ry="4.35"/><ellipse class="cls-3" cx="76.03" cy="238.14" rx="3.32" ry="4.35"/><path class="cls-4" d="M88.47,202c.45-.83.86-1.44,1.23-2.07L81,198.64h9.44A16.08,16.08,0,0,0,90.72,186l-12.67,6.56L89.73,184a15.91,15.91,0,0,0-27.56,15.92,16.08,16.08,0,0,0,1.28,1.89,15.87,15.87,0,0,0-1.82,2.9L73,210.57l-12.08-4.06a15.9,15.9,0,0,0,2.57,14.94,15.91,15.91,0,1,0,25,0,15.55,15.55,0,0,0,0-19.42Z"/><path class="cls-5" d="M60.05,211.6a15.81,15.81,0,0,0,3.39,9.84,15.91,15.91,0,1,0,25,0C90.6,218.74,60.05,209.83,60.05,211.6Z"/><rect class="cls-6" x="113.79" y="75.7" width="205.18" height="44.09" rx="3.15"/><path class="cls-7" d="M131,21.87s2.91,79.31-2.26,88.6h174.8s-7.43-61,0-88.6Z"/><path class="cls-8" d="M131,21.87s2.91,79.31-2.26,88.6h174.8s-7.43-61,0-88.6Z"/><rect class="cls-6" x="148.97" y="107.5" width="128.02" height="15.69"/><path class="cls-9" d="M333.91,294.45H96.77A12.67,12.67,0,0,1,84.1,281.78a13,13,0,0,1,.08-1.4L89,236.58q.48-4.37.69-8.75l.92-29.7Q91,188.07,92,178.05q.54-5.19,1.27-10.36l6.25-43.53a23,23,0,0,1,22.69-19.63h9.43s9.47,1.83,13.31,4.72c9.81,7.32,37.68,12.6,70.53,12.6s60.73-5.28,70.56-12.62c3.84-2.89,13.32-4.28,13.32-4.28h15.34a13.72,13.72,0,0,1,13.51,11.34l8.37,47.47q1.26,7.23,2.15,14.53,1.49,12.14,1.86,24.38l.84,27.53a156.21,156.21,0,0,0,1.49,17.15l4.5,31.5a13.66,13.66,0,0,1-11.56,15.46A14.24,14.24,0,0,1,333.91,294.45Z"/><rect class="cls-5" x="102.34" y="184.23" width="226.37" height="97.5" rx="8.46"/><ellipse class="cls-4" cx="116.97" cy="195.74" rx="6.49" ry="5.43"/><ellipse class="cls-5" cx="116.97" cy="195.74" rx="6.49" ry="5.43"/><ellipse class="cls-4" cx="116.97" cy="194.55" rx="6.49" ry="5.43"/><ellipse class="cls-6" cx="124.65" cy="214.68" rx="6.49" ry="5.43"/><ellipse class="cls-5" cx="124.65" cy="214.68" rx="6.49" ry="5.43"/><ellipse class="cls-6" cx="124.65" cy="213.49" rx="6.49" ry="5.43"/><ellipse class="cls-6" cx="128.89" cy="233.62" rx="6.49" ry="5.43"/><ellipse class="cls-5" cx="128.89" cy="233.62" rx="6.49" ry="5.43"/><ellipse class="cls-6" cx="128.89" cy="232.43" rx="6.49" ry="5.43"/><ellipse class="cls-6" cx="112.46" cy="235.88" rx="6.49" ry="5.43"/><ellipse class="cls-5" cx="112.46" cy="235.88" rx="6.49" ry="5.43"/><ellipse class="cls-6" cx="112.46" cy="234.68" rx="6.49" ry="5.43"/><ellipse class="cls-6" cx="136.83" cy="252.56" rx="6.49" ry="5.43"/><ellipse class="cls-5" cx="136.83" cy="252.56" rx="6.49" ry="5.43"/><ellipse class="cls-6" cx="136.83" cy="251.37" rx="6.49" ry="5.43"/><ellipse class="cls-6" cx="115.11" cy="253.23" rx="6.49" ry="5.43"/><ellipse class="cls-5" cx="115.11" cy="253.23" rx="6.49" ry="5.43"/><ellipse class="cls-6" cx="115.11" cy="252.03" rx="6.49" ry="5.43"/><ellipse class="cls-6" cx="154.71" cy="252.56" rx="6.49" ry="5.43"/><ellipse class="cls-5" cx="154.71" cy="252.56" rx="6.49" ry="5.43"/><ellipse class="cls-6" cx="154.71" cy="251.37" rx="6.49" ry="5.43"/><ellipse class="cls-6" cx="173.65" cy="252.56" rx="6.49" ry="5.43"/><ellipse class="cls-5" cx="173.65" cy="252.56" rx="6.49" ry="5.43"/><ellipse class="cls-6" cx="173.65" cy="251.37" rx="6.49" ry="5.43"/><ellipse class="cls-6" cx="191.13" cy="252.56" rx="6.49" ry="5.43"/><ellipse class="cls-5" cx="191.13" cy="252.56" rx="6.49" ry="5.43"/><ellipse class="cls-6" cx="191.13" cy="251.37" rx="6.49" ry="5.43"/><ellipse class="cls-6" cx="210.47" cy="252.56" rx="6.49" ry="5.43"/><ellipse class="cls-5" cx="210.47" cy="252.56" rx="6.49" ry="5.43"/><ellipse class="cls-6" cx="210.47" cy="251.37" rx="6.49" ry="5.43"/><ellipse class="cls-6" cx="227.95" cy="252.56" rx="6.49" ry="5.43"/><ellipse class="cls-5" cx="227.95" cy="252.56" rx="6.49" ry="5.43"/><ellipse class="cls-6" cx="227.95" cy="251.37" rx="6.49" ry="5.43"/><ellipse class="cls-6" cx="245.3" cy="252.56" rx="6.49" ry="5.43"/><ellipse class="cls-5" cx="245.3" cy="252.56" rx="6.49" ry="5.43"/><ellipse class="cls-6" cx="245.3" cy="251.37" rx="6.49" ry="5.43"/><ellipse class="cls-6" cx="264.1" cy="252.56" rx="6.49" ry="5.43"/><ellipse class="cls-5" cx="264.1" cy="252.56" rx="6.49" ry="5.43"/><ellipse class="cls-6" cx="264.1" cy="251.37" rx="6.49" ry="5.43"/><ellipse class="cls-6" cx="281.72" cy="252.56" rx="6.49" ry="5.43"/><ellipse class="cls-5" cx="281.72" cy="252.56" rx="6.49" ry="5.43"/><ellipse class="cls-6" cx="281.72" cy="251.37" rx="6.49" ry="5.43"/><ellipse class="cls-6" cx="301.19" cy="252.56" rx="6.49" ry="5.43"/><ellipse class="cls-5" cx="301.19" cy="252.56" rx="6.49" ry="5.43"/><ellipse class="cls-6" cx="301.19" cy="251.37" rx="6.49" ry="5.43"/><ellipse class="cls-6" cx="321.19" cy="252.56" rx="6.49" ry="5.43"/><ellipse class="cls-5" cx="321.19" cy="252.56" rx="6.49" ry="5.43"/><ellipse class="cls-6" cx="321.19" cy="251.37" rx="6.49" ry="5.43"/><ellipse class="cls-6" cx="146.9" cy="233.62" rx="6.49" ry="5.43"/><ellipse class="cls-5" cx="146.9" cy="233.62" rx="6.49" ry="5.43"/><ellipse class="cls-6" cx="146.9" cy="232.43" rx="6.49" ry="5.43"/><ellipse class="cls-6" cx="164.91" cy="233.62" rx="6.49" ry="5.43"/><ellipse class="cls-5" cx="164.91" cy="233.62" rx="6.49" ry="5.43"/><ellipse class="cls-6" cx="164.91" cy="232.43" rx="6.49" ry="5.43"/><ellipse class="cls-6" cx="183.45" cy="233.62" rx="6.49" ry="5.43"/><ellipse class="cls-5" cx="183.45" cy="233.62" rx="6.49" ry="5.43"/><ellipse class="cls-6" cx="183.45" cy="232.43" rx="6.49" ry="5.43"/><ellipse class="cls-6" cx="201.19" cy="233.62" rx="6.49" ry="5.43"/><ellipse class="cls-5" cx="201.19" cy="233.62" rx="6.49" ry="5.43"/><ellipse class="cls-6" cx="201.19" cy="232.43" rx="6.49" ry="5.43"/><ellipse class="cls-6" cx="219.34" cy="233.62" rx="6.49" ry="5.43"/><ellipse class="cls-5" cx="219.34" cy="233.62" rx="6.49" ry="5.43"/><ellipse class="cls-6" cx="219.34" cy="232.43" rx="6.49" ry="5.43"/><ellipse class="cls-6" cx="236.69" cy="233.62" rx="6.49" ry="5.43"/><ellipse class="cls-5" cx="236.69" cy="233.62" rx="6.49" ry="5.43"/><ellipse class="cls-6" cx="236.69" cy="232.43" rx="6.49" ry="5.43"/><ellipse class="cls-6" cx="255.49" cy="233.62" rx="6.49" ry="5.43"/><ellipse class="cls-5" cx="255.49" cy="233.62" rx="6.49" ry="5.43"/><ellipse class="cls-6" cx="255.49" cy="232.43" rx="6.49" ry="5.43"/><ellipse class="cls-6" cx="273.38" cy="233.62" rx="6.49" ry="5.43"/><ellipse class="cls-5" cx="273.38" cy="233.62" rx="6.49" ry="5.43"/><ellipse class="cls-6" cx="273.38" cy="232.43" rx="6.49" ry="5.43"/><ellipse class="cls-6" cx="291.65" cy="233.62" rx="6.49" ry="5.43"/><ellipse class="cls-5" cx="291.65" cy="233.62" rx="6.49" ry="5.43"/><ellipse class="cls-6" cx="291.65" cy="232.43" rx="6.49" ry="5.43"/><ellipse class="cls-6" cx="309.93" cy="233.62" rx="6.49" ry="5.43"/><ellipse class="cls-5" cx="309.93" cy="233.62" rx="6.49" ry="5.43"/><ellipse class="cls-6" cx="309.93" cy="232.43" rx="6.49" ry="5.43"/><ellipse class="cls-6" cx="142.92" cy="214.68" rx="6.49" ry="5.43"/><ellipse class="cls-5" cx="142.92" cy="214.68" rx="6.49" ry="5.43"/><ellipse class="cls-6" cx="142.92" cy="213.49" rx="6.49" ry="5.43"/><ellipse class="cls-6" cx="161.2" cy="214.68" rx="6.49" ry="5.43"/><ellipse class="cls-5" cx="161.2" cy="214.68" rx="6.49" ry="5.43"/><ellipse class="cls-6" cx="161.2" cy="213.49" rx="6.49" ry="5.43"/><ellipse class="cls-6" cx="178.82" cy="214.68" rx="6.49" ry="5.43"/><ellipse class="cls-5" cx="178.82" cy="214.68" rx="6.49" ry="5.43"/><ellipse class="cls-6" cx="178.82" cy="213.49" rx="6.49" ry="5.43"/><ellipse class="cls-6" cx="196.43" cy="214.68" rx="6.49" ry="5.43"/><ellipse class="cls-5" cx="196.43" cy="214.68" rx="6.49" ry="5.43"/><ellipse class="cls-6" cx="196.43" cy="213.49" rx="6.49" ry="5.43"/><ellipse class="cls-6" cx="214.18" cy="214.68" rx="6.49" ry="5.43"/><ellipse class="cls-5" cx="214.18" cy="214.68" rx="6.49" ry="5.43"/><ellipse class="cls-6" cx="214.18" cy="213.49" rx="6.49" ry="5.43"/><ellipse class="cls-6" cx="231.66" cy="214.68" rx="6.49" ry="5.43"/><ellipse class="cls-5" cx="231.66" cy="214.68" rx="6.49" ry="5.43"/><ellipse class="cls-6" cx="231.66" cy="213.49" rx="6.49" ry="5.43"/><ellipse class="cls-6" cx="250.2" cy="214.68" rx="6.49" ry="5.43"/><ellipse class="cls-5" cx="250.2" cy="214.68" rx="6.49" ry="5.43"/><ellipse class="cls-6" cx="250.2" cy="213.49" rx="6.49" ry="5.43"/><ellipse class="cls-6" cx="267.68" cy="214.68" rx="6.49" ry="5.43"/><ellipse class="cls-5" cx="267.68" cy="214.68" rx="6.49" ry="5.43"/><ellipse class="cls-6" cx="267.68" cy="213.49" rx="6.49" ry="5.43"/><ellipse class="cls-6" cx="286.35" cy="214.68" rx="6.49" ry="5.43"/><ellipse class="cls-5" cx="286.35" cy="214.68" rx="6.49" ry="5.43"/><ellipse class="cls-6" cx="286.35" cy="213.49" rx="6.49" ry="5.43"/><ellipse class="cls-6" cx="304.63" cy="214.68" rx="6.49" ry="5.43"/><ellipse class="cls-5" cx="304.63" cy="214.68" rx="6.49" ry="5.43"/><ellipse class="cls-6" cx="304.63" cy="213.49" rx="6.49" ry="5.43"/><ellipse class="cls-6" cx="133.92" cy="195.74" rx="6.49" ry="5.43"/><ellipse class="cls-5" cx="133.92" cy="195.74" rx="6.49" ry="5.43"/><ellipse class="cls-6" cx="133.92" cy="194.55" rx="6.49" ry="5.43"/><ellipse class="cls-6" cx="151.93" cy="195.74" rx="6.49" ry="5.43"/><ellipse class="cls-5" cx="151.93" cy="195.74" rx="6.49" ry="5.43"/><ellipse class="cls-6" cx="151.93" cy="194.55" rx="6.49" ry="5.43"/><ellipse class="cls-6" cx="169.28" cy="195.74" rx="6.49" ry="5.43"/><ellipse class="cls-5" cx="169.28" cy="195.74" rx="6.49" ry="5.43"/><ellipse class="cls-6" cx="169.28" cy="194.55" rx="6.49" ry="5.43"/><ellipse class="cls-6" cx="187.16" cy="195.74" rx="6.49" ry="5.43"/><ellipse class="cls-5" cx="187.16" cy="195.74" rx="6.49" ry="5.43"/><ellipse class="cls-6" cx="187.16" cy="194.55" rx="6.49" ry="5.43"/><ellipse class="cls-6" cx="204.77" cy="195.74" rx="6.49" ry="5.43"/><ellipse class="cls-5" cx="204.77" cy="195.74" rx="6.49" ry="5.43"/><ellipse class="cls-6" cx="204.77" cy="194.55" rx="6.49" ry="5.43"/><ellipse class="cls-6" cx="222.79" cy="195.74" rx="6.49" ry="5.43"/><ellipse class="cls-5" cx="222.79" cy="195.74" rx="6.49" ry="5.43"/><ellipse class="cls-6" cx="222.79" cy="194.55" rx="6.49" ry="5.43"/><ellipse class="cls-6" cx="240.4" cy="195.74" rx="6.49" ry="5.43"/><ellipse class="cls-5" cx="240.4" cy="195.74" rx="6.49" ry="5.43"/><ellipse class="cls-6" cx="240.4" cy="194.55" rx="6.49" ry="5.43"/><ellipse class="cls-6" cx="258.28" cy="195.74" rx="6.49" ry="5.43"/><ellipse class="cls-5" cx="258.28" cy="195.74" rx="6.49" ry="5.43"/><ellipse class="cls-6" cx="258.28" cy="194.55" rx="6.49" ry="5.43"/><ellipse class="cls-6" cx="276.69" cy="195.74" rx="6.49" ry="5.43"/><ellipse class="cls-5" cx="276.69" cy="195.74" rx="6.49" ry="5.43"/><ellipse class="cls-6" cx="276.69" cy="194.55" rx="6.49" ry="5.43"/><ellipse class="cls-6" cx="294.69" cy="195.74" rx="6.49" ry="5.43"/><ellipse class="cls-5" cx="294.69" cy="195.74" rx="6.49" ry="5.43"/><ellipse class="cls-6" cx="294.69" cy="194.55" rx="6.49" ry="5.43"/><ellipse class="cls-4" cx="312.31" cy="195.74" rx="6.49" ry="5.43"/><ellipse class="cls-5" cx="312.31" cy="195.74" rx="6.49" ry="5.43"/><ellipse class="cls-4" cx="312.31" cy="194.55" rx="6.49" ry="5.43"/><rect class="cls-6" x="116.75" y="265.2" width="198.4" height="10.6" rx="3.84"/><rect class="cls-5" x="116.75" y="265.2" width="198.4" height="10.6" rx="3.84"/><rect class="cls-6" x="116.75" y="264.35" width="198.4" height="10.6" rx="3.84"/><path class="cls-5" d="M288.21,140.51c0,11.2-35.42,23.18-75.36,23.18s-69.52-12.91-69.52-24.1,29.59-16.43,69.52-16.43S288.21,129.32,288.21,140.51Z"/><ellipse class="cls-9" cx="323.3" cy="96.88" rx="4.37" ry="10.79"/><ellipse class="cls-9" cx="109.28" cy="96.88" rx="4.37" ry="10.79"/><rect class="cls-5" x="112.51" y="94.36" width="210.69" height="3.39"/><rect class="cls-9" x="112.51" y="93.51" width="210.69" height="3.39"/><path class="cls-9" d="M221.19,97.57c-1.72-.53-4.9,9.93-4.9,9.93H226S222.92,98.1,221.19,97.57ZM221.11,99a.93.93,0,0,1,.26,1.82.92.92,0,0,1-1.18-.89h0a.93.93,0,0,1,.93-.93h0Zm0,3c1.11.27,3.06,5.08,3.06,5.08H218s2-5.36,3.17-5.08Z"/><path class="cls-10" d="M338.69,178.29H92.07c.36-3.45.79-6.89,1.27-10.33l6.24-43.43A22.89,22.89,0,0,1,122.21,105h9.46A22.27,22.27,0,0,1,145,109.43c9.81,7.32,37.66,12.6,70.51,12.6s60.71-5.26,70.53-12.6A22.29,22.29,0,0,1,299.33,105h15.34a13.72,13.72,0,0,1,13.5,11.34l8.37,47.46Q337.81,171,338.69,178.29Z"/><g id="f7c3d2ec-a0cd-4215-8d90-993b7331bb50"><path class="cls-11" d="M208,232.33s-4.89-8.88-4.07-10.31a18,18,0,0,0,1.43-3.53s1.81-1.22,1.81-1.73,1.43-1.66,2.19-2.16.37-2.88,0-3.17a6.12,6.12,0,0,1-1-1.3s.52-1.44,0-1.87.07-.85,0-1.3a17,17,0,0,1,0-2,3.3,3.3,0,0,0-1.93-1.38l0-.23L206,202s1.56-3-1-4.53a3.81,3.81,0,0,0-.57-.29v-.32a22.61,22.61,0,0,0-.38-2.29c-.13-.42-.3-.7-.52-.63a.29.29,0,0,0-.14.08,2,2,0,0,0-.27.31h0a5.23,5.23,0,0,0-.59,1.66,9,9,0,0,0-.17,1h0a4.63,4.63,0,0,0-.29.64,3.64,3.64,0,0,0,0,3.19c.56.85,1.52,2.91,1.52,2.91v0l.35.06.07,0v.33l0,.68.4,5.87a2.29,2.29,0,0,0-.36-.07,3,3,0,0,0-.52,0c-.34-1.33-1.27-2.58-1.44-4a3,3,0,0,1,0-.42c0-.88.23-1.76.22-2.64a3.84,3.84,0,0,0,0-.48v-.35a4.38,4.38,0,0,0-2.37-3.3c-.44-.22-.93-.36-1.36-.61a24.58,24.58,0,0,1-2.54-2.26,2.79,2.79,0,0,0-2.43-.52,11.93,11.93,0,0,0-1.19.24h0a10.72,10.72,0,0,0-2.71,1.13,3.26,3.26,0,0,0-.34.22,1.38,1.38,0,0,0-.54.63,1.65,1.65,0,0,0-.09.69v.38c0,2.86-3.14,5.08-3.39,7.89v.19h0v.24c0,1.3.72,2.51.85,3.81v.12a5.66,5.66,0,0,1-.29,1.59,4.27,4.27,0,0,0-1,.43,6.58,6.58,0,0,0-2.94,3.51,5.72,5.72,0,0,0-.21,1.54,34.92,34.92,0,0,1-.47,5.51,10.29,10.29,0,0,1-.3,1.36.29.29,0,0,0,0,.13l-.33,4.67-.07.82-.08,1.17.06.19a4.32,4.32,0,0,1,.13.54,3.08,3.08,0,0,1,0,1.21.85.85,0,0,1-.24.42l0,0a4,4,0,0,0-.25,1.18c0,.25-.06.52-.08.81-.17,1.84-.27,4.6-.33,6.88s-.08,4-.08,4a4,4,0,0,0,.87.46h0a9.36,9.36,0,0,0-.6,2.56,4.22,4.22,0,0,0,2.53,4.57l.44.16a1.31,1.31,0,0,0,1.11-.08v.31s0,.8,0,1.13c.08,2,.58,5.56.58,5.56a7.43,7.43,0,0,1,0,1.88,10.25,10.25,0,0,0,0,2.17s.52.85,0,1.3-.67,2.6-.52,2.89v0c.11.72-.54,11.39-.54,11.39s-.61,1.63-1.09,3.33-.85,3.36-.39,3.68a7.39,7.39,0,0,0,1.51.37v.16a6.37,6.37,0,0,1-.3,1.83,20.26,20.26,0,0,0-.55,3.89v-.09a12.38,12.38,0,0,0-.56,1.62s-1.67,4.14-1.1,5.22a.75.75,0,0,0,.21.26h0l0,.05c.81.63,2.82.77,3.55.8l0,1v.07h.43v.14c.37-.13.42-1.52.42-1.52v-.57a6.66,6.66,0,0,0,.45-2.42,10.29,10.29,0,0,1,.38-2.81,7.14,7.14,0,0,1,.5-1.36,6.26,6.26,0,0,0-.12-2.79,1.83,1.83,0,0,0-.36-.62v-.12h0a16.92,16.92,0,0,1,.18-2.21v0c0-.06,0-.12.24-.18v.08h.3c.91,0,1.59,0,1.59,0a35.89,35.89,0,0,0,.66-5.51v-.22a22.18,22.18,0,0,1,.44-3.9l.59-5.85a3.21,3.21,0,0,1,0-1.74c.18-.42.55-1.27.83-1.84.12-.27.22-.47.26-.56v-.46a1.26,1.26,0,0,1-.26-.13h0c-.24-.16-.45-.47.26-.92,1.08-.7.72-2.46.72-2.46a1.26,1.26,0,0,1,.06-1.19c.38-.55,0-2.65,0-2.65a8.67,8.67,0,0,0,.74-1.75c.27-.82.95-4.92,1.27-6.9.11-.65.17-1.06.17-1.06v-.08h0l.43,1v.12l-.15,1.83a55.3,55.3,0,0,1,.13,6.67v0a2.32,2.32,0,0,1-.12.57c-.4.9-.29,5.26-.29,5.26v.16a5.08,5.08,0,0,0-.23,1.22h0a.79.79,0,0,0,.14.37,4.44,4.44,0,0,0,.52.56h0v.25a1.86,1.86,0,0,0-.65,1,3.36,3.36,0,0,0-.25,1.61h0a.57.57,0,0,0,.1.19.56.56,0,0,1,.06.21h0c.14,1.17-.22,6.31-.43,9.12-.08,1.11-.14,1.86-.14,1.86l-.6,6.14.06,0,.37.23h0l0,.19c-.08.6-.2,1.27-.32,1.81l0,.11a1.63,1.63,0,0,0-.64.26c-1.27,2.23-.7,4,0,4.52a1.88,1.88,0,0,1,.43,1.06l-.05,2.23v.26s.23.14.25.2l.06.68.07,1.05h.47v-1.27h.14a17.48,17.48,0,0,1,3,.42h.17c0-.32.07-.33.1-.34.34-.17,1.18-2.55.43-3.09a3.48,3.48,0,0,1-.93-2.07c-.06-.2-.13-.39-.2-.58v-.11a10.91,10.91,0,0,1,.09-2,23,23,0,0,0,.16-2.37v-.36a2.22,2.22,0,0,0,.39-.12h0a3,3,0,0,0,.65-.38l2.11-9.37.23-1.09,1.28-6.19s-.45-2.16,0-2.54a2.37,2.37,0,0,0,.2-1.34,21.46,21.46,0,0,0-.2-2.53s.6-.94.9-1.52a4.66,4.66,0,0,0,0-2.08l.6-3.46a32.39,32.39,0,0,1,2.34-7.57c1.22-2.54.43-9.42-.35-13.08l-.07-.28h0l1.32-.63.18-.08,1.87-.85h0c.42-.18.85-.34,1.28-.48a1.89,1.89,0,0,1,.4-.08C211.13,237.8,208,232.33,208,232.33ZM184.52,244h.31l-.11.21-.06.12a7.76,7.76,0,0,0-.3.72c0-.26.07-.54.12-.85Zm-.79,4.57v0l-.09-.08,0-.17.57-.11h0v.06a.74.74,0,0,0-.43.24h0v.23c.16.06.12.24.11.36l-.1-.33c0-.07,0-.13-.07-.19Z"/><path class="cls-12" d="M206.13,204.56l-1.86.67-.68-1.13c-.52-.85-1.24-2-1.77-2.91-.94-1.51.29-3.82.29-3.82s.21-2.3,1-3,1,3,1,3c3.17,1.44,1.48,4.83,1.48,4.83l.3,1.34Z"/><path class="cls-5" d="M206.2,204.56l-1.86.67-.68-1.13V204a3.26,3.26,0,0,1,2.32-.46Z"/><path class="cls-4" d="M203.12,212.14l.93-.79-.47-7.13a3,3,0,0,1,4.12.8l.1.15a17,17,0,0,0,0,2c.07.42-.51.85,0,1.27s0,1.87,0,1.87a6.24,6.24,0,0,0,.92,1.3c.36.29.72,2.67,0,3.17s-2.09,1.66-2.09,2.16-1.72,1.73-1.72,1.73l-1.52-2Z"/><path class="cls-12" d="M182.87,255.43c-3.49-1.47-2.71-5.08-2.06-6.91.14-.37.29-.73.46-1.08l2-1.19s.4,1,.83,2.39C185.05,251.8,186.19,256.84,182.87,255.43Z"/><path class="cls-12" d="M187.67,288.45a5.85,5.85,0,0,0-.52,1.45,10.9,10.9,0,0,0-.22,2.48c0,.32,0,.64.07,1L183.11,296s0-.31.06-.77a21.27,21.27,0,0,1,.5-3.79,6.05,6.05,0,0,0,.3-1.79c.06-.74.08-1.43.08-1.43S188.72,286.47,187.67,288.45Z"/><path class="cls-12" d="M196.85,290.38s0,.74,0,1.61a16.94,16.94,0,0,1-.19,2.36,9.36,9.36,0,0,0-.09,2c0,.84.09,1.64.09,1.64s-4-3.75-3.57-4.05a1.77,1.77,0,0,0,.32-.85c.12-.53.23-1.21.31-1.8s.16-1.27.16-1.27Z"/><path class="cls-5" d="M187.67,288.45a5.85,5.85,0,0,0-.52,1.45,30.72,30.72,0,0,1-3.18-.24c.06-.74.08-1.43.08-1.43S188.72,286.47,187.67,288.45Z"/><path class="cls-5" d="M196.85,290.38s0,.74,0,1.61a4.35,4.35,0,0,1-3.13-.7c.1-.7.16-1.27.16-1.27Z"/><path class="cls-4" d="M205,253.56a33.41,33.41,0,0,0-2.23,7.57l-.58,3.45a4.87,4.87,0,0,1,0,2.09c-.28.58-.84,1.52-.84,1.52s.42,3.53,0,3.89,0,2.52,0,2.52l-1.45,7.27-2,9.36c-2,1.58-4.53-.43-4.53-.43l.57-6.12s.85-10.74.51-11.17.14-1.8.14-1.8.5-1.29.14-1.8.08-1.58.08-1.58-.15-4.4.28-5.41,0-7.25,0-7.25l-.18-1.94-.1-1.08v-.1l-.17,1.1c-.32,2-1,6.24-1.27,7.11a8.85,8.85,0,0,1-.74,1.8s.37,2.16,0,2.74a1.32,1.32,0,0,0-.06,1.22s.36,1.81-.72,2.55,0,1.08,0,1.08-.79,1.73-1.08,2.45a3.14,3.14,0,0,0,0,1.72l-.58,5.84a21.79,21.79,0,0,0-.42,4.11,36.45,36.45,0,0,1-.65,5.47s-5.54,0-6.4-.65,1.43-7,1.43-7,.65-11.1.51-11.38,0-2.45.5-2.89,0-1.29,0-1.29a11,11,0,0,1,0-2.17,7.8,7.8,0,0,0,0-1.87s-.48-3.53-.55-5.54-.43-6.56-.43-6.56.37-2.8.43-4.14a4.59,4.59,0,0,1,.51-1.7,16.06,16.06,0,0,1,1.07-1.89s17.07-5,17.8-4.53a6.37,6.37,0,0,1,.74,2.35C205.37,244.17,206.12,251,205,253.56Z"/><path class="cls-13" d="M205,253.56a33.41,33.41,0,0,0-2.23,7.57l-.58,3.45a4.87,4.87,0,0,1,0,2.09c-.28.58-.84,1.52-.84,1.52s.42,3.53,0,3.89,0,2.52,0,2.52l-1.45,7.27-2,9.36c-2,1.58-4.53-.43-4.53-.43l.57-6.12s.85-10.74.51-11.17.14-1.8.14-1.8.5-1.29.14-1.8.08-1.58.08-1.58-.15-4.4.28-5.41,0-7.25,0-7.25l-.18-1.94-.1-1.08v-.1l-.17,1.1c-.32,2-1,6.24-1.27,7.11a8.85,8.85,0,0,1-.74,1.8s.37,2.16,0,2.74a1.32,1.32,0,0,0-.06,1.22s.36,1.81-.72,2.55,0,1.08,0,1.08-.79,1.73-1.08,2.45a3.14,3.14,0,0,0,0,1.72l-.58,5.84a21.79,21.79,0,0,0-.42,4.11,36.45,36.45,0,0,1-.65,5.47s-5.54,0-6.4-.65,1.43-7,1.43-7,.65-11.1.51-11.38,0-2.45.5-2.89,0-1.29,0-1.29a11,11,0,0,1,0-2.17,7.8,7.8,0,0,0,0-1.87s-.48-3.53-.55-5.54-.43-6.56-.43-6.56.37-2.8.43-4.14a4.59,4.59,0,0,1,.51-1.7,16.06,16.06,0,0,1,1.07-1.89s17.07-5,17.8-4.53a6.37,6.37,0,0,1,.74,2.35C205.37,244.17,206.12,251,205,253.56Z"/><circle class="cls-14" cx="194.47" cy="204.56" r="4.97"/><path class="cls-5" d="M204.66,240.5l-1,.49s-8,3.82-10.36,3.61c-1.78-.17-6.31-.08-8.28,0a16,16,0,0,1,1.06-1.89s17.08-5,17.81-4.53A7.74,7.74,0,0,1,204.66,240.5Z"/><path class="cls-4" d="M191,212.5s-4.61.72-5.69,1.44-3.24,2.09-3.24,5a28.69,28.69,0,0,1-.79,6.85c-.29.85,4.54,7.85,4.54,7.85l-1.73,10.6s6.92-.22,9.22,0,10.37-3.61,10.37-3.61,4.75-2.51,5.76-2.59-2-5.55-2-5.55-4.66-8.86-3.88-10.3a20.15,20.15,0,0,0,1.37-3.53l-.85-7.34a2.82,2.82,0,0,0-2.38.36c-1.08.79-4.76.36-4.76.36Z"/><path class="cls-5" d="M183.2,225.32l-1.81.51-.5,6.78s.65,1.8,0,2.38-.79,12.89-.79,12.89a4.71,4.71,0,0,0,4.54.37s-.36-1.37.72-6.36a39.17,39.17,0,0,0,1.07-7.47s0-6.19.5-7.21,0-3.53,0-3.53-1-1.37-.93-1.87S183.2,225.32,183.2,225.32Z"/><path class="cls-5" d="M184.06,248.64a4.61,4.61,0,0,1-3.25-.12c.14-.37.29-.73.46-1.08l2-1.19S183.63,247.27,184.06,248.64Z"/><path class="cls-4" d="M183.09,225.32l-1.8.51-.51,6.78s.65,1.8,0,2.38-.79,12.89-.79,12.89a4.71,4.71,0,0,0,4.54.37s-.36-1.37.72-6.36a39.92,39.92,0,0,0,1.08-7.47s0-6.19.5-7.21,0-3.53,0-3.53-1-1.37-.93-1.87S183.09,225.32,183.09,225.32Z"/><path class="cls-5" d="M201.53,226.4s-.94,8.06-3.68,9.59C197.88,236,204,234.26,201.53,226.4Z"/><path class="cls-5" d="M187.77,227.13s3.39,1.65,2.59,2.8S187.77,227.13,187.77,227.13Z"/><path class="cls-5" d="M187.77,230.44s2.16,2.23,1.73,3S187.77,230.44,187.77,230.44Z"/><path class="cls-5" d="M205.21,211.92a7.69,7.69,0,0,1,.92,2.38C206.21,215.24,205.21,211.92,205.21,211.92Z"/><path class="cls-5" d="M205.21,210s.42-.36,1.5,0S205.21,210,205.21,210Z"/><path class="cls-5" d="M201,252.09a10,10,0,0,1-5.26-.68l-.91,2.32-.1-1.07c.15-.9.42-1.87,1-2.12A8.74,8.74,0,0,0,201,252.09Z"/><path class="cls-5" d="M186.27,255.11s4.43.93,5.67.76Z"/><path class="cls-5" d="M186.73,256.27a9.1,9.1,0,0,1,2.83.3Z"/><path class="cls-5" d="M186.94,257.05a16.67,16.67,0,0,0,2.62.36Z"/><path class="cls-5" d="M186.85,267c.09-.06,3.79-.92,4.24-.3Z"/><path class="cls-5" d="M186.85,268.11s3.22-.38,3.3,0S186.85,268.11,186.85,268.11Z"/><path class="cls-5" d="M186.85,269.13a23.37,23.37,0,0,1,3.82-.54C191.05,268.76,186.85,269.13,186.85,269.13Z"/><path class="cls-5" d="M187,293.35,183.11,296s0-.31.06-.77a10.51,10.51,0,0,1,2-3.26,1.62,1.62,0,0,1,1.77.4C186.94,292.71,187,293,187,293.35Z"/><path class="cls-6" d="M187.37,295.74a9.69,9.69,0,0,0-.8,4,6.16,6.16,0,0,1-.85,3.2,2.7,2.7,0,0,1-.27.39s-2.71,0-3.65-.8a.89.89,0,0,1-.25-.3c-.55-1.08,1-5.22,1-5.22a11.44,11.44,0,0,1,2.54-4.88C188.18,291.31,187.37,295.74,187.37,295.74Z"/><path class="cls-5" d="M185.74,302.91a2.7,2.7,0,0,1-.27.39s-2.71,0-3.65-.8c.46-1.54,2-6.2,2.64-5.41S185.58,301.4,185.74,302.91Z"/><path class="cls-6" d="M185.37,297.21l-.19,7h.91s.14-6.12.55-7S185.37,297.21,185.37,297.21Z"/><path class="cls-5" d="M196.64,298s-4-3.75-3.57-4a1.81,1.81,0,0,0,.32-.85c.76-.14,2.07.18,3.16,3.23C196.58,297.16,196.64,298,196.64,298Z"/><path class="cls-6" d="M197.39,302.14a.17.17,0,0,1-.1,0,27.58,27.58,0,0,1-3.15,0,.68.68,0,0,1-.66-.68v-.91c0-1.07-.18-2.33-.55-2.62-.68-.51-1.21-2.28,0-4.51,0,0,2.32-1.77,4,3.55a3.55,3.55,0,0,0,.89,2.07C198.54,299.61,197.71,302,197.39,302.14Z"/><path class="cls-5" d="M197.29,302.17a27.58,27.58,0,0,1-3.15,0,.68.68,0,0,1-.66-.68v-.91c.3-1.27.71-2.62,1.27-2.92C194.72,297.65,196.36,297.47,197.29,302.17Z"/><polygon class="cls-6" points="192.92 297.54 193.35 303.35 193.91 303.35 193.91 297.05 192.92 297.54"/><path class="cls-5" d="M194.4,196.49a9.81,9.81,0,0,0-4.43,1.42,1.84,1.84,0,0,0-.85.85,2.76,2.76,0,0,0-.07,1c0,3-3.28,5.24-3.17,8.22,0,1.18.63,2.28.74,3.45.18,2-1,3.78-2.09,5.41a4.46,4.46,0,0,0,3.15-1.05,23.86,23.86,0,0,1,.43,12.07h1.59a1.24,1.24,0,0,1,.47.06,1.13,1.13,0,0,1,.37.28c1.49,1.48,2.49,3.67,1.91,5.69l3.39-1.27a10.11,10.11,0,0,0,2.35-1.11,3.38,3.38,0,0,0,1.44-2.09c.09-.52.07-1.14.49-1.44a3.18,3.18,0,0,1,.67-.25,2.89,2.89,0,0,0,1.53-2.37,13.25,13.25,0,0,0,.22-3.61c-.15-2-.75-4.08-.26-6.05a16.49,16.49,0,0,0,.95-3.29c.08-1.88-1.39-3.51-1.61-5.39-.15-1.3.32-2.63.16-3.94a4.21,4.21,0,0,0-2.22-3.21c-.43-.22-.87-.36-1.27-.59a22.59,22.59,0,0,1-2.39-2.21c-.86-.67-2.28-.93-2.92,0Z"/><path class="cls-15" d="M194.4,196.47A9.94,9.94,0,0,0,190,197.9a1.84,1.84,0,0,0-.85.85,2.75,2.75,0,0,0-.07,1c0,3-3.28,5.24-3.17,8.21,0,1.19.63,2.29.74,3.46.18,2-1,3.77-2.09,5.4a4.45,4.45,0,0,0,3.17-1,24,24,0,0,1,.43,12.07h1.59a1.24,1.24,0,0,1,.47.06,1.09,1.09,0,0,1,.36.28,6.05,6.05,0,0,1,1.92,5.69l3.39-1.27a10.11,10.11,0,0,0,2.35-1.11,3.38,3.38,0,0,0,1.44-2.09c.09-.52.07-1.14.49-1.44a3.18,3.18,0,0,1,.67-.25,2.92,2.92,0,0,0,1.53-2.37,13.66,13.66,0,0,0,.22-3.61c-.15-2-.75-4.08-.26-6.05a16.89,16.89,0,0,0,.95-3.29c.08-1.88-1.39-3.51-1.61-5.39-.16-1.3.31-2.63.16-3.94a4.21,4.21,0,0,0-2.22-3.21c-.43-.22-.88-.36-1.28-.59a22.59,22.59,0,0,1-2.39-2.21c-.85-.67-2.27-.93-2.91,0Z"/><g class="cls-16"><path d="M189.24,199v0Z"/><path d="M201.64,205.93a18.07,18.07,0,0,0,.19-2.75A18.07,18.07,0,0,0,201.64,205.93Z"/><path d="M186.63,210.49c-.09-1.07-.59-2.08-.71-3.14a2.82,2.82,0,0,0,0,.58c0,1.17.62,2.26.74,3.43A4.22,4.22,0,0,0,186.63,210.49Z"/><path d="M202.32,214.75a7.07,7.07,0,0,0-.18,2.15,6.61,6.61,0,0,1,.18-1.25,16.79,16.79,0,0,0,1-3.28,6.08,6.08,0,0,0,0-.61A26.43,26.43,0,0,1,202.32,214.75Z"/><path d="M187.7,214.85a4.51,4.51,0,0,1-2.54,1c-.2.31-.43.61-.61.9a4.46,4.46,0,0,0,3.15-1,24.06,24.06,0,0,1,1,6.47A24,24,0,0,0,187.7,214.85Z"/><path d="M202.36,224.41a2.93,2.93,0,0,1-1.53,2.38,2.26,2.26,0,0,0-.67.25c-.43.3-.4.92-.49,1.43a3.39,3.39,0,0,1-1.45,2.09,10.24,10.24,0,0,1-2.34,1.11l-3.24,1.22a4,4,0,0,1-.15,1l3.39-1.27a10.27,10.27,0,0,0,2.34-1.12,3.4,3.4,0,0,0,1.45-2.08c.09-.52.06-1.14.49-1.44a2.26,2.26,0,0,1,.67-.25,2.93,2.93,0,0,0,1.53-2.37,13.17,13.17,0,0,0,.24-3.07A13,13,0,0,1,202.36,224.41Z"/><path d="M190.57,227.36a.88.88,0,0,0-.79-.32h-1.33c-.06.29-.11.57-.18.85h1.51a.88.88,0,0,1,.79.32,6.49,6.49,0,0,1,1.94,3.82A6.06,6.06,0,0,0,190.57,227.36Z"/></g><path class="cls-5" d="M182.67,233.15s1.27-.54,1.57,0S182.67,233.15,182.67,233.15Z"/><path class="cls-5" d="M183.11,234.07s1.27-.55,1.58,0S183.11,234.07,183.11,234.07Z"/></g><path class="cls-17" d="M91.82,24.91l.11.9,3.87.54s.32-.24.82-.56A12.15,12.15,0,0,1,100.39,24c2-.4,8.47-3.29,6.39-3.48s-1.86.24-1.86.24a3.43,3.43,0,0,0-4.67-.19c-1.79,1.56-5.73,3.23-7.53,3.95Z"/><path class="cls-18" d="M107.27,14.65a7,7,0,0,1,1.85-.47,2.26,2.26,0,0,1,1.77.59c.25.25.43.59.65.84,1.18,1.28,3.47.32,4.89,1.31a4.77,4.77,0,0,1,1.46,2.76c.31,1,.87,2.14,1.91,2.36a6.43,6.43,0,0,0,1.52-.06,1.48,1.48,0,0,1,1.35.5c.49.73-.18,2,.52,2.48s1.76-.19,2.19.46a1,1,0,0,1-.14,1.06,7.78,7.78,0,0,0-.72.89,1.34,1.34,0,0,0,1.34,2c.42,0,.91-.29,1.29-.07a.91.91,0,0,1,.39.72,1.9,1.9,0,0,1-1.69,2,4.32,4.32,0,0,1-2.12-.71,2.71,2.71,0,0,0-2.16-.35,3.54,3.54,0,0,0-.87.62A9.86,9.86,0,0,1,118,33.15a3.34,3.34,0,0,1-2.66.12c-.92-.47-1.39-1.62-2.37-2s-2.09.3-3,.85-2.18,1-3,.33-.62-2.2-1.18-3.23a3,3,0,0,0-.89-1c-.62-.49-1.33-.85-1.95-1.32a3.22,3.22,0,0,1-1.34-1.87,3.83,3.83,0,0,1,.76-2.66,8,8,0,0,0,1.28-2.52c.11-.7,0-1.42.15-2.12a2.6,2.6,0,0,1,1.7-1.78c.46-.16.54-.12.77-.52A1.67,1.67,0,0,1,107.27,14.65Z"/><g class="cls-16"><path d="M122.78,22.77a3.44,3.44,0,0,1,.07,1.24A3.46,3.46,0,0,1,122.78,22.77Z"/><path d="M124.54,27.45a1.47,1.47,0,0,0-.14.45,1.4,1.4,0,0,1,0-1.15,7.49,7.49,0,0,1,.71-.89,1.39,1.39,0,0,0,.21-.4l0,0a1,1,0,0,1-.15,1.06A7.49,7.49,0,0,0,124.54,27.45Z"/><path d="M102.85,26.36c.62.47,1.33.84,2,1.31a3.09,3.09,0,0,1,.89,1c.55,1,.28,2.49,1.18,3.23s2.1.22,3-.34,2-1.22,3-.85,1.45,1.5,2.37,2a3.3,3.3,0,0,0,2.66-.12A9.61,9.61,0,0,0,120.62,31a3.26,3.26,0,0,1,.87-.61,2.63,2.63,0,0,1,2.16.35,4.15,4.15,0,0,0,2.12.7,1.91,1.91,0,0,0,1.69-1.69,1.06,1.06,0,0,1,.09.36,1.89,1.89,0,0,1-1.69,2,4.24,4.24,0,0,1-2.12-.7,2.69,2.69,0,0,0-2.17-.35,3.61,3.61,0,0,0-.84.61,9.61,9.61,0,0,1-2.67,1.58,3.3,3.3,0,0,1-2.66.12c-.93-.47-1.4-1.62-2.38-2s-2.09.3-3,.84-2.19,1-3,.34-.63-2.21-1.19-3.23a3.06,3.06,0,0,0-.88-1c-.62-.48-1.33-.84-2-1.31a3.24,3.24,0,0,1-1.33-1.87,2.12,2.12,0,0,1-.05-.5A3.52,3.52,0,0,0,102.85,26.36Z"/></g><path class="cls-19" d="M104.51,47.62l-1.41.3a2.41,2.41,0,0,0,3.52.78C108.75,47.21,104.51,47.62,104.51,47.62Z"/><path class="cls-5" d="M104.51,47.62l-1.41.3a2.41,2.41,0,0,0,3.52.78C108.75,47.21,104.51,47.62,104.51,47.62Z"/><path class="cls-17" d="M135,68.81s1.94,1,3.76,2.17a10.38,10.38,0,0,1,2.93,2.43c1,1.64,5.66,3.41,5.66,3.41L152,80.37a6.67,6.67,0,0,1,2.6,2.3c.14.18.21.29.21.29l1.87-.24,1-1.27s.25-2.82-1.69-2.79a2.63,2.63,0,0,1-1.1-.28,23.44,23.44,0,0,1-5-3.81s-5-6.2-6.44-6.41A1.91,1.91,0,0,1,143,68a15.14,15.14,0,0,1-3.67-2.47Z"/><path class="cls-17" d="M115.74,86.73a44.16,44.16,0,0,0,3.48,9.85,15.65,15.65,0,0,1,1.37,4.41l.26,2.05a2.41,2.41,0,0,0,.3.81,3.7,3.7,0,0,0,.25.43l3.74-1.15s-.21-.85-.54-1.85a8.48,8.48,0,0,0-1.27-2.68c-.91-.9-1-4.06-1-4.06s-.76-6.09-1-6.85a10.28,10.28,0,0,1-.43-2.25c0-.43-.06-.88-.06-1.4a29.74,29.74,0,0,0-.59-4.52l-4.36.79-.12,4.87A3.25,3.25,0,0,0,115.74,86.73Z"/><path class="cls-5" d="M154.61,82.66l.2.29,1.87-.24,1-1.27s.25-2.82-1.7-2.78a2.93,2.93,0,0,1-1.09-.28c-.16.84.79,1.54.79,1.54s.39.28.29,1.61C155.91,82.43,155.11,82.62,154.61,82.66Z"/><path class="cls-20" d="M154.4,82.84c.13.45,1.3,1.12,2.12,1.54.4.21.72.35.78.38s1.18-1,1.32-1.89,2.49-3.66,2.49-3.66a9.87,9.87,0,0,0,.88-3.46c.09-1.21-.42-1.3-1-1a4.05,4.05,0,0,0-1.13.88,2.94,2.94,0,0,1-1.45.75,7.19,7.19,0,0,0-2.09.9c-.57.37-1.13.82-1.23,1.21-.22.87.77,1.61.77,1.61s.39.29.31,1.61S154.39,82.8,154.4,82.84Z"/><path class="cls-5" d="M156.52,84.38c.4.21.72.35.78.38s1.18-1,1.32-1.89,2.49-3.66,2.49-3.66a9.87,9.87,0,0,0,.88-3.46c.09-1.21-.42-1.3-1-1a12.71,12.71,0,0,1-.85,3.79C159.57,79.66,157.18,83.37,156.52,84.38Z"/><path class="cls-5" d="M121.18,103.76l0,.07a3.78,3.78,0,0,0,.26.43l3.74-1.15s-.22-.85-.55-1.85c-1.47-.42-3.59,2.17-3.59,2.17Z"/><path class="cls-20" d="M121,106.55s3.11,1.09,4.52.92c1.06-.13,1.11-.62,1-1.64,0-.32-.06-.7-.08-1.14-.07-1.8-.79-2.16-.79-2.16-1.19-3.12-4.61,1.06-4.61,1.06l.18.34a3.68,3.68,0,0,0-.35,1.7A4.78,4.78,0,0,0,121,106.55Z"/><path class="cls-5" d="M121,106.55s3.11,1.09,4.52.92c1.06-.13,1.11-.62,1-1.64a3.31,3.31,0,0,1-2.55.73,10,10,0,0,1-3.1-.93A4.78,4.78,0,0,0,121,106.55Z"/><path class="cls-17" d="M105.46,30.88l1.21,5.34.25,1.09,2.26.29,2.32.3,2.55-.92a8.57,8.57,0,0,0,.12-4.21A2.65,2.65,0,0,0,113,31.22a2.22,2.22,0,0,1-.49-.38,2,2,0,0,1-.42-.58,2.28,2.28,0,0,1-.22-.85,6.06,6.06,0,0,1,.78-3s-5.37-1.83-5-.65c.27.77-.48,2.12-1,2.95-.31.45-.56.77-.56.77Z"/><circle class="cls-5" cx="110.31" cy="24.17" r="4.66"/><circle class="cls-17" cx="110.29" cy="24" r="4.66"/><path class="cls-20" d="M105.63,48.59a11.21,11.21,0,0,0,1.23,2.64l6.5,1.6L118,48v0c-.14-.45-1.92-6.19-.63-7.6s.85-5.62.85-5.62-2.33-2.67-2.79-3.32S112,30.26,112,30.26l.43.58a6.16,6.16,0,0,1,.74,1.58,2.3,2.3,0,0,1-.07,1.69,2.19,2.19,0,0,0-.15.43c-.51,2.22-2.83,1.91-3.75,1.69l-.38-.11-2.22.08-1.39,0s.63,11,.48,11.84A1.25,1.25,0,0,0,105.63,48.59Z"/><path class="cls-21" d="M105.33,36.81l4-.53h-.08l-.38-.11-2.21.08-1.39,0Z"/><polygon class="cls-21" points="109.85 51.94 111.6 52.36 114.35 52 115.07 51.25 109.85 51.94"/><polygon class="cls-21" points="112.76 52.65 113.55 52.84 113.88 52.5 112.76 52.65"/><path class="cls-5" d="M106,48.59c1,.11,2,.16,2,.16l5.36-.2V43a8,8,0,0,0-2.16-1.43c-.93-.32-2-1.31-1.82-3.92a3.89,3.89,0,0,1,0-.47,6.4,6.4,0,0,0,0-.88A4.71,4.71,0,0,0,108,32.8l-.08-.06L107,28.68l-.14,0c-.32.48-.59.81-.59.81l-.64,1.41,1.21,5.34-1.39,0s.63,11,.48,11.84A1.37,1.37,0,0,0,106,48.59Z"/><path class="cls-22" d="M107.58,48.77l5.36-.2V43a8,8,0,0,0-2.15-1.43c-1-.35-2.16-1.43-1.78-4.4a4.89,4.89,0,0,0-1.43-4.33l-.09-.07-.87-4.06a1.89,1.89,0,0,0-1.38.8c-.1.15-.2.3-.32.45a.86.86,0,0,1-1.08.32c-.56-.25-3-1.27-3.54-.27s-.65,7-.65,7a4.6,4.6,0,0,1,1.58,2.59c.37,1.7,1,1.76,1,1.76l.67,4.92s.61,1.06.15,1.65"/><path class="cls-22" d="M105,29.94l.91,2.73,1.75.16-.08-.07-.88-4.06a1.91,1.91,0,0,0-1.38.79A3.65,3.65,0,0,1,105,29.94Z"/><path class="cls-5" d="M91.82,24.91l.11.9,3.87.54s.32-.24.82-.56c-.43-.09-2.33-.51-3.34-.85-.37-.11-.62-.21-.63-.28s0-.07.08-.12Z"/><path class="cls-22" d="M87.28,30.69s4.38,3.33,7.1,3.86c0,0,3.81,1.14,5.32,2.44l1.65-6.31-1-.69a3.52,3.52,0,0,1-2.23.5c-1-.25-2.17-.39-2.17-.39a16.59,16.59,0,0,0-2.78-.77c-.74-.06-.43-1,.29-1.52a2.48,2.48,0,0,1,.31-.18,1,1,0,0,0,1.25.28,2.86,2.86,0,0,0,.72-.67h0A10,10,0,0,0,96.57,26s-2.28-.49-3.42-.85c-.37-.11-.62-.21-.63-.27,0-.27,2-1.09,2-1.09s-1.78-.85-2.5-.24c0,0,.46.35.09.69s-4.93,3.84-4.93,3.84S85,29.2,87.28,30.69Z"/><path class="cls-5" d="M91.05,27.46l2.42.35a1.92,1.92,0,0,1,.31-.18,1,1,0,0,0,1.24.28,2.56,2.56,0,0,0,.72-.67h0a8.65,8.65,0,0,0,.67-1s-2.29-.49-3.43-.85Z"/><path class="cls-22" d="M91.19,27.26l2.58.37a1,1,0,0,0,1.25.28A6,6,0,0,0,96.55,26s-2.29-.48-3.43-.84Z"/><path class="cls-5" d="M139.29,65.55,135,68.81s1.94,1,3.76,2.17c1.58-1.07,3.08-2.06,4.21-3A14.63,14.63,0,0,1,139.29,65.55Z"/><path class="cls-5" d="M115.74,86.73a14.77,14.77,0,0,0,3.15-.76,19.42,19.42,0,0,0,2-.57c0-.42-.06-.87-.07-1.4a27.56,27.56,0,0,0-.59-4.52l-4.36.79-.11,4.88A3.25,3.25,0,0,0,115.74,86.73Z"/><path class="cls-20" d="M108,66.94c.88,1.3,3.28,6.81,3.28,6.81a23.35,23.35,0,0,0,1.82,2.82c1,1.2,1.62,3.9,2.34,6.05s-.22,1.75-.11,2.89,4.2-.33,4.2-.33,8.37-1.84,10.93-7,12.78-9.75,14.84-12.63-.59-1.69-.49-3.24a4.38,4.38,0,0,0-1.08-2.87s-3.85-1.09-4.48-1.84a27.12,27.12,0,0,0-3.7-2.66,22,22,0,0,1-3.27-1.69,22.16,22.16,0,0,0-4.86-2.06,5,5,0,0,1-2.09-1.76s-.65.08-1.61-.85-5-1.73-5-1.73C111.79,52,107,51.23,107,51.23l-.11,1C103.26,57,107.1,65.65,108,66.94Z"/><path class="cls-5" d="M106.93,52.19s5.94,2,11.77-5.29C111.8,52,107,51.23,107,51.23Z"/><path class="cls-5" d="M117.18,55.58s8,11.54,8.48,12S117.6,55.44,117.18,55.58Z"/><path class="cls-5" d="M113.49,54.68s5.54,8.6,5.42,9.75C118.91,64.45,113.55,56.19,113.49,54.68Z"/><path class="cls-5" d="M110.26,57.06s1,4.81-.52,7.53Z"/><path class="cls-5" d="M108.13,57.34s-.07,4.16-.53,5Z"/><polygon class="cls-5" points="121.7 53.62 129.05 56.51 126.36 56.86 121.7 53.62"/><path class="cls-5" d="M107.22,21.41c.36.24.67.64,1.11.69a1.69,1.69,0,0,0,.9-.22,3.32,3.32,0,0,1,2.32-.31c1.08.36,1.68,1.6,2.75,2a1.94,1.94,0,0,0,1.61-.18,1.88,1.88,0,0,0,.85-1.17,2.39,2.39,0,0,0-.85-2.26,5,5,0,0,0-2.28-1,22.92,22.92,0,0,0-6.62-.16,1,1,0,0,0-.51.14,3,3,0,0,0-.79,1.93C105.88,21.37,107.16,20.94,107.22,21.41Z"/><path class="cls-18" d="M107.19,21.24c.37.24.67.64,1.12.69a1.79,1.79,0,0,0,.9-.22,3.32,3.32,0,0,1,2.32-.32c1.08.36,1.67,1.6,2.75,2a1.93,1.93,0,0,0,1.61-.17,1.91,1.91,0,0,0,.85-1.17,2.41,2.41,0,0,0-.85-2.27,5.09,5.09,0,0,0-2.29-1,22.85,22.85,0,0,0-6.61-.15,1,1,0,0,0-.52.14,3,3,0,0,0-.78,1.93C105.85,21.19,107.13,20.76,107.19,21.24Z"/><path class="cls-17" d="M135.68,24.67l.7,2.84.92-.55,5-3s3.75-.14,4.05-3.16-4.18,0-4.42.2a9.18,9.18,0,0,1-.78.63l-4.62,2.58Z"/><path class="cls-5" d="M135.68,24.67l.7,2.84.92-.55a7.17,7.17,0,0,0-.81-2.74Z"/><path class="cls-5" d="M111.19,43.27l1,5.94,6-1.28c-.14-.45-1.92-6.19-.63-7.6s.84-5.61.84-5.61-2.32-2.68-2.78-3.32-3.49-1.16-3.49-1.16a2.43,2.43,0,0,1-.22-.84,3.38,3.38,0,0,0-.23.63,2.38,2.38,0,0,0,1.6,2.37l.32.14.59.21.1,0a3.37,3.37,0,0,1,2.35,1.72,4.4,4.4,0,0,1,.87,3.12C117.29,39.47,111.19,43.27,111.19,43.27Z"/><path class="cls-22" d="M111.54,43.09l1,5.94,6.74-1.41a12.17,12.17,0,0,0-.67-3.15c-.47-.92-.38-4.46-.38-4.46,2.86-3.09,1.36-5.6,1.36-5.6s8.42-1.36,8.56-1.62a28.82,28.82,0,0,1,3-1.77,16.41,16.41,0,0,0,3.46-1.21,5.34,5.34,0,0,1,.5-.46l.17-.1.22,1.94h.09a2.72,2.72,0,0,0,1.36-.53c.69-.54-.19-6.36-.85-6.58a.86.86,0,0,0-.39,0,4.32,4.32,0,0,0-1.46.79l-.11.09,0,0a28.6,28.6,0,0,0-4.58,2.19c-.76.68-6.69,1.56-6.69,1.56s-2.65.63-3,.25-4.4-1-4.74-.43-1.27.5-1.27.5c-.67-.77-1.13-.48-1.42,0a2.82,2.82,0,0,0-.35.84,2.51,2.51,0,0,0,1.92,2.52,6.18,6.18,0,0,0,.69.23A3.36,3.36,0,0,1,117,34.35a4.41,4.41,0,0,1,.88,3.12C117.64,39.28,111.54,43.09,111.54,43.09Z"/><path class="cls-5" d="M135.59,24.1a.81.81,0,0,1,.22,0c.67.21,1.55,6,.85,6.58a2.75,2.75,0,0,1-1.19.51h-.1l-.22-1.94a1,1,0,0,0-.17.1v-.08A5.05,5.05,0,0,0,134,25Z"/><path class="cls-22" d="M135.23,29.38l.23,1.94a2.69,2.69,0,0,0,1.46-.54c.69-.53-.19-6.36-.85-6.57s-1.47.5-1.85.78A5,5,0,0,1,135.23,29.38Z"/><path class="cls-22" d="M113.94,32.51l1-.91-2.55-2.45A2.82,2.82,0,0,0,112,30,2.49,2.49,0,0,0,113.94,32.51Z"/><path class="cls-5" d="M107.16,20.89c.37.24.67.64,1.11.69a1.77,1.77,0,0,0,.9-.22,3.32,3.32,0,0,1,2.32-.32c1.08.36,1.7,1.61,2.75,2a2,2,0,0,0,1.62-.18,1.9,1.9,0,0,0,.84-1.17,1.8,1.8,0,0,0,0-.52,2,2,0,0,1,0,.85,1.9,1.9,0,0,1-2.45,1.35c-1.09-.37-1.68-1.61-2.76-2a3.38,3.38,0,0,0-2.32.31,1.67,1.67,0,0,1-.9.22c-.43-.05-.75-.45-1.12-.69-.06-.47-1.34,0-1.5-.61a.57.57,0,0,1,0-.26C105.94,20.8,107.09,20.45,107.16,20.89Z"/><path class="cls-5" d="M111.13,34.29s-.54,1.51.14,2c0,0-.74-2-1.18-2"/><path class="cls-17" d="M144.46,19.62s-3.46,3-1,3.47S144.46,19.62,144.46,19.62Z"/><polygon class="cls-7" points="130.96 22.29 131.63 39.82 150.91 22.29 130.96 22.29"/><polygon class="cls-8" points="130.96 22.29 131.63 39.82 150.91 22.29 130.96 22.29"/><ellipse class="cls-4" cx="359.26" cy="293.41" rx="14.33" ry="2.76"/><ellipse class="cls-3" cx="359.02" cy="292.24" rx="1.67" ry="2.18"/><ellipse class="cls-3" cx="359.02" cy="289.57" rx="1.67" ry="2.18"/><ellipse class="cls-3" cx="359.02" cy="286.9" rx="1.67" ry="2.18"/><ellipse class="cls-3" cx="359.02" cy="284.23" rx="1.67" ry="2.18"/><ellipse class="cls-3" cx="359.02" cy="281.56" rx="1.67" ry="2.18"/><ellipse class="cls-3" cx="359.02" cy="278.89" rx="1.67" ry="2.18"/><ellipse class="cls-3" cx="359.02" cy="276.22" rx="1.67" ry="2.18"/><path class="cls-4" d="M365.27,257.93c.22-.29.43-.6.62-.91l-4.38-.73,4.74,0a8,8,0,0,0,.15-6.33L360,253.3l5.87-4.31a8,8,0,1,0-13.8,8.05,7.7,7.7,0,0,0,.6.89,8.4,8.4,0,0,0-.91,1.45l5.69,3-6.07-2a8,8,0,0,0,1.27,7.51,8,8,0,1,0,12.57,0,8,8,0,0,0,0-9.88Z"/><path class="cls-5" d="M351,262.9a8,8,0,0,0,1.69,4.94,8,8,0,1,0,12.57,0C366.34,266.48,351,262,351,262.9Z"/></g></g></svg>