<svg xmlns="http://www.w3.org/2000/svg" viewBox="0 0 765 775.8"><defs><style>.cls-1,.cls-3,.cls-9{font-size:24px;}.cls-1,.cls-10,.cls-3,.cls-9{font-family:YuGo-Bold-83pv-RKSJ-H, YuGothic;}.cls-2{letter-spacing:0.25em;}.cls-3{writing-mode:tb;text-orientation:upright;glyph-orientation-vertical:0deg;}.cls-4{fill:#a4393a;}.cls-4,.cls-5,.cls-6,.cls-7,.cls-8{opacity:0.4;}.cls-5{fill:#4039a4;}.cls-6{fill:#288c88;}.cls-7{fill:#298c47;}.cls-8{fill:#a46e39;}.cls-9{fill:#fff;}.cls-10{font-size:18px;}.cls-11{font-size:14px;font-family:YuGo-Medium-83pv-RKSJ-H, YuGothic;}.cls-12{letter-spacing:-0.5em;}.cls-13{opacity:0.5;}.cls-14{fill:none;stroke:#000;stroke-miterlimit:10;stroke-width:3px;}</style></defs><title>kw-map</title><g id="レイヤー_2" data-name="レイヤー 2"><g id="レイヤー_2-2" data-name="レイヤー 2"><text class="cls-1" transform="translate(341.95 21.12)">CP<tspan class="cls-2" x="33.86" y="0">C</tspan><tspan x="57.09" y="0">高</tspan></text><text class="cls-1" transform="translate(341.95 767.52)">CP<tspan class="cls-2" x="33.86" y="0">C</tspan><tspan x="57.09" y="0">低</tspan></text><text class="cls-3" transform="translate(12 347.9)">潜在層</text><text class="cls-3" transform="translate(753 347.9)">顕在層</text></g><g id="レイヤー_3" data-name="レイヤー 3"><ellipse class="cls-4" cx="490" cy="637.4" rx="223.5" ry="70.5"/><polygon class="cls-5" points="722.5 111.25 294.5 45.9 294.5 176.6 722.5 111.25"/><ellipse class="cls-6" cx="384" cy="383.4" rx="289.5" ry="153.5"/><ellipse class="cls-7" cx="601.5" cy="529.4" rx="125" ry="79.5"/><ellipse class="cls-8" cx="137" cy="129.4" rx="113.5" ry="84.5"/></g><g id="レイヤー_4" data-name="レイヤー 4"><text class="cls-9" transform="translate(111.49 88.95)"><tspan class="cls-2">E</tspan><tspan x="21.55" y="0">群</tspan></text><text class="cls-9" transform="translate(313.76 114.95)"><tspan class="cls-2">B</tspan><tspan x="23.02" y="0">群</tspan></text><text class="cls-9" transform="translate(206.65 305.95)"><tspan class="cls-2">C</tspan><tspan x="23.23" y="0">群</tspan></text><text class="cls-9" transform="translate(652 509.95)"><tspan class="cls-2">D</tspan><tspan x="24.53" y="0">群</tspan></text><text class="cls-9" transform="translate(288.03 645.95)"><tspan class="cls-2">A</tspan><tspan x="22.46" y="0">群</tspan></text><text class="cls-10" transform="translate(442.78 106.79)">BI<tspan class="cls-2" x="18.56" y="0">G</tspan><tspan x="36.81" y="0">キーワード</tspan><tspan class="cls-11"><tspan x="-41.59" y="22.48">「宅配ピザ</tspan><tspan class="cls-12" x="28.41" y="22.48">」</tspan><tspan x="35.41" y="22.48">「デリバリー」など</tspan></tspan></text><text class="cls-10" transform="translate(70.54 125.79)">広義キーワード<tspan class="cls-11"><tspan x="-28" y="22.48">「ピザ</tspan><tspan class="cls-12" x="14" y="22.48">」</tspan><tspan x="21" y="22.48">「デリバリー」など</tspan></tspan></text><text class="cls-10" transform="translate(320.54 353.79)">複合キーワード<tspan class="cls-11"><tspan x="-52.5" y="22.48">「ピザ＋地域</tspan><tspan class="cls-12" x="31.5" y="22.48">」</tspan><tspan x="38.5" y="22.48">「デリバリー＋地域</tspan><tspan class="cls-12" x="164.5" y="22.48">」</tspan><tspan x="-45.5" y="48.48">「ピザ　高い</tspan><tspan class="cls-12" x="38.5" y="48.48">」</tspan><tspan x="45.5" y="48.48">「ピザ　おいしい</tspan><tspan class="cls-12" x="157.5" y="48.48">」</tspan><tspan x="-112" y="74.48">「デリバリー　安い</tspan><tspan class="cls-12" x="14" y="74.48">」</tspan><tspan x="21" y="74.48">「デリバリー　ランキング」など</tspan></tspan></text><text class="cls-10" transform="translate(509.54 529.79)">テールキーワード<tspan class="cls-11"><tspan x="-22.5" y="22.48">「マルゲリータ　高級」など</tspan></tspan></text><text class="cls-10" transform="translate(421.54 623.79)">会社名・競合名<tspan class="cls-11"><tspan x="-79.88" y="22.48">「SALVATORE CUOMO</tspan><tspan class="cls-12" x="72.88" y="22.48">」</tspan><tspan x="79.88" y="22.48">「サルヴァトーレ</tspan><tspan class="cls-12" x="191.88" y="22.48">」</tspan><tspan x="-66.5" y="46.98">「サルバトーレ　クオモ</tspan><tspan class="cls-12" x="87.5" y="46.98">」</tspan><tspan x="94.5" y="46.98">「ドミノピザ</tspan><tspan class="cls-12" x="178.5" y="46.98">」</tspan></tspan></text></g><g id="レイヤー_1-2" data-name="レイヤー 1"><g class="cls-13"><line class="cls-14" x1="46.91" y1="383.9" x2="718.09" y2="383.9"/><polygon points="55.34 395.01 50.62 383.9 55.34 372.79 29 383.9 55.34 395.01"/><polygon points="709.66 395.01 714.38 383.9 709.66 372.79 736 383.9 709.66 395.01"/></g><g class="cls-13"><line class="cls-14" x1="382.5" y1="719.49" x2="382.5" y2="48.31"/><polygon points="393.61 711.07 382.5 715.78 371.39 711.07 382.5 737.4 393.61 711.07"/><polygon points="393.61 56.73 382.5 52.02 371.39 56.73 382.5 30.4 393.61 56.73"/></g></g></g></svg>