<?xml version="1.0" encoding="utf-8"?>
<!-- Generator: Adobe Illustrator 22.1.0, SVG Export Plug-In . SVG Version: 6.00 Build 0)  -->
<svg version="1.1" id="layer" xmlns="http://www.w3.org/2000/svg" xmlns:xlink="http://www.w3.org/1999/xlink" x="0px" y="0px"
	 viewBox="0 0 510 510" style="enable-background:new 0 0 510 510;" xml:space="preserve">
<style type="text/css">
	.st0{display:none;}
	.st1{display:inline;fill:#E6E6E6;}
	.st2{display:inline;fill:#CCCCCC;}
	.st3{display:inline;fill:#904E46;}
	.st4{display:inline;fill:#083654;}
	.st5{display:inline;}
	.st6{display:inline;fill:#F9E0CA;}
	.st7{display:inline;fill:#D3D7DE;}
	.st8{display:inline;fill:#062438;}
	.st9{display:inline;fill:#EFD6C0;}
	.st10{display:inline;fill:#4D4D4D;}
	.st11{display:inline;fill:#FBECDF;}
	.st12{display:inline;fill:#434343;}
	.st13{display:inline;fill:#3C3214;}
	.st14{fill:#FDF3EA;}
	.st15{fill:none;stroke:#FFFFFF;stroke-width:2;stroke-linecap:round;stroke-linejoin:round;stroke-miterlimit:10;}
	.st16{fill:none;stroke:#FFFFFF;stroke-width:1.3;stroke-linecap:round;stroke-linejoin:round;stroke-miterlimit:10;}
</style>
<g id="color" class="st0">
	<path class="st1" d="M-351.8,416.2c1.8-0.9,3.4-2,5-3c0.4-0.2,0.7-0.5,1.1-0.8c2.6-1,6.6-3,8.2-3.6c7.4-2.7,24.2-23.8,25.9-26.7
		c0.4-0.7,0.8-1.5,1.2-2.4c1.6,0.4,3.4,1,5.3,1.6c1.3,0.4,2.4,1,3.3,1.6c6.5,4.6,5.4,14,1.9,17.1c-1.5,1.4-2.6,2.3-4.3,3.8
		c-2.7,2.4-6.8,6.1-16.3,15.4c-1,0.9-1.9,1.8-2.8,2.7c-3.2,3.1-6.1,5.8-9,8.2c-1.4,1.2-2.8,2.3-4.2,3.3c-6.8,5.1-13.3,8.5-21.5,10.3
		c-1.3,0.3-2.6,0.5-3.9,0.7c-16.5,2.6-41.2,0.6-55.9-3.8c-14.8-4.4-32.7-16.1-39.7-22.5s-12.4-21.7-15.9-33.7
		c-3.6-12-11.2-54.8-10.4-61.8c0.8-6.5,3-8.4,5.6-8.7c0.2,0,0.4,0,0.5,0c4.8-0.2,10.8,4,33.3,7c2.5,0.3,5.4,0.6,8.6,0.9
		c19.5,1.7,48.4,2.5,63.3,7.8c3.9,1.4,6.8,3,8.3,5.1c5.4,7.1,8.8,21.3,10.3,33.4c0.9,6.8,1.1,12.9,0.9,16.6
		C-353.7,391.9-353.5,406.6-351.8,416.2z"/>
	<path class="st2" d="M-483.5,290.3l-34-5.7c-4.8-0.8-8.3-5-8.3-9.8V271l40.7,6.7c-0.1,2.6,0.2,5.5,0.8,8.8
		C-484.1,287.6-483.8,288.9-483.5,290.3z"/>
	<path class="st2" d="M-25.8,212.8l-0.2,7.7c-0.1,3.8-2,7.4-5.2,9.5l-152.6,103.6l-1.8,1.2c-4.1,2.8-9.1,3.9-14,3.1l-16.6-2.8
		l-25.4-4.2l-30.9-5.2l-77.7-13c-1.5-4.1-2.9-7.8-4-10.9c-0.3-1-0.6-1.9-0.9-2.7l80.4,13.1l31.8,5.2l25.4,4.2l18.3,3
		c4.9,0.8,9.9-0.3,14-3.1l1.7-1.2L-25.8,212.8z"/>
	<path class="st1" d="M-460.9,243.5c-0.1,0.3-0.2,0.5-0.3,0.8c-0.8,2.4-1.5,4.8-2.3,7c-0.8,2.1-5.8,1.4-4.7,6.6l0,0
		c-4.1,1.6-8.6,3.7-11.2,5.7c-0.5,0.4-0.9,0.7-1.2,1.1c-2.6,2.7-4.4,7.1-4.6,13l-40.7-6.7L-460.9,243.5z"/>
	<path class="st1" d="M-411.1,250.2c0.8-2.1,1.3-4.4,1.5-6.7c1.3-1.6,7.6-5.3,11.3-12.9c3.2-6.6,4.4-11.3,4.7-15.8l75.2-31.9
		c5-2.1,10.4-2.9,15.7-2.3l36.1,4.2c4.8,9.9,21,14.9,23,13.6c1-0.6,2.7-3,4.5-5.9l0,0c0.8-1.4,1.7-2.8,2.4-4.3l16.1,1.9l18,2.1
		l4.9,0.6l0,0c0.1,1.4,0.3,2.8,0.6,4l0,0c0.5,2.4,1.2,4.3,2.2,4.5c2.5,0.6,33.3,2.7,41.4,4.6c2.3,0.5,4.7,1,6.9,1.2
		c5.8,0.6,10.9,0.1,12.6-2.7c0.5-0.9,1-2.3,1.4-4.1h0.2l106.8,12.4l-157.6,107.4l-1.7,1.2c-4.1,2.8-9.1,3.9-14,3.1l-18.3-3
		l-25.4-4.2l-31.8-5.2l-80.4-13.1c-0.1-0.5-0.3-0.9-0.4-1.3c-0.9-3.5-2.3-7-3.9-10.2c-3.3-6.6-7.9-12.2-12.5-14.3
		c-3.9-1.8-18.6-6.4-31-10.1c-0.3-0.6-0.6-1.1-1-1.7c-0.5-0.6-1.5-1.8-2.8-3.2c-1.3-1.4-2.9-2.9-4.7-4.2
		C-411.2,252.6-411.2,251.4-411.1,250.2z"/>
	<path class="st3" d="M-193.2,125c1.4,0,2.9,0,3.2,0c0.1,0,0.2,0,0.3-0.1c0.7,2.8,1.4,10.7,1.4,13.7c0,2,0.2,5.6,0.3,8.1l0,0
		c-3.2,7.9-7.2,17.7-7.2,17.7s-0.3-3.8-1.5-9.6c-0.5-2.3-1.2-9.1-1.9-16.8c0.6-3.7,1.9-10.8,2.6-13.1
		C-195.4,125-194.3,125-193.2,125z"/>
	<path class="st3" d="M-185.1,117.9c-0.4,0.5-0.9,1.4-1.6,2.2c-0.8,1.2-2.2,4.1-3,4.8c-0.1,0.1-0.2,0.2-0.3,0.1c-0.3,0-1.8,0-3.2,0
		c-1.1,0-2.2-0.1-2.8-0.2c-0.3-0.1-0.4-0.2-0.4-0.3c0-0.6-0.1-5.3-0.1-7.4c1-1.5,1.9-2.8,2.6-3.1c1.9-0.9,2.9-0.9,2.9-0.9
		s2.4,0,3.7,1.9C-186.9,115.6-186.1,116.6-185.1,117.9z"/>
	<path class="st4" d="M-195.1,175.3c-0.1,0-0.3-0.1-0.5-0.2c-0.2,0-0.4-0.1-0.7-0.2c0.2-0.1,0.5-0.1,0.9-0.1c1.6-2,5.5-7,9-11.4
		c1.5-1.9,5-7.3,8.8-13.5c7.5-12.1,16.7-27.5,16.7-27.5l-4.7-3.7l6-2c0,0-0.7-3.4-1.1-5.7c-0.2-1.1-0.4-2.1-0.6-3
		c3.6,2.6,16.9,12.2,18.5,13.4c1.8,1.4,3.8,1,5.6,4.4c1.8,3.4,3.8,21.9,4.5,26.5s2.4,23.1,2.5,27.6c0.1,3.3-1,13.2-2.5,19.6
		c-0.1,0.3-0.1,0.5-0.2,0.8c-0.4,1.8-0.9,3.2-1.4,4.1c-1.7,2.8-6.8,3.3-12.6,2.7c-2.3-0.2-4.6-0.7-6.9-1.2c-8.1-1.9-38.9-4-41.4-4.6
		c-1-0.2-1.7-2.1-2.2-4.5c0.8,1.5,1.8,3,2.2,1.9s0.5-5.7,0.6-9.7c0.1-2.1,0.1-4,0.2-5.2C-194,180.5-194.4,176.3-195.1,175.3z"/>
	<path class="st5" d="M-159.2,62.5c0.7,1.2-0.4,1.4-0.8,1.4s0.4,2.4,0.5,3.1s-0.9,0.6-1.3,0.7c-0.4,0.1-2.1,8.2-4.1,12.1
		c0.5-1.7,0.8-3.4,0.9-4.7c0.2-3.8-2.3-3.7-4.2-2c-1.3,1.2-3.5,8-3.5,8s-0.2-5.3-0.6-8.4c-0.3-3.1-0.7-2.3-2.1-5.2
		c-1.4-2.9,0.1-7.2-2.7-8.3s-12.9-1.6-14.4-1.4s-3.1,1-3.1,1s-2.1-1-3.9-1c-1.8,0-5.2,0.8-5.8,2.7c-0.4,1.2-0.9,3.9-1.2,6.5
		c-0.2-2.1-0.4-5.2-0.5-6.7c-0.1-2.5,1.5-10.5,4.6-13.1c2.2-2,4.2-1.8,4.2-1.8s6.6-6.5,16.6-5.4c10.1,1,16.2,9.1,17.4,10.8
		C-161.9,52.5-159.9,61.2-159.2,62.5z"/>
	<path class="st4" d="M-168.9,103.2c-0.3-1.2-0.8-2.8-1.1-3.7v-0.1c1.9,0.9,5.3,2.9,6.9,4.7c1.1,1.2,1.5,2.6,1.8,4.1
		c0.2,0.9,0.3,1.9,0.6,3c0.4,2.2,1.1,5.7,1.1,5.7l-6,2l4.7,3.7c0,0-9.2,15.4-16.7,27.5c-3.9,6.2-7.3,11.5-8.8,13.5
		c-3.5,4.4-7.4,9.4-9,11.4c-0.4,0-0.7,0-0.9,0.1l0,0c-0.9-0.3-2.1-0.7-3-1.2l2.7-6.1l1.5-3.3c0,0,3.9-9.8,7.2-17.7l0,0
		c1.6-4,3-7.5,3.7-9.2c0.9-2.4,2.9-7.3,4.9-12.2c2.1-5.2,4.1-10.3,5.1-12.4c0.7-1.6,1.7-3.5,2.8-5.2S-169.6,104.3-168.9,103.2z"/>
	<path class="st6" d="M-198,101.7c-0.3-0.3-0.5-0.6-0.8-0.9c-0.1-0.1-0.2-0.2-0.2-0.3c-0.1-0.1-0.1-0.1-0.2-0.2
		c-2.1-3-4.6-9.5-5.3-14c-0.7-4.6-1.3-15.1-1.3-15.1c0-1,0.1-2.5,0.3-4.1c0.3-2.6,0.8-5.3,1.2-6.5c0.6-1.9,4-2.7,5.8-2.7
		s3.9,1,3.9,1s1.6-0.9,3.1-1s11.7,0.3,14.4,1.4c2.7,1.1,1.2,5.4,2.7,8.3c1.4,2.9,1.8,2.2,2.1,5.2c0.3,3.1,0.6,8.4,0.6,8.4
		s2.2-6.8,3.5-8c1.9-1.7,4.4-1.8,4.2,2c-0.1,1.2-0.4,3-0.9,4.7c-0.9,2.9-2.4,5.6-4.3,5.6c-0.6,2.4-1.9,8.6-2.4,12.2
		c-0.1,0.5-0.1,0.9-0.1,1.2c-1.6,1.4-7.4,6-9.8,7.8c-2.8,2.1-9.3,6.4-9.3,6.4S-197.5,105.8-198,101.7z"/>
	<path class="st7" d="M-171.8,98.9c0-0.4,0.1-0.8,0.1-1.2c0.7,0.2,1.4,0.6,1.7,1.7v0.1c0.3,0.9,0.7,2.5,1.1,3.7
		c-0.7,1.1-1.7,2.8-2.8,4.5s-2.1,3.6-2.8,5.2c-0.9,2.1-3,7.2-5.1,12.4c-1.1-1.4-3.7-4.8-5.7-7.3c-1-1.3-1.8-2.3-2.2-2.9
		c-1.4-1.9-3.7-1.9-3.7-1.9s6.5-4.3,9.3-6.4C-179.2,104.9-173.5,100.3-171.8,98.9z"/>
	<path class="st7" d="M-185.1,117.9c1.9,2.5,4.6,5.9,5.7,7.3c-2,4.9-3.9,9.8-4.9,12.2c-0.7,1.6-2.1,5.2-3.7,9.2
		c-0.1-2.5-0.3-6.1-0.3-8.1c0-3-0.7-10.9-1.4-13.7c0.8-0.7,2.2-3.6,3-4.8C-186.1,119.3-185.5,118.4-185.1,117.9z"/>
	<path class="st4" d="M-185.7,334.8l1.8-1.2c-1.1,15.4-4.3,39.4-8.1,46.2c-0.3,0.6-0.7,1.1-1.1,1.6c-5.5,7-17.1,6.6-17.1,6.6
		s-3.4-2.9-5.4-5.9c-1.1-1.5-1.7-3.1-1.4-4.3c0.9-3.5,2.2-14.8,1.1-37.6c-0.1-1.7-0.2-3.4-0.3-5l16.6,2.8
		C-194.8,338.7-189.8,337.6-185.7,334.8z"/>
	<path class="st7" d="M-191,113.1c0,0-1-0.1-2.9,0.9c-0.6,0.3-1.6,1.6-2.6,3.1c-1.3,2-2.7,4.5-3.4,6c-0.6-6.9-1-12.4-1.1-13.4
		c-0.1-2.6,1.3-7.2,2.3-8.9c0.2,0.3,0.5,0.6,0.8,0.9C-197.5,105.8-191,113.1-191,113.1z"/>
	<path class="st5" d="M-193.1,381.3c1.5,3.1,1.5,11.9,0.1,14.8c0,0.1-0.1,0.2-0.1,0.2c-1.2,2.1-2.6,5.2-3.6,8.6
		c-0.3,0.9-0.5,1.9-0.7,2.9c-0.1,0.5-0.2,1-0.3,1.6c-0.8,4.9-1.6,13.7-5.9,19.5c-4.9,6.5-14.2,15.3-23,13.1
		c-3.7-0.9-4.8-3.8-4.8-7.2l0,0c0-4.9,2.3-11.1,3.3-15.1c1.7-6.8,7.6-21.1,9-25.4c1.3-3.9,3.2-11.1,3.5-12.2c2,3,5.4,5.9,5.4,5.9
		S-198.6,388.3-193.1,381.3z"/>
	<path class="st5" d="M-193.1,396.4c0-0.1,0.1-0.1,0.1-0.2c0,4.2-3.2,9.8-3.2,9.8l-0.5-1C-195.7,401.6-194.3,398.5-193.1,396.4z"/>
	<path class="st6" d="M-195.1,175.3c0.7,1,1.1,5.2,0.8,8.5c-0.1,1.2-0.2,3.1-0.2,5.2c-0.8-0.3-1.6-0.7-2.4-1.1
		c-0.4-0.2-0.9-0.4-1.4-0.5c-1.3-0.3-2.9-0.4-4.6-0.6c-0.8-0.1-1.7-0.2-2.5-0.3c-2.6-0.5-4.4-2.2-5.4-3.2l0.1-0.1
		c0.4-0.8-2.4-2.3-5.3-3.5c-0.1,0-0.2-0.1-0.3-0.1c-0.7-0.3-1.3-0.6-2.2-0.8l0,0c-0.8-0.2-1.8-0.4-3.1-0.3c-2.9,0.1-6.1,1.5-8.3,2.6
		c-1,0.5-1.7,0.8-2.2,0.8c-0.6,0-0.9-0.3-1.1-0.8c-0.4-1,0.8-3.3,2.6-4.2c1.5-0.8,3.8-1.6,5.6-2c2.2,0.5,9.9,2.3,12.1,2.6
		c2.4,0.3,3.8-0.4,3.8-1.5c0-0.8-0.8-1.3-1.9-1.7l0.4-0.9c1.4,0.5,2.7,0.7,3.3-0.3c1.1-2-2.1-4.2-3.5-5.1c-1.3-0.9-5.8-3.5-7-3.8
		s-5,0.1-5.6,0.1c-0.7,0-4.8,1.8-5.6,2.6s-0.6,3-2.4,3.4s-1.9-1.9-1-3.9s1.1-2.7,3.2-3.9c0.5-0.3,0.9-0.5,1.3-0.8
		c0.4-0.2,0.7-0.4,1.1-0.6c1-0.5,1.9-0.8,2.8-0.8c0.4,0,1.1,0.2,1.9,0.4c2.1,0.6,4.8,1.8,5.4,2.1c0.9,0.4,3.9,1.6,5.2,2.4
		c1.2,0.8,4.4,3.7,5.8,2.1c1.9,2.3,4.2,4.9,5.2,5.8c0.3,0.3,0.8,0.5,1.3,0.8c1,0.5,2.1,0.9,3,1.2l0,0c0.2,0.1,0.5,0.2,0.7,0.2
		C-195.4,175.3-195.2,175.3-195.1,175.3z"/>
	<path class="st8" d="M-194.5,189.1c-0.1,4-0.2,8.6-0.6,9.7c-0.4,1.1-1.4-0.4-2.2-1.9l0,0c-0.2-1.2-0.4-2.6-0.6-4
		c-0.2-2-0.3-4-0.4-5.4c0.5,0.1,1,0.3,1.4,0.5C-196.1,188.4-195.2,188.8-194.5,189.1z"/>
	<path class="st4" d="M-195.2,164.4l-1.5,3.3l-1.9-0.8c0,0-11.3-24.2-12.8-31.3c-1.6-7.1-2.5-19.9-2.5-19.9l5-3.1l-2-1.8
		c0,0,2.5-2.1,4-3.7c0.6-0.6,1.8-1.7,3.1-2.9c1.8-1.6,3.8-3.4,4.6-4c0.1,0.1,0.1,0.2,0.2,0.2c0.1,0.1,0.2,0.2,0.2,0.3
		c-1,1.7-2.4,6.3-2.3,8.9c0,1,0.5,6.5,1.1,13.4c0.4,4.6,0.9,9.9,1.3,14.8c0.7,7.7,1.5,14.6,1.9,16.8
		C-195.5,160.6-195.2,164.4-195.2,164.4z"/>
	<path class="st7" d="M-196.4,124.5c0,0.1,0.2,0.2,0.4,0.3c-0.7,2.3-2.1,9.4-2.6,13.1c-0.5-4.9-0.9-10.1-1.3-14.8
		c0.8-1.5,2.1-4,3.4-6C-196.5,119.2-196.5,123.8-196.4,124.5z"/>
	<path class="st4" d="M-235.7,170.8c0.3,0.1,0.6,0.2,0.9,0.3c-0.4,0-0.8,0-1-0.1c-0.2,0-0.3,0-0.3,0c-4,0.4-7.2,8.6-8.5,13.9
		c-0.2,0.6-0.3,1.3-0.4,1.9c-0.9,4.6-1.2,9-0.2,10.9c0.9,1.7,4.5-2.9,6-5c-1.8,2.9-3.5,5.2-4.5,5.9c-2,1.2-18.2-3.7-23-13.6
		c-0.2-0.3-0.3-0.7-0.5-1.1c-4.1-10.6,3.7-17.9,5.5-20.1c1.8-2.3,13.3-20.6,13.3-20.6l-0.3-1.6l2.1-1.2v-1.9l2.6-1.8
		c0,0,10.6-16.4,13.5-20.1s5.5-3,5.5-3l21.3-9.5c-1.3,1.2-2.5,2.3-3.1,2.9c-1.5,1.6-4,3.7-4,3.7l2,1.8l-5,3.1c0,0,0.9,12.8,2.5,19.9
		s12.8,31.3,12.8,31.3l1.9,0.8l-2.7,6.1c-0.5-0.2-0.9-0.5-1.3-0.8c-1-0.8-3.3-3.5-5.2-5.8c0,0,0,0,0-0.1c0.1-0.2,0.2-0.3,0.2-0.5
		c0.2-0.1,0.4-0.2,0.6-0.3c1.2-0.6,1-2.7,0-3.4c-0.8-0.6-2.8-0.6-4-0.6c-0.5-0.4-0.9-0.7-1.1-0.9c-0.5-0.4-1.4-0.9-2.3-1.4
		c-1-0.4-1.9-0.8-2.5-0.9c-1.4-1.1-4-3-4.8-3.1c-1.2-0.1-3.3,1-5.1,1.9c-1.2,0.6-1.8,1.3-2.4,2.2l0,0c-0.3,0.4-0.5,0.9-0.9,1.4
		c-0.4,0.2-0.9,0.5-1.3,0.8c-2.1,1.2-2.3,1.9-3.2,3.9C-233.7,167.7-235,169.7-235.7,170.8z"/>
	<path class="st5" d="M-197.7,409.4c0.2,2.9,0.4,7.6,0,11.3c-0.6,5.9-5.6,12-11.2,17.6c-5.6,5.5-12,9.2-18.6,7.1
		c-5.9-1.9-5.1-6.4-3.9-10.7c0,3.5,1.2,6.3,4.8,7.2c8.8,2.2,18.1-6.5,23-13.1C-199.3,423.1-198.5,414.4-197.7,409.4z"/>
	<path class="st4" d="M-198.2,187.5c0,1.4,0.2,3.4,0.4,5.4l0,0l-4.9-0.6c-0.1-1.9-0.1-3.7,0-5.3
		C-201.2,187.1-199.5,187.2-198.2,187.5z"/>
	<path class="st4" d="M-202.8,192.3l-18-2.1c0.1-2.3-0.7-5.3-1.5-8.3c1.7,0.2,3.6,0.7,5.3,1.2c3.5,1,5.5,1.7,6.2,0.4
		c1,1,2.8,2.7,5.4,3.2c0.8,0.1,1.7,0.2,2.5,0.3C-202.9,188.6-202.9,190.4-202.8,192.3z"/>
	<path class="st9" d="M-204.8,163c0.9,0.7,1.2,2.8,0,3.4c-0.2,0.1-0.4,0.2-0.6,0.3c0-0.1,0-0.1,0-0.2c0-1.3-2-3-3.4-4.1
		C-207.7,162.4-205.6,162.4-204.8,163z"/>
	<path class="st9" d="M-205.5,166.5c0,0.1,0,0.1,0,0.2c0,0.2-0.1,0.4-0.2,0.5c0,0,0,0,0,0.1c-1.4,1.6-4.6-1.2-5.8-2.1
		c-1.2-0.8-4.2-2-5.2-2.4c-0.7-0.3-3.4-1.4-5.4-2.1c0.8-0.3,1.7-0.6,2.1-0.7c0.6-0.2,4.1-0.9,5.2-0.8h0.1c0.6,0.1,1.6,0.5,2.5,0.9
		s1.9,1,2.3,1.4c0.2,0.2,0.6,0.5,1.1,0.9C-207.5,163.5-205.5,165.2-205.5,166.5z"/>
	<path class="st9" d="M-210.9,167.9c1.3,0.9,4.6,3.1,3.5,5.1c-0.6,1-1.9,0.9-3.3,0.3c-1.5-0.5-3-1.5-3.9-2c-1.8-0.9-6.7-3.5-7.8-3.8
		s-2.6-0.7-4.3,0c-1.5,0.6-3.3,1.9-4.5,3c-1.3,0.4-2.4,0.4-3.3,0.4c-0.1,0-0.2,0-0.3,0c-0.2-0.1-0.5-0.2-0.9-0.3
		c0.7-1.1,2-3.2,3.1-4.4c-0.9,2-0.8,4.4,1,3.9s1.6-2.6,2.4-3.4c0.8-0.8,4.9-2.6,5.6-2.6c0.7,0,4.4-0.4,5.6-0.1
		C-216.8,164.4-212.2,167.1-210.9,167.9z"/>
	<path class="st9" d="M-211.1,174.2c1.1,0.4,1.9,0.9,1.9,1.7c0,1.1-1.4,1.8-3.8,1.5c-2.1-0.3-9.9-2.1-12.1-2.6
		c-1.8,0.4-4.1,1.3-5.6,2c-1.8,0.9-3,3.2-2.6,4.2c0.2,0.5,0.5,0.8,1.1,0.8v1.1c-0.3,0-0.6,0-0.9,0c-0.3,0-0.8,0.1-1.5,0.3l0,0
		c-2.3,0.6-6.2,2.1-10.6,3.6c0.1-0.6,0.3-1.3,0.4-1.9c1.3-5.3,4.6-13.5,8.5-13.9c0,0,0.1,0,0.3,0s0.6,0.1,1,0.1c0.1,0,0.2,0,0.3,0
		c0.9,0,2-0.1,3.3-0.4c-0.2,0.2-0.4,0.4-0.6,0.6c-1.2,1.2-1.9,3.8-1.3,4.3c1.2,0.8,2.9-0.1,3.9-1.5s2.4-2.3,3.8-2.7
		c0,0,2.6-1.1,5.6-0.1s6,2.2,7.7,2.7C-211.8,174-211.4,174.1-211.1,174.2z"/>
	<path class="st9" d="M-216,179.8c2.9,1.2,5.7,2.7,5.3,3.5c0,0.1-0.1,0.1-0.1,0.1c-0.8,1.3-2.7,0.7-6.2-0.4
		c-1.7-0.5-3.6-0.9-5.3-1.2c-1.9-0.3-3.6-0.3-4.8,0.1c-1.8,0.7-3.5,0.8-5,0.8v-1.1c0.5,0,1.2-0.2,2.2-0.8c2.2-1.1,5.3-2.5,8.3-2.6
		c1.3,0,2.3,0.1,3.1,0.3l0,0c0.7,0.2,1.4,0.6,2.2,0.8C-216.2,179.7-216.1,179.8-216,179.8z"/>
	<path class="st6" d="M-210.7,173.4l-0.4,0.9c-0.4-0.1-0.8-0.2-1.2-0.3c-1.7-0.4-4.7-1.6-7.7-2.7c-3-1-5.6,0.1-5.6,0.1
		c-1.3,0.4-2.8,1.3-3.8,2.7s-2.6,2.4-3.9,1.5c-0.6-0.4,0.1-3,1.3-4.3c0.2-0.2,0.4-0.4,0.6-0.6c1.2-1.1,3-2.4,4.5-3
		c1.7-0.7,3.2-0.3,4.3,0s6,2.8,7.8,3.8C-213.7,171.9-212.2,172.8-210.7,173.4z"/>
	<path class="st6" d="M-214.8,159.2C-214.8,159.2-214.9,159.2-214.8,159.2c-1.2-0.2-4.7,0.6-5.3,0.8c-0.3,0.1-1.3,0.4-2.1,0.7
		c-0.8-0.2-1.5-0.4-1.9-0.4c-0.9,0-1.8,0.3-2.8,0.8c-0.4,0.2-0.7,0.4-1.1,0.6c0.3-0.5,0.6-1,0.9-1.4l0,0c0.6-0.9,1.2-1.6,2.4-2.2
		c1.9-0.9,4-2.1,5.1-1.9C-218.8,156.2-216.3,158.1-214.8,159.2z"/>
	<path class="st5" d="M-239.6,363.8c3.3,2.7,4.7,16.9,3.2,19.9c0,0,0,0.1-0.1,0.1c-1.6,3-8.7,9.4-13.4,12.8
		c-0.1,0.1-0.2,0.2-0.4,0.3c-2.9,2.1-5.3,6.4-7.7,10.4c-1.5,2.6-3,5-4.5,6.5c-3.8,3.7-14.2,9.4-21,10.1s-12.5-0.6-10.5-7.5
		c2-6.8,14.7-20.3,17.6-23c2.8-2.5,9.8-15.3,12.8-20.2l0.7,1.9c0,0,0.5,0,1.3-0.1s2-0.2,3.4-0.4c2.2,1,4.6,3.1,8.9,2.5
		c4.7-0.7,7.7-6.7,8.1-10.8C-240.3,365.4-239.9,364.6-239.6,363.8z"/>
	<path class="st5" d="M-236.4,383.9c0.3,1.4,0.8,3.9-1.6,6.6c-3,3.4-11,8.4-11,8.4l-0.7-2.2C-245.1,393.2-238,386.9-236.4,383.9z"/>
	<path class="st8" d="M-234.5,183.2c-0.6,1.6-1.4,3.4-2.3,5.2c-0.8,1.5-1.6,3-2.4,4.3l0,0c-1.5,2.1-5.1,6.7-6,5
		c-1.1-1.9-0.8-6.3,0.2-10.9C-240.7,185.3-236.8,183.8-234.5,183.2z"/>
	<path class="st4" d="M-241.6,330.8c1,11.7,2.7,29.7,2.4,31.7c-0.1,0.4-0.2,0.8-0.4,1.3c-0.3,0.7-0.7,1.6-1.3,2.5
		c-0.8,1.1-1.8,2.3-3.1,3.4s-2.9,2.1-4.8,2.8c-3.1,1.1-6.5,1.8-9.2,2.2c-1.4,0.2-2.6,0.3-3.4,0.4c-0.9,0.1-1.3,0.1-1.3,0.1l-0.7-1.9
		l-1.6-4.2c0-1.8-2.9-14.6-3.6-20c-0.3-2.5-2.1-12.4-3.9-23.5L-241.6,330.8z"/>
	<path class="st10" d="M-240.9,366.3c-0.4,4.1-3.5,10.1-8.1,10.8c-4.4,0.6-6.8-1.5-8.9-2.5c2.7-0.4,6.1-1.1,9.2-2.2
		c1.9-0.7,3.5-1.7,4.8-2.8C-242.7,368.6-241.7,367.4-240.9,366.3z"/>
	<path class="st5" d="M-257.9,407.3L-257.9,407.3c-1.7,6-10.1,14.7-16.3,17.7c-6.2,3.1-14.5,4-19.1,1.5s-1.7-8.1-0.6-10.1
		c-2,6.9,3.7,8.2,10.5,7.5s17.2-6.5,21-10.1C-260.9,412.3-259.4,409.9-257.9,407.3z"/>
	<path class="st5" d="M-304.9,448.8c-0.6-1.4-1.4-4.8-2.1-8.7l2.4-0.5c0.9-0.2,1.9,0.3,2.1,1.2c0.5,1.5,1.2,4,1.5,7
		c0.5,5.1-0.6,9-2.2,10.5s-10.1,2.2-12.7,1.5c-2.5-0.7-5.3-0.7-5.3-0.7s-3.2,8.2-3.4,9.7c0,0.2-0.1,0.4-0.1,0.6
		c-0.1,0.8-0.9,1.4-1.7,1.2c-0.7-0.1-1.1-0.7-1.1-1.4c0-0.1,0-0.2,0-0.2c0.5-2.8,1.5-9.3,1.5-11.1c0-2.3-1.3-2.8-1.6-5.5
		c-0.1-0.8-0.2-2.2-0.2-3.9c0.1-3.6,0.8-8.2,3.8-8.9c-0.1,0.5-0.2,0.9-0.4,1.4c2.6,0.7,5.6,2.4,7.9,4.2
		C-314,447.3-306.7,451-304.9,448.8z"/>
	<path class="st11" d="M-308.1,371.5c0-0.6,0-1.2,0-1.8c-0.4-4-2.9-13.7-9.3-20c-3-3-7.5-5.7-12.3-8c0.9-0.5,1.8-0.9,2.8-1.2
		c1.8-0.6,3.8-1,6.3-0.6c4.8,0.6,13.1,5.3,15.2,12.6c1.9,6.7,3.5,18.9,3.6,30.4c-0.9-0.7-2-1.2-3.3-1.6c-1.9-0.6-3.7-1.2-5.3-1.6
		C-309.3,377.2-308.2,374.2-308.1,371.5z"/>
	<path class="st11" d="M-307,440.1c0.7,3.9,1.5,7.3,2.1,8.7c-1.8,2.2-9-1.5-11.6-3.6c-2.2-1.9-5.2-3.6-7.9-4.2
		c0.1-0.4,0.2-0.9,0.4-1.4c0.3-1.3,0.7-2.9,0.8-4.6c0.1-0.6,0.1-1.2,0.1-1.8c0.1-2.3,0-6.8-0.2-11.4c0.9-0.9,1.9-1.8,2.8-2.7
		c9.5-9.3,13.6-13,16.3-15.4c-1.6,7.4-4.3,21.9-3.9,28C-307.9,434.4-307.5,437.3-307,440.1z"/>
	<path class="st12" d="M-308.1,369.7c0.1,0.6,0.1,1.2,0,1.8c-0.2,2.7-1.2,5.7-2.4,8.1c-0.4,0.9-0.9,1.8-1.2,2.4
		c-1.7,2.9-18.5,24-25.9,26.7c-1.6,0.6-5.6,2.6-8.2,3.6c0.7-0.6,1.4-1.2,2.1-1.9c7.7-8.2,12.4-25.1,10.7-31.6
		c-1.5-5.9-4.7-9.9-8.1-12.9c4.7-3.8,6.4-11.6,3.5-20.4c-0.7-2.1-1.8-5.1-3.1-8.6c3.4,1.3,7.3,2.9,11,4.6c4.8,2.3,9.3,5,12.3,8
		C-311,356-308.5,365.7-308.1,369.7z"/>
	<path class="st5" d="M-323.2,435c-0.2,1.8-0.5,3.3-0.8,4.6c-3,0.7-3.7,5.3-3.8,8.9c-1,0-2.7,0-4.3-0.2c-3-0.3-10.8-2.5-12.9-2.6
		s-3,2.5-3.4,3.9s0.3,10.6,0.3,10.6c-0.9,0.7-2.8,0.2-2.8,0.2s-1.6-9.6-2.4-10.8c-0.6-1-3.2-3.9-4.7-6c8.2-1.8,14.8-5.2,21.5-10.3
		c2.7,0.9,6.4,1.6,9,1.8c0.4,0,0.8,0,1.1,0C-325,435.1-323.9,435.1-323.2,435z"/>
	<path class="st11" d="M-326.9,340.4c-1,0.4-1.9,0.8-2.8,1.2c-3.7-1.8-7.5-3.3-11-4.6c-0.5-1.3-1-2.6-1.6-4
		C-335.2,332.9-328.6,338-326.9,340.4z"/>
	<path class="st11" d="M-332.2,430c1.4,1.6,3.5,4.2,4.8,5.1c-2.5-0.2-6.3-0.8-9-1.8C-335,432.3-333.6,431.2-332.2,430z"/>
	<path class="st10" d="M-345.7,412.4c-0.4,0.3-0.7,0.5-1.1,0.8c-1.6,1.1-3.3,2.1-5,3c-1.7-9.7-1.8-24.3-1.3-31.6
		c0.3-3.8,0-9.9-0.9-16.6c3.4,1.2,7.2,1.3,11.1-0.7c0.7-0.4,1.3-0.8,1.9-1.2c3.5,3,6.6,7,8.1,12.9c1.7,6.5-3.1,23.4-10.7,31.6
		C-344.3,411.2-345,411.8-345.7,412.4z"/>
	<path class="st10" d="M-372.5,329.5c-14.8-5.2-43.8-6.1-63.3-7.8c-3.1-0.3-6-0.6-8.6-0.9c-22.5-3-28.5-7.2-33.3-7
		c-0.2,0-0.4,0-0.5,0c-1.1-4.7-3.6-15.4-5.3-23.6c-0.3-1.4-0.6-2.7-0.8-3.9c-0.7-3.2-0.9-6.2-0.8-8.8c0.1-5.9,2-10.3,4.6-13
		c0.4-0.4,0.8-0.7,1.2-1.1c2.6-2,7.1-4.1,11.2-5.7c6.4,9.2,22.1,9.4,33,8.5c8.7-0.7,13.3-3.5,17.7-7.7c1.7,0.5,3.9,1.1,6.4,1.9
		s5.3,1.6,8.3,2.5c12.4,3.7,27.1,8.3,31,10.1c4.7,2.1,9.2,7.7,12.5,14.3c1.6,3.2,3,6.8,3.9,10.2c0.1,0.4,0.2,0.9,0.4,1.3
		c0.2,0.8,0.5,1.8,0.9,2.7c1,3.1,2.4,6.9,4,10.9c2.5,6.6,5.5,14,8,20.3c0.5,1.4,1.1,2.8,1.6,4c1.3,3.5,2.4,6.5,3.1,8.6
		c2.8,8.8,1.1,16.6-3.5,20.4c-0.6,0.5-1.2,0.9-1.9,1.2c-3.9,2.1-7.7,2-11.1,0.7c-1.5-12-4.9-26.2-10.3-33.4
		C-365.8,332.5-368.7,330.9-372.5,329.5z"/>
	<path class="st13" d="M-398.3,175c6.6,6.2,7.7,18.1,7.6,22.7c0,1.3-0.3,2.7-0.8,4.2s-1.2,3.1-2.2,4.6c-0.7,1.1-1.5,2.1-2.4,3
		c-0.1,1.4-0.4,3.3-0.8,4c-0.6,0.8-1.9,0.3-2.6-0.1c0.6-1.1,1.3-1.7,1.5-2.2l0,0c0.1-0.3,0.1-0.5-0.1-0.9c-1.1-1.7-2.8-1.1-3.8,1.2
		c-0.5,1.1-0.9,2.2-1.1,3.3c-2,2.8-4.1,7.7-5.7,12.7c-1.2,3.9-0.2,10-0.8,16.1c-0.2,2.3-0.6,4.5-1.5,6.7c-0.4,1-0.9,2-1.5,2.9
		c-0.5,0.7-1,1.4-1.7,2.1c-1.1,1.2-2.2,2.3-3.2,3.3c-4.3,4.2-8.9,7-17.7,7.7c-10.9,0.9-26.5,0.8-33-8.5l0,0
		c-1.1-5.1,3.8-4.5,4.7-6.6c0.8-2.1,1.5-4.6,2.3-7c0.1-0.3,0.2-0.5,0.3-0.8c1.8-5.3,3.6-10.5,3.6-13.3c0.1-5.8-6.8-30.9,5.3-48.8
		c12.1-18,29.2-14.1,35.8-12.8C-416.1,168.5-404.8,168.8-398.3,175z"/>
	<path class="st11" d="M-403.1,214.8c0.2-1.1,0.6-2.2,1.1-3.3c1-2.2,2.7-2.8,3.8-1.2c0.2,0.3,0.2,0.6,0.1,0.9l0,0
		c-0.2,0.5-0.9,1.1-1.5,2.2c0.7,0.3,2.1,0.9,2.6,0.1c0.5-0.7,0.7-2.6,0.8-4c0.9-0.9,1.7-2,2.4-3c0,1.7,0.1,3.5,0.1,5.9
		c0,0.8,0,1.7,0,2.5c-0.2,4.5-1.5,9.2-4.7,15.8c-3.6,7.5-9.9,11.3-11.3,12.9c0.6-6.1-0.5-12.2,0.8-16.1
		C-407.2,222.5-405.1,217.6-403.1,214.8z"/>
	<path class="st10" d="M-403.8,261.3c0.4,0.5,0.8,1.1,1,1.7c-3-0.9-5.8-1.8-8.3-2.5s-4.7-1.4-6.4-1.9c1.1-1,2.1-2.1,3.2-3.3
		c0.6-0.7,1.2-1.4,1.7-2.1c0.4,0.3,0.9,0.6,1.3,0.9c1.7,1.3,3.3,2.8,4.7,4.2C-405.3,259.5-404.3,260.7-403.8,261.3z"/>
	<g class="st5">
		<path class="st14" d="M-177,76.1c0.1,1.6-0.3,3.5-0.7,4.4c-0.7,1.5-4.8,1.1-7.3,0.9c-2.4-0.3-4.1-0.4-4.9-1.9
			c-0.6-1-1.3-3.2-1.3-4.8c0-0.9,0.2-1.5,0.7-1.7c5.4-1.4,10.8-0.2,12.4,0.6C-177.3,73.9-177,75-177,76.1z"/>
		<path class="st14" d="M-195.8,74.5c0.2,1.5-0.7,4.3-1.3,5.1c-0.7,0.9-6.7,0.3-7.8,0.2c-1.1-0.2-3.8-5-2-7.3
			c1.1-1.3,4.4-0.7,6.5-0.5s3.9,0.7,4.5,2.1C-195.9,74.2-195.9,74.3-195.8,74.5z"/>
	</g>
	<path class="st5" d="M-169.1,73.4l-3.1,0.8l-4.1,1l0,0c-0.2-1.2-0.7-1.9-1.4-2.3c-1.7-0.8-7.3-2.1-13-0.6c-0.4,0.1-1,0.5-1.2,1.5
		c-1.3-0.2-2.5-0.2-3.5-0.1c-0.7-1.4-2.3-2.3-5.1-2.5c-0.3,0-0.7-0.1-1-0.1c-2.2-0.2-4.9-0.5-6.1,0.9l0,0c-1,1.2-1,3.1-0.2,5.2
		c0.4,1.1,1.5,3.1,2.7,3.3c0,0,2.5,0.3,4.8,0.3c1.7,0,3.2-0.2,3.7-0.8c0.6-0.8,1.5-3.1,1.5-4.9c0.9-0.1,2-0.1,3.2,0.1
		c0.2,1.6,0.8,3.6,1.4,4.5c1,1.8,3,2,5.5,2.3c1.3,0.1,2.5,0.2,3.7,0.2c2.1,0,3.8-0.4,4.3-1.5c0.4-0.8,0.8-2.5,0.8-4.1l0,0l4.1-1
		l2.7-0.7l0.9-1.5C-168.7,73.4-168.9,73.3-169.1,73.4z M-197.7,79.1c-0.7,0.4-5.3,0.2-7.1,0c-0.3-0.1-1.4-1.5-1.8-3.3
		c-0.2-0.7-0.4-2,0.3-2.8s3.1-0.5,4.8-0.4c0.4,0,0.7,0.1,1.1,0.1c2.2,0.2,3.5,0.7,3.9,1.6c0,0.1,0.1,0.2,0.1,0.3
		C-196.4,75.9-197.3,78.5-197.7,79.1z M-178.3,80.2c-0.2,0.3-1.1,1-6.5,0.4c-2.5-0.3-3.7-0.4-4.3-1.5c-0.5-0.8-1.2-2.9-1.2-4.4
		c0-0.8,0.2-0.9,0.2-0.9c5.3-1.4,10.6-0.1,11.9,0.6c0.3,0.1,0.6,0.7,0.6,1.9l0,0l0,0C-177.6,77.7-178,79.5-178.3,80.2z"/>
</g>
<g>
	<path id="path_1_" class="st15" d="M113.5,258.6c1.7,0.5,3.9,1.1,6.4,1.9s5.3,1.6,8.3,2.5c12.3,3.7,27.1,8.3,31,10.1
		c4.7,2.1,9.2,7.7,12.5,14.3c1.6,3.2,3,6.8,3.9,10.2c0.1,0.4,0.2,0.9,0.4,1.3c0.2,0.8,0.6,1.8,0.9,2.7c1,3.1,2.4,6.9,4,10.9
		c2.5,6.6,5.5,14,8,20.3c0.5,1.4,1.1,2.8,1.6,4c1.3,3.5,2.4,6.5,3.1,8.6c2.8,8.8,1.1,16.6-3.6,20.4c-0.6,0.5-1.2,0.9-1.9,1.2
		c-3.9,2.1-7.7,2-11.1,0.7 M128.2,263c-0.3-0.6-0.6-1.1-1-1.7c-0.5-0.6-1.5-1.8-2.8-3.2c-1.3-1.4-2.9-2.9-4.7-4.2
		c-0.4-0.3-0.8-0.6-1.3-0.9 M62.9,257.9c-4.1,1.6-8.6,3.7-11.2,5.7c-0.5,0.4-0.9,0.7-1.2,1.1c-2.6,2.7-4.4,7.1-4.6,13
		c-0.1,2.6,0.2,5.5,0.8,8.8c0.2,1.2,0.5,2.5,0.8,3.9c1.8,8.2,4.2,18.9,5.3,23.6 M158.9,279.8c-3.9,2.2-7.9,14.5-6.5,26.3
		c0.7,6,3.5,15.6,6,23.5 M119.9,250.2L119.9,250.2c-0.1,1.1-0.2,2.4-0.2,3.8 M121.4,243.6c1.3-1.6,7.6-5.3,11.3-12.9
		c3.2-6.6,4.4-11.3,4.7-15.8c0-0.8,0.1-1.7,0-2.5c-0.1-2.5-0.1-4.3-0.1-5.9 M126.3,227.9c1.6,1.1,3.1-0.1,3.1-2.6s0.6-3.9,1.1-8.7
		c0.2-1.4,0.5-2.4,0.9-3.2c0.6-1.1,1.3-1.7,1.5-2.2l0,0c0.1-0.3,0.1-0.5-0.1-0.9c-1.1-1.7-2.8-1.1-3.8,1.2c-0.5,1.1-0.9,2.2-1.1,3.3
		c-0.2,1.1-0.3,2.2-0.2,3.5 M179.2,416.2c1.8-0.9,3.4-2,5-3c0.4-0.2,0.7-0.5,1.1-0.8c0.7-0.6,1.4-1.2,2.1-1.9
		c7.7-8.2,12.4-25.1,10.7-31.6c-1.5-5.9-4.7-9.9-8.1-12.9 M190.4,337c3.4,1.3,7.3,2.9,11,4.6c4.8,2.3,9.3,5,12.3,8
		c6.3,6.3,8.8,16,9.3,20c0.1,0.6,0.1,1.2,0,1.8c-0.2,2.7-1.2,5.7-2.3,8.1c-0.4,0.9-0.9,1.8-1.2,2.4c-1.7,2.9-18.5,24-25.9,26.7
		c-1.6,0.6-5.6,2.6-8.2,3.6 M229.2,382.9c-0.1-11.5-1.7-23.8-3.6-30.4c-2.1-7.4-10.4-12-15.2-12.6c-2.5-0.3-4.5,0-6.3,0.6
		c-1,0.4-1.9,0.8-2.8,1.2 M206.6,441c0.1-0.4,0.2-0.9,0.4-1.4c0.3-1.3,0.7-2.9,0.8-4.6c0.1-0.6,0.1-1.2,0.1-1.8
		c0.1-2.3,0-6.8-0.2-11.4 M226.8,403.7c-1.6,7.4-4.3,21.9-3.9,28c0.2,2.7,0.6,5.7,1.1,8.4c0.7,3.9,1.5,7.3,2.1,8.7 M222.9,371.5
		c1.1-2.1,2.3-4.6,2.3-4.6 M204.1,340.4c-1.8-2.4-8.3-7.6-15.3-7.4 M131.3,213.5c0.7,0.3,2.1,0.9,2.6,0.1c0.5-0.7,0.7-2.6,0.8-4
		c0.9-0.9,1.7-2,2.4-3c1-1.5,1.7-3.1,2.2-4.6s0.8-3,0.8-4.2c0.2-4.5-1-16.4-7.5-22.7c-6.5-6.2-17.8-6.5-17.8-6.5
		c-6.6-1.3-23.8-5.2-35.8,12.8c-12.1,18-5.2,43-5.3,48.8c-0.1,2.9-1.8,8-3.6,13.3c-0.1,0.3-0.2,0.5-0.3,0.8c-0.8,2.4-1.5,4.8-2.3,7
		c-0.8,2.1-5.8,1.4-4.7,6.6l0,0c6.4,9.2,22.1,9.4,33,8.5c8.7-0.7,13.3-3.5,17.7-7.7c1.1-1,2.1-2.1,3.2-3.3c0.6-0.7,1.2-1.4,1.7-2.1
		c0.6-0.9,1.1-1.9,1.5-2.9c0.9-2.1,1.3-4.4,1.5-6.7c0.6-6.1-0.5-12.2,0.8-16.1c1.6-5,3.7-9.9,5.7-12.7 M227.3,389.8
		c0,0-3.6,3.6-12,11.4c-2.2,2-5.1,4.9-8.4,7.9c-9.2,8.7-20.9,18.9-24.5,16c-1.5-1.2-2.6-4.5-3.3-8.8c-1.7-9.7-1.8-24.3-1.3-31.6
		c0.3-3.8,0-9.9-0.9-16.6c-1.5-12-4.9-26.2-10.3-33.4c-1.5-2-4.4-3.7-8.3-5.1c-14.8-5.2-43.8-6.1-63.3-7.8c-3.1-0.3-6-0.6-8.6-0.9
		c-22.5-3-28.5-7.2-33.3-7c-0.2,0-0.4,0-0.5,0c-2.7,0.3-4.9,2.2-5.7,8.7c-0.8,7,6.8,49.8,10.4,61.8c3.6,12,9,27.3,15.9,33.7
		c7,6.4,25,18.1,39.7,22.5s39.4,6.4,55.9,3.8c1.4-0.2,2.7-0.5,3.9-0.7c8.2-1.8,14.8-5.2,21.5-10.3c1.4-1,2.8-2.1,4.2-3.3
		c2.9-2.4,5.8-5.1,9-8.2c0.9-0.9,1.9-1.8,2.8-2.7c9.5-9.3,13.6-13,16.3-15.4c1.6-1.4,2.8-2.4,4.3-3.8c3.5-3.1,4.7-12.5-1.9-17.1
		c-0.9-0.7-2-1.2-3.3-1.6c-1.9-0.6-3.7-1.2-5.3-1.6 M169.9,393.2c-0.4-5.4-1.6-33.9-5.6-41.9s-11-13-22.7-13.8s-78-10.2-85.4-13
		 M194.6,433.3c2.7,0.9,6.4,1.6,9,1.8c0.4,0,0.8,0,1.1,0c1.4,0,2.4-0.1,3.2-0.2 M173.1,443.6c1.5,2,4.1,4.9,4.7,6
		c0.7,1.2,2.4,10.8,2.4,10.8s1.9,0.4,2.8-0.2c0,0-0.7-9.2-0.3-10.6s1.3-3.9,3.3-3.9c2.1,0.1,9.9,2.3,12.9,2.6
		c1.7,0.2,3.3,0.2,4.3,0.2 M198.8,430c1.4,1.6,3.5,4.2,4.8,5.1 M205.4,440.7c0.4,0,0.8,0.1,1.2,0.2c2.6,0.7,5.6,2.4,7.9,4.2
		c2.5,2.1,9.8,5.8,11.6,3.6c0-0.1,0.1-0.1,0.1-0.2 M207,439.6c-3,0.7-3.7,5.3-3.8,8.9c0,1.6,0.1,3,0.2,3.9c0.4,2.8,1.6,3.2,1.6,5.5
		c0,1.8-1.1,8.3-1.6,11.1c0,0.1,0,0.2,0,0.2c0,0.7,0.5,1.3,1.1,1.4c0.8,0.2,1.6-0.4,1.7-1.2c0-0.2,0.1-0.4,0.1-0.6
		c0.2-1.5,3.4-9.7,3.4-9.7s2.8,0,5.3,0.7s11.1,0,12.7-1.5c1.6-1.5,2.7-5.4,2.2-10.5c-0.3-3.1-1-5.5-1.5-7c-0.3-0.9-1.2-1.4-2.1-1.2
		l-2.4,0.5 M225,458.3c-7.2,1.6-9.9-6.5-11.8-5.7c-1.3,0.6-3.4,6.5-3.4,6.5 M95.2,321.7l-4.9-42.6 M362.1,103.2
		c-0.4-1.2-0.8-2.8-1.1-3.7v-0.1c-0.4-1.1-1-1.5-1.7-1.7 M294.2,188.4l16,1.9l18,2.1l4.9,0.6 M176,299l80.4,13.1l31.8,5.2l25.4,4.2
		l18.3,3c4.9,0.8,9.9-0.3,14-3.1l1.7-1.2l157.6-107.4l-106.8-12.4h-0.2 M70.1,243.5L5.2,271l40.7,6.7 M264.3,184.9l-36.1-4.2
		c-5.3-0.6-10.8,0.2-15.7,2.3l-75.2,31.9 M180.9,312.6l77.7,13l30.9,5.2l25.4,4.2l16.6,2.8c4.9,0.8,9.9-0.3,14-3.1l1.8-1.2
		l152.6-103.6c3.2-2.2,5.1-5.7,5.2-9.5l0.2-7.7 M5.2,271v3.8c0,4.9,3.5,9,8.3,9.8l34,5.7 M360.6,85.2c0.4,0.2,0.7,0.3,1,0.3
		c1.9,0,3.4-2.7,4.4-5.6c0.5-1.7,0.8-3.4,0.9-4.7c0.2-3.8-2.3-3.7-4.2-2c-1.3,1.2-3.5,8-3.5,8s-0.2-5.3-0.5-8.4s-0.7-2.3-2.1-5.2
		c-1.4-2.9,0.1-7.2-2.7-8.3c-2.8-1.1-13-1.6-14.4-1.4s-3.1,1-3.1,1s-2.1-1-3.9-1s-5.2,0.8-5.8,2.7c-0.4,1.2-0.9,3.9-1.2,6.5
		c-0.2,1.6-0.3,3.2-0.3,4.1c0,0,0.5,10.5,1.3,15.1c0.7,4.5,3.3,11,5.3,14c0.1,0.1,0.1,0.2,0.2,0.2c0.1,0.1,0.2,0.2,0.2,0.3
		c0.2,0.3,0.5,0.6,0.8,0.9c2.1,2.1,5.1,3.1,9.5,2.1c5.2-1.1,13.8-10.7,13.8-10.7 M332.2,100.8c-1,1.7-2.4,6.3-2.3,8.9
		c0,1,0.5,6.5,1.1,13.4c0.4,4.6,0.9,9.9,1.3,14.8c0.7,7.7,1.5,14.6,1.9,16.8c1.2,5.8,1.5,9.6,1.5,9.6s4-9.8,7.2-17.7 M362.9,101.8
		c-0.1,0.2-0.4,0.7-0.8,1.4c-0.7,1.1-1.7,2.8-2.8,4.5s-2.1,3.6-2.8,5.2c-0.9,2.1-3,7.2-5.1,12.4c-2,4.9-3.9,9.8-4.9,12.2
		c-0.6,1.6-2.1,5.2-3.7,9.2 M335.6,174.9c1.6-2,5.5-7,9-11.4c1.5-1.9,5-7.3,8.8-13.5c7.5-12.1,16.7-27.5,16.7-27.5l-4.7-3.7l6-2
		c0,0-0.7-3.4-1.2-5.7c-0.2-1.1-0.4-2.1-0.5-3c-0.3-1.5-0.8-2.9-1.8-4.1c-1.5-1.8-5-3.8-6.9-4.7 M331.8,100.2
		c-0.7,0.6-2.8,2.4-4.6,4c-1.3,1.2-2.5,2.3-3.1,2.9c-1.5,1.6-4,3.7-4,3.7l2,1.8l-5,3.1c0,0,0.9,12.8,2.5,19.9s12.8,31.3,12.8,31.3
		 M335.8,164.4l-1.5,3.3l-2.7,6.1 M331,123.1c0.8-1.5,2.1-4,3.4-6c1-1.5,1.9-2.8,2.6-3.1c1.9-0.9,2.9-0.9,2.9-0.9s-6.5-7.3-7-11.4
		 M359.6,98.6c-0.1,0-0.2,0.2-0.4,0.4c-1.7,1.4-7.4,6-9.9,7.8c-2.8,2.1-9.3,6.4-9.3,6.4s2.4,0,3.7,1.9c0.4,0.5,1.2,1.6,2.2,2.9
		c1.9,2.5,4.5,5.9,5.7,7.3 M334.5,117.1c0,2.1,0.1,6.8,0.1,7.4c0,0.1,0.2,0.2,0.4,0.3c0.6,0.2,1.7,0.2,2.8,0.2c1.5,0,2.9,0,3.2,0
		c0.1,0,0.2,0,0.3-0.1c0.8-0.7,2.2-3.6,3-4.8c0.6-0.8,1.2-1.7,1.6-2.2 M335,124.8c-0.7,2.3-2.1,9.4-2.6,13.1 M337.2,130.8
		c0.6-1.1,0.6-4.4,0.5-5.8 M343,146.6L343,146.6c-0.1-2.5-0.3-6.1-0.3-8.1c0-3-0.7-10.9-1.4-13.7 M332.8,187.5
		c0,1.4,0.1,3.4,0.4,5.4c0.1,1.4,0.3,2.8,0.6,4l0,0c0.5,2.4,1.2,4.3,2.2,4.5c2.5,0.6,33.3,2.7,41.4,4.6c2.3,0.5,4.7,1,6.9,1.2
		c5.8,0.6,10.9,0.1,12.6-2.7c0.5-0.9,1-2.3,1.4-4.1c0.1-0.2,0.1-0.5,0.2-0.8c1.5-6.4,2.6-16.2,2.5-19.6c-0.1-4.4-1.8-22.9-2.5-27.6
		c-0.7-4.6-2.7-23.1-4.5-26.5c-1.8-3.4-3.8-3-5.6-4.4c-1.6-1.2-14.9-10.8-18.5-13.4 M395.8,194.6c0,0-2-3.1-7-7.2
		c-4.8-4-11.6-5.1-13.9-5.1c-0.1,0-0.2,0-0.3,0c-1.9,0-29.4-4.9-32.7-5.9c-2.5-0.7-4.9-1.3-6.3-1.4c-0.4,0-0.7,0-0.9,0.1 M373.8,154
		c0,0,0.2,2.9-0.7,6.2c-1,3.3,1.5,6.9,1.5,8.3c0,1.1,0.3,10.4,0.4,13.7 M386.1,125.3c-3,1.2-7.2,6.3-9.7,12.7s-2.7,8.1-2.7,8.1
		 M389.9,134.1c0,0-8.2,4.4-10.3,10.8 M390.2,183.2c-4.2-2.3-10.1-1.9-10.1-1.9 M333.7,196.9L333.7,196.9c0.8,1.5,1.8,3,2.2,1.9
		c0.4-1.1,0.5-5.7,0.6-9.7c0.1-2.1,0.1-4,0.2-5.2c0.3-3.3-0.2-7.6-0.8-8.5c0-0.1-0.1-0.1-0.1-0.1 M327.2,104.2l-21.3,9.5
		c0,0-2.6-0.7-5.5,3s-13.5,20.1-13.5,20.1l-2.6,1.8v1.9l-2.1,1.2l0.3,1.6c0,0-11.5,18.3-13.3,20.6s-9.5,9.5-5.5,20.1
		c0.1,0.4,0.3,0.7,0.5,1.1c4.8,9.9,21,14.9,23,13.6c1-0.6,2.7-3,4.5-5.9l0,0c0.8-1.4,1.6-2.8,2.4-4.3c0.9-1.8,1.8-3.6,2.3-5.2
		 M299.7,170.7c-1.3,0.4-2.5,0.4-3.3,0.4c-0.1,0-0.2,0-0.3,0c-0.4,0-0.8,0-1-0.1c-0.2,0-0.3,0-0.3,0c-4,0.4-7.2,8.6-8.5,13.9
		c-0.2,0.6-0.3,1.3-0.4,1.9c-0.9,4.6-1.2,9-0.2,10.9c0.9,1.7,4.5-2.9,6.1-5l0,0 M273,165.9c1.6,0.1,8.6,3.4,12,3.9
		c3,0.5,7.9,0.5,10.3,1c0.3,0.1,0.6,0.2,0.9,0.3 M285,169.8c-1.4-2.2-7.9-6.3-7.9-6.3 M298.4,166.4c-1.2,1.3-2.5,3.3-3.2,4.4
		 M304.7,118.6c-1.2,3.9-3.3,31.4-0.8,41.7 M310.2,190.2c0.1-2.3-0.7-5.3-1.5-8.3 M328.2,187c-0.1,1.6,0,3.4,0,5.3 M258.5,325.6
		c1.8,11.1,3.5,21,3.9,23.5c0.7,5.4,3.6,18.2,3.6,20l1.6,4.2l0.7,1.9c0,0,0.5,0,1.3-0.1s2-0.2,3.4-0.4c2.7-0.4,6.1-1.1,9.2-2.2
		c1.9-0.7,3.5-1.7,4.8-2.8c1.3-1.1,2.4-2.3,3.1-3.4c0.6-0.9,1-1.7,1.3-2.5c0.2-0.5,0.3-1,0.4-1.3c0.3-2-1.4-20-2.4-31.7 M367,152.6
		l-0.1-4c0,0-9.7,1-13.4,1.4 M320.2,183.4c1,1,2.8,2.7,5.4,3.2c0.8,0.1,1.7,0.2,2.5,0.3c1.7,0.2,3.3,0.3,4.6,0.6
		c0.5,0.1,1,0.3,1.4,0.5c0.8,0.4,1.6,0.8,2.4,1.1 M325.2,167.3c1.9,2.3,4.2,4.9,5.2,5.8c0.3,0.3,0.8,0.5,1.3,0.8
		c1,0.5,2.1,0.9,3.1,1.2l0,0c0.2,0.1,0.5,0.2,0.7,0.2c0.2,0.1,0.4,0.1,0.5,0.2 M325.5,166.7c0.2-0.1,0.4-0.2,0.6-0.3
		c1.2-0.6,1-2.7,0-3.4c-0.8-0.6-2.8-0.6-4-0.6 M285.9,186.8c4.4-1.5,8.4-3,10.6-3.6l0,0c0.6-0.2,1.2-0.3,1.5-0.3s0.6,0,0.9,0
		c1.5-0.1,3.2-0.2,5-0.8c1.1-0.4,2.9-0.4,4.8-0.1c1.7,0.2,3.6,0.7,5.3,1.2c3.5,1,5.4,1.7,6.2,0.4c0,0,0-0.1,0.1-0.1
		c0.4-0.8-2.4-2.3-5.3-3.5c-0.1,0-0.2-0.1-0.3-0.1c-0.7-0.3-1.3-0.6-2.2-0.8l0,0c-0.8-0.2-1.8-0.4-3.1-0.3c-2.9,0.1-6.1,1.5-8.3,2.6
		c-1,0.5-1.7,0.8-2.2,0.8c-0.6,0-0.9-0.3-1.1-0.8c-0.4-1,0.8-3.3,2.6-4.2c1.5-0.8,3.8-1.6,5.6-2c2.2,0.5,9.9,2.3,12.1,2.6
		c2.4,0.3,3.8-0.4,3.8-1.5c0-0.8-0.8-1.3-1.9-1.7c-0.4-0.1-0.8-0.2-1.2-0.3c-1.7-0.4-4.7-1.6-7.7-2.7c-3-1-5.6,0.1-5.6,0.1
		c-1.3,0.4-2.8,1.3-3.8,2.7s-2.6,2.4-3.9,1.5c-0.6-0.4,0.1-3,1.3-4.3c0.2-0.2,0.4-0.4,0.6-0.6c1.2-1.1,3-2.4,4.5-3
		c1.7-0.7,3.2-0.3,4.3,0c1.1,0.3,6,2.8,7.8,3.8c0.9,0.5,2.5,1.4,3.9,2c1.4,0.5,2.7,0.7,3.3-0.3c1.1-2-2.1-4.2-3.5-5.1
		c-1.3-0.9-5.8-3.5-7-3.8s-5,0.1-5.6,0.1c-0.7,0-4.8,1.8-5.6,2.6c-0.8,0.8-0.6,3-2.4,3.4s-1.9-1.9-1-3.9s1.1-2.7,3.2-3.9
		c0.5-0.3,0.9-0.5,1.3-0.8c0.4-0.2,0.7-0.4,1.1-0.6c1-0.5,1.9-0.8,2.8-0.8c0.4,0,1.1,0.2,1.9,0.4 M325.2,167.3
		C325.2,167.2,325.2,167.2,325.2,167.3c0.2-0.2,0.2-0.4,0.3-0.6c0-0.1,0-0.1,0-0.2c0-1.3-2-3-3.4-4.1c-0.5-0.4-0.9-0.7-1.1-0.9
		c-0.5-0.4-1.4-0.9-2.3-1.4c-1-0.4-1.9-0.8-2.5-0.9c0,0,0,0-0.1,0c-1.1-0.2-4.6,0.6-5.2,0.8c-0.3,0.1-1.3,0.4-2.1,0.7
		c2.1,0.6,4.8,1.8,5.5,2.1c1,0.4,3.9,1.6,5.2,2.4C320.6,166,323.8,168.9,325.2,167.3 M316.2,159.2c-1.4-1.1-4-3-4.8-3.1
		c-1.2-0.1-3.3,1-5.1,1.9c-1.2,0.6-1.8,1.3-2.4,2.2l0,0c-0.3,0.4-0.5,0.9-0.9,1.4 M314.8,335.1c0.1,1.7,0.2,3.3,0.3,5
		c1.1,22.8-0.2,34.1-1.1,37.6c-0.3,1.2,0.4,2.8,1.4,4.3c2,3,5.4,5.9,5.4,5.9s11.6,0.4,17.1-6.6c0.4-0.5,0.8-1,1.1-1.6
		c3.8-6.8,7-30.7,8.1-46.2 M267.5,373.3c-3,5-10.1,17.7-12.8,20.2c-2.9,2.7-15.6,16.1-17.6,23s3.7,8.2,10.5,7.5s17.2-6.5,21-10.1
		c1.5-1.5,3-3.9,4.5-6.5c2.3-4,4.8-8.3,7.7-10.4c0.1-0.1,0.2-0.2,0.4-0.3c4.7-3.4,11.8-9.8,13.4-12.8c0,0,0-0.1,0.1-0.1
		c1.4-3,0.1-17.2-3.2-19.9 M273,374.7c2.2,1,4.6,3.1,8.9,2.5c4.7-0.7,7.7-6.7,8.1-10.8 M237.1,416.5c-1.1,2.1-4,7.7,0.6,10.1
		c4.6,2.5,12.9,1.5,19.1-1.5c6.2-3.1,14.6-11.8,16.4-17.7 M281.2,396.7l0.7,2.2c0,0,8.1-5,11-8.4c2.4-2.7,1.9-5.2,1.6-6.6
		 M299.6,434.7c0,3.5,1.2,6.3,4.8,7.2c8.8,2.2,18.1-6.5,23-13.1c4.4-5.8,5.2-14.6,5.9-19.5c0.1-0.6,0.2-1.1,0.3-1.6
		c0.2-1,0.5-1.9,0.7-2.9c1-3.3,2.4-6.4,3.6-8.6c0-0.1,0.1-0.1,0.1-0.2c1.4-2.9,1.4-11.7-0.1-14.8 M315.4,382
		c-0.3,1.1-2.2,8.3-3.5,12.2c-1.4,4.3-7.2,18.6-9,25.4c-1,4-3.3,10.2-3.3,15.1 M299.6,434.7L299.6,434.7c-1.1,4.3-2,8.9,3.9,10.7
		c6.5,2,13-1.6,18.6-7.1s10.6-11.6,11.2-17.6c0.4-3.7,0.2-8.4,0-11.3 M334.3,404.9l0.5,1c0,0,3.2-5.7,3.2-9.8 M366,79.9
		c2-4,3.7-12.1,4.1-12.1c0.5-0.1,1.4,0,1.3-0.7s-0.9-3.1-0.5-3.1s1.5-0.2,0.8-1.4c-0.7-1.3-2.7-10-3.9-11.7
		c-1.3-1.7-7.4-9.8-17.4-10.8s-16.6,5.4-16.6,5.4s-2-0.2-4.2,1.8c-3,2.6-4.7,10.6-4.6,13.1c0.1,1.5,0.3,4.6,0.5,6.7 M361.7,85.5
		c-0.6,2.4-1.9,8.6-2.4,12.2c-0.1,0.5-0.1,0.9-0.1,1.2 M322.2,377.6l2.2-30.3"/>
	<path class="st15" d="M334.4,83.3c-0.5,1.8-1,3.6,0.5,4.6"/>
	<path class="st15" d="M333.8,93.7c0,0,4.4-0.6,7.7,0.6"/>
	<line class="st16" x1="341.9" y1="70" x2="348.6" y2="69.8"/>
	<line class="st16" x1="333.5" y1="70" x2="327.9" y2="69.1"/>
	<path class="st15" d="M324,72.5c1.1-1.3,4.4-0.7,6.5-0.5s3.9,0.7,4.5,2.1c0.1,0.1,0.1,0.3,0.1,0.5c0.2,1.5-0.7,4.3-1.3,5.1
		c-0.7,0.9-6.7,0.3-7.8,0.2C324.9,79.6,322.2,74.7,324,72.5z"/>
	<path class="st15" d="M354,76.1c-0.1-1.2-0.3-2.2-1-2.5c-1.6-0.8-7.1-2-12.5-0.6c-0.5,0.1-0.7,0.8-0.7,1.7c0,1.6,0.8,3.8,1.3,4.8
		c0.9,1.5,2.5,1.6,4.9,1.9s6.6,0.6,7.3-0.9C353.8,79.7,354.1,77.8,354,76.1z"/>
	<path class="st15" d="M335.2,74.5c1.1-0.2,2.8-0.3,4.7,0.2"/>
	<polyline class="st15" points="354,76.1 358.9,74.9 362.1,74.1 	"/>
</g>
<path class="st15" d="M21.7,49.1c3.2,0.7,5.6,0.9,8.2,0.9h8.2V32c0-7.6-0.1-11-0.5-14.9 M21.1,89.3c2.7-0.3,6.3-1,10.2-1.8
	c2.1-0.4,4.3-1,6.8-1.6V53.5H30c-2.4,0-4.7,0.3-7.8,0.9 M35.6,98.6c-1.9,0.9-3.9,1.9-5.9,2.8c-0.5,3.8-1.4,5.4-3,5.4
	c-1.7,0-2.5-1.2-6.8-15.1 M24.9,136.7c4.2,0.2,7.8,0.3,10.8,0.3c2.1,0,2.4-0.3,2.4-2.2v-34.5 M51.6,91.6v12c0,20.8,0.2,27,0.2,33.7
	c0,4.6-0.9,8.2-3,10.6c-2.5,3-6.8,4.5-12.9,4.5c-1,0-2.1-1.2-2.1-2.8c0-5-1.9-7.3-8.6-9.8 M53.4,81.6c5.3-1.6,10.1-3.4,13.6-4.8
	c0.8-0.3,1.2,1.3,0.6,1.8c-4.4,3.5-9.2,6.9-14.3,10 M54,47.2c3-4.5,4.4-5.4,5.3-5.4c1.4,0,2.6,1.2,6.9,5.8c1.5,1.6,2.7,3.3,2.7,4.4
	c0,1-0.4,1.5-1.9,1.5H51.6v25.9 M40.1,14.7c15,1.7,16.3,2.3,16.3,4c0,1.5-1.2,2.5-4.8,4v24.4 M61.7,90.1c3.9,0.9,6.9,1.2,9.9,1.2
	h27.3v-2.2c0-5.4,0-8.8-0.2-12.5 M90.4,94.8h-19c-2.4,0-4.8,0.3-8.1,0.9 M56.5,137.1C71.1,127.2,83.3,114,92,96.9 M97,112.3
	c-10.6,12.8-23.4,21.2-39.1,27.3 M111.9,103.9c0.1,19.3,0.6,36.8,0.6,42.1c0,4-2.2,6.1-7.9,6.1c-4.7,0-6.3-1.6-6.3-5.2
	c0-3.8,0.9-18.5,1.1-33.3 M157.4,129.5c-2.8,2.3-4.4,5.7-5.6,10.5c-0.3,0.9-1,1.6-1.7,1.6c-1.3,0-3.6-0.9-6.1-2.4
	c-6.8-4.2-12.4-9.4-17.5-15.6c-5-6.2-8.8-12.4-12.2-20.1 M114.2,97c3.6,5.5,8,10.4,13.4,14.5c8,6.3,17.9,10.9,29.4,13.7 M114.6,91.3
	h19.5c6.6-8.1,8.4-9.3,9.4-9.3c1.4,0,3,1.2,9.5,6.4c2.8,2.4,4,3.8,4,4.8c0,1.1-0.5,1.5-2,1.5h-39 M101.6,74
	c12.4,1.1,14.2,1.5,14.2,3.3c0,1.4-1,2.2-3.7,3.3v8.3 M136.9,14c9.6,6.6,12.7,9.2,12.7,10.9c0,1.9-0.9,3-8.2,1.6
	c-17.6,5.5-45.7,10-67.1,11 M74.2,34.2C89.6,31,106.1,26,118.5,21c6.2-2.4,11.4-4.9,14.9-7.2 M72.2,46.1c11,4.8,16.5,10.8,16.5,18.3
	c0,5.1-3,8.2-8.1,8.2c-3.3,0-5-2.2-5.4-6.3c-1-9.6-2-13.8-4.6-18 M101.1,42.3c10.4,4.9,15.5,11,15.5,18.7c0,4.9-3.1,8.4-8.2,8.4
	c-3.6,0-5.5-2.5-5.7-6.3c-0.4-10.1-2-15-4-18.6 M122.9,74c4.7-8.1,8.1-15.7,10.9-24.4c1.1-3.4,2.1-7,3-10.8 M139.6,37.5
	c14.8,5.9,15.5,6.2,15.5,8.2c0,1.8-1.2,2.4-5.7,3.1c-7.8,11.4-16,20.4-23.8,26.8"/>
<g>
	<path class="st15" d="M360.8,477.3c5.8-11,9.3-21.3,11.4-36.4c1.8-13.3,2.4-30.1,2.4-54.3c0-15.6-0.3-25.4-0.8-33.7 M419.2,425.8
		h-31.8c-0.6,5.8-1.5,10.9-2.5,15.6c-3.7,16.8-10.4,27.1-21.8,37.9 M436.6,428c0.1,18.4,0.3,35.3,0.3,42.6c0,4.5-2.5,6.2-8.7,6.2
		c-4.8,0-6.6-1.7-6.6-6c0-2.1,0.5-8.8,0.5-22.2V428 M455.2,463.8c4.7,0.3,9,0.3,13.6,0.3c2.1,0,2.5-0.6,2.5-2.5v-35.8h-31.9
		 M486.1,366.3v14.3c0,69.1,0.6,74.5,0.6,84c0,7.7-1.8,9.6-5.4,12.3c-3.6,2.4-8,3.6-11.5,3.6c-2.5,0-3-1.3-3.5-4
		c-1-5.7-4.3-7.7-12.3-10 M378,350.4c4.6,1.9,6.6,3,12.5,6.7h79.3c6.2-6.2,7.3-7,8.5-7c1.5,0,2.7,0.9,8.2,5.2
		c2.5,2.2,3.5,3.3,3.5,4.5c0,1-0.2,1.5-1.7,2.7 M389.1,396.1c-0.2,8.7-0.6,17.5-1.4,26.2H422v-30.1h-29.6 M389.3,363.8v3.7
		c0,7,0,14.1-0.2,21.1h32.8v-28.1h-29.6 M436.6,363.8v24.9h34.8v-28.2h-31.9 M436.6,396.1v26.2h34.8v-30.1h-31.9"/>
</g>
<line class="st15" x1="378" y1="50.9" x2="463.2" y2="14.7"/>
<line class="st15" x1="119.9" y1="160.6" x2="313.6" y2="78.3"/>
<line class="st15" x1="5.2" y1="209.4" x2="67.9" y2="182.8"/>
<line class="st15" x1="290.1" y1="447.2" x2="241.2" y2="480.5"/>
<line class="st15" x1="366.8" y1="394.8" x2="341.8" y2="411.9"/>
<line class="st15" x1="505.2" y1="300.5" x2="434" y2="349"/>
</svg>
