<?xml version="1.0" encoding="utf-8"?>
<!-- Generator: Adobe Illustrator 22.1.0, SVG Export Plug-In . SVG Version: 6.00 Build 0)  -->
<svg version="1.1" id="f5754dbe-bb36-43e2-9e63-0bb9c441defe"
	 xmlns="http://www.w3.org/2000/svg" xmlns:xlink="http://www.w3.org/1999/xlink" x="0px" y="0px" viewBox="0 0 1184.1 743.5"
	 style="enable-background:new 0 0 1184.1 743.5;" xml:space="preserve">
<style type="text/css">
	.st0{fill:#DCDCDC;}
	.st1{fill:#F2F2F2;}
	.st2{fill:#CBCEDA;}
	.st3{fill:#A538F3;}
	.st4{opacity:0.2;fill:#A538F3;enable-background:new    ;}
	.st5{fill:#A0616A;}
	.st6{opacity:0.1;enable-background:new    ;}
	.st7{fill:#3C354C;}
	.st8{fill:#3F3D56;}
	.st9{fill:#FFC1C7;}
	.st10{fill:none;stroke:#3F3D56;stroke-width:4;stroke-miterlimit:10;}
	.st11{fill:#656380;}
	.st12{opacity:0.2;enable-background:new    ;}
</style>
<path class="st0" d="M223.4,498.2l-6.3-3.9c-0.6-0.4-1.2-0.8-1.8-1.2c32.6-5.6,54.4-36.6,48.8-69.1c-3.9-22.8-20.6-41.2-42.8-47.5
	l0.3,24.7l-13.6-26.8H208c-33-1.5-61,24-62.6,57c-0.1,1.1,0,2.3,0,3.4c-4.7-5.4-9-11.1-11.8-17.5c-5.7-12.8-5.8-27.3-5.4-44.9
	c0.9-34.9,2.4-70.1,4.4-105.1c29.2-3.3,51.8-27.3,53.2-56.6c0.1-1.8,0.1-3.6,0-5.4c0-0.5,0-0.9-0.1-1.3c-0.1-1.7-0.3-3.5-0.6-5.2
	c0-0.3-0.1-0.5-0.1-0.8c-0.2-1.4-0.5-2.9-0.9-4.3c-0.1-0.5-0.3-1-0.4-1.6c-0.4-1.5-0.9-3-1.4-4.5c-0.2-0.5-0.4-1-0.6-1.5
	c-0.4-1.1-0.9-2.2-1.4-3.2c-0.3-0.6-0.5-1.1-0.8-1.7c-0.1-0.1-0.1-0.3-0.2-0.4l0,0c-13-25.7-42.6-38.5-70.3-30.4l0.4,32.1L96,156
	c-22.6,13-34.2,39.1-28.6,64.5h-0.1c0.1,0.4,0.2,0.8,0.3,1.3c0.2,0.8,0.4,1.6,0.6,2.4c0.3,1,0.6,2,0.9,3c0.2,0.7,0.5,1.5,0.8,2.2
	c0.4,1.1,0.9,2.1,1.3,3.1c0.3,0.6,0.5,1.2,0.8,1.8c0.8,1.5,1.6,3.1,2.5,4.5c0.3,0.5,0.7,1,1,1.5c0.6,1,1.3,2,2,2.9
	c0.4,0.6,0.9,1.2,1.3,1.7c0.7,0.8,1.3,1.6,2,2.4c0.5,0.6,1,1.1,1.5,1.7c0.7,0.8,1.5,1.5,2.3,2.3c0.5,0.5,1,1,1.6,1.5
	c0.9,0.8,1.8,1.5,2.7,2.3c0.5,0.4,0.9,0.8,1.4,1.1c1.4,1,2.9,2,4.4,3c0.3,0.2,0.6,0.3,0.9,0.5c1.3,0.7,2.6,1.5,3.9,2.1
	c0.6,0.3,1.2,0.5,1.7,0.8c1.1,0.5,2.2,1,3.3,1.4l2,0.7c1.1,0.4,2.2,0.7,3.3,1c0.7,0.2,1.3,0.4,2,0.5c1.2,0.3,2.5,0.5,3.7,0.8l0.2,0
	c-0.8,14.8-1.6,29.6-2.2,44.4c-14.5-29.7-50.3-42.1-80-27.6c-1,0.5-2.1,1-3.1,1.6l10.6,29l-21.8-20.9C7.7,304,0.8,318.9,0.1,334.7
	c-0.3,5.5,0.2,11.1,1.5,16.5c7.5,32.2,39.7,52.1,71.9,44.6c16.1-3.8,29.9-14,38.1-28.3c0,1.5-0.1,3-0.1,4.5
	c-0.4,15.5-0.9,34.9,6.8,52.1c5.3,11.7,13.7,21.2,22,29.7c5.4,5.5,11.1,10.9,16.8,16.1c5.7,7.6,13.1,13.8,21.6,18
	c9.5,7.3,19.3,14.2,29.4,20.5l6.3,3.9c5.7,3.5,11.5,7.2,17.3,10.9c-1-0.1-2-0.2-3-0.3c-26-1.2-49.9,14.6-58.9,39l37.4,30.4
	l-41.1-9.5c0.1,33.1,26.9,59.8,60,59.8c9,0,17.8-2,25.9-5.9l-2.8,3.5c-1.8,2.3-3.7,4.6-5.4,6.8c-24.3,30.8-31.1,60.1-19.1,82.4
	l14.7-7.9c-11.7-21.7,5.9-49.5,17.5-64.2c1.8-2.2,3.5-4.5,5.4-6.7c15.5-19.3,33.2-41.2,32.7-68.1
	C294.3,542.2,255.1,517.8,223.4,498.2z"/>
<path class="st0" d="M905.4,437l7.8-4.9c0.8-0.5,1.5-1,2.2-1.4c-34.6-5.9-60.4-35.1-62-70.1c-0.6-11.7,1.6-23.3,6.5-34
	c9.1-20.2,26.7-35.4,48-41.4l-0.4,30.8l16.9-33.5h0.2c41.2-1.9,76.2,29.9,78.1,71.1c0.1,1.4,0,2.8,0,4.2
	c5.9-6.7,11.2-13.9,14.8-21.8c7.2-16,7.3-34,6.7-56c-1.1-43.5-3-87.4-5.5-131.2c-36.5-4.1-64.6-34-66.3-70.7c-0.1-2.3-0.1-4.5,0-6.8
	c0-0.6,0-1.1,0.1-1.7c0.1-2.2,0.3-4.3,0.7-6.4c0-0.4,0.1-0.7,0.2-1c0.3-1.8,0.7-3.6,1.1-5.3c0.2-0.6,0.3-1.3,0.5-2
	c0.5-1.9,1.1-3.8,1.8-5.6c0.2-0.6,0.5-1.2,0.7-1.8c0.5-1.4,1.1-2.7,1.7-4c0.3-0.7,0.6-1.4,1-2.1c0.1-0.2,0.2-0.4,0.2-0.5l0,0
	c16.3-32.1,53.1-48.1,87.7-37.9l-0.5,40l16.7-33.1c28.2,16.1,42.6,48.8,35.6,80.5h0.1c-0.1,0.5-0.3,1-0.4,1.6c-0.2,1-0.5,2-0.8,2.9
	c-0.3,1.2-0.8,2.5-1.2,3.7c-0.3,0.9-0.6,1.8-1,2.8c-0.5,1.3-1.1,2.6-1.7,3.9c-0.3,0.8-0.6,1.5-1,2.3c-0.9,1.9-2,3.8-3.1,5.6
	c-0.4,0.6-0.8,1.3-1.2,1.9c-0.8,1.2-1.6,2.5-2.5,3.6c-0.5,0.7-1.1,1.4-1.7,2.2c-0.8,1-1.7,2.1-2.5,3.1c-0.6,0.7-1.2,1.4-1.9,2.1
	c-0.9,1-1.9,1.9-2.8,2.8c-0.7,0.6-1.3,1.2-2,1.8c-1.1,1-2.2,1.9-3.4,2.8c-0.6,0.5-1.2,0.9-1.8,1.4c-1.8,1.3-3.6,2.5-5.5,3.7
	c-0.3,0.2-0.7,0.4-1.1,0.6c-1.6,0.9-3.2,1.8-4.8,2.6c-0.7,0.4-1.4,0.6-2.2,1c-1.3,0.6-2.7,1.2-4.1,1.7c-0.8,0.3-1.6,0.6-2.5,0.9
	c-1.4,0.5-2.8,0.9-4.2,1.3c-0.8,0.2-1.7,0.5-2.5,0.7c-1.5,0.4-3.1,0.7-4.7,0.9l-0.3,0.1c1,18.5,2,36.9,2.8,55.4
	c18-37.1,62.7-52.5,99.8-34.4c1.3,0.6,2.6,1.3,3.9,2l-13.2,36.2l27.2-26.1c14.6,13.3,23.4,31.8,24.3,51.5c0.3,6.9-0.3,13.8-1.9,20.6
	c-9.4,40.1-49.6,65.1-89.7,55.7c-20.1-4.7-37.3-17.5-47.6-35.3c0,1.9,0.1,3.8,0.2,5.6c0.5,19.4,1.1,43.5-8.5,65.1
	c-6.6,14.6-17.1,26.5-27.5,37.1c-6.8,6.9-13.8,13.6-21,20.1c-7.1,9.5-16.4,17.2-27,22.4c-11.8,9.1-24.1,17.7-36.7,25.6l-7.9,4.9
	c-7.1,4.4-14.4,8.9-21.5,13.6c1.3-0.1,2.5-0.3,3.8-0.3c32.5-1.5,62.2,18.2,73.5,48.6l-46.7,38l51.3-11.9
	c-0.1,41.3-33.6,74.7-74.8,74.6c-11.2,0-22.2-2.5-32.2-7.4c1.2,1.4,2.3,2.9,3.5,4.3c2.3,2.8,4.6,5.7,6.8,8.5
	c30.4,38.5,38.8,75,23.8,102.8l-18.3-9.9c14.6-27.1-7.4-61.8-21.8-80c-2.2-2.8-4.4-5.6-6.7-8.4c-19.4-24.1-41.4-51.4-40.8-84.9
	C816.9,491.8,866,461.4,905.4,437z"/>
<ellipse class="st0" cx="584.3" cy="716" rx="514" ry="27.5"/>
<ellipse class="st0" cx="583.3" cy="707.5" rx="460" ry="22"/>
<path class="st1" d="M1021.3,173.2v528.5c0,4-3.2,7.2-7.2,7.2c0,0,0,0,0,0H154.5c-4,0-7.2-3.2-7.2-7.2c0,0,0,0,0,0V173.2
	c0-4,3.2-7.2,7.2-7.2c0,0,0,0,0,0H1014C1018,165.9,1021.3,169.1,1021.3,173.2C1021.3,173.1,1021.3,173.2,1021.3,173.2z"/>
<path class="st2" d="M1021.3,170.8V187h-874v-16.2c0-2.7,2.2-4.8,4.8-4.8h864.4C1019.1,166,1021.3,168.1,1021.3,170.8
	C1021.3,170.8,1021.3,170.8,1021.3,170.8z"/>
<circle class="st3" cx="163.3" cy="176" r="5"/>
<circle class="st3" cx="177.3" cy="176" r="5"/>
<circle class="st3" cx="191.3" cy="176" r="5"/>
<rect x="451.3" y="239.5" class="st4" width="266" height="14"/>
<rect x="230.3" y="381.5" class="st4" width="205" height="240"/>
<rect x="481.3" y="381.5" class="st4" width="205" height="240"/>
<rect x="732.3" y="381.5" class="st4" width="205" height="240"/>
<path class="st5" d="M323.6,503.4c-0.6,3.6-4.2,5.9-7.5,7.3s-7.1,2.6-9.3,5.5c-2.9,4-1.7,9.7,1,13.9c3,4.8,7.7,8.3,12.2,11.7
	c2,1.7,4.2,3,6.6,3.8c1.8,0.5,3.7,0.7,5.6,0.6c6.1,0,12.2-0.5,18.2-1.6c7.7-1.4,15.9-4.2,20-10.9c3.3-5.5,3.1-12.3,2.8-18.7
	c-3.6-0.3-6.9-2.3-9.9-4.2c-3.6-2.3-7.6-4.9-8.8-9c-1.2-4.3,0.7-9.6-2.2-13c-2-2.3-5.4-2.5-8.4-2.6c-4.1-0.1-8.2-0.2-12.3-0.2
	c-2.8,0-9.1-1.2-11.4,0.7C315.8,490.2,324.4,498.9,323.6,503.4z"/>
<path class="st6" d="M323.6,503.4c-0.6,3.6-4.2,5.9-7.5,7.3s-7.1,2.6-9.3,5.5c-2.9,4-1.7,9.7,1,13.9c3,4.8,7.7,8.3,12.2,11.7
	c2,1.7,4.2,3,6.6,3.8c1.8,0.5,3.7,0.7,5.6,0.6c6.1,0,12.2-0.5,18.2-1.6c7.7-1.4,15.9-4.2,20-10.9c3.3-5.5,3.1-12.3,2.8-18.7
	c-3.6-0.3-6.9-2.3-9.9-4.2c-3.6-2.3-7.6-4.9-8.8-9c-1.2-4.3,0.7-9.6-2.2-13c-2-2.3-5.4-2.5-8.4-2.6c-4.1-0.1-8.2-0.2-12.3-0.2
	c-2.8,0-9.1-1.2-11.4,0.7C315.8,490.2,324.4,498.9,323.6,503.4z"/>
<circle class="st5" cx="337.6" cy="472" r="29.3"/>
<path class="st1" d="M398.9,543.2c-0.2,1.8-0.8,3.5-1.6,5c-0.3,0.4-0.6,0.8-0.9,1.2c-1.6,1.8-4,3-6.1,4.3c-6,3.7-12.7,8.4-13.9,15.3
	c-0.4,2.2-0.9,4.3-1.5,6.4c-1.4,4.8-3.2,9.4-4.3,14.2c-0.7,2.8-1,5.6-0.9,8.4c0,0.9,0.1,1.8,0.2,2.7c1,6.7,4.4,12.8,8.5,18.5
	c0.4,0.6,0.9,1.2,1.3,1.8l0.3,0.4h-95.7c0.2-0.6,0.3-1.2,0.5-1.8c0-0.1,0-0.2,0.1-0.3c1-3.8,1.8-7.6,2.4-11.5
	c0.5-3.4,0.8-6.9,0.9-10.4c0-3,0.7-6.3,3.2-8c0.2-0.6,0.3-1.2,0.5-1.8c2.2-9.1,2.2-18.6-0.1-27.6c-0.1-0.6-0.3-1.1-0.5-1.7
	c-0.1-0.2-0.1-0.5-0.2-0.8c-0.8-2.7-1.6-5.4-2.1-8.1c-0.6-3.3-0.7-6.8-2.5-9.6s-4.8-4.5-7.5-6.4c-1.3-0.9-2.5-2-3.5-3.2l0,0
	c-1.1-1.3-1.8-2.9-1.9-4.6c0-0.5,0-1,0.1-1.5c0.5-2.1,1.6-3.9,3-5.5c6.1-6.7,15.4-9.5,24.5-9.6l0,0c1.4,0,2.8,0,4.2,0.1
	c1.6,0,3.2,0.4,4.7,1.1c0.9,0.5,1.7,1.1,2.4,1.9c0.9,1.1,1.6,2.4,2,3.8c0.4,1.1,0.6,2.2,0.8,3.4c0.6,3.6,0.7,7.4,2.6,10.5
	c3.4,5.6,11.2,6.6,17.6,5.4c11.6-2.3,21.6-9.6,27.2-20c0.6-1.2,1.3-2.5,2-3.6c0.4-0.6,0.8-1.1,1.4-1.6c8.9,1.6,17.3,5.4,24.4,11
	c2.2,1.7,4.2,3.7,5.8,6C399,531.8,399.7,537.7,398.9,543.2z"/>
<path class="st5" d="M401.9,603.6c-0.8,2.8-2,5.4-3.7,7.9c-1.1,2.1-2.5,3.9-4.2,5.4c-3.5,2.8-8.5,2.7-13,2.5h-0.4l-2.2-0.1
	l-12.9-0.8c-3.4-0.1-6.8-0.5-10.2-1.1c-0.9-0.2-1.8-0.4-2.7-0.6c-5-1.3-9.9-3.3-15.1-3.6c-1.5-0.1-3,0-4.5,0h-0.4c-1,0-2-0.1-3-0.2
	c-1.6-0.2-3.2-0.8-4.9-0.8c-4.3-0.2-8.1,2.3-11.7,4.7l-1,0.6c-2.6,1.7-5.4,3-8.3,4.1h-17.3c-0.3-0.2-0.6-0.5-0.8-0.8
	c-0.3-0.3-0.6-0.7-0.8-1.1c0-0.1-0.1-0.2-0.1-0.3c-1.1-2.4-1.1-5.3,0-7.7c0.6-1.4,1.5-2.7,2.5-3.8c1.1-1.2,2.4-2.4,3.7-3.4
	c6.7-5.6,14.5-10.4,23.1-12c0.6-0.1,1.2-0.2,1.8-0.3c4.3-0.5,8.7-0.6,13-0.4l4.1,0.1l17,0.3h0.5c6.9,0.1,14,0.2,20.2-2.5
	c0.8-0.4,1.6-0.7,2.3-1.2c0.6-0.3,1.2-0.8,1.6-1.4c0.4-0.8,0.6-1.7,0.5-2.6l-0.1-9l-0.1-17.3l0,0c0-4.3,0-8.5-0.1-12.8
	c-0.3-2.7,0.6-5.4,2.5-7.3c2.5-3.1,8.6-14.2,12.9-14.4c0.8,0,1.5,0.2,2.1,0.6l0,0c3.7,2.4,3.7,11.7,3.8,14.8
	c0.1,3.4,0.2,6.9,0.5,10.3c0.8,14.1,2.5,28.1,5,42C402,595.4,402.8,599.6,401.9,603.6z"/>
<path class="st6" d="M401.9,603.6c-0.8,2.8-2,5.4-3.7,7.9c-1.1,2.1-2.5,3.9-4.2,5.4c-3.5,2.8-8.5,2.7-13,2.5h-0.4l-2.2-0.1
	l-12.9-0.8c-3.4-0.1-6.8-0.5-10.2-1.1c-0.9-0.2-1.8-0.4-2.7-0.6c-5-1.3-9.9-3.3-15.1-3.6c-1.5-0.1-3,0-4.5,0h-0.4c-1,0-2-0.1-3-0.2
	c-1.6-0.2-3.2-0.8-4.9-0.8c-4.3-0.2-8.1,2.3-11.7,4.7l-1,0.6c-2.6,1.7-5.4,3-8.3,4.1h-17.3c-0.3-0.2-0.6-0.5-0.8-0.8
	c-0.3-0.3-0.6-0.7-0.8-1.1c0-0.1-0.1-0.2-0.1-0.3c-1.1-2.4-1.1-5.3,0-7.7c0.6-1.4,1.5-2.7,2.5-3.8c1.1-1.2,2.4-2.4,3.7-3.4
	c6.7-5.6,14.5-10.4,23.1-12c0.6-0.1,1.2-0.2,1.8-0.3c4.3-0.5,8.7-0.6,13-0.4l4.1,0.1l17,0.3h0.5c6.9,0.1,14,0.2,20.2-2.5
	c0.8-0.4,1.6-0.7,2.3-1.2c0.6-0.3,1.2-0.8,1.6-1.4c0.4-0.8,0.6-1.7,0.5-2.6l-0.1-9l-0.1-17.3l0,0c0-4.3,0-8.5-0.1-12.8
	c-0.3-2.7,0.6-5.4,2.5-7.3c2.5-3.1,8.6-14.2,12.9-14.4c0.8,0,1.5,0.2,2.1,0.6l0,0c3.7,2.4,3.7,11.7,3.8,14.8
	c0.1,3.4,0.2,6.9,0.5,10.3c0.8,14.1,2.5,28.1,5,42C402,595.4,402.8,599.6,401.9,603.6z"/>
<path class="st7" d="M318.3,425.5c-2.5,0.4-5.4,1.1-6.7,3.2c-1.1,1.7-1,3.8-1.4,5.8c-0.6,3.1-2.4,6-4.9,7.9
	c-2.1,1.5-4.6,2.4-6.8,3.9s-4.1,3.8-3.8,6.4c0.2,2.3,2.1,4,2.9,6.1c1.6,3.9-0.3,8.2-2,12.1s-3.3,8.4-1.4,12.1c2.1,3.9,7.5,5.4,9,9.5
	c1.9,5-3,10.3-2.4,15.7c0.5,4.4,4.9,7.5,9.2,8.2c2.1,0.3,4.4,0.1,6-1.3s2.1-3.7,2.2-5.8c0.3-8.1-4.4-15.6-5.7-23.7
	c-0.4-2.7-0.5-5.5,0.7-7.9c0.8-1.5,2-2.8,2.7-4.3c1.4-3.3-0.2-7.2,1.3-10.5c0.8-1.4,1.8-2.8,2.8-4c0.9-1.3,1.5-3.1,0.8-4.6
	c2.6,1.6,4.6,4,6,6.8c1.9-0.4,1.8-4.4,3.7-3.9c0.5,0.2,0.8,0.7,1.2,1.2c1.4,1.5,3.6,2.1,5.5,1.5c1.9-0.7,3.6-1.9,4.9-3.5l3.2,3.9
	c0.6-1.4,2-2.3,3.5-2.2c1.5,0.1,2.9,0.6,4.1,1.4c6,3.6,10.5,10.9,8.2,17.5c-1,2.8-3,5.1-4.3,7.8s-1.7,6.3,0.5,8.4
	c0.4,0.4,1,0.8,1.4,1.3c1.6,1.8,0.6,4.7,1,7c0.8,4.3,5.9,6,10.1,7c3,0.7,6.6,1.2,8.7-1c2.3-2.4,1.3-6.3-0.1-9.3s-3-6.5-1.5-9.5
	s5.9-4,7.4-7.1c2-3.9-1.5-8.2-2.9-12.4c-1.9-5.7,0.2-12.1-1.4-18c-1-3-2.5-5.7-4.4-8.1c-4.7-6.3-10.3-12-17.2-15.7
	c-6.6-3.4-13.2-4-20.4-3.1C331.3,425,324.8,424.6,318.3,425.5z"/>
<path class="st1" d="M375.3,558.4c-0.6-0.3-1-0.9-1.1-1.6c-2.2-6.2-4.3-12.5-6.2-18.8c-0.4-1.1-0.6-2.3-0.5-3.5
	c0.5-1.5,1.4-2.8,2.7-3.7c3.3-2.7,7-4.9,10.9-6.4c2.9-1.1,7.1-3.1,10-1.3c3.6,2.3-0.2,8-1.5,11c-1.8,4.1-3.8,8.1-6,12
	C382.8,547.3,376.2,558.8,375.3,558.4z"/>
<path class="st5" d="M381,619.4c-0.3,0.5-0.6,0.9-0.9,1.3c-0.1,0.1-0.2,0.3-0.4,0.4c-0.1,0.1-0.3,0.3-0.5,0.4h-17.4
	c-2.9-1.1-5.7-2.5-8.3-4.1l-1-0.6c-3.6-2.3-7.4-4.9-11.7-4.7c-1.7,0.1-3.3,0.6-4.9,0.8c-1,0.1-2,0.2-3,0.2h-0.4c-1.5,0-3-0.1-4.5,0
	c-5.2,0.3-10,2.3-15.1,3.6c-0.9,0.2-1.8,0.5-2.7,0.6c-3.4,0.6-6.8,1-10.2,1.1l-15.2,0.9h-0.4c-4.5,0.3-9.4,0.3-13-2.5
	c-1.7-1.5-3.2-3.4-4.2-5.4c-1.6-2.4-2.9-5.1-3.7-7.9c-1-4-0.2-8.2,0.6-12.2c3.1-17.3,4.9-34.8,5.4-52.3c0.1-3.1,0.1-12.4,3.8-14.8
	c0.4-0.3,0.9-0.5,1.4-0.5l0,0c0.2,0,0.5,0,0.7,0c4.3,0.2,10.4,11.2,12.9,14.4c1.9,1.9,2.8,4.6,2.5,7.3c0,4.1,0,8.2-0.1,12.3
	c0,0.2,0,0.4,0,0.6c0,8.8-0.1,17.5-0.2,26.3c-0.1,0.9,0.1,1.8,0.5,2.6c0.1,0.2,0.3,0.4,0.5,0.6c0.3,0.3,0.7,0.5,1.1,0.8
	c6.6,3.9,14.8,3.9,22.5,3.7h0.5l17-0.3l4.1-0.1c4.3-0.2,8.7-0.1,13,0.4c0.6,0.1,1.2,0.2,1.8,0.3c6.6,1.4,12.9,4.2,18.3,8.3
	c1.7,1.2,3.3,2.4,4.9,3.7c2.5,2,4.9,4.3,6.2,7.2C382.1,614.1,382.1,616.9,381,619.4z"/>
<path class="st1" d="M291.3,558.4c0.6-0.3,1-0.9,1.1-1.6c2.2-6.2,4.3-12.5,6.2-18.8c0.4-1.1,0.6-2.3,0.5-3.5
	c-0.5-1.5-1.4-2.8-2.7-3.7c-3.3-2.7-7-4.9-10.9-6.4c-2.9-1.1-7.1-3.1-10-1.3c-3.6,2.3,0.2,8,1.5,11c1.8,4.1,3.8,8.1,6,12
	C283.8,547.3,290.4,558.8,291.3,558.4z"/>
<path class="st7" d="M832.4,444.9c6-1.5,10.6,8.4,16.6,7.2c3.3-0.6,5.8-4.5,9.2-4.2c3.8,0.3,5.4,5.5,7.3,9.3
	c3.4,6.6,10.2,10.5,16.7,9.7c2.1-2.7,1.7-6.9,0.6-10.3s-2.7-6.7-2.7-10.3c0-4.8,2.6-10.1,0.2-14c-1.8-3-5.6-3.2-8.3-5.1
	c-2.2-1.4-3.7-3.9-5.5-5.8c-2.9-3.2-6.8-5.3-11.1-5.9c-3.5-0.4-7.1,0.4-10.6,1.1l-16.4,3.5c-1,0.1-1.8,0.5-2.5,1.2
	c-0.7,1-1.1,2.2-1.3,3.4c-1.5,5.1-6.4,7.5-10.4,10.3s-7.7,8.4-5.5,13.2c1.2,2.7,4.2,4.3,4.5,7.4c0.3,2.7-1.7,4.9-3.3,6.9
	c-6.8,8.5,8.4,12.9,12,7.1C825.9,463.3,823.9,447,832.4,444.9z"/>
<path class="st5" d="M823.7,498.1c-1.4,1.8-3.3,3.4-4.4,5.4c-1.4,2.9-1.7,6.3-0.7,9.4c1,3,2.5,5.9,4.3,8.6c2.1,3.6,4.6,7,7.5,10
	c2.9,3,6.8,5,11,5.5c4.5,0.3,8.8-1.5,12.8-3.4c1.7-0.7,3.3-1.7,4.6-3c1-1.2,1.7-2.6,2.2-4.1l3.5-8.3c1-2,1.6-4.2,2-6.4
	c0.4-3.5-0.8-6.9-2-10.1l-6.3-17.5c-0.3-1-0.8-1.9-1.5-2.7c-0.7-0.5-1.5-0.8-2.3-1c-4-1-8.1-1.7-12.3-2c-3.1-0.2-10.1-1.3-12.8,0.4
	c-2.5,1.6-1.4,5.7-1.7,8.4C827.3,491.2,826,495,823.7,498.1z"/>
<path class="st6" d="M823.7,498.1c-1.4,1.8-3.3,3.4-4.4,5.4c-1.4,2.9-1.7,6.3-0.7,9.4c1,3,2.5,5.9,4.3,8.6c2.1,3.6,4.6,7,7.5,10
	c2.9,3,6.8,5,11,5.5c4.5,0.3,8.8-1.5,12.8-3.4c1.7-0.7,3.3-1.7,4.6-3c1-1.2,1.7-2.6,2.2-4.1l3.5-8.3c1-2,1.6-4.2,2-6.4
	c0.4-3.5-0.8-6.9-2-10.1l-6.3-17.5c-0.3-1-0.8-1.9-1.5-2.7c-0.7-0.5-1.5-0.8-2.3-1c-4-1-8.1-1.7-12.3-2c-3.1-0.2-10.1-1.3-12.8,0.4
	c-2.5,1.6-1.4,5.7-1.7,8.4C827.3,491.2,826,495,823.7,498.1z"/>
<circle class="st5" cx="844.5" cy="466.3" r="27.7"/>
<path class="st7" d="M905.9,535.5c0.1,7.6-2.9,15-5.9,22s-6.9,13.9-9.8,21.1c-0.2,0.6-0.5,1.2-0.7,1.8c-5.1,13.2-9.6,26.5-13.5,40.1
	l-0.3,1h-85.9c3.9-15,7.3-30-2.1-40.3c-0.3-0.3-0.6-0.7-0.9-1c-6.2-7.4-8.9-17.5-16.2-23.8c-1.7-1.5-3.6-2.7-4.7-4.7
	c-0.6-1.2-0.9-2.5-0.9-3.9c0-1.2,0.1-2.4,0.2-3.6c0.7-6.5,1.7-13.3,5.6-18.6c1.8-2.3,3.9-4.3,6.3-5.9c5.3-3.8,11.4-6.4,17.7-7.9
	c7.2-1.6,15.1-1.9,20.9-6.3c1.2-1.1,2.6-2.1,4-3l0.4-0.2c1.4-0.7,3.1-0.5,4.3,0.5c0.8,0.8,1.3,1.9,1.4,3c1.1,3.9,2.1,7.8,3.2,11.6
	c0.4,1.9,1.2,3.7,2.4,5.2c2.8,2.9,8.2,2.6,10.4,6c1.3,2.1,4.8-0.3,6.3-2.3c3.7-4.6,6.8-9.6,9.5-14.9c0.9-2.1,2.1-4.1,3.5-5.8
	c1-1.1,2.4-2,3.9-2.3c0.7-0.2,1.5-0.2,2.2-0.1c2.2,0.4,3.7,2.2,5.2,3.9c8.8,9.8,19.2,18.1,30.7,24.5c0.9,0.4,1.7,1,2.2,1.9
	c0.2,0.5,0.4,1.1,0.4,1.6C905.9,535.1,905.9,535.3,905.9,535.5z"/>
<path class="st7" d="M835.4,443.5c4.6-1,8.2,5.7,12.9,4.9c2.6-0.4,4.5-3,7.1-2.8c3,0.2,4.2,3.7,5.7,6.2c2.7,4.5,7.8,7,13,6.5
	c1.6-1.8,1.3-4.6,0.5-6.9s-2.1-4.5-2.1-6.9c0-3.2,2-6.8,0.2-9.4c-1.4-2-4.3-2.2-6.5-3.4c-1.7-1-2.8-2.6-4.2-3.9
	c-2.4-2.2-5.4-3.6-8.7-3.9c-2.8-0.1-5.5,0.1-8.2,0.8l-12.7,2.4c-0.7,0.1-1.4,0.3-2,0.8c-0.5,0.7-0.8,1.4-1,2.2c-1.2,3.4-5,5-8.1,6.9
	s-6,5.7-4.3,8.8c1,1.8,3.2,2.9,3.5,5c0.2,1.8-1.3,3.3-2.5,4.6c-5.2,5.7,6.5,8.6,9.3,4.8C830.3,455.8,828.8,444.9,835.4,443.5z"/>
<path class="st7" d="M918.9,621.5h-23.4c0.4-9.6-3.5-19.3-4-29.1c-0.2-3.7,0.1-7.4-0.6-11c-0.2-0.9-0.4-1.9-0.8-2.8
	c-0.6-1.8-1.3-3.7-1.9-5.5c-1.9-6.2-1.8-12.8-1.7-19.3c0.1-7.2,0.2-14.3,0.3-21.4c0-1.9-0.5-4.6,1.1-5.4c3.8-1.8,7.8,1.7,11.3,4
	c2.1,1.4,4.5,2.5,6.5,4c1.2,0.8,2.3,1.9,3.1,3.1c1,1.7,1.7,3.5,2.1,5.4c2.8,10.8,5.3,21.7,7.4,32.7c1,4.8,1.7,9.6,2,14.5
	C921,600.9,918.9,611.3,918.9,621.5z"/>
<path class="st7" d="M773.6,610.3c-1,2.4-2.1,5-1.9,7.7c0.1,1.2,0.4,2.4,0.8,3.5h-21.2c-1.1-3.6-1.9-7.3-2.4-11
	c-1-7.2-0.5-14.6,0.5-21.9c0.6-5.6,1.9-11.2,3.7-16.6c2.5-6.9,6.3-13.1,9.7-19.6c0.8-1.5,1.5-3.2,2.3-4.7c1.8-3.3,4.1-5.7,8.7-3.5
	c11.4,5.5,16.3,24.7,13.1,35.9c0,0,0,0.1,0,0.1c-0.9,2.8-2,5.6-3.4,8.3C780,595.7,776.7,603,773.6,610.3z"/>
<path class="st8" d="M588,430.9c2.3,0.8,4.2,2.4,5.3,4.5c0.9,1.9,0.9,4.1,1.5,6.1c1.3,4.2,5.2,7,7.7,10.7c3.3,5,3.7,11.4,3.5,17.4
	s-1,12.1,0.5,18c0.7,2.8,1.9,5.5,2.4,8.4c0.6,3.5,0.1,7.2,1,10.6c0.8,3.1,2.6,5.9,4.5,8.5l7.8,11.4c-3.5-0.8-6.9-1.9-10.3-3.1
	c1,3.3,3,6.2,5.5,8.4l-5.6-6.8c-1.1-1.6-2.6-2.9-4.2-4c-2.1-1.2-4.5-1.3-6.8-1.8c-4.5-0.9-8.9-3.2-11.1-7.2c-2.9-5.3-1-12-2.7-17.9
	c-1.2-4.3-4.1-7.8-6.2-11.8c-4.6-8.9-4.3-19.5-5.8-29.4c-0.6-4.2-1.6-8.4-1.6-12.7c0-3.2,0.3-9.1,3.6-10.7
	C580,428.2,585.3,429.8,588,430.9z"/>
<path class="st9" d="M591.4,502.5c0.5,5.2,1.6,11.4,6.3,13.6c2.7,1.2,5.8,0.8,8.7,1.3c5.5,0.9,10,5.1,12.6,10.1s3.4,10.6,4,16.2
	c0.8,7,1,14.5-2.8,20.4c-3.1,4.8-8.4,7.6-13.9,9.1c-11.1,2.9-23,0.7-32.4-6c-4.5-3.3-8.3-7.5-11.9-11.8
	c-7.9-9.2-15.9-19.3-17.5-31.4c-0.2-1.4-0.2-3,1-3.8c0.8-0.4,1.7-0.6,2.5-0.5l7.6,0.1c1.9,0,4.1,0,5.4-1.5s1.2-3.3,1.2-5
	c-0.2-7.3-0.4-14.7-0.6-22c-0.1-0.8,0.1-1.6,0.5-2.2c0.5-0.4,1.1-0.7,1.8-0.8c4.2-0.7,8.6,0,12.7-1.1c3.9-1.1,10-5.5,12.9-1
	C591.9,489.9,591,498,591.4,502.5z"/>
<path class="st6" d="M591.4,502.5c0.5,5.2,1.6,11.4,6.3,13.6c2.7,1.2,5.8,0.8,8.7,1.3c5.5,0.9,10,5.1,12.6,10.1s3.4,10.6,4,16.2
	c0.8,7,1,14.5-2.8,20.4c-3.1,4.8-8.4,7.6-13.9,9.1c-11.1,2.9-23,0.7-32.4-6c-4.5-3.3-8.3-7.5-11.9-11.8
	c-7.9-9.2-15.9-19.3-17.5-31.4c-0.2-1.4-0.2-3,1-3.8c0.8-0.4,1.7-0.6,2.5-0.5l7.6,0.1c1.9,0,4.1,0,5.4-1.5s1.2-3.3,1.2-5
	c-0.2-7.3-0.4-14.7-0.6-22c-0.1-0.8,0.1-1.6,0.5-2.2c0.5-0.4,1.1-0.7,1.8-0.8c4.2-0.7,8.6,0,12.7-1.1c3.9-1.1,10-5.5,12.9-1
	C591.9,489.9,591,498,591.4,502.5z"/>
<circle class="st9" cx="572.3" cy="472" r="29"/>
<path class="st3" d="M636.9,596.4c-0.2,1.2-0.5,2.4-0.8,3.5c-0.9,2.7-2,5.3-3.2,7.9c-0.5,1.1-0.9,2.1-1.3,3.2
	c-0.3,0.9-0.5,1.7-0.8,2.6s-0.5,2.1-0.7,3.1c-0.3,1.5-0.5,3.1-0.6,4.7h-75.8c0.3-3.8,0.2-7.7-0.4-11.5c-1-5.2-2.6-10.3-4.7-15.2
	c-4.8-12.4-10.2-25-13.2-37.9c0,0,0,0,0,0c-2.1-8.4-2.7-17.1-1.8-25.6c0.1-0.5,0.1-1,0.2-1.5c0.2-1.3,0.4-2.6,0.7-3.9
	c0.7-3.6,2.4-7,4.8-9.8c3.4-3.7,9.2-5.5,13.6-3.1c2.7,1.4,4.3,3.9,5.6,6.7c0.8,1.8,1.5,3.6,2.3,5.4c2.7,6.4,6.6,12.2,11.5,17.2
	c0.9,1,1.9,1.9,2.9,2.8s1.9,1.6,2.9,2.4c3.2,2.5,7.1,5.6,11.3,5.7c2.4,0.1,4.9,0,7.4,0c2.2,0,4.4-0.1,6.6,0c4.7,0.1,10-1.2,12.3-5.3
	c1.5-2.8,1.3-6.2,1-9.4c-0.2-2.5-0.5-5-0.7-7.5c0-0.1,0-0.3,0-0.4c-0.2-1.8-0.3-3.6-0.5-5.4l0,0c-0.1-0.9-0.2-1.8-0.2-2.6l0,0
	l-0.2-1.9c0.8-0.1,1.7-0.2,2.5-0.2c3.8-0.3,7.7-0.2,10.9,1.6c3.1,1.8,5,4.8,6.2,8.2c0.8,2.4,1.3,4.9,1.6,7.5
	c1.1,11.3-0.7,22.8-0.1,34.2C636.6,579.7,638.4,588.3,636.9,596.4z"/>
<path class="st9" d="M654.2,621.5h-22.9c-0.2-2.6-0.3-5.2-0.4-7.8c-0.1-1.8-0.1-3.6-0.2-5.4c-0.1-4.9-0.1-9.7,0.1-14.5
	c4.5,2.6,9.6,4,14.8,4.2c2.1,2.3,3.8,5,5,7.9c0.7,1.6,1.3,3.2,1.7,4.9c0,0,0,0,0,0.1C653.2,614.3,653.9,617.9,654.2,621.5z"/>
<path class="st3" d="M652.2,605.8c-8.7,0.1-17.3,1.2-25.7,3.4c-1.1-5.5-0.6-11.1,0-16.7l3.7-38.2c0.3-2.8-0.2-28.8,5.2-24.2
	c2,1.7,4.6,16.9,5.2,19.3c1,3.7,1.7,7.4,2.4,11.2c1.4,7.7,2.3,15.4,3.6,23.1C647,585.9,650.3,605.8,652.2,605.8z"/>
<path class="st8" d="M583.3,435c0-0.9-0.2-1.8-0.6-2.6c-0.8-1-1.9-1.6-3.1-1.6c-4.2-0.6-8.8,1-12.6-0.9c-2-1-3.5-3-5.5-4.1
	c-4.7-2.7-10.7,0-14.9,3.5c-6.7,5.5-11.5,12.9-13.9,21.2c-1.9,6.4-2.6,13.9-7.9,18c-2.2,1.7-5,2.6-6.7,4.8c-1.2,1.7-1.5,3.9-1.8,6
	c-0.5,4.9-1,9.9,0.3,14.6c1,3.5,2.8,6.7,4,10.2c3.2,10,0.4,21-7.4,28.2c1.9,1.2,4.3,1.6,6.5,1.1c0,1-0.4,2-0.9,2.9
	c6.8-0.2,12.7-6.8,19.4-5.4c5.1,1.1,7.9,6.3,11.7,9.9c4.9,4.6,12.5,6.5,18.6,3.8s9.8-10.5,7.2-16.6c-3-7-12.1-9.8-15.3-16.8
	c-2.5-5.4-0.6-11.7-1.2-17.6c-0.5-5.1-2.6-9.8-4-14.7s-1.8-10.5,1-14.7c2.9-4.5,8.6-6.3,13.7-8C581.6,452.6,583.8,446.7,583.3,435z"
	/>
<path class="st9" d="M576.2,539.5c0.8-4,1.7-8.4,0.2-12.2c-2.7-7.2-11.6-9.5-17.8-14.1c-3.6-2.7-6.3-6.4-7.9-10.5
	c-1.1-2.9-1.3-7,1.5-8.5c1.1-0.5,2.3-0.7,3.4-0.6c9.6,0.2,18.4,5.4,25.7,11.6c4.3,3.6,8.3,7.7,10.5,12.8c1.5,3.7,2,7.6,2.4,11.5
	l1.5,13c1,7.5,1.6,15,1.7,22.5c0,4.3-0.3,8.6-0.8,12.9c-0.4,3-1,6.2-2.7,8.7c-3.3,4.6-9.7,5.7-15.4,5.8c-2.2,0.1-4.3,0-6.4-0.4
	c-9.5-2.1-16.7-15.3-9.5-23.5c3-3.5,7.6-3.6,9.3-8.3C574.3,553.8,574.8,546.1,576.2,539.5z"/>
<path class="st3" d="M568.5,541.8L576,554c0.4,0.6,0.8,1.4,0.9,2.1c0.2,1.6-1,3-1.9,4.3c-6.4,8.8-4.8,20.9-2.9,31.6
	c-21-6.6-36.3-24.7-39.5-46.5c-0.9-6.4-2.5-16.9,3.2-21.1C549.5,514.4,562.1,531.3,568.5,541.8z"/>
<path class="st8" d="M606.5,517.3c-2.9-0.5-6,0-8.7-1.3c-4.8-2.2-5.8-8.3-6.3-13.6c0-0.5-0.1-1-0.1-1.6c1.7-1.8,3.6-3.4,5.5-4.8
	c1.8-1,3.7-1.9,5.7-2.5l5.3-1.9c0.5,1.4,0.9,2.8,1.1,4.3c0.6,3.5,0.1,7.2,1,10.6c0.8,3.1,2.6,5.9,4.5,8.5l7.8,11.4
	c-1.4-0.3-2.8-0.7-4.2-1.1C615.3,521.3,611.2,518.1,606.5,517.3z"/>
<path class="st10" d="M106.9,716.6c3-5.5-0.4-12.3-4.3-17.2s-8.6-10-8.5-16.3c0.2-9,9.7-14.3,17.3-19.1c5.7-3.5,10.9-7.7,15.6-12.5
	c2-1.8,3.6-4,4.8-6.4c1.6-3.5,1.5-7.5,1.4-11.4c-0.3-12.8-1-25.7-1.9-38.5"/>
<path class="st3" d="M145.8,594.6c-0.2-4.8-2.9-9.1-7-11.5l-3.1,6.2l0.1-7.5c-1.5-0.4-3.1-0.6-4.6-0.6c-7.7,0.4-13.7,7-13.3,14.7
	c0.4,7.7,7,13.7,14.7,13.3C140.2,608.8,146.1,602.3,145.8,594.6L145.8,594.6z"/>
<path class="st3" d="M120.8,689.6c-3.5,6.9-12,9.6-18.9,6c-6.9-3.5-9.6-12-6-18.9s12-9.6,18.9-6c3.1,1.6,5.5,4.3,6.7,7.6l-8.8,7.1
	l9.6-2.2C122.3,685.4,121.8,687.6,120.8,689.6z"/>
<path class="st3" d="M113.8,662.3c-7.7,0.5-14.4-5.3-15-13c-0.5-6.8,3.9-12.9,10.5-14.6l-0.1,5.8l3.2-6.3l0,0
	c7.7-0.4,14.3,5.5,14.7,13.3c0,0.1,0,0.1,0,0.2c0.1,1.6-0.1,3.2-0.6,4.8C124.8,658.1,119.7,662.1,113.8,662.3z"/>
<path class="st3" d="M147.9,639.7c-7.7,0.3-14.2-5.7-14.5-13.5c-0.3-7.7,5.7-14.2,13.5-14.5c2.5-0.1,5,0.5,7.2,1.7l-2.5,6.8l5.1-4.9
	c2.7,2.5,4.4,6,4.5,9.7c0.1,1.3-0.1,2.6-0.4,3.9C159.5,635,154.2,639.4,147.9,639.7z"/>
<path class="st6" d="M143.9,598.3c-3.2,0.3-6.4,1.4-9.6,1.6s-6.8-0.6-8.9-3.1c-1.1-1.4-1.7-3.1-2.6-4.6c-0.9-1.4-2.1-2.5-3.5-3.3
	c-3.3,7-0.4,15.3,6.6,18.7c7,3.3,15.3,0.4,18.7-6.6c0.4-0.9,0.8-1.8,1-2.8C145,598.2,144.4,598.3,143.9,598.3z"/>
<path class="st6" d="M147.9,639.7c-7.7,0.4-14.3-5.6-14.7-13.3c-0.1-2.3,0.3-4.6,1.3-6.7c1.1,0.7,2.1,1.7,2.8,2.8
	c1,1.5,1.6,3.3,2.8,4.6c2.2,2.6,5.9,3.4,9.3,3.3s6.7-1.1,10-1.4c0.5,0,0.9-0.1,1.4-0.1C159.5,635,154.2,639.4,147.9,639.7z"/>
<path class="st6" d="M113.8,662.3c-7.7,0.4-14.3-5.6-14.7-13.3c-0.1-2.2,0.3-4.5,1.2-6.5c1.2,0.8,2.2,1.7,3,2.8
	c1.1,1.5,1.8,3.3,3,4.7c2.4,2.6,6.3,3.6,9.9,3.5s6.8-0.9,10.3-1.2C124.9,658.1,119.8,662.1,113.8,662.3z"/>
<path class="st6" d="M120.8,689.6c-3.2,7.1-11.5,10.2-18.5,7.1c-7.1-3.2-10.2-11.5-7.1-18.5c1.2,0.8,2.2,1.7,3.1,2.8
	c1.3,1.6,2.2,3.5,3.8,5c2.9,2.8,7.5,4,11.6,4.1C116,690,118.4,689.9,120.8,689.6z"/>
<path class="st11" d="M85.7,710.3c0,0,11.1-0.3,14.4-2.7s17-5.2,17.9-1.4s16.6,19,4.1,19.1s-29.1-1.9-32.4-4S85.7,710.3,85.7,710.3z
	"/>
<path class="st12" d="M122.4,723.9c-12.5,0.1-29.1-2-32.4-4c-2.5-1.5-3.6-7.1-3.9-9.7h-0.4c0,0,0.7,8.9,4,11s19.9,4.1,32.4,4
	c3.6,0,4.9-1.3,4.8-3.2C126.4,723.2,125.1,723.9,122.4,723.9z"/>
<path class="st10" d="M1032.6,703c5.3-9.8-0.7-21.8-7.6-30.6c-6.9-8.8-15.3-17.8-15.1-29c0.3-16,17.3-25.5,30.8-34
	c10.1-6.3,19.4-13.8,27.7-22.3c3.3-3.4,6.6-7,8.5-11.4c2.8-6.3,2.7-13.4,2.6-20.2c-0.6-22.8-1.7-45.7-3.4-68.5"/>
<path class="st3" d="M1101.9,485.9c-0.4-8.5-5.1-16.2-12.5-20.5l-5.6,11.1l0.2-13.4c-13.2-3.9-27.1,3.6-31.1,16.9
	c-3.9,13.2,3.6,27.1,16.9,31.1c13.2,3.9,27.1-3.6,31.1-16.9C1101.7,491.5,1102,488.7,1101.9,485.9L1101.9,485.9z"/>
<path class="st3" d="M1057.3,654.9c-6.3,12.3-21.4,17.1-33.7,10.8c-12.3-6.3-17.1-21.4-10.8-33.7s21.4-17.1,33.7-10.8
	c5.6,2.9,9.9,7.7,12,13.6l-15.6,12.7l17.2-4C1060.1,647.5,1059.2,651.4,1057.3,654.9z"/>
<path class="st3" d="M1045.1,606.4c-13.8,0.5-25.4-10.2-26-24c-0.5-11.5,7-21.8,18-25l-0.1,10.3l5.7-11.2h0.1
	c13.7-1.3,26,8.7,27.3,22.4s-8.7,26-22.4,27.3C1046.8,606.4,1045.9,606.4,1045.1,606.4L1045.1,606.4z"/>
<path class="st3" d="M1105.6,566.1c-13.8,0.7-25.6-9.9-26.3-23.6c-0.7-13.8,9.9-25.6,23.6-26.3c4.8-0.3,9.5,0.9,13.6,3.2l-4.4,12.1
	l9.1-8.7c4.9,4.4,7.8,10.6,8.1,17.2c0.1,2.3-0.1,4.6-0.6,6.9C1126.2,557.7,1116.7,565.6,1105.6,566.1z"/>
<path class="st6" d="M1098.5,492.6c-5.8,0.6-11.4,2.4-17.2,2.8s-12.1-1-15.8-5.5c-2-2.4-3-5.5-4.6-8.1c-1.6-2.5-3.7-4.5-6.3-5.9
	c-6.4,12.3-1.6,27.3,10.7,33.7c12.3,6.4,27.3,1.6,33.7-10.7c1.1-2,1.8-4.2,2.3-6.5C1100.4,492.4,1099.4,492.5,1098.5,492.6z"/>
<path class="st6" d="M1105.6,566.1c-13.8,0.6-25.5-10.1-26.1-23.8c-0.2-4.1,0.6-8.1,2.3-11.8c2,1.3,3.7,3,5,5c1.8,2.7,2.8,5.8,5,8.2
	c3.9,4.6,10.5,6.1,16.6,5.8s11.8-2,17.8-2.5c0.8-0.1,1.7-0.1,2.5-0.2C1126.2,557.7,1116.8,565.6,1105.6,566.1z"/>
<path class="st6" d="M1045.1,606.4c-13.8,0.6-25.5-10-26.1-23.8c-0.2-3.9,0.6-7.8,2.1-11.3c2.1,1.4,3.8,3.1,5.3,5.1
	c1.9,2.7,3.2,5.9,5.4,8.4c4.2,4.7,11.3,6.3,17.7,6.2c6.2-0.1,12.1-1.7,18.3-2.1C1064.6,598.9,1055.5,605.9,1045.1,606.4z"/>
<path class="st6" d="M1057.3,654.9c-6.5,12.2-21.7,16.7-33.9,10.2c-10.9-5.9-15.9-18.9-11.7-30.6c2.1,1.3,3.9,3,5.5,4.9
	c2.4,2.9,3.9,6.2,6.7,8.9c5.1,5,13.4,7.1,20.7,7.3C1048.9,655.6,1053.1,655.4,1057.3,654.9z"/>
<path class="st11" d="M995,691.7c0,0,19.7-0.6,25.6-4.8c5.9-4.2,30.3-9.3,31.8-2.5s29.6,33.7,7.4,33.9s-51.7-3.5-57.6-7.1
	S995,691.7,995,691.7z"/>
<path class="st12" d="M1060.2,715.9c-22.2,0.2-51.7-3.5-57.6-7.1c-4.5-2.8-6.3-12.6-6.9-17.2H995c0,0,1.2,15.9,7.2,19.5
	s35.4,7.2,57.6,7.1c6.4,0,8.6-2.3,8.5-5.7C1067.4,714.6,1065,715.9,1060.2,715.9z"/>
</svg>
