<svg xmlns="http://www.w3.org/2000/svg" viewBox="0 0 234.48 198.42"><defs><style>.cls-1{fill:#f7f8f8;}</style></defs><title>アセット 1</title><g id="レイヤー_2" data-name="レイヤー 2"><g id="レイヤー_1-2" data-name="レイヤー 1"><path class="cls-1" d="M114.3,39.76c9.6-12.22,11.64-32-1.8-38.06C108.93.1,98.93-.55,99.64,2.47c5.63,24.07-71,62-96.37,115.44-1.2,2.19-.11,6.09,1.23,4.47C35.09,85.54,92.45,67.55,114.3,39.76Z"/><path class="cls-1" d="M41.47,163.1c-10.73-2.63-19.54-7.24-25.78-13.35-1.34-1.31-1.82-2.42,1.33-2.5,31.65-.78,40.91,15.19,51.61,10.33,7-3.17,14-2.94,20.48,2.64,1.1.95.34,1.65-.42,1.85C72.6,166.28,56,166.67,41.47,163.1ZM233.53,92.73c-9.43.88-19.22-2.43-22.49-3.53-8.83-3-14.53-.6-17.42,3.42-8.32,11.62-39.66,44.31-77.6,62.1-2.5,1.18-2.72-.41-.78-1.62,4.75-3,11.35-6.67,17.66-11.35,2.58-1.91,2.23-3.14-.89-1.78-13.4,5.87-27.83,11.47-36.72,14-2.05.59-1.62,1.47.1,1.48,20.49.1,30,9.86,39.17,10.18,1.74.06,2,1.05,0,2.09-9.49,5.1-22.46,7.75-37.85-2.05-2-1.26-3-.88-3.63-.71-23.55,7-47.85,5.69-65.54-2.49-2.71-1.25-3.94.47-1.94,2.69A100.16,100.16,0,0,0,200.31,98.27c0-6.42,6.53-4.3,8.72-3.76,11.72,2.92,17.83,3.64,24.38.21C234.75,94,234.88,92.61,233.53,92.73Z"/><path class="cls-1" d="M2.94,111.2C26.3,61,78.92,40.13,86,4.53,86.74.87,82.26-.3,80.45.06A100.18,100.18,0,0,0,0,98.27c0,2.93.17,5.83.38,8.7C.66,110.82,2.17,112.85,2.94,111.2Z"/><path class="cls-1" d="M141.3,15.33C124.46,69.25,46.66,77.82,6.07,127.53c-2.12,2.4.11,4.81,1.45,3.47,43.22-36.39,102-32.11,136.87-59.35,19.13-14.94,23.4-42.43,6.15-57.8C148.87,12.36,142.5,11.49,141.3,15.33Z"/><path class="cls-1" d="M197.47,44.53a38.21,38.21,0,0,0-6.22,6.74,1.1,1.1,0,0,1-1.61-.24,31.62,31.62,0,0,0-3.24-5.6c-1.25-1.71-7.12-4.66-8.58-.27C155.69,111.61,60,89.91,9.54,134.8c-2.13,1.89-1.14,4.36,1.56,2.77,42.56-25,104.4-18.23,132.89-23.63,18.58-3.51,30.26-10.66,40.37-21.65,14.5-15.77,7.79-35.2,14-46.87C199,44.24,198.5,43.66,197.47,44.53Z"/></g></g></svg>