<svg xmlns="http://www.w3.org/2000/svg" viewBox="0 0 45.71 301.94"><defs><style>.cls-1{fill:#dcdddd;}</style></defs><title>アセット 1</title><g id="レイヤー_2" data-name="レイヤー 2"><g id="レイヤー_1-2" data-name="レイヤー 1"><path class="cls-1" d="M44.63,221.66c1-.13,1.51-.59.61-1.55-2.8-3-2.18-8-6.7-9.48,4.52-1.44,3.9-6.51,6.7-9.48.9-1,.41-1.42-.61-1.55-8.9-1.09-10.41,7.74-13.68,9.74a1.35,1.35,0,0,0-.75,1.29,1.37,1.37,0,0,0,.75,1.3C34.22,213.92,35.73,222.75,44.63,221.66Z"/><path class="cls-1" d="M43.5,20.14v-15C43.5.54,40,0,37.35,0H2.61A2.52,2.52,0,0,0,0,2.66,2.5,2.5,0,0,0,2.61,5.28H17.12a3,3,0,0,1,3,3V18.63a2.43,2.43,0,0,0,2.56,2.51,2.4,2.4,0,0,0,2.51-2.51V8.28a3,3,0,0,1,3-3h7.24a3,3,0,0,1,3,3V20.14a2.54,2.54,0,0,0,5.07,0Z"/><path class="cls-1" d="M16.27,56.66a3,3,0,0,1,4.3,1.21,9.77,9.77,0,0,0,1.07,1.68c2.75,3.45,7.28,4,9.73,4,3.61,0,6.4-.86,8.54-2.62,3.59-3,3.59-6.77,3.59-9.56V46.66C43.5,42,40,41.5,37.35,41.5H2.61a2.64,2.64,0,0,0,0,5.27H35.43a3,3,0,0,1,3,3v.63c0,3.31,0,7.84-7,7.84-5.73,0-6.56-2.35-7.15-4-1.56-4.37-6.67-4.46-9.9-2.38C9.29,55.12,1.29,60.12,1.29,60.12A2.39,2.39,0,0,0,0,62.2,2.71,2.71,0,0,0,2.51,65a3.07,3.07,0,0,0,1.82-.71Z"/><path class="cls-1" d="M5.9,104V91.48a3,3,0,0,1,3-3h8.48a3,3,0,0,1,3,3v10.35A2.43,2.43,0,0,0,23,104.34a2.46,2.46,0,0,0,2.5-2.51V91.48a3,3,0,0,1,3-3h7a3,3,0,0,1,3,3v11.86a2.37,2.37,0,0,0,2.51,2.45,2.4,2.4,0,0,0,2.56-2.45v-15c0-4.62-3.51-5.16-6.15-5.16H7C2.73,83.2.83,84.79.83,88.36V104a2.4,2.4,0,0,0,2.56,2.46A2.38,2.38,0,0,0,5.9,104Z"/><path class="cls-1" d="M5.9,145.61V133.08a3,3,0,0,1,3-3h8.48a3,3,0,0,1,3,3v10.35a2.54,2.54,0,0,0,5.07,0V133.08a3,3,0,0,1,3-3h7a3,3,0,0,1,3,3v11.86a2.37,2.37,0,0,0,2.51,2.45,2.4,2.4,0,0,0,2.56-2.45V130c0-4.63-3.51-5.16-6.15-5.16H7C2.73,124.8.83,126.39.83,130v15.65a2.4,2.4,0,0,0,2.56,2.46A2.38,2.38,0,0,0,5.9,145.61Z"/><path class="cls-1" d="M28.59,210.76A2.5,2.5,0,0,0,26,208.15H2.61A2.47,2.47,0,0,0,0,210.81a2.53,2.53,0,0,0,2.61,2.67H26A2.56,2.56,0,0,0,28.59,210.76Z"/><path class="cls-1" d="M44.33,257.05c0-1.82-1.28-2.31-2.39-2.54L19.6,249.64c-1.37-.31-3-.51-3-1.92s1.67-1.78,3-2.09l22.28-4.86c1.17-.23,2.45-.73,2.45-2.6a2.65,2.65,0,0,0-2.51-2.77,5.22,5.22,0,0,0-1.06.15L3.88,243.79c-2.52.54-3.88,1.33-3.88,4,0,2.09,1,3.1,3.86,3.73l36.87,8.25a5.18,5.18,0,0,0,1.09.15A2.68,2.68,0,0,0,44.33,257.05Z"/><path class="cls-1" d="M5.9,299.48V286.94a3,3,0,0,1,3-3h8.48a3,3,0,0,1,3,3V297.3A2.43,2.43,0,0,0,23,299.8a2.46,2.46,0,0,0,2.5-2.5V286.94a3,3,0,0,1,3-3h7a3,3,0,0,1,3,3V298.8a2.38,2.38,0,0,0,2.51,2.46,2.4,2.4,0,0,0,2.56-2.46v-15c0-4.63-3.51-5.16-6.15-5.16H7c-4.25,0-6.15,1.59-6.15,5.16v15.65a2.4,2.4,0,0,0,2.56,2.46A2.38,2.38,0,0,0,5.9,299.48Z"/><path class="cls-1" d="M43.5,174.78v-3.12c0-4.67-3.51-5.21-6.15-5.21H10.11c-2.48,0-2.47,5.33,0,5.33H35.43a3,3,0,0,1,3,3c0,2.6-.67,4-2.56,5.44-3.83,2.88-12.09,3-13.7,3-4.25,0-11.84-.55-15.07-4.25a6.17,6.17,0,0,1-1.31-4.16v-5.92c0-1.86-1.08-2.47-2.65-2.47-2,0-2.31,1.45-2.31,2.5v5.83A11.54,11.54,0,0,0,3,182c3.38,4.34,9.84,6.56,19.19,6.56,7.38,0,13.82-1.68,17.21-4.48C43,181.13,43.5,177.87,43.5,174.78Z"/></g></g></svg>