<svg xmlns="http://www.w3.org/2000/svg" viewBox="0 0 301.94 278.96"><defs><style>.cls-1{fill:#fff}</style></defs><g id="レイヤー_2" data-name="レイヤー 2"><g id="レイヤー_1-2" data-name="レイヤー 1"><path class="cls-1" d="M221.66 234.32c-.13-1-.59-1.5-1.55-.61-3 2.8-8 2.19-9.48 6.71-1.44-4.52-6.51-3.91-9.48-6.71-1-.89-1.42-.4-1.55.61-1.09 8.91 7.74 10.41 9.74 13.68a1.35 1.35 0 001.29.75 1.37 1.37 0 001.3-.75c1.99-3.27 10.82-4.77 9.73-13.68zM20.14 235.46h-15C.54 235.46 0 239 0 241.61v34.73A2.53 2.53 0 002.66 279a2.51 2.51 0 002.62-2.62v-14.55a3 3 0 013-3h10.35a2.54 2.54 0 000-5.07H8.28a3 3 0 01-3-3v-7.23a3 3 0 013-3h11.86a2.54 2.54 0 000-5.07zM56.66 262.69a3 3 0 011.21-4.31 9.15 9.15 0 001.68-1.06c3.45-2.76 4-7.28 4-9.73 0-3.61-.86-6.4-2.62-8.54-3-3.59-6.77-3.59-9.56-3.59h-4.71c-4.63 0-5.16 3.51-5.16 6.15v34.73a2.64 2.64 0 005.27 0v-32.81a3 3 0 013-3h.63c3.31 0 7.84 0 7.84 7 0 5.72-2.35 6.56-4 7.15-4.37 1.56-4.46 6.66-2.38 9.89 3.27 5.09 8.27 13.08 8.27 13.08A2.39 2.39 0 0062.2 279a2.72 2.72 0 002.8-2.55 3.07 3.07 0 00-.71-1.82zM104 273.06H91.48a3 3 0 01-3-3v-8.49a3 3 0 013-3h10.35a2.42 2.42 0 002.51-2.56 2.47 2.47 0 00-2.51-2.51H91.48a3 3 0 01-3-3v-7a3 3 0 013-3h11.86a2.37 2.37 0 002.45-2.51 2.4 2.4 0 00-2.45-2.56h-15c-4.62 0-5.16 3.51-5.16 6.15V272c0 4.25 1.59 6.14 5.16 6.14H104a2.4 2.4 0 002.46-2.56 2.37 2.37 0 00-2.46-2.52zM145.61 273.06h-12.53a3 3 0 01-3-3v-8.49a3 3 0 013-3h10.35a2.43 2.43 0 002.51-2.56 2.47 2.47 0 00-2.51-2.51h-10.35a3 3 0 01-3-3v-7a3 3 0 013-3h11.86a2.37 2.37 0 002.45-2.51 2.4 2.4 0 00-2.45-2.56H130c-4.63 0-5.16 3.51-5.16 6.15V272c0 4.25 1.59 6.14 5.16 6.14h15.65a2.4 2.4 0 002.46-2.56 2.37 2.37 0 00-2.5-2.52zM210.76 250.37a2.49 2.49 0 00-2.61 2.61v23.36a2.47 2.47 0 002.66 2.62 2.53 2.53 0 002.67-2.62V253a2.55 2.55 0 00-2.72-2.63zM257.05 234.63c-1.82 0-2.31 1.27-2.54 2.38l-4.87 22.34c-.31 1.38-.51 3-1.92 3s-1.78-1.66-2.09-3l-4.86-22.27c-.23-1.17-.73-2.45-2.6-2.45a2.65 2.65 0 00-2.77 2.51 5.31 5.31 0 00.15 1.06l8.24 36.87c.54 2.53 1.33 3.89 4 3.89 2.09 0 3.1-1 3.73-3.86l8.25-36.88a5 5 0 00.15-1.08 2.68 2.68 0 00-2.87-2.51zM299.48 273.06h-12.54a3 3 0 01-3-3v-8.49a3 3 0 013-3h10.36a2.42 2.42 0 002.5-2.56 2.47 2.47 0 00-2.5-2.51h-10.36a3 3 0 01-3-3v-7a3 3 0 013-3h11.86a2.38 2.38 0 002.46-2.51 2.4 2.4 0 00-2.46-2.56h-15c-4.63 0-5.16 3.51-5.16 6.15V272c0 4.25 1.59 6.14 5.16 6.14h15.65a2.4 2.4 0 002.46-2.56 2.37 2.37 0 00-2.43-2.52zM174.78 235.46h-3.12c-4.67 0-5.21 3.51-5.21 6.15v27.23c0 2.49 5.33 2.47 5.33 0v-25.31a3 3 0 013-3c2.6 0 4 .67 5.44 2.56 2.88 3.82 3 12.08 3 13.7 0 4.24-.55 11.84-4.25 15.07a6.22 6.22 0 01-4.16 1.31h-5.92c-1.86 0-2.47 1.07-2.47 2.64 0 2 1.45 2.31 2.5 2.31h5.83A11.6 11.6 0 00182 276c4.34-3.39 6.56-9.85 6.56-19.19 0-7.39-1.68-13.82-4.48-17.21-2.95-3.6-6.21-4.14-9.3-4.14zM165.11 39.76c9.61-12.22 11.64-32-1.8-38.06-3.57-1.6-13.56-2.25-12.86.77 5.64 24.07-71 62-96.36 115.44-1.2 2.19-.11 6.09 1.23 4.47 30.58-36.84 87.95-54.83 109.79-82.62zM92.28 163.1c-10.72-2.63-19.53-7.24-25.77-13.35-1.35-1.31-1.82-2.42 1.32-2.5 31.66-.78 40.91 15.19 51.61 10.33 7-3.17 14-2.94 20.48 2.64 1.11.95.35 1.65-.42 1.85-16.08 4.21-32.67 4.6-47.22 1.03zm192.07-70.37c-9.44.88-19.23-2.43-22.5-3.53-8.82-3-14.53-.6-17.41 3.42-8.33 11.62-39.67 44.31-77.61 62.1-2.49 1.18-2.71-.41-.77-1.62 4.75-3 11.34-6.67 17.65-11.35 2.59-1.91 2.24-3.14-.88-1.78-13.41 5.87-27.84 11.47-36.73 14-2 .59-1.62 1.47.1 1.48 20.49.1 30 9.86 39.18 10.18 1.74.06 2 1.05 0 2.09-9.49 5.1-22.46 7.75-37.85-2.05-2-1.26-3-.88-3.63-.71-23.54 7-47.84 5.69-65.54-2.49-2.7-1.25-3.93.47-1.94 2.69a100.16 100.16 0 00174.7-66.89c0-6.42 6.53-4.3 8.73-3.76 11.71 2.92 17.82 3.64 24.38.21 1.34-.72 1.47-2.11.12-1.99z"/><path class="cls-1" d="M53.75 111.2C77.11 61 129.74 40.13 136.82 4.53c.73-3.66-3.75-4.83-5.56-4.47a100.19 100.19 0 00-80.45 98.21c0 2.93.17 5.83.38 8.7.29 3.85 1.81 5.88 2.56 4.23zM192.11 15.33c-16.83 53.92-94.63 62.49-135.23 112.2-2.12 2.4.12 4.81 1.46 3.47 43.22-36.39 102-32.11 136.86-59.35 19.14-14.94 23.4-42.43 6.15-57.8-1.67-1.49-8.03-2.36-9.24 1.48z"/><path class="cls-1" d="M248.28 44.53a38.15 38.15 0 00-6.21 6.74 1.1 1.1 0 01-1.61-.24 31.62 31.62 0 00-3.24-5.6c-1.25-1.71-7.12-4.66-8.59-.27-22.13 66.45-117.78 44.75-168.28 89.64-2.13 1.89-1.13 4.36 1.57 2.77 42.55-25 104.39-18.23 132.89-23.63 18.57-3.51 30.26-10.66 40.36-21.65 14.51-15.77 7.8-35.2 14-46.87.66-1.18.15-1.76-.89-.89z"/></g></g></svg>