<svg xmlns="http://www.w3.org/2000/svg" viewBox="0 0 947.02 510.9"><defs><style>.cls-1{fill:#fff;}.cls-2{fill:#f8c170;}.cls-3{fill:#4593d0;}.cls-4{fill:#ed86b3;}.cls-5{fill:#a7d081;}.cls-6{fill:#54c2f0;}.cls-7{fill:#717071;}</style></defs><g id="レイヤー_2" data-name="レイヤー 2"><g id="レイヤー_1-2" data-name="レイヤー 1"><rect class="cls-1" x="91.24" y="71.24" width="106" height="212" transform="translate(-30.18 29.6) rotate(-10.62)"/><rect class="cls-1" x="121.84" y="28.31" width="55.65" height="83.1" transform="translate(-10.31 28.77) rotate(-10.62)"/><rect class="cls-1" x="110.7" y="241.73" width="49" height="84" transform="translate(-49.95 29.76) rotate(-10.62)"/><path d="M121.22,170.93c.14-.21.14-.21.31-.17a15.33,15.33,0,0,1,2.87,1.42c.08,0,.13.09.13.12s0,.12-.08.24l-.66,1.17c-.12.24-.13.26-.32.15a13.12,13.12,0,0,0-2.85-1.52c-.16-.06-.19-.11,0-.34Zm0,4.63c.1-.18.15-.21.34-.15a13,13,0,0,1,2.78,1.33c.08,0,.12.08.13.12a.4.4,0,0,1-.08.25l-.53,1.16c-.07.14-.11.23-.16.24a.24.24,0,0,1-.18-.08A13.69,13.69,0,0,0,120.7,177c-.08,0-.14-.07-.15-.12s0-.12.09-.22Zm1.81,8.68a36.42,36.42,0,0,0,.86-4.45,9.15,9.15,0,0,0,1.13.7c.33.16.45.23.48.37a1.41,1.41,0,0,1,0,.43,42.29,42.29,0,0,1-.84,4.26,3,3,0,0,0-.13.76.21.21,0,0,1-.17.25.64.64,0,0,1-.35,0,10.74,10.74,0,0,1-1.58-.71A6.44,6.44,0,0,0,123,184.24Zm4.68-6.61c-1.73.32-2.35.47-2.45.49s-.2,0-.23-.16l-.26-1.36c0-.18,0-.2.16-.23s.5-.06,1.58-.26l-.51-2.74a11.65,11.65,0,0,0-.46-1.86c.66-.1,1.21-.17,1.84-.22.19,0,.31.06.32.13a.7.7,0,0,1,0,.37,3,3,0,0,0,.11,1.19l.53,2.79,1.77-.33-.78-4.16a14.88,14.88,0,0,0-.5-2.08c.66-.11,1.25-.18,1.88-.23.18,0,.3,0,.32.13a.82.82,0,0,1,0,.37,2.74,2.74,0,0,0,.1,1.15l.18,1,1.93-.36c1.2-.23,1.57-.33,1.67-.35s.2,0,.24.16l.24,1.29c0,.18,0,.2-.16.23s-.49,0-1.69.28l-1.93.36.36,1.91,2.16-.4c1.73-.33,2.35-.48,2.45-.5s.18,0,.22.16l.25,1.33c0,.18,0,.2-.15.23l-2.44.45c.53.26,1.13.54,1.56.78.18.09.23.17.25.26s-.08.25-.25.34a1.67,1.67,0,0,0-.47.44,19.29,19.29,0,0,1-1.77,2c-.18.18-.28.27-.38.29s-.24-.07-.46-.28a5.32,5.32,0,0,0-1-.69,15.77,15.77,0,0,0,2-2.26,4.54,4.54,0,0,0,.5-.85Zm-.75.5c.1-.18.17-.19.34-.15a15.22,15.22,0,0,1,3.22,1.34c.08,0,.13.08.14.13a.47.47,0,0,1-.09.24l-.67,1.19c-.07.12-.12.19-.19.2s-.09,0-.17-.06a13.65,13.65,0,0,0-3.13-1.46c-.18-.06-.16-.14,0-.34Zm4.28,4.27c.23.55.23.53-.21.92-.83.74-1.77,1.51-2.64,2.15a2.42,2.42,0,0,0-.51.46.26.26,0,0,1-.19.16c-.09,0-.15,0-.29-.16a16.41,16.41,0,0,1-1-1.64,7.61,7.61,0,0,0,1.3-.68,30,30,0,0,0,3.2-2.47A7.53,7.53,0,0,0,131.24,182.4Zm1.91-1.47c.1-.22.17-.25.36-.2a26.38,26.38,0,0,1,4.13,1.67c.1,0,.14.08.15.15s0,.09,0,.19l-.71,1.38c-.07.13-.12.19-.17.2s-.11,0-.23-.08a20.67,20.67,0,0,0-4-1.84c-.16-.06-.17-.09-.06-.32Z"/><path d="M143.78,167.51a.38.38,0,0,1,.27.26c0,.14-.07.23-.21.35a2.06,2.06,0,0,0-.4.51,13.81,13.81,0,0,1-2.94,3.76,1,1,0,0,1-.37.27c-.12,0-.23-.07-.46-.32a5.2,5.2,0,0,0-1.16-.9,12.57,12.57,0,0,0,3-3.33,6,6,0,0,0,.54-1.22A11.06,11.06,0,0,1,143.78,167.51Zm3.18,2.62a15.51,15.51,0,0,0,8.43,3.59,5,5,0,0,0-.58,1.54c-.08.32-.11.46-.24.48a1,1,0,0,1-.45-.08c-.71-.18-1.39-.38-2-.59l.54,2.88c.47,2.5.59,3,.61,3.06s0,.2-.17.23l-1.51.29c-.17,0-.2,0-.23-.16l-.13-.73L145,181.81l.15.83c0,.16,0,.18-.16.21l-1.5.29c-.2,0-.22,0-.25-.14s-.08-.61-.55-3.12l-.27-1.45c-.11-.62-.2-1.07-.28-1.38a19,19,0,0,1-1.45,1.24,1.05,1.05,0,0,1-.39.24c-.13,0-.22-.09-.43-.34a4.24,4.24,0,0,0-1.1-1,15.92,15.92,0,0,0,5.76-6.33,4.56,4.56,0,0,0,.46-1.41,13,13,0,0,1,1.89.07c.17,0,.27.08.29.18a.38.38,0,0,1-.11.32Zm3.74,4.4a15.58,15.58,0,0,1-4.52-2.8,17.55,17.55,0,0,1-2.93,4.19Zm-6,5.65L150.9,179l-.51-2.74-6.23,1.17Zm3.15-14.29a.53.53,0,0,1,.19-.13c.06,0,.1,0,.18.08a12.85,12.85,0,0,0,5.27,2.51,5,5,0,0,0-.71,1.36c-.13.32-.17.45-.3.48a.93.93,0,0,1-.42-.11,15.46,15.46,0,0,1-5.15-3c-.15-.12-.13-.18.06-.34Z"/><path d="M159.54,173.44c-1.2.22-1.66.34-1.85.38s-.2,0-.23-.18-.11-.76-.37-2.16l-.83-4.41c-.26-1.4-.42-2-.44-2.17s0-.2.15-.23.67-.09,1.87-.31l2.85-.54c1.15-.21,1.64-.34,1.74-.36s.2,0,.23.16l.22,1.13c0,.18,0,.2-.16.23s-.61.08-1.76.3l-.34.06.23,1.22c1.12-.21,1.52-.32,1.62-.34s.2,0,.24.16l.18,1c0,.18,0,.2-.16.23l-1.64.27.23,1.19c1.09-.21,1.52-.31,1.62-.33s.2,0,.23.14l.19,1c0,.17,0,.19-.16.23l-1.64.27.24,1.25.32-.06c1.11-.21,1.44-.3,1.55-.32s.22,0,.24.19l.16,1.18a20.74,20.74,0,0,1,.42,4.76,10.18,10.18,0,0,0,.62-4.5,49,49,0,0,0-1-6.32c-.34-1.83-.53-2.65-.55-2.76s0-.2.18-.23.57-.07,2-.34l2.58-.48c1.4-.27,1.87-.39,2-.41s.22,0,.25.15.08.63.3,1.78l.62,3.33c.22,1.17.34,1.62.37,1.74s0,.2-.18.24l-1.35.25c-.17,0-.2,0-.23-.18l-.06-.33-.62.11a10.25,10.25,0,0,0,4.6,6.47,6.36,6.36,0,0,0-.85,1.24c-.12.26-.18.38-.27.4s-.2-.06-.41-.22c-2.44-1.76-3.75-4.28-4.68-7.58l-1.28.23a31.87,31.87,0,0,1,.36,3.27,13.33,13.33,0,0,1-.75,5.27c-.1.24-.16.36-.24.38s-.22-.07-.43-.22a5,5,0,0,0-1.11-.65,1.88,1.88,0,0,1-1.54,1.3c-.22,0-.53.1-.76.12s-.29,0-.5-.51a4,4,0,0,0-.57-1.12,10.48,10.48,0,0,0,1.33-.14.73.73,0,0,0,.64-.6,13.56,13.56,0,0,0-.39-4.17Zm-1.21,1.14c.26,0,.26.06.3.26a15,15,0,0,1,.13,4.09c0,.21-.14.23-.3.17l-.7-.29c-.23-.07-.24-.12-.2-.31a15,15,0,0,0-.06-3.82c0-.22,0-.2.26-.18Zm1-7.74-.23-1.22-1.45.28.23,1.22Zm.46,2.48-.22-1.18-1.45.27.22,1.18Zm.49,2.57-.24-1.26-1.45.27.24,1.26Zm-.79,2.44c.2-.08.24-.09.29.09.31,1,.63,2,.87,3.08,0,.17,0,.2-.16.3l-.51.3c-.2.11-.24.12-.28-.08a26.58,26.58,0,0,0-.8-3.22c-.07-.19,0-.21.16-.3Zm1.12-.36c.17-.11.2-.09.27.08a20.91,20.91,0,0,1,.88,2.45c.05.16,0,.21-.15.34l-.34.23c-.18.13-.22.13-.27-.06a19.28,19.28,0,0,0-.87-2.57c-.07-.17,0-.17.13-.28Zm1-.39c.15-.08.17-.07.25.06a12.33,12.33,0,0,1,.83,1.77c0,.14.05.17-.1.29l-.33.27c-.16.12-.2.09-.25-.05a11.05,11.05,0,0,0-.82-1.92c-.08-.15-.06-.17.1-.25Zm4-8.64.29,1.56c.13.67.24,1.26.32,1.81l3.47-.65-.63-3.36Z"/><path class="cls-1" d="M257.05,238.42c.1-.13.14-.14.28-.07a10.19,10.19,0,0,1,1.93,1.41.19.19,0,0,1,.09.11s0,.1-.1.19l-.57.81c-.07.1-.12.15-.16.15a.14.14,0,0,1-.12-.08,11.2,11.2,0,0,0-1.95-1.51c-.06-.05-.1-.07-.1-.12a.45.45,0,0,1,.1-.15Zm.14,6.89a29.24,29.24,0,0,0,1.29-3.28,7.66,7.66,0,0,0,.77.7c.22.17.31.24.31.35a.87.87,0,0,1-.09.32,30.24,30.24,0,0,1-1.24,3.14,2,2,0,0,0-.21.56.18.18,0,0,1-.17.17.47.47,0,0,1-.27-.07,9.47,9.47,0,0,1-1.1-.77A5,5,0,0,0,257.19,245.31Zm.52-10.44c.14-.14.14-.14.27-.08a12,12,0,0,1,2,1.5c.06,0,.09.08.09.11s0,.09-.1.17l-.67.8c-.13.17-.14.18-.27.07a10.16,10.16,0,0,0-2-1.57c-.11-.07-.13-.11,0-.27Zm4,6.06c-1.38,0-1.87,0-2,0s-.16,0-.16-.15v-1.08c0-.14,0-.15.16-.15s.39,0,1.25,0v-2.17a8.36,8.36,0,0,0-.09-1.48,13.37,13.37,0,0,1,1.44.1c.14,0,.23.08.23.14a.6.6,0,0,1-.09.28,2.27,2.27,0,0,0-.08.92v2.21h1.4V236.3a11,11,0,0,0-.08-1.66c.51,0,1,0,1.47.09.14,0,.22.07.22.14a.63.63,0,0,1-.08.28,2.19,2.19,0,0,0-.09.9v.76h1.53c.95,0,1.25,0,1.33,0s.16,0,.16.15v1c0,.14,0,.15-.16.15s-.38,0-1.33,0h-1.53v1.51H267c1.38,0,1.87,0,1.95,0s.14,0,.14.15v1.05c0,.14,0,.16-.14.16H267c.36.26.78.57,1.08.81.12.1.15.17.15.24s-.1.18-.24.22a1.35,1.35,0,0,0-.42.27,14.54,14.54,0,0,1-1.64,1.26c-.17.11-.25.16-.33.16s-.17-.08-.31-.28a4.28,4.28,0,0,0-.7-.67,12,12,0,0,0,1.86-1.44,3.14,3.14,0,0,0,.5-.57Zm2,4.16c.1.44.1.43-.29.67-.74.45-1.57.89-2.33,1.26a2,2,0,0,0-.46.28.23.23,0,0,1-.17.1c-.07,0-.11,0-.19-.17a11,11,0,0,1-.56-1.4,5.75,5.75,0,0,0,1.09-.34,22.52,22.52,0,0,0,2.8-1.43A5.94,5.94,0,0,0,263.73,245.09Zm-2.66-3.88c.1-.13.16-.13.28-.07a12.2,12.2,0,0,1,2.27,1.48c.06,0,.09.08.09.13s0,.08-.1.16l-.69.82c-.07.08-.11.12-.17.12a.26.26,0,0,1-.12-.07,10.61,10.61,0,0,0-2.19-1.57c-.13-.07-.1-.12,0-.26Zm4.33,3c.11-.15.17-.17.31-.1a21,21,0,0,1,2.91,1.87c.07.05.1.08.1.14a.24.24,0,0,1-.07.14l-.74.95c-.07.08-.12.12-.16.12s-.08,0-.17-.09a16,16,0,0,0-2.8-2c-.11-.07-.11-.1,0-.25Z"/><path class="cls-1" d="M277.51,238a12.06,12.06,0,0,0,5.92,3.95,3.64,3.64,0,0,0-.65,1.09c-.12.24-.16.33-.26.33a.94.94,0,0,1-.33-.12c-.52-.24-1-.49-1.46-.74v2.28c0,2,0,2.34,0,2.42s0,.16-.17.16H279.4c-.14,0-.15,0-.15-.16v-.57h-4.94v.66c0,.12,0,.14-.15.14H273c-.15,0-.17,0-.17-.14s0-.48,0-2.47v-1.15c0-.49,0-.84,0-1.09-.42.27-.86.52-1.29.74a.77.77,0,0,1-.34.13c-.1,0-.15-.1-.28-.32a2.87,2.87,0,0,0-.7-.9,12.31,12.31,0,0,0,5.31-4,3.49,3.49,0,0,0,.56-1,11.57,11.57,0,0,1,1.43.32c.12,0,.2.1.2.19a.31.31,0,0,1-.13.22Zm-2.06-2.47a.29.29,0,0,1,.17.24c0,.11-.09.17-.21.24a1.57,1.57,0,0,0-.38.33,10.51,10.51,0,0,1-2.79,2.45.76.76,0,0,1-.32.16c-.1,0-.17-.09-.31-.31a3.51,3.51,0,0,0-.76-.85,9.85,9.85,0,0,0,2.81-2.12,5.79,5.79,0,0,0,.59-.85A9,9,0,0,1,275.45,235.49Zm4.29,6.36a12,12,0,0,1-3.06-2.79,13.69,13.69,0,0,1-2.84,2.79Zm-5.43,3.46h4.94v-2.17h-4.94Zm4.46-10.48a.43.43,0,0,1,.17-.07s.07,0,.12.09a10,10,0,0,0,3.67,2.67,3.9,3.9,0,0,0-.74.94c-.14.22-.2.32-.29.32a.63.63,0,0,1-.31-.14,12.09,12.09,0,0,1-3.52-3c-.1-.11-.07-.15.1-.25Z"/><path class="cls-1" d="M288.51,239.8a30.81,30.81,0,0,0,3.49-1.35,4.48,4.48,0,0,0,1.5-1,7.75,7.75,0,0,1,1.16,1.26c.17.19.15.43-.13.5a8.74,8.74,0,0,0-1.16.46,34.44,34.44,0,0,1-4.87,1.74v1.86c0,.66.09.89.46,1a7.09,7.09,0,0,0,1.76.15,24,24,0,0,0,3.95-.32c.21,0,.24,0,.26.2,0,.39.08.92.08,1.22s-.08.23-.29.25a29,29,0,0,1-4.16.25,7,7,0,0,1-2.67-.38c-.7-.29-1-.95-1-2.1v-5.17a14.71,14.71,0,0,0-.14-2.56,11.56,11.56,0,0,1,1.77.28c.3.07.25.31.12.52a3.21,3.21,0,0,0-.14,1.26Z"/><path class="cls-1" d="M303.52,238.18c.06-.69.08-1.13.1-1.89a5.71,5.71,0,0,0-.1-1.11,10.55,10.55,0,0,1,1.82.3.28.28,0,0,1,.24.29.72.72,0,0,1-.07.27,1.2,1.2,0,0,0-.18.66c-.05.44-.06.78-.13,1.47h2.13l1.95,0c.22,0,.29,0,.29.19s0,.75-.06,1.49a24,24,0,0,1-.51,4.61,2.24,2.24,0,0,1-1.66,1.89,6.1,6.1,0,0,1-1.41.15.35.35,0,0,1-.34-.28,2.86,2.86,0,0,0-.81-1.27,5.85,5.85,0,0,0,1.91-.13c.37-.12.56-.35.72-1a18.92,18.92,0,0,0,.42-4.2H305a10.46,10.46,0,0,1-1.24,3.88,9,9,0,0,1-3,2.88.67.67,0,0,1-.32.12.38.38,0,0,1-.27-.14,3.53,3.53,0,0,0-1.18-.82,7.75,7.75,0,0,0,3.29-2.85,8,8,0,0,0,1-3h-1.26c-.68,0-1.36,0-2,.07-.14,0-.2-.07-.21-.24a13.21,13.21,0,0,1-.12-1.36c.89.06,1.52.06,2.33.06Z"/><path class="cls-1" d="M315.43,237.56a9.73,9.73,0,0,0-.15-2,10.48,10.48,0,0,1,1.74.29c.16,0,.23.13.23.23a.54.54,0,0,1-.05.21,3.09,3.09,0,0,0-.16,1.33v2.83c0,.73,0,1.27,0,1.76,0,.21-.08.28-.3.28h-1.12c-.2,0-.28-.07-.27-.24,0-.49,0-1.3,0-1.9Zm6.6,2.62a6.12,6.12,0,0,1-4.22,6.77.93.93,0,0,1-.29.07.46.46,0,0,1-.34-.17A4.31,4.31,0,0,0,316,246a6.86,6.86,0,0,0,3.42-2.05,5.8,5.8,0,0,0,.94-3.74v-2.65a10.73,10.73,0,0,0-.15-2.28,8.69,8.69,0,0,1,1.82.31.23.23,0,0,1,.19.24.44.44,0,0,1,0,.22,4.1,4.1,0,0,0-.13,1.53Z"/><path class="cls-1" d="M333.48,243.5h2c.94,0,1.88,0,2.83-.05.16,0,.23.05.23.22,0,.36,0,.76,0,1.12,0,.18,0,.25-.21.25-.67,0-1.92,0-2.83,0h-5.63c-.58,0-1.49,0-2.58,0-.22,0-.25,0-.29-.28a7.59,7.59,0,0,1-.1-1.31c1,.05,2.07.07,3,.07h1.9v-4.79h-1.09c-1,0-1.6,0-2.17.05-.17,0-.2-.08-.24-.29a7.42,7.42,0,0,1-.11-1.3,24.09,24.09,0,0,0,2.42.05h4c.86,0,1.63,0,2.46,0,.14,0,.18.07.18.22,0,.35,0,.75,0,1.1,0,.18,0,.26-.2.26-.94,0-1.62-.05-2.41-.05h-1.09Z"/><circle class="cls-1" cx="296.13" cy="202.31" r="24.83"/><rect class="cls-1" x="617.58" y="88.27" width="89.56" height="114.33" transform="translate(400.16 -479.96) rotate(54.87)"/><rect class="cls-1" x="584.38" y="131.55" width="16" height="118.81" transform="translate(1.23 385.67) rotate(-36.1)"/><g id="ico-wrap"><polygon class="cls-1" points="947.01 212.72 947.01 159.24 753.54 159.24 753.6 172.26 731.75 172.57 753.6 184.27 753.54 212.72 947.01 212.72"/></g><path class="cls-2" d="M784.44,176.08c1.61-2,1.95-5.36-.3-6.36-.59-.27-2.27-.38-2.15.12.94,4-11.87,10.37-16.12,19.31-.2.37,0,1,.21.75C771.2,183.74,780.79,180.73,784.44,176.08Z"/><path class="cls-3" d="M772.26,196.71a9.26,9.26,0,0,1-4.31-2.23c-.22-.22-.3-.41.22-.42,5.3-.13,6.85,2.54,8.64,1.73a3,3,0,0,1,3.42.44c.19.16.06.28-.07.31A16.31,16.31,0,0,1,772.26,196.71Zm32.13-11.77a9.74,9.74,0,0,1-3.77-.59c-1.47-.49-2.43-.1-2.91.57a38.94,38.94,0,0,1-13,10.39c-.42.2-.45-.07-.13-.27.8-.5,1.9-1.12,3-1.9.43-.32.37-.52-.15-.3a59,59,0,0,1-6.15,2.35c-.34.1-.27.25,0,.25,3.43,0,5,1.65,6.55,1.7.29,0,.33.18,0,.35a5.9,5.9,0,0,1-6.33-.34.65.65,0,0,0-.61-.12,16.06,16.06,0,0,1-11-.42c-.45-.21-.66.08-.33.45a16.75,16.75,0,0,0,29.22-11.19c0-1.07,1.09-.72,1.46-.63,2,.49,3,.61,4.08,0C804.59,185.16,804.61,184.92,804.39,184.94Z"/><path class="cls-4" d="M765.82,188c3.9-8.4,12.71-11.89,13.89-17.84.12-.61-.62-.81-.93-.75a16.75,16.75,0,0,0-13.45,16.43c0,.49,0,1,.06,1.45C765.44,188,765.69,188.31,765.82,188Z"/><path class="cls-5" d="M789,172c-2.82,9-15.83,10.45-22.62,18.76-.35.4,0,.81.24.58,7.23-6.08,17.06-5.37,22.9-9.92,3.2-2.5,3.91-7.1,1-9.67C790.23,171.5,789.16,171.35,789,172Z"/><path class="cls-6" d="M798.36,176.88a5.87,5.87,0,0,0-1,1.13.19.19,0,0,1-.27,0,5.25,5.25,0,0,0-.55-.94c-.2-.29-1.19-.78-1.43,0-3.7,11.11-19.7,7.48-28.15,15-.35.32-.19.73.26.46,7.12-4.19,17.46-3.05,22.23-3.95a11.32,11.32,0,0,0,6.75-3.62c2.43-2.64,1.31-5.89,2.35-7.84C798.61,176.83,798.53,176.73,798.36,176.88Z"/><path class="cls-3" d="M901.86,179.27c-.05-.43-.24-.63-.64-.26-1.25,1.17-3.36.92-4,2.81-.6-1.89-2.72-1.64-4-2.81-.4-.37-.59-.17-.65.26-.45,3.72,3.24,4.35,4.07,5.72a.63.63,0,0,0,1.09,0C898.63,183.62,902.32,183,901.86,179.27Z"/><path class="cls-7" d="M817.6,179.74h-6.26c-1.94,0-2.16,1.47-2.16,2.57v14.53a1.11,1.11,0,0,0,2.21,0v-6.07a1.25,1.25,0,0,1,1.25-1.25H817a1,1,0,0,0,1-1.07,1,1,0,0,0-1-1h-4.33a1.26,1.26,0,0,1-1.25-1.26v-3a1.25,1.25,0,0,1,1.25-1.26h5a1,1,0,0,0,1-1.05A1,1,0,0,0,817.6,179.74Z"/><path class="cls-7" d="M832.87,191.13a1.25,1.25,0,0,1,.51-1.8,4.64,4.64,0,0,0,.7-.45,5.18,5.18,0,0,0,1.66-4.07,5.39,5.39,0,0,0-1.1-3.57,4.61,4.61,0,0,0-4-1.5h-2c-1.94,0-2.16,1.47-2.16,2.57v14.53a1.11,1.11,0,0,0,2.21,0V183.12a1.25,1.25,0,0,1,1.25-1.26h.26c1.39,0,3.28,0,3.28,2.93,0,2.4-1,2.75-1.67,3-1.83.66-1.87,2.79-1,4.14,1.37,2.13,3.46,5.47,3.46,5.47a1,1,0,0,0,.87.54,1.14,1.14,0,0,0,1.16-1.05,1.33,1.33,0,0,0-.3-.76Z"/><path class="cls-7" d="M852.67,195.46h-5.24a1.25,1.25,0,0,1-1.25-1.25v-3.55a1.25,1.25,0,0,1,1.25-1.25h4.33a1,1,0,0,0,1-1.07,1,1,0,0,0-1-1.05h-4.33a1.25,1.25,0,0,1-1.25-1.26v-2.91a1.25,1.25,0,0,1,1.25-1.26h5a1,1,0,0,0,1-1.05,1,1,0,0,0-1-1.07h-6.26c-1.94,0-2.16,1.47-2.16,2.57V195c0,1.78.66,2.57,2.16,2.57h6.54a1,1,0,0,0,1-1.07A1,1,0,0,0,852.67,195.46Z"/><path class="cls-7" d="M870.07,195.46h-5.25a1.25,1.25,0,0,1-1.25-1.25v-3.55a1.25,1.25,0,0,1,1.25-1.25h4.33a1,1,0,0,0,1.05-1.07,1,1,0,0,0-1.05-1.05h-4.33a1.25,1.25,0,0,1-1.25-1.26v-2.91a1.25,1.25,0,0,1,1.25-1.26h5a1,1,0,0,0,1-1.05,1,1,0,0,0-1-1.07h-6.26c-1.93,0-2.16,1.47-2.16,2.57V195c0,1.78.67,2.57,2.16,2.57h6.55a1,1,0,0,0,1-1.07A1,1,0,0,0,870.07,195.46Z"/><path class="cls-7" d="M897.31,186a1,1,0,0,0-1.09,1.09v9.77a1,1,0,0,0,1.11,1.09,1.05,1.05,0,0,0,1.11-1.09v-9.77A1.06,1.06,0,0,0,897.31,186Z"/><path class="cls-7" d="M916.66,179.39c-.76,0-1,.54-1.06,1l-2,9.34c-.12.58-.21,1.27-.8,1.27s-.74-.69-.87-1.27l-2-9.31c-.1-.49-.31-1-1.09-1a1.11,1.11,0,0,0-1.16,1.05,2.42,2.42,0,0,0,.06.45l3.45,15.42c.23,1.05.56,1.62,1.65,1.62.87,0,1.3-.44,1.56-1.61l3.45-15.42a2.24,2.24,0,0,0,.06-.46A1.12,1.12,0,0,0,916.66,179.39Z"/><path class="cls-7" d="M934.41,195.46h-5.25a1.25,1.25,0,0,1-1.25-1.25v-3.55a1.25,1.25,0,0,1,1.25-1.25h4.33a1,1,0,0,0,1-1.07,1,1,0,0,0-1-1.05h-4.33a1.25,1.25,0,0,1-1.25-1.26v-2.91a1.25,1.25,0,0,1,1.25-1.26h5a1,1,0,0,0,1-1.05,1,1,0,0,0-1-1.07h-6.26c-1.93,0-2.16,1.47-2.16,2.57V195c0,1.78.67,2.57,2.16,2.57h6.55a1,1,0,0,0,1-1.07A1,1,0,0,0,934.41,195.46Z"/><path class="cls-7" d="M882.27,179.74H881c-2,0-2.18,1.47-2.18,2.57V193.7c0,1,2.23,1,2.23,0V183.12a1.25,1.25,0,0,1,1.25-1.26,2.46,2.46,0,0,1,2.28,1.07c1.2,1.6,1.26,5.06,1.26,5.73,0,1.78-.23,5-1.77,6.3a2.62,2.62,0,0,1-1.74.55h-2.48c-.77,0-1,.45-1,1.11,0,.83.61,1,1.05,1h2.44a4.86,4.86,0,0,0,3-.89c1.82-1.42,2.74-4.12,2.74-8,0-3.09-.7-5.78-1.87-7.19A4.52,4.52,0,0,0,882.27,179.74Z"/><rect class="cls-1" x="366.46" y="-170.34" width="25.53" height="851.57" transform="translate(369.92 -201.69) rotate(54.87)"/><path class="cls-1" d="M345.41,104.15c1.46-.17,2-.27,2.08-.28s.19,0,.21.15,0,.39.07.85l.09.73c.17,1.41.23,1.66.24,1.76s0,.18-.17.2l-1.3.15c-.16,0-.17,0-.19-.15l-.25-2.07-10.06,1.22.25,2.08c0,.16,0,.17-.16.19l-1.31.16c-.16,0-.18,0-.2-.15s0-.36-.18-1.79l-.08-.6c-.07-.59-.13-.89-.14-1s0-.17.15-.19.64,0,2.1-.22l3.47-.42,0-.11a6.49,6.49,0,0,0-.29-1.5c.59-.07,1.16-.1,1.71-.12.16,0,.25.05.26.13a2.11,2.11,0,0,1,0,.33,2.43,2.43,0,0,0,0,.94v.13Zm-2.22,2.8c1.47-.18,2-.27,2.09-.28s.18,0,.2.15,0,.42.11,1.18l.16,1.37c.09.78.16,1.09.18,1.19s0,.17-.16.19-.62,0-2.1.22l-1.27.16c-.13.5-.25,1-.4,1.37l3.18-.39c1.54-.18,2.09-.28,2.2-.29s.16,0,.19.17,0,.46.12,1.27l.13,1.15c.23,1.9.31,2.27.32,2.36s0,.16-.14.18l-1.35.16c-.17,0-.18,0-.19-.14l-.06-.46-7.85.95.06.52c0,.16,0,.18-.13.2l-1.37.16c-.14,0-.16,0-.18-.15s0-.45-.26-2.39l-.11-1c-.13-1-.21-1.39-.21-1.47s0-.19.13-.21.66,0,2.21-.24l1.61-.19a13.38,13.38,0,0,0,.4-1.37l-.88.11c-1.47.17-2,.27-2.07.28s-.18,0-.2-.16,0-.41-.11-1.19l-.17-1.37c-.09-.76-.16-1.07-.17-1.17s0-.18.15-.2.61,0,2.09-.21Zm-4.81,9.12,7.85-.94-.2-1.72-7.85,1Zm5.63-7.93-5.17.63.18,1.5,5.17-.62Z"/><path class="cls-1" d="M352.55,106.34c-1.44.17-1.93.27-2,.28s-.17,0-.19-.16l-.15-1.2c0-.15,0-.17.16-.18s.59,0,2-.22l2-.24a.21.21,0,0,1-.15-.14,11,11,0,0,0-1.47-2c-.11-.13-.08-.15.1-.25l1-.56c.19-.1.24-.08.37,0a12.7,12.7,0,0,1,1.46,2c.08.14.09.17-.12.29l-1.12.65,3.53-.42a16.75,16.75,0,0,0,.94-2.26,4,4,0,0,0,.17-1,11.85,11.85,0,0,1,1.77.23c.15,0,.22.09.23.19s-.07.17-.17.29a1.78,1.78,0,0,0-.32.54c-.25.59-.54,1.21-.82,1.74l2-.24c1.44-.17,1.93-.26,2-.28s.17,0,.19.14l.15,1.21c0,.16,0,.18-.16.2s-.59,0-2,.21l-1.93.23a9.75,9.75,0,0,0,5.16,3.36,4.36,4.36,0,0,0-.51,1.08c-.08.28-.11.4-.23.41a.73.73,0,0,1-.36-.11l-1.18-.54.43,3.59c1.24-.15,1.68-.23,1.78-.24s.17,0,.19.15l.14,1.14c0,.16,0,.18-.15.2s-.58,0-2,.21l-9.82,1.18c-1.44.17-1.91.26-2,.27s-.18,0-.2-.15l-.14-1.15c0-.15,0-.17.16-.19s.54,0,1.81-.19l-.34-2.86c0-.28-.06-.52-.11-.73-.3.27-.62.55-1,.8a1.61,1.61,0,0,1-.33.2c-.12,0-.19-.09-.35-.33a3.31,3.31,0,0,0-.84-.83,9.75,9.75,0,0,0,4.07-4.57Zm9,2.5a10.55,10.55,0,0,1-3.19-3.19l-2.25.27a11.8,11.8,0,0,1-2.28,3.85ZM356,114.11l-.39-3.18-1.4.17.39,3.18Zm2.89-.35-.38-3.18-1.43.18.38,3.18Zm1.08-3.35.38,3.18,1.42-.17-.39-3.18Z"/><path class="cls-1" d="M370.06,109c.46-.27.92-.55,1.38-.86,0,.27.07.65.13,1,.09.5.09.5-.33.78a27.51,27.51,0,0,1-3,1.78,1.87,1.87,0,0,0-.5.3.47.47,0,0,1-.25.18c-.1,0-.18,0-.26-.18a9.08,9.08,0,0,1-.66-1.39,12.14,12.14,0,0,0,1.53-.58l.47-.24-.51-4.24-.2,0c-1.1.14-1.45.21-1.54.22s-.16,0-.18-.15l-.15-1.21c0-.16,0-.18.14-.19s.45,0,1.55-.16l.2,0-.17-1.45a14.87,14.87,0,0,0-.42-2.38c.62-.06,1.15-.09,1.68-.09.16,0,.27,0,.28.14a1.05,1.05,0,0,1-.06.33,6.52,6.52,0,0,0,.12,1.77l.18,1.48c1-.12,1.31-.19,1.39-.2s.18,0,.2.16l.14,1.2c0,.16,0,.18-.15.2s-.42,0-1.4.14Zm7.87-5.67a.91.91,0,0,0,.42-.12.48.48,0,0,1,.24-.09c.13,0,.28,0,.76.4s.51.43.52.52a.42.42,0,0,1-.11.32,1.29,1.29,0,0,0-.18.64,13.48,13.48,0,0,1-1.45,4.72,10.09,10.09,0,0,0,3.46,1.71,5.51,5.51,0,0,0-.51,1.24c-.08.28-.09.4-.21.41a1,1,0,0,1-.38-.1,13.93,13.93,0,0,1-3.23-1.92,13.92,13.92,0,0,1-2.74,2.66,1.22,1.22,0,0,1-.35.2c-.09,0-.17-.09-.34-.33a3.47,3.47,0,0,0-.88-.83,11.24,11.24,0,0,0,3.18-2.8,12,12,0,0,1-2.36-4.62l-.13,0a15.51,15.51,0,0,1,0,4.24,11.93,11.93,0,0,1-1.61,4.29c-.12.19-.19.28-.27.29s-.19-.07-.37-.23a3.93,3.93,0,0,0-1.08-.67,8.89,8.89,0,0,0,1.73-4,18.66,18.66,0,0,0-.11-4.94c-.33-2.7-.5-3.89-.52-4s0-.18.17-.2.61,0,2.07-.22l3.9-.47c1.46-.17,2-.27,2.06-.28s.18,0,.2.16l.15,1.25c0,.16,0,.18-.16.2s-.61,0-2.07.21l-4.49.55.28,2.33Zm-2.7,1.84a10.51,10.51,0,0,0,1.76,3.39,9.51,9.51,0,0,0,1-3.72Z"/><rect class="cls-1" x="-1.5" y="76.73" width="686.52" height="16" transform="translate(-7.68 41.46) rotate(-6.87)"/></g></g></svg>