<?xml version="1.0" encoding="utf-8"?>
<!-- Generator: Adobe Illustrator 24.0.2, SVG Export Plug-In . SVG Version: 6.00 Build 0)  -->
<svg version="1.1" id="レイヤー_1" xmlns="http://www.w3.org/2000/svg" xmlns:xlink="http://www.w3.org/1999/xlink" x="0px"
	 y="0px" viewBox="0 0 1090.8 572.8" style="enable-background:new 0 0 1090.8 572.8;" xml:space="preserve">
<style type="text/css">
	.st0{clip-path:url(#SVGID_2_);}
	.st1{fill:#FFFFFF;}
	.st2{fill:none;stroke:#FFFFFF;stroke-width:20;}
	.st3{fill:none;stroke:#FFFFFF;stroke-width:12;}
	.st4{fill:none;stroke:#FFFFFF;stroke-width:3;stroke-miterlimit:10;}
	.st5{fill:#4593D0;}
	.st6{fill:#717071;}
	.st7{fill:#F8C170;}
	.st8{fill:#ED86B3;}
	.st9{fill:#A7D081;}
	.st10{fill:#54C2F0;}
</style>
<title>map_2</title>
<g id="レイヤー_2_1_">
	<g id="レイヤー_2-2">
		<g id="map">
			<g>
				<defs>
					<rect id="SVGID_1_" x="-2.9" y="-1.4" width="1095.3" height="573.1"/>
				</defs>
				<clipPath id="SVGID_2_">
					<use xlink:href="#SVGID_1_"  style="overflow:visible;"/>
				</clipPath>
				<g class="st0">
					<path class="st1" d="M800.2,36.9c-2.1,0-2.9,0-3,0s-0.3,0-0.3-0.3v-1.8c0-0.3,0-0.3,0.3-0.3s0.9,0,3,0h6v-3.1h-3.5
						c-2.3,0-3.2,0-3.3,0s-0.3,0-0.3-0.3v-1.8c0-0.3,0-0.3,0.3-0.3s1,0,3.3,0h3.4c0-0.9-0.1-1.8-0.2-2.8c0.9,0,1.8,0.1,2.6,0.2
						c0.2,0,0.3,0.1,0.3,0.3c0,0.2-0.1,0.4-0.1,0.5c-0.1,0.6-0.2,1.2-0.1,1.8h3.7c2.3,0,3.2,0,3.3,0s0.2,0,0.2,0.3v1.8
						c0,0.2,0,0.3-0.2,0.3s-1,0-3.3,0h-3.7v3.1h6.3c2.1,0,2.9,0,3,0s0.3,0,0.3,0.3v1.8c0,0.2,0,0.3-0.3,0.3s-0.9,0-3,0H800.2z
						 M800.6,19.5c-2.2,0-2.9,0-3.1,0s-0.3,0-0.3-0.3v-1.7c0-0.3,0-0.3,0.3-0.3s0.9,0,3.1,0h14c2.2,0,3,0,3.1,0s0.3,0,0.3,0.3v1.8
						c0,0.2,0,0.3-0.3,0.3s-0.9,0-3.1,0h-7.8c-0.7,1.5-1.4,3-2,4.2c2.5-0.1,5-0.3,7.2-0.5c-0.6-0.6-1.2-1.2-1.9-1.8
						c-0.2-0.2-0.2-0.3,0.1-0.4l1.2-0.8c0.1-0.1,0.2-0.1,0.3-0.1c0.1,0,0.2,0,0.2,0.1c1.9,1.5,3.6,3.1,5.1,5
						c0.2,0.2,0.1,0.3-0.1,0.5l-1.4,1c-0.3,0.2-0.4,0.2-0.5,0c-0.4-0.6-0.9-1.2-1.3-1.7c-4.3,0.6-8.7,0.9-13.2,1.1
						c-0.4,0-0.8,0.1-1.2,0.2c-0.2,0.1-0.3,0.1-0.5,0.1c-0.1,0-0.3-0.2-0.3-0.4c-0.2-0.6-0.3-1.4-0.4-2.3c0.8,0.1,1.7,0.1,2.5,0h1.4
						c0.8-1.4,1.5-2.8,2.1-4.3H800.6z"/>
					<path class="st1" d="M824.2,25.8c-2.1,0-2.9,0-3,0s-0.3,0-0.3-0.2v-1.4c0-0.2,0-0.3,0.3-0.3s0.9,0,3,0h5.9v-1.1h-2.8
						c-2.3,0-3.2,0-3.3,0s-0.3,0-0.3-0.3v-1.2c0-0.2,0-0.2,0.3-0.2s1,0,3.3,0h2.8v-1H826c-2.3,0-3.1,0-3.2,0s-0.3,0-0.3-0.3v-1.4
						c0-0.2,0-0.3,0.3-0.3s0.9,0,3.2,0h4.2c0-0.7,0-1.5-0.2-2.2c0.9,0,1.8,0.1,2.6,0.2c0.2,0,0.4,0.1,0.4,0.2c0,0.2,0,0.3-0.1,0.5
						c-0.1,0.4-0.2,0.9-0.2,1.3h4.6c2.3,0,3.1,0,3.2,0s0.3,0,0.3,0.3v1.4c0,0.3,0,0.3-0.3,0.3s-0.9,0-3.2,0h-4.6v1.1h3.3
						c2.3,0,3.1,0,3.3,0s0.3,0,0.3,0.2v1.3c0,0.2,0,0.3-0.3,0.3s-1,0-3.3,0h-3.3V24h6.3c2.1,0,2.9,0,3,0s0.3,0,0.3,0.3v1.4
						c0,0.2,0,0.2-0.3,0.2s-0.9,0-3,0L824.2,25.8z M838.5,32.6c0,1.1,0,2.2,0,2.8c0.1,0.7-0.2,1.4-0.6,1.9c-0.4,0.4-1.2,0.6-3.4,0.6
						c-0.8,0-0.8,0-1-0.7c-0.1-0.6-0.4-1.2-0.7-1.7c0.9,0.1,1.7,0.1,2.3,0.1s0.8-0.2,0.8-0.8v-0.7h-8.8v1.1c0,1.7,0,2.5,0,2.6
						s0,0.3-0.3,0.3h-2c-0.2,0-0.3,0-0.3-0.3s0-0.9,0-2.6v-5.5c0-1.7,0-2.5,0-2.6s0-0.3,0.3-0.3s0.9,0,3.2,0h6.8c2.3,0,3.1,0,3.2,0
						s0.3,0,0.3,0.3s0,1.1,0,2.8L838.5,32.6z M827.1,28.6v1.1h8.9v-1.1H827.1z M836,32.5v-1.1h-8.9v1.1H836z"/>
					<path class="st1" d="M862.1,25.5c0-1,0-2.1-0.2-3.1c0.9,0,1.9,0.1,2.7,0.2c0.2,0,0.4,0.1,0.4,0.3c0,0.2-0.1,0.3-0.1,0.5
						c-0.2,0.8-0.2,1.6-0.2,2.4v7.3c0,2.6,0,4,0,4.1s0,0.3-0.3,0.3h-2.1c-0.2,0-0.3,0-0.3-0.3v-1.5h-13.2v1.7c0,0.2,0,0.3-0.3,0.3
						h-2.1c-0.3,0-0.3,0-0.3-0.3s0-1.5,0-4.2v-7.6c0-1,0-2.1-0.1-3.1c0.9,0,1.8,0.1,2.7,0.2c0.2,0,0.4,0.1,0.4,0.3
						c0,0.2-0.1,0.3-0.1,0.5c-0.2,0.7-0.2,1.4-0.2,2.2v7.7h5.1V20.1c0-1.2,0-2.4-0.2-3.6c0.9,0,1.9,0.1,2.8,0.2
						c0.2,0,0.4,0.1,0.4,0.3c0,0.2-0.1,0.3-0.1,0.5c-0.1,0.9-0.2,1.8-0.1,2.7v13.2h5.5V25.5z"/>
					<path class="st1" d="M872.3,28.1c-2.2,0-2.9,0-3,0s-0.3,0-0.3-0.2v-2.3c0-0.2,0-0.2,0.3-0.2s0.9,0,3,0h14.5c2.2,0,2.9,0,3,0
						s0.3,0,0.3,0.2V28c0,0.2,0,0.2-0.3,0.2s-0.9,0-3,0L872.3,28.1z"/>
					<path class="st1" d="M896.2,20.4c-2.1,0-2.9,0-3,0s-0.3,0-0.3-0.3v-2c0-0.2,0-0.3,0.3-0.3s0.9,0,3,0h14.6c2.2,0,2.9,0,3,0
						s0.3,0,0.3,0.3v2c0,0.3,0,0.3-0.3,0.3s-0.9,0-3,0h-5.5v9.7c0,2.5,0.1,3.7,0.1,4.7c0.1,0.9-0.2,1.7-0.9,2.3
						c-0.6,0.4-2,0.6-4.4,0.6c-0.7,0-0.7,0-0.9-0.8c-0.1-0.7-0.4-1.4-0.7-2c1,0.1,2,0.2,3.1,0.2c0.8,0,1.1-0.2,1.1-0.9V20.4H896.2z"
						/>
					<path class="st1" d="M919.6,37.8c-0.2,0-0.3,0-0.3-0.3s0-1.7,0-8.9V24c0-4.7,0-6.3,0-6.5s0-0.3,0.3-0.3s1,0,3.3,0h8.9
						c2.3,0,3.2,0,3.3,0s0.3,0,0.3,0.3s0,1.7,0,5.7v5.5c0,7.2,0,8.7,0,8.8s0,0.3-0.3,0.3H933c-0.2,0-0.3,0-0.3-0.3v-1.3H922v1.4
						c0,0.2,0,0.3-0.3,0.3L919.6,37.8z M922,22.8h10.8v-3.2H922L922,22.8z M932.8,28.3V25H922v3.2L932.8,28.3z M932.8,33.9v-3.4H922
						v3.3L932.8,33.9z"/>
					<path id="street3" class="st2" d="M1145.6-38.8c0,0-756.6,351-835.5,399c-44.6,27.1-165,236-165,236"/>
					<path id="street2" class="st3" d="M41-68.8c0,0-50.6,263.8,42,349c138,127,233,235,281,255c109.9,45.8,154,61,154,61"/>
					<circle id="circle2" class="st1" cx="206.3" cy="443.5" r="15"/>
					<path class="st1" d="M66,432.7c3.2,0,5.2,1.7,5.2,5.4s-2.2,5.5-5.4,5.5h-3.4v-10.9H66z M64.2,442.1h1.5c2.1,0,3.5-1.2,3.5-4
						s-1.3-3.9-3.4-3.9h-1.6V442.1z"/>
					<path class="st1" d="M80.3,434.2H75v2.9h4v1.5h-4v3.5h5.4v1.5h-7.3v-10.9h7.2L80.3,434.2z"/>
					<path class="st1" d="M90.1,443.6h-2l-0.9-3.2h-3.3l-0.9,3.2h-1.8l3.3-10.9h2.3L90.1,443.6z M86.3,436.8
						c-0.2-0.9-0.4-1.6-0.7-2.7h-0.1c-0.2,1-0.4,1.8-0.7,2.7l-0.6,2.2h2.7L86.3,436.8z"/>
					<path class="st1" d="M100.1,443.6h-2.3l-2.6-5.6c-0.6-1.3-1.1-2.3-1.6-3.6h-0.2c0.1,1.3,0.1,2.6,0.1,3.9v5.3h-1.7v-10.9h2.8
						l2.2,4.8c0.6,1.2,1,2.5,1.4,3.7h0.2c-0.1-1.3-0.1-2.5-0.1-4v-4.6h1.7V443.6z"/>
					<path class="st1" d="M115,438.5c-0.1,1.2-0.5,2.3-1.2,3.3c0.5,0.6,1.2,0.9,2,0.7l-0.3,1.3H115c-0.9,0.1-1.7-0.2-2.3-0.9
						c-0.8,0.7-1.8,1-2.9,0.9c-2.2,0-3.7-1.3-3.7-3.3c0-1.5,0.7-2.4,2.3-3.2c-0.5-0.6-0.8-1.4-0.8-2.2c0-1.4,1.1-2.5,2.5-2.5
						c0.1,0,0.1,0,0.2,0c1.6,0,2.7,0.9,2.7,2.3s-0.8,2.2-2.6,2.7c0.7,1.1,1.5,2.1,2.4,3.1c0.4-0.9,0.6-1.8,0.6-2.7L115,438.5z
						 M107.8,440.3c0,1.2,1,2.2,2.2,2.2c0,0,0.1,0,0.1,0c0.6,0,1.2-0.2,1.7-0.6c-1-1.2-1.9-2.4-2.8-3.7
						C108.2,438.6,107.7,439.4,107.8,440.3L107.8,440.3z M111.5,435c0-0.6-0.4-1.1-1-1.1c0,0-0.1,0-0.1,0c-0.6,0-1.2,0.5-1.2,1.2
						c0,0,0,0,0,0c0,0.6,0.3,1.2,0.7,1.7C111.1,436.4,111.5,435.9,111.5,435z"/>
					<path class="st1" d="M125,432.7c3.2,0,5.2,1.7,5.2,5.4s-2.1,5.5-5.4,5.5h-3.4v-10.9H125z M123.2,442.1h1.5c2.1,0,3.5-1.2,3.5-4
						s-1.3-3.9-3.4-3.9h-1.6V442.1z"/>
					<path class="st1" d="M139.3,434.2H134v2.9h4v1.5h-4v3.5h5.4v1.5h-7.3v-10.9h7.2L139.3,434.2z"/>
					<path class="st1" d="M143.1,442h5.1v1.5h-7v-10.9h1.9V442z"/>
					<path class="st1" d="M158.1,439.8c0,2.6-1.6,4-4.1,4s-4.1-1.3-4.1-4v-7.1h1.9v7.1c0,1.8,0.9,2.5,2.3,2.5s2.3-0.8,2.3-2.5v-7.1
						h1.8V439.8z"/>
					<path class="st1" d="M167.1,436.3c-0.3-1.5-1.1-2.3-2.3-2.3c-1.6,0-2.7,1.4-2.7,4.2s1.1,4.2,2.7,4.2c1.3,0,2.1-0.8,2.4-2.3
						l1.8,0.5c-0.3,2-2.2,3.4-4.2,3.2c-2.8,0-4.7-2-4.7-5.6s1.9-5.6,4.7-5.6c2-0.1,3.8,1.3,4.1,3.3L167.1,436.3z"/>
					<path class="st1" d="M178.8,443.6h-2l-0.9-3.2h-3.3l-0.9,3.2h-1.8l3.3-10.9h2.3L178.8,443.6z M174.9,436.8
						c-0.2-0.9-0.4-1.6-0.6-2.7h-0.1c-0.2,1-0.4,1.8-0.7,2.7l-0.6,2.2h2.7L174.9,436.8z"/>
					
						<ellipse id="circle1" transform="matrix(0.1602 -0.9871 0.9871 0.1602 -273.1388 659.3038)" class="st1" cx="250.9" cy="490.2" rx="15" ry="15"/>
					<path class="st1" d="M229.8,513h-5.3v2.9h4v1.5h-4v4.9h-1.9v-10.9h7.2L229.8,513z"/>
					<path class="st1" d="M234.6,516.1c-0.9,0-1.7,0.6-2.2,2v4.3h-1.7v-7.7h1.6v1.9c0.6-1.5,1.4-2.1,2.4-2.1L234.6,516.1z"/>
					<path class="st1" d="M235.9,516.6c0.4-1.4,1.8-2.3,3.2-2.1c2,0,3,0.8,3,2.5v3c0,0.8,0,1.5,0.1,2.3h-1.6c-0.1-0.3-0.1-0.7-0.1-1
						c-0.6,0.8-1.5,1.2-2.4,1.2c-1.2,0.1-2.3-0.8-2.4-2c0-0.1,0-0.2,0-0.3c0-1.3,0.8-2.2,2.5-2.5c0.7-0.1,1.5-0.2,2.2-0.2V517
						c0-1-0.4-1.4-1.3-1.4c-0.8,0-1.4,0.6-1.5,1.3L235.9,516.6z M240.4,518.6c-0.6,0-1.2,0.1-1.8,0.2c-0.8,0.2-1.3,0.6-1.3,1.3
						c0,0.6,0.4,1.1,1,1.2c0.1,0,0.2,0,0.2,0c0.8-0.1,1.5-0.5,1.8-1.3V518.6z"/>
					<path class="st1" d="M246,516c0.5-0.9,1.5-1.5,2.5-1.5c1.2-0.1,2.2,0.8,2.2,2c0,0.1,0,0.2,0,0.3v5.5h-1.8v-5.1
						c0-0.9-0.4-1.3-1.1-1.3c-0.8,0.1-1.4,0.6-1.8,1.3v5h-1.8v-7.7h1.7V516z"/>
					<path class="st1" d="M257.4,517.3c-0.2-1.1-0.6-1.6-1.4-1.6c-1.1,0-1.7,1-1.7,2.7s0.6,2.8,1.7,2.8c0.8,0,1.3-0.5,1.5-1.6
						l1.6,0.4c-0.3,1.5-1.6,2.6-3.2,2.5c-2.2,0-3.5-1.5-3.5-4s1.3-4,3.5-4c1.5-0.1,2.9,1,3.1,2.5L257.4,517.3z"/>
					<path class="st1" d="M264.4,512.6c-0.2,0-0.4-0.1-0.6-0.1c-0.6,0-0.9,0.3-0.9,1v1h1.6v1.3h-1.6v6.4h-1.7v-6.4h-1.2v-1.3h1.2
						v-1.2c-0.1-1.1,0.6-2.1,1.7-2.2c0.2,0,0.4,0,0.6,0c0.4,0,0.8,0,1.2,0.1L264.4,512.6z"/>
					<path class="st1" d="M269.9,516.1c-0.9,0-1.7,0.6-2.2,2v4.3h-1.7v-7.7h1.6v1.9c0.5-1.5,1.4-2.1,2.4-2.1L269.9,516.1z"/>
					<path class="st1" d="M271.2,516.6c0.4-1.4,1.8-2.3,3.2-2.1c2,0,3,0.8,3,2.5v3c0,0.8,0,1.5,0.1,2.3h-1.6c-0.1-0.3-0.1-0.7-0.1-1
						c-0.6,0.8-1.5,1.2-2.4,1.2c-1.2,0.1-2.3-0.8-2.4-2c0-0.1,0-0.2,0-0.3c0-1.3,0.8-2.2,2.5-2.5c0.7-0.1,1.5-0.2,2.2-0.2V517
						c0-1-0.4-1.4-1.3-1.4c-0.8,0-1.4,0.6-1.5,1.3L271.2,516.6z M275.6,518.6c-0.6,0-1.2,0.1-1.8,0.2c-0.8,0.2-1.3,0.6-1.3,1.3
						c0,0.6,0.4,1.1,1,1.2c0.1,0,0.1,0,0.2,0c0.8,0,1.5-0.5,1.8-1.3V518.6z"/>
					<path class="st1" d="M281.3,516c0.5-0.9,1.5-1.5,2.5-1.5c1.2-0.1,2.1,0.8,2.2,2c0,0.1,0,0.2,0,0.3v5.5h-1.8v-5.1
						c0-0.9-0.4-1.3-1.1-1.3c-0.8,0.1-1.4,0.6-1.8,1.3v5h-1.8v-7.7h1.7V516z"/>
					<path class="st1" d="M292.6,517.3c-0.2-1.1-0.6-1.6-1.4-1.6c-1.1,0-1.7,1-1.7,2.7s0.6,2.8,1.7,2.8c0.8,0,1.3-0.5,1.5-1.6
						l1.6,0.4c-0.3,1.5-1.6,2.6-3.1,2.5c-2.2,0-3.5-1.5-3.5-4s1.3-4,3.5-4c1.5-0.1,2.9,1,3.1,2.5L292.6,517.3z"/>
					<polygon id="ico-wrap" class="st1" points="223.6,139.2 88,139.2 88,274.8 141.4,274.7 125.9,310.2 160.9,274.7 223.6,274.8 
											"/>
					<path class="st1" d="M293.9,441.4c0,0.6,0,1.2,0,1.8c0,0.4-0.1,0.9-0.5,1.2c-0.3,0.3-0.8,0.5-2.5,0.5c-0.6,0-0.6,0-0.7-0.5
						c-0.1-0.4-0.2-0.9-0.5-1.2c0.6,0,1.1,0.1,1.6,0.1s0.6-0.1,0.6-0.6v-7.6h-10.2v7.4c0,1.5,0,2.3,0,2.4s0,0.2-0.2,0.2h-1.5
						c-0.2,0-0.2,0-0.2-0.2s0-0.8,0-2.5v-6.3c0-1.6,0-2.4,0-2.5s0-0.2,0.2-0.2s0.7,0,2.5,0h3.2v-1.4h-4.4c-1.6,0-2.1,0-2.2,0
						s-0.2,0-0.2-0.2v-1.4c0-0.2,0-0.2,0.2-0.2s0.7,0,2.2,0h4.4c0-0.6,0-1.2-0.1-1.8c0.7,0,1.4,0,2,0.1c0.2,0,0.3,0.1,0.3,0.2
						c0,0.1,0,0.3-0.1,0.4c-0.1,0.3-0.1,0.7-0.1,1.1h4.8c1.6,0,2.1,0,2.2,0s0.2,0,0.2,0.2v1.4c0,0.2,0,0.2-0.2,0.2s-0.7,0-2.2,0
						h-4.8v1.4h3.6c1.8,0,2.3,0,2.5,0s0.2,0,0.2,0.2s0,1,0,2.6L293.9,441.4z M287.6,441.4v0.9c0,1.2,0,1.7,0,1.9s0,0.2-0.2,0.2H286
						c-0.2,0-0.2,0-0.2-0.2s0-0.7,0-1.9v-0.9h-0.9c-1.6,0-2.1,0-2.2,0s-0.2,0-0.2-0.2V440c0-0.2,0-0.2,0.2-0.2s0.6,0,2.2,0h0.9v-1.1
						H285c-1.4,0-1.9,0-2,0s-0.2,0-0.2-0.2v-1.2c0-0.2,0-0.2,0.2-0.2s0.5,0,1.4,0c-0.2-0.5-0.4-1-0.7-1.5c-0.1-0.2,0-0.2,0.2-0.3
						l1-0.4c0.2-0.1,0.2,0,0.3,0.1c0.3,0.4,0.6,0.9,0.8,1.4c0.1,0.2,0,0.2-0.2,0.3l-0.8,0.3h2.3c0.2-0.5,0.5-1.1,0.7-1.5
						c0.1-0.2,0.1-0.5,0.2-0.7c0.5,0.1,1,0.2,1.5,0.4c0.2,0,0.3,0.1,0.3,0.2c0,0.1,0,0.2-0.1,0.2c-0.1,0.1-0.2,0.2-0.3,0.4
						c-0.2,0.3-0.4,0.7-0.6,1.1c1.2,0,1.7,0,1.8,0s0.2,0,0.2,0.2v1.2c0,0.2,0,0.2-0.2,0.2s-0.6,0-2,0h-1.2v1.2h1.3
						c1.6,0,2.1,0,2.2,0s0.2,0,0.2,0.2v1.2c0,0.2,0,0.2-0.2,0.2s-0.6,0-2.2,0L287.6,441.4z"/>
					<path class="st1" d="M299.4,435.8c-1.6,0-2.2,0-2.3,0s-0.2,0-0.2-0.2v-1.1c0-0.2,0-0.2,0.2-0.2s0.7,0,2.3,0h4.4v-0.8h-2.1
						c-1.8,0-2.4,0-2.5,0s-0.2,0-0.2-0.2v-1c0-0.2,0-0.2,0.2-0.2s0.7,0,2.5,0h2.1v-0.8h-3.1c-1.7,0-2.3,0-2.4,0s-0.2,0-0.2-0.2v-1.1
						c0-0.2,0-0.2,0.2-0.2s0.7,0,2.4,0h3.1c0-0.6,0-1.1-0.1-1.6c0.6,0,1.3,0,1.9,0.1c0.2,0,0.3,0.1,0.3,0.2c0,0.1,0,0.2-0.1,0.4
						c-0.1,0.3-0.1,0.7-0.1,1h3.5c1.7,0,2.3,0,2.4,0s0.2,0,0.2,0.2v1.1c0,0.2,0,0.2-0.2,0.2s-0.7,0-2.4,0h-3.4v0.8h2.5
						c1.7,0,2.3,0,2.5,0s0.2,0,0.2,0.2v1c0,0.2,0,0.2-0.2,0.2s-0.7,0-2.5,0h-2.5v0.8h4.7c1.6,0,2.2,0,2.3,0s0.2,0,0.2,0.2v1.1
						c0,0.2,0,0.2-0.2,0.2s-0.7,0-2.3,0L299.4,435.8z M310.1,440.9c0,0.8,0,1.7,0,2.1c0,0.5-0.1,1-0.5,1.4c-0.3,0.3-0.9,0.4-2.5,0.4
						c-0.6,0-0.6,0-0.7-0.5c-0.1-0.4-0.3-0.9-0.5-1.2c0.7,0.1,1.3,0.1,1.8,0.1s0.6-0.2,0.6-0.6V442h-6.6v0.8c0,1.3,0,1.9,0,1.9
						s0,0.2-0.2,0.2h-1.5c-0.2,0-0.2,0-0.2-0.2s0-0.6,0-1.9v-4.1c0-1.3,0-1.9,0-2s0-0.2,0.2-0.2s0.7,0,2.4,0h5.1c1.7,0,2.3,0,2.4,0
						s0.2,0,0.2,0.2s0,0.8,0,2.1L310.1,440.9z M301.5,437.9v0.8h6.7v-0.8H301.5z M308.2,440.8V440h-6.7v0.8H308.2z"/>
					<path class="st1" d="M327.8,435.6c0-0.8,0-1.6-0.1-2.3c0.7,0,1.4,0.1,2,0.1c0.2,0,0.3,0.1,0.3,0.2c0,0.1,0,0.3-0.1,0.4
						c-0.1,0.6-0.2,1.2-0.1,1.8v5.5c0,2,0,3,0,3.1s0,0.2-0.2,0.2H328c-0.2,0-0.2,0-0.2-0.2v-1.1h-9.9v1.2c0,0.2,0,0.2-0.2,0.2h-1.6
						c-0.2,0-0.2,0-0.2-0.2s0-1.1,0-3.1v-5.7c0-0.8,0-1.6-0.1-2.3c0.7,0,1.3,0.1,2,0.1c0.2,0,0.3,0.1,0.3,0.2c0,0.1-0.1,0.2-0.1,0.4
						c-0.1,0.5-0.2,1.1-0.1,1.6v5.8h3.8v-9.9c0-0.9,0-1.8-0.1-2.7c0.7,0,1.4,0.1,2.1,0.1c0.2,0,0.3,0.1,0.3,0.2c0,0.1,0,0.3-0.1,0.4
						c-0.1,0.7-0.1,1.3-0.1,2v9.9h4.1L327.8,435.6z"/>
					<path class="st1" d="M335.4,443.5c-1.6,0-2.2,0-2.3,0s-0.2,0-0.2-0.2v-1.6c0-0.2,0-0.2,0.2-0.2s0.7,0,2.3,0h11
						c1.6,0,2.1,0,2.2,0s0.2,0,0.2,0.2v1.6c0,0.2,0,0.2-0.2,0.2s-0.6,0-2.2,0H335.4z M337,431.9c-1.8,0-2.3,0-2.5,0s-0.2,0-0.2-0.2
						v-1.6c0-0.2,0-0.2,0.2-0.2s0.7,0,2.5,0h7.9c1.7,0,2.3,0,2.5,0s0.2,0,0.2,0.2v1.6c0,0.2,0,0.2-0.2,0.2s-0.7,0-2.5,0H337z
						 M338.1,437.5c-1.7,0-2.3,0-2.5,0s-0.2,0-0.2-0.2v-1.6c0-0.2,0-0.2,0.2-0.2s0.7,0,2.5,0h5.6c1.7,0,2.3,0,2.5,0s0.2,0,0.2,0.2
						v1.6c0,0.2,0,0.2-0.2,0.2s-0.7,0-2.5,0H338.1z"/>
					<path class="st1" d="M353.4,431.7c-1.6,0-2.2,0-2.3,0s-0.2,0-0.2-0.2V430c0-0.2,0-0.2,0.2-0.2s0.7,0,2.3,0h11
						c1.6,0,2.2,0,2.3,0s0.2,0,0.2,0.2v1.5c0,0.2,0,0.2-0.2,0.2s-0.6,0-2.3,0h-4.1v7.3c0,1.9,0.1,2.8,0.1,3.5
						c0.1,0.7-0.2,1.3-0.7,1.7c-1.1,0.4-2.2,0.6-3.3,0.4c-0.6,0-0.6,0-0.7-0.6c-0.1-0.5-0.3-1-0.5-1.5c0.8,0.1,1.5,0.1,2.3,0.1
						c0.6,0,0.8-0.2,0.8-0.7v-10.3H353.4z"/>
					<path class="st1" d="M370.9,444.8c-0.2,0-0.2,0-0.2-0.2s0-1.3,0-6.7v-3.5c0-3.5,0-4.7,0-4.8s0-0.2,0.2-0.2s0.8,0,2.5,0h6.7
						c1.8,0,2.4,0,2.5,0s0.2,0,0.2,0.2s0,1.3,0,4.2v4.1c0,5.4,0,6.5,0,6.6s0,0.2-0.2,0.2H381c-0.2,0-0.2,0-0.2-0.2v-1h-8.1v1
						c0,0.2,0,0.2-0.2,0.2L370.9,444.8z M372.7,433.5h8.1v-2.4h-8.1V433.5z M380.8,437.6v-2.4h-8.1v2.4L380.8,437.6z M380.8,441.8
						v-2.5h-8.1v2.5H380.8z"/>
					
						<rect id="gaien_station" x="319.1" y="282.5" transform="matrix(0.9025 -0.4307 0.4307 0.9025 -90.7405 207.1472)" class="st1" width="186.2" height="43.1"/>
					<path id="street1" class="st3" d="M203.3-68.8c0,0,96.5,219.7,106.8,261.1s0,167.9,0,167.9"/>
					<path d="M378.6,318.4c0-0.1,0-0.2,0.1-0.2c0.1,0,0.1,0,0.2,0c0.7,0.2,1.4,0.4,2.1,0.7c-0.1-1.4-0.3-2.7-0.6-4L378,316
						c0,1.8-0.2,3.7-0.7,5.4c-0.1,0.2-0.1,0.4-0.2,0.4s-0.2,0-0.4-0.2c-0.4-0.3-0.8-0.5-1.3-0.6c0.8-2.4,1-4.9,0.5-7.4
						c-0.1-0.5-0.2-0.9-0.4-1.4c0.6-0.2,1.2-0.3,1.8-0.5c0.2,0,0.3,0,0.4,0.1c0,0.1,0,0.2,0,0.3c0,0.3,0,0.7,0.1,1
						c0,0.3,0.1,0.6,0.1,1l1.7-0.8c0.2-0.1,0.3-0.2,0.4-0.3c0-0.1,0.1-0.1,0.2-0.2c0.1,0,0.3-0.1,0.9,0.1s0.7,0.2,0.8,0.3
						s0,0.2,0,0.4v0.2c0.8,0.5,1.7,0.9,2.6,1.2l-1.7-3.5c-0.4-0.8-0.8-1.6-1.4-2.4c0.6-0.3,1.2-0.5,1.8-0.8c0.1-0.1,0.3-0.1,0.3,0
						c0,0.1,0.1,0.2,0.1,0.4c0.2,0.6,0.4,1.3,0.8,1.8l2.4,4.9c1.6,0.2,3.2,0.2,4.8,0c-0.1,0.5-0.1,1.1-0.1,1.6c0,0.4,0,0.5-0.1,0.5
						c-0.1,0-0.3,0.1-0.4,0.1c-1,0-2.1,0-3.1-0.1l1.2,2.3c0.9,1.8,1.4,2.7,1.4,2.8s0.1,0.2-0.1,0.3l-1.4,0.7
						c-0.2,0.1-0.2,0.1-0.3-0.1s-0.5-1-1.4-2.8l-1.8-3.6c-1.1-0.3-2.2-0.8-3.2-1.4c0.9,3.9,0.3,7.9-1.6,11.4
						c-0.1,0.2-0.2,0.4-0.3,0.4s-0.2,0-0.5-0.1c-0.4-0.2-0.9-0.3-1.4-0.4c1.3-1.9,2-4.1,2.3-6.4c-0.8-0.3-1.6-0.6-2.4-0.9
						c-0.1,0-0.1,0-0.2-0.1c0-0.1,0-0.2,0-0.2L378.6,318.4z"/>
					<path d="M393,305.3c-0.2-0.5-0.5-1-0.9-1.5c0.6-0.3,1.1-0.5,1.7-0.7c0.1,0,0.2,0,0.3,0.1c0,0.1,0,0.2,0,0.3
						c0.1,0.4,0.2,0.7,0.4,1l3-1.5c-0.2-0.5-0.5-1-0.9-1.5c0.6-0.3,1.2-0.5,1.7-0.7c0.1,0,0.3,0,0.3,0.1c0,0.1,0,0.2,0,0.3
						c0.1,0.4,0.2,0.7,0.4,1l2-1c1.4-0.7,1.9-1,2-1s0.2-0.1,0.3,0.1l0.6,1.1c0.1,0.2,0.1,0.2-0.1,0.3s-0.6,0.3-2,1l-2,1
						c0.3,0.6,0.5,0.8,0.5,0.9s0.1,0.2-0.1,0.3l-1.2,0.6c-0.2,0.1-0.2,0.1-0.3-0.1s-0.2-0.4-0.4-1l-3,1.5c0.3,0.6,0.5,0.9,0.5,0.9
						s0.1,0.2-0.1,0.3l-1.3,0.6c-0.2,0.1-0.2,0.1-0.3-0.1l-0.4-1l-1.8,0.9c-1.4,0.7-1.9,1-2,1s-0.2,0.1-0.3-0.1l-0.6-1.1
						c-0.1-0.2-0.1-0.2,0.1-0.3s0.6-0.3,2-1L393,305.3z M395,310.9c0,1.4-0.3,2.8-0.8,4.1c-0.1,0.2-0.1,0.4-0.2,0.4s-0.2,0-0.5-0.1
						c-0.4-0.2-0.7-0.4-1.1-0.5c0.8-1.7,1.1-3.5,0.9-5.3c0-0.3-0.1-0.7-0.2-1c0.5-0.2,1-0.3,1.5-0.4c0.3-0.1,0.4,0,0.4,0
						c0.1,0.1,0.1,0.2,0,0.3c-0.1,0.2-0.1,0.5,0,0.7v0.1l1.8-0.9c0.1,0,0.2-0.1,0.2-0.2c0.1-0.1,0.1-0.1,0.2-0.2
						c0.1,0,0.2-0.1,0.9,0.1s0.6,0.2,0.7,0.4c0.1,0.1,0.1,0.3,0,0.4c-0.1,0.2-0.1,0.5,0,0.7c0.8,4.1,0.2,7-2,10.2
						c-0.1,0.2-0.2,0.3-0.3,0.3s-0.2,0-0.5-0.2c-0.4-0.2-0.8-0.4-1.2-0.5c1.2-1.4,2.1-3,2.5-4.8c-0.7-0.2-1.4-0.4-2.1-0.5
						c-0.1,0-0.2,0-0.2-0.1c0-0.1,0-0.1,0-0.2l0.2-0.9c0-0.2,0.1-0.2,0.3-0.2c0.7,0.1,1.3,0.2,2,0.4c0-1.1-0.1-2.2-0.3-3.2
						L395,310.9z M403.7,313.4c0.2,0.4,0.3,0.5,0.5,0.5c0.6-0.1,1.1-0.3,1.6-0.6c1-0.5,1.4-0.8,1.5-1.1c0-0.5-0.1-1.1-0.4-1.5
						c0.4,0,0.8,0,1.2-0.1c0.6-0.1,0.6-0.1,0.8,0.4c0.3,0.6,0.3,1.2,0.2,1.9c-0.2,0.6-0.9,1.2-2.7,2.1c-0.9,0.6-1.9,0.9-2.9,1
						c-0.5-0.2-0.9-0.5-1-1l-2.9-5.8c-0.6-1.3-1-1.9-1-2s-0.1-0.2,0.1-0.2s0.7-0.3,1.9-0.9l2-1c1.1-0.6,1.5-0.8,1.6-0.8
						s0.2-0.1,0.3,0.1c0.2,0.5,0.4,0.9,0.6,1.4c0.5,1.1,1.2,2.5,1.5,3.4c0.3,0.5,0.2,1.1-0.2,1.5c-0.4,0.4-0.8,0.8-1.3,1
						c-0.5,0.2-0.5,0.2-0.8-0.2c-0.2-0.3-0.5-0.7-0.8-0.9c0.3-0.1,0.7-0.2,1-0.4c0.4-0.2,0.5-0.4,0.3-0.8c-0.4-1-0.8-1.9-1.3-2.8
						l-2.6,1.3L403.7,313.4z"/>
					<path d="M408.4,300.4c-1.4,0.7-1.9,1-2,1s-0.2,0.1-0.3-0.1l-0.6-1.2c-0.1-0.2-0.1-0.2,0.1-0.3s0.6-0.3,2-1l1.9-1
						c-0.5-0.4-1.1-0.8-1.7-1.1c-0.2-0.1-0.2-0.1,0-0.3l0.9-1c0.2-0.2,0.2-0.2,0.4-0.1c0.6,0.3,1.2,0.7,1.7,1.1
						c0.1,0.1,0.1,0.1,0,0.3l-0.8,0.9l3.6-1.8c0.1-0.7,0.2-1.4,0.2-2.1c0-0.3,0-0.6-0.1-1c0.6-0.2,1.2-0.3,1.8-0.4
						c0.2,0,0.3,0,0.3,0.1c0,0.1,0,0.2,0,0.3c-0.1,0.2-0.2,0.5-0.1,0.8c0,0.4-0.1,0.8-0.2,1.3l2.1-1.1c1.4-0.7,1.9-1,2-1
						s0.2-0.1,0.3,0.1l0.6,1.2c0.1,0.2,0.1,0.2-0.1,0.3s-0.6,0.3-2,1L408.4,300.4z M416.6,305.1c0.4,0.8,0.9,1.7,1.1,2.1
						c0.3,0.4,0.4,1,0.3,1.5c-0.1,0.3-0.5,0.6-1.6,1.2c-0.5,0.3-0.5,0.3-0.8-0.2c-0.2-0.3-0.5-0.6-0.9-0.8c0.5-0.2,0.7-0.3,1.1-0.5
						s0.5-0.4,0.3-0.7l-0.7-1.3l-2.6,1.3l0.6,1.1c0.7,1.3,1,2,1,2s0.1,0.2-0.1,0.3l-1.3,0.6c-0.2,0.1-0.2,0.1-0.3-0.1
						s-0.3-0.7-1-2.1l-2.6-5.3c-0.7-1.4-1-2-1.1-2.1s-0.1-0.2,0.1-0.2s0.5-0.2,1.7-0.8l2-1c1.2-0.6,1.6-0.8,1.7-0.9s0.2-0.1,0.3,0.1
						s0.4,0.9,1.1,2.3L416.6,305.1z M410.3,302.7l0.6,1.2l2.6-1.3l-0.6-1.2L410.3,302.7z M414.7,305.2l-0.6-1.2l-2.6,1.3l0.6,1.2
						L414.7,305.2z M416.5,301.1c-0.4-0.8-0.8-1.5-1.3-2.2c0.6-0.3,1.1-0.5,1.7-0.7c0.2-0.1,0.3,0,0.3,0.1c0,0.1,0.1,0.3,0.1,0.4
						c0.2,0.6,0.4,1.1,0.7,1.6l1,1.9c0.5,1.1,0.8,1.6,0.9,1.7s0.1,0.2-0.1,0.2l-1.3,0.6c-0.2,0.1-0.2,0.1-0.2-0.1s-0.3-0.6-0.8-1.7
						L416.5,301.1z M422.5,301.1c0.6,1.1,1,2,1.4,2.8s0.5,1.3,0.2,1.8s-0.7,0.8-2.1,1.5c-0.5,0.2-0.5,0.3-0.9-0.2
						c-0.3-0.4-0.6-0.7-1-0.9c0.6-0.2,1.1-0.4,1.7-0.7c0.5-0.2,0.6-0.5,0.4-1l-2.8-5.5c-0.3-0.7-0.8-1.4-1.2-2.1
						c0.6-0.3,1.1-0.5,1.7-0.7c0.2-0.1,0.3,0,0.4,0c0,0.1,0.1,0.3,0.1,0.4c0.1,0.6,0.4,1.1,0.7,1.6L422.5,301.1z"/>
					<path d="M427.3,297.3c-1.1,0.5-1.5,0.8-1.7,0.9s-0.2,0.1-0.3-0.1s-0.3-0.7-1-2l-2-4c-0.6-1.3-1-1.9-1-2s-0.1-0.2,0.1-0.3
						s0.6-0.3,1.7-0.8l2.6-1.3c1-0.5,1.5-0.8,1.6-0.8s0.2-0.1,0.3,0.1l0.5,1c0.1,0.2,0.1,0.2-0.1,0.3s-0.6,0.2-1.6,0.8l-0.3,0.1
						l0.6,1.1c1-0.5,1.4-0.7,1.5-0.8s0.2-0.1,0.3,0.1l0.4,0.9c0.1,0.2,0.1,0.2-0.1,0.3l-1.5,0.7l0.5,1.1c1-0.5,1.4-0.7,1.5-0.8
						s0.2-0.1,0.3,0.1l0.5,0.9c0.1,0.2,0.1,0.2-0.1,0.3l-1.5,0.7l0.6,1.1l0.3-0.1c1-0.5,1.3-0.7,1.4-0.8s0.2-0.1,0.3,0.1l0.5,1.1
						c0.8,1.4,1.3,3,1.7,4.5c0.1-1.5-0.1-3.1-0.6-4.5c-0.8-2-1.7-3.9-2.7-5.8c-0.8-1.7-1.2-2.4-1.3-2.5s-0.1-0.2,0.1-0.3
						s0.5-0.2,1.8-0.9l2.4-1.2c1.3-0.6,1.7-0.9,1.8-0.9s0.2-0.1,0.3,0.1s0.2,0.6,0.8,1.6l1.5,3c0.5,1.1,0.8,1.5,0.8,1.6
						s0.1,0.2-0.1,0.3l-1.2,0.6c-0.2,0.1-0.2,0.1-0.3-0.1l-0.1-0.3l-0.6,0.3c1.3,2.4,3.6,4.2,6.2,4.9c-0.2,0.5-0.4,0.9-0.5,1.4
						c0,0.3-0.1,0.4-0.2,0.5s-0.2,0-0.5-0.1c-2.8-1-4.8-3.1-6.6-6l-1.2,0.6c0.5,1,0.9,2,1.2,3c0.6,1.7,0.9,3.5,0.7,5.3
						c0,0.2,0,0.4-0.1,0.4s-0.2,0-0.5-0.1c-0.4-0.2-0.8-0.3-1.2-0.3c0,0.7-0.5,1.4-1.1,1.7c-0.2,0.1-0.5,0.2-0.7,0.3
						s-0.3,0.1-0.6-0.4c-0.2-0.3-0.5-0.7-0.9-0.9c0.4-0.1,0.8-0.3,1.2-0.5c0.3-0.1,0.5-0.4,0.5-0.8c-0.3-1.4-0.8-2.7-1.5-3.9
						L427.3,297.3z M425.3,291l-0.6-1.1l-1.3,0.7l0.6,1.1L425.3,291z M426.4,293.2l-0.5-1.1l-1.3,0.7l0.5,1.1L426.4,293.2z
						 M426.4,298.7c0.3,0,0.3,0,0.4,0.2c0.6,1.2,1,2.6,1.2,3.9c0,0.2-0.1,0.2-0.2,0.2l-0.8-0.1c-0.2,0-0.3,0-0.3-0.2
						c-0.2-1.3-0.6-2.5-1.1-3.7c-0.1-0.2,0-0.2,0.2-0.2L426.4,298.7z M427.5,295.6l-0.6-1.1l-1.3,0.7l0.6,1.1L427.5,295.6z
						 M427.5,298.1c0.2-0.1,0.2-0.1,0.3,0c0.6,0.9,1.1,1.7,1.7,2.7c0.1,0.2,0.1,0.2-0.1,0.3l-0.4,0.4c-0.2,0.2-0.2,0.2-0.3,0
						c-0.5-1-1-2-1.7-2.9c-0.1-0.2-0.1-0.2,0.1-0.3L427.5,298.1z M428.5,297.5c0.1-0.1,0.2-0.1,0.3,0c0.5,0.7,1.1,1.4,1.5,2.1
						c0.1,0.1,0.1,0.2,0,0.4l-0.3,0.3c-0.1,0.2-0.2,0.2-0.3,0c-0.5-0.8-1-1.5-1.5-2.2c-0.1-0.1-0.1-0.1,0-0.3L428.5,297.5z
						 M429.3,296.8c0.1-0.1,0.1-0.1,0.3,0c0.5,0.5,0.9,0.9,1.3,1.5c0.1,0.1,0.1,0.2,0,0.3l-0.2,0.4c-0.1,0.2-0.2,0.1-0.2,0
						c-0.4-0.6-0.8-1.1-1.3-1.6c-0.1-0.1-0.1-0.1,0-0.3L429.3,296.8z M430.8,287.4l0.7,1.4c0.3,0.6,0.6,1.1,0.8,1.6l3.2-1.6
						l-1.5-3.1L430.8,287.4z"/>
					<polygon id="jingu_shape" class="st1" points="218,-90.9 349.6,209.2 565,124 599.5,196.7 657.2,169 556.1,-86.2 590.6,-119.8 
						182.1,-143 					"/>
					<path d="M378.1,97c0,0.2,0,0.2-0.3,0.2h-1.2c-0.2,0-0.2,0-0.2-0.2s0-0.6,0-2.5c-0.3,0.3-0.5,0.7-0.7,1.1
						c-0.1,0.2-0.1,0.2-0.2,0.2s-0.2-0.1-0.3-0.2c-0.5-0.5-1-1-1.4-1.6v4.4c0,1.3,0,2.6,0,2.7s0,0.2-0.2,0.2h-1.3
						c-0.2,0-0.2,0-0.2-0.2s0-1.3,0-2.7v-3.7c-0.5,0.6-1.1,1.1-1.6,1.6c-0.2,0.2-0.3,0.2-0.4,0.2s-0.1-0.1-0.2-0.3
						c-0.1-0.5-0.3-1-0.6-1.5c2-1.4,3.6-3.2,4.5-5.4h-2c-1.3,0-1.8,0-1.9,0s-0.2,0-0.2-0.2v-1.3c0-0.2,0-0.2,0.2-0.2s0.5,0,1.9,0
						h0.3v-0.7c0-0.7,0-1.5-0.2-2.2c0.6,0,1.3,0.1,1.9,0.2c0.2,0,0.3,0.1,0.3,0.2c0,0.1,0,0.3-0.1,0.4c-0.2,0.5-0.2,0.9-0.2,1.4v0.9
						h0.5c0.1,0,0.2,0,0.3-0.1c0.1-0.1,0.1-0.1,0.2-0.1c0.1,0,0.4,0.1,0.8,0.5s0.5,0.5,0.5,0.6c0,0.2-0.1,0.3-0.2,0.4
						c-0.2,0.2-0.3,0.4-0.4,0.7c-0.4,0.8-0.8,1.6-1.3,2.4c0.6,0.8,1.4,1.6,2.3,2.1v-3.4c0-2.2,0-2.8,0-2.9s0-0.2,0.2-0.2
						s0.7,0,2.3,0h1v-0.2c0-0.9,0-1.8-0.2-2.7c0.7,0,1.3,0.1,2,0.1c0.2,0,0.3,0.1,0.3,0.2c0,0.1-0.1,0.2-0.1,0.4
						c-0.1,0.7-0.2,1.3-0.1,2v0.3h1.2c1.6,0,2.2,0,2.3,0s0.2,0,0.2,0.2s0,0.7,0,2.6V93c0,3.2,0,3.8,0,3.9s0,0.2-0.2,0.2h-1.4
						c-0.2,0-0.2,0-0.2-0.2v-0.7h-1.9v2.6c0,1.6,0,2.1,0,2.2s0,0.2-0.2,0.2h-1.5c-0.2,0-0.2,0-0.2-0.2s0-0.6,0-2.2v-2.6H378
						L378.1,97z M379.8,91.1v-1.9h-1.8v1.9H379.8z M379.8,94.6v-2h-1.8v2H379.8z M381.6,89.2v1.9h1.9v-1.9H381.6z M383.4,94.6v-2
						h-1.9v2H383.4z"/>
					<path d="M400.6,86.5c1.6,0,2.2,0,2.4,0s0.2,0,0.2,0.2s0,0.4,0,1v0.8c0,1.6,0,1.9,0,2s0,0.2-0.2,0.2h-1.5c-0.2,0-0.2,0-0.2-0.2
						v-2.4h-11.4v2.4c0,0.2,0,0.2-0.2,0.2h-1.5c-0.2,0-0.2,0-0.2-0.2s0-0.4,0-2v-0.7c0-0.7,0-1,0-1.1s0-0.2,0.2-0.2s0.7,0,2.4,0h3.9
						v-0.1c0-0.6,0-1.1-0.1-1.7c0.7,0,1.3,0,1.9,0.1c0.2,0,0.3,0.1,0.3,0.2c0,0.1,0,0.2-0.1,0.4c-0.1,0.3-0.1,0.7-0.1,1.1v0.2
						L400.6,86.5z M397.7,89.3c1.7,0,2.3,0,2.4,0s0.2,0,0.2,0.2s0,0.5,0,1.3v1.5c0,0.9,0,1.2,0,1.3s0,0.2-0.2,0.2s-0.7,0-2.4,0h-1.4
						c-0.2,0.5-0.4,1-0.6,1.5h3.6c1.8,0,2.4,0,2.5,0s0.2,0,0.2,0.2s0,0.5,0,1.4v1.2c0,2.2,0,2.6,0,2.7s0,0.2-0.2,0.2h-1.5
						c-0.2,0-0.2,0-0.2-0.2v-0.5h-8.9v0.6c0,0.2,0,0.2-0.2,0.2h-1.5c-0.2,0-0.2,0-0.2-0.2s0-0.5,0-2.7v-1.1c0-1.2,0-1.6,0-1.7
						s0-0.2,0.2-0.2s0.7,0,2.5,0h1.8c0.2-0.5,0.4-1,0.6-1.5h-1c-1.7,0-2.2,0-2.4,0s-0.2,0-0.2-0.2s0-0.5,0-1.3v-1.5
						c0-0.9,0-1.2,0-1.3s0-0.2,0.2-0.2s0.7,0,2.4,0L397.7,89.3z M391.1,98.8h8.9v-2h-8.9V98.8z M398.5,90.7h-5.9v1.7h5.9V90.7z"/>
					<path d="M409.3,91.6c0.1-0.1,0.1-0.1,0.2-0.1c0.1,0,0.1,0.1,0.2,0.1c0.6,0.5,1.1,1,1.6,1.6c0.6-1.3,1-2.6,1.2-3.9h-2.6
						c-0.8,1.7-1.8,3.2-3.1,4.5c-0.2,0.2-0.3,0.3-0.4,0.3s-0.2-0.1-0.3-0.4c-0.2-0.4-0.5-0.8-0.9-1.1c1.8-1.8,3.1-4,3.8-6.4
						c0.1-0.5,0.2-0.9,0.2-1.4c0.6,0.1,1.2,0.2,1.8,0.4c0.2,0,0.3,0.1,0.3,0.2c0,0.1,0,0.2-0.1,0.3c-0.2,0.3-0.3,0.6-0.4,0.9
						c-0.1,0.3-0.2,0.6-0.3,0.9h1.9c0.2,0,0.4,0,0.5-0.1c0.1-0.1,0.2-0.1,0.2-0.1c0.1,0,0.3,0.1,0.8,0.5s0.5,0.5,0.5,0.6
						s-0.1,0.2-0.2,0.3l-0.1,0.2c0.5,0.8,1.1,1.6,1.8,2.3v-3.8c0-0.9,0-1.8-0.1-2.7c0.7,0,1.3,0.1,2,0.1c0.2,0,0.3,0.1,0.3,0.2
						c0,0.1,0,0.2-0.1,0.4c-0.1,0.7-0.2,1.3-0.1,2v5.5c1.3,0.9,2.7,1.6,4.2,2.2c-0.3,0.4-0.6,0.9-0.8,1.4c-0.1,0.3-0.2,0.4-0.3,0.4
						c-0.1,0-0.3-0.1-0.4-0.1c-0.9-0.4-1.8-0.9-2.7-1.5v2.6c0,2,0,3,0,3.1s0,0.2-0.2,0.2h-1.6c-0.2,0-0.2,0-0.2-0.2s0-1.1,0-3.1
						v-4.1c-0.8-0.8-1.6-1.7-2.2-2.7c-0.9,3.9-3.3,7.2-6.5,9.5c-0.2,0.2-0.3,0.3-0.4,0.3s-0.2-0.1-0.4-0.4c-0.3-0.4-0.6-0.7-1-1
						c2-1.2,3.7-2.8,4.9-4.7c-0.6-0.6-1.1-1.3-1.8-1.8c-0.1-0.1-0.1-0.1-0.1-0.2c0-0.1,0.1-0.2,0.1-0.2L409.3,91.6z"/>
					<path d="M427.4,92.2c-0.7,1.2-1.5,2.4-2.5,3.3c-0.2,0.2-0.3,0.2-0.4,0.2s-0.2-0.1-0.3-0.3c-0.2-0.4-0.5-0.7-0.8-1
						c1.4-1.1,2.5-2.7,3.2-4.4c0.1-0.3,0.2-0.7,0.2-1c0.5,0.1,1,0.2,1.5,0.3c0.3,0.1,0.4,0.1,0.4,0.2c0,0.1,0,0.2-0.1,0.3
						c-0.2,0.2-0.3,0.4-0.4,0.6v0.1h2c0.1,0,0.2,0,0.3-0.1c0.1,0,0.2-0.1,0.2-0.1c0.1,0,0.2,0.1,0.7,0.5s0.5,0.5,0.5,0.6
						c0,0.1-0.1,0.3-0.2,0.4c-0.1,0.2-0.2,0.4-0.3,0.7c-1.2,4.1-2.9,6.3-6.4,8.2c-0.1,0.1-0.3,0.1-0.4,0.2c-0.1,0-0.2-0.1-0.4-0.4
						c-0.2-0.4-0.5-0.7-0.9-1c1.7-0.6,3.2-1.7,4.3-3c-0.5-0.5-1-1-1.6-1.5c-0.1-0.1-0.1-0.1-0.1-0.2c0-0.1,0-0.1,0.1-0.2l0.6-0.7
						c0.1-0.2,0.2-0.2,0.4-0.1c0.6,0.4,1.1,0.8,1.6,1.2c0.5-0.9,0.9-2,1.2-3H427.4z M428.1,86.4c0-0.6,0-1.1-0.1-1.7
						c0.6,0,1.2,0.1,1.8,0.1c0.1,0,0.2,0.1,0.2,0.2c0,0.1,0,0.2-0.1,0.3c-0.1,0.3-0.1,0.7-0.1,1.1h3.4c0-0.6,0-1.1-0.1-1.7
						c0.7,0,1.3,0.1,1.8,0.1c0.1,0,0.3,0.1,0.3,0.2c0,0.1,0,0.2-0.1,0.3c-0.1,0.4-0.1,0.7-0.1,1.1h2.2c1.6,0,2.1,0,2.2,0
						s0.2,0,0.2,0.2v1.3c0,0.2,0,0.2-0.2,0.2s-0.6,0-2.2,0h-2.2c0,0.6,0,1,0,1s0,0.2-0.2,0.2h-1.4c-0.2,0-0.2,0-0.2-0.2s0-0.4,0-1
						h-3.4c0,0.6,0,1,0,1.1s0,0.2-0.2,0.2h-1.4c-0.2,0-0.2,0-0.2-0.2s0-0.4,0-1.1h-2c-1.6,0-2.1,0-2.3,0s-0.2,0-0.2-0.2v-1.3
						c0-0.2,0-0.2,0.2-0.2s0.7,0,2.3,0L428.1,86.4z M434,98.4c0,0.4,0.1,0.6,0.2,0.7c0.6,0.2,1.1,0.2,1.7,0.2c1.1,0,1.6-0.1,1.9-0.4
						s0.3-0.6,0.3-1.6c0.4,0.2,0.7,0.4,1.1,0.5c0.6,0.2,0.6,0.2,0.5,0.7c0,0.6-0.3,1.2-0.7,1.8c-0.5,0.5-1.4,0.7-3.4,0.7
						c-1.6,0-2.6-0.1-3.1-0.4c-0.4-0.4-0.5-0.9-0.5-1.4v-6.5c0-1.4,0-2.1,0-2.2s0-0.2,0.2-0.2s0.8,0,2,0h2.2c1.3,0,1.7,0,1.8,0
						s0.2,0,0.2,0.2c0,0.5,0,1,0,1.5c0,1.2,0,2.8-0.2,3.7c0,0.5-0.3,1-0.8,1.2c-0.5,0.2-1.1,0.3-1.6,0.3c-0.6,0-0.6,0-0.6-0.6
						c-0.1-0.4-0.2-0.8-0.4-1.2c0.3,0,0.7,0.1,1,0.1c0.4,0,0.6-0.1,0.6-0.5c0.1-1,0.1-2.1,0.1-3.1H434L434,98.4z"/>
					<polygon id="direction_inner" class="st1" points="12.1,487.9 1.6,522.3 22.7,522.3 					"/>
					<polygon id="direction_line" class="st4" points="12.1,556.7 1.6,522.3 12.1,487.9 22.7,522.3 					"/>
					<path class="st5" d="M181.3,244c-0.1-0.4-0.2-0.6-0.6-0.2c-1.1,1-3,0.8-3.6,2.5c-0.5-1.7-2.5-1.5-3.6-2.5
						c-0.4-0.3-0.5-0.2-0.6,0.2c-0.4,3.4,2.9,3.9,3.7,5.2c0.2,0.3,0.5,0.4,0.8,0.2c0.1-0.1,0.2-0.1,0.2-0.2
						C178.4,248,181.7,247.4,181.3,244z"/>
					<path class="st6" d="M105.1,244.4h-5.7c-1.7,0-2,1.3-2,2.3v13.1c0,0.6,0.4,1,1,1c0.5,0,1-0.4,1-0.9c0,0,0-0.1,0-0.1v-5.5
						c0-0.6,0.5-1.1,1.1-1.1h3.9c0.5,0,1-0.3,1-0.8c0-0.1,0-0.1,0-0.2c0-0.5-0.4-0.9-0.9-1c0,0-0.1,0-0.1,0h-3.9
						c-0.6,0-1.1-0.5-1.1-1.1v-2.7c0-0.6,0.5-1.1,1.1-1.1h4.5c0.5,0.1,0.9-0.3,1-0.8c0,0,0-0.1,0-0.1c0-0.5-0.4-0.9-0.9-0.9
						C105.2,244.4,105.2,244.4,105.1,244.4z"/>
					<path class="st6" d="M119,254.7c-0.2-0.3-0.2-0.6-0.1-0.9c0.1-0.3,0.3-0.6,0.6-0.7c0.2-0.1,0.4-0.2,0.6-0.4
						c1-0.9,1.6-2.3,1.5-3.7c0.1-1.2-0.3-2.3-1-3.2c-0.9-1-2.3-1.5-3.6-1.4h-1.8c-1.8,0-2,1.3-2,2.3v13.1c0,0.6,0.4,1,1,1s1-0.4,1-1
						v-12.4c0-0.6,0.5-1.1,1.1-1.1h0.2c1.2,0,3,0,3,2.6c0,2.2-0.9,2.5-1.5,2.7c-1.7,0.6-1.7,2.5-0.9,3.7c1.2,1.9,3.1,4.9,3.1,4.9
						c0.2,0.3,0.5,0.5,0.8,0.5c0.5,0,1-0.4,1-0.9c0-0.3-0.1-0.5-0.3-0.7L119,254.7z"/>
					<path class="st6" d="M136.9,258.6h-4.7c-0.6,0-1.1-0.5-1.1-1.1l0,0v-3.2c0-0.6,0.5-1.1,1.1-1.1h3.9c0.5,0,0.9-0.4,0.9-0.9
						c0,0,0-0.1,0-0.1c0-0.5-0.4-0.9-0.9-0.9c0,0,0,0,0,0h-3.9c-0.6,0-1.1-0.5-1.1-1.1c0,0,0,0,0,0v-2.6c0-0.6,0.5-1.1,1.1-1.1h4.5
						c0.5,0,0.9-0.4,0.9-0.9c0,0,0,0,0-0.1c0-0.5-0.3-0.9-0.8-1c0,0-0.1,0-0.1,0H131c-1.8,0-1.9,1.3-1.9,2.3v11.5
						c0,1.6,0.6,2.3,1.9,2.3h5.9c0.5,0,0.9-0.4,0.9-0.9c0,0,0-0.1,0-0.1C137.8,259,137.4,258.6,136.9,258.6
						C136.9,258.6,136.9,258.6,136.9,258.6z"/>
					<path class="st6" d="M152.6,258.6h-4.7c-0.6,0-1.1-0.5-1.1-1.1l0,0v-3.2c0-0.6,0.5-1.1,1.1-1.1h3.9c0.5,0,0.9-0.4,0.9-0.9
						c0,0,0-0.1,0-0.1c0-0.5-0.4-0.9-0.9-0.9c0,0,0,0,0,0h-3.9c-0.6,0-1.1-0.5-1.1-1.1c0,0,0,0,0,0v-2.6c0-0.6,0.5-1.1,1.1-1.1h4.5
						c0.5,0,0.9-0.4,0.9-0.9c0,0,0,0,0-0.1c0-0.5-0.3-0.9-0.8-1c0,0-0.1,0-0.1,0h-5.7c-1.8,0-1.9,1.3-1.9,2.3v11.5
						c0,1.6,0.6,2.3,1.9,2.3h5.9c0.5,0,0.9-0.4,0.9-0.9c0,0,0-0.1,0-0.1C153.5,259,153.1,258.6,152.6,258.6z"/>
					<path class="st6" d="M177.2,250.1c-0.6,0-1,0.4-1,1v8.8c0,0.5,0.3,1,0.9,1c0,0,0.1,0,0.1,0c0.6,0,1-0.4,1-1v-8.8
						C178.2,250.5,177.8,250.1,177.2,250.1z"/>
					<path class="st6" d="M194.7,244.1c-0.7,0-0.9,0.5-0.9,0.9l-1.9,8.4c-0.1,0.5-0.2,1.1-0.7,1.1s-0.7-0.6-0.8-1.1l-1.8-8.4
						c-0.1-0.4-0.3-0.9-1-0.9c-0.6,0-1,0.4-1,0.9c0,0,0,0,0,0c0,0.1,0,0.3,0.1,0.4l3.1,13.9c0.2,1,0.5,1.5,1.5,1.5
						c0.8,0,1.2-0.4,1.4-1.5l3.1-13.9c0-0.1,0.1-0.3,0.1-0.4C195.7,244.5,195.3,244.1,194.7,244.1
						C194.7,244.1,194.7,244.1,194.7,244.1z"/>
					<path class="st6" d="M210.7,258.6H206c-0.6,0-1.1-0.5-1.1-1.1l0,0v-3.2c0-0.6,0.5-1.1,1.1-1.1h3.9c0.5,0,0.9-0.4,1-0.9
						c0,0,0-0.1,0-0.1c0-0.5-0.4-0.9-0.9-0.9c0,0,0,0,0,0H206c-0.6,0-1.1-0.5-1.1-1.1c0,0,0,0,0,0v-2.6c0-0.6,0.5-1.1,1.1-1.1h4.5
						c0.5,0,0.9-0.4,0.9-0.9c0,0,0-0.1,0-0.1c0-0.5-0.3-0.9-0.8-1c0,0-0.1,0-0.1,0h-5.7c-1.7,0-2,1.3-2,2.3v11.5
						c0,1.6,0.6,2.3,2,2.3h5.9c0.5,0,0.9-0.4,0.9-0.9c0,0,0-0.1,0-0.1C211.6,259,211.2,258.6,210.7,258.6z"/>
					<path class="st6" d="M163.6,244.4h-1.2c-1.8,0-2,1.3-2,2.3v10.3c0,0.9,2,0.9,2,0v-9.6c0-0.6,0.5-1.1,1.1-1.1
						c0.8-0.1,1.6,0.3,2.1,1c1.1,1.4,1.1,4.6,1.1,5.2c0,1.6-0.2,4.5-1.6,5.7c-0.4,0.4-1,0.5-1.6,0.5h-2.2c-0.7,0-0.9,0.4-0.9,1
						s0.5,0.9,0.9,0.9h2.2c1,0,1.9-0.2,2.7-0.8c1.6-1.3,2.5-3.7,2.5-7.2c0-2.8-0.6-5.2-1.7-6.5C166.3,245,165,244.4,163.6,244.4z"/>
					<path class="st7" d="M160,170.5c3.6-4.6,4.4-12.1-0.7-14.4c-1.4-0.6-5.1-0.9-4.9,0.3c2.1,9.1-26.8,23.4-36.4,43.6
						c-0.4,0.8,0,2.3,0.5,1.7C130,187.8,151.7,181,160,170.5z"/>
					<path class="st5" d="M132.4,217.1c-3.6-0.8-7-2.5-9.7-5c-0.5-0.5-0.7-0.9,0.5-0.9c12-0.3,15.5,5.7,19.5,3.9
						c2.5-1.3,5.6-0.9,7.7,1c0.4,0.4,0.1,0.6-0.2,0.7C144.5,218.3,138.3,218.5,132.4,217.1z M205,190.5c-2.9,0.1-5.8-0.3-8.5-1.3
						c-3.3-1.1-5.5-0.2-6.6,1.3c-3.1,4.4-15,16.7-29.3,23.5c-0.9,0.4-1-0.1-0.3-0.6c1.8-1.1,4.3-2.5,6.7-4.3c1-0.7,0.9-1.2-0.3-0.7
						c-4.5,2-9.2,3.8-13.9,5.3c-0.8,0.2-0.6,0.6,0,0.6c7.7,0,11.3,3.7,14.8,3.9c0.7,0,0.7,0.4,0,0.8c-3.6,1.9-8.5,2.9-14.3-0.8
						c-0.4-0.3-0.9-0.4-1.4-0.3c-8.9,2.6-18.1,2.1-24.8-1c-1-0.5-1.5,0.2-0.7,1c14,15.5,37.9,16.8,53.5,2.8
						c8-7.2,12.5-17.4,12.5-28.1c0-2.4,2.5-1.6,3.3-1.4c4.4,1.1,6.7,1.4,9.2,0.1C205.5,191,205.5,190.5,205,190.5L205,190.5z"/>
					<path class="st8" d="M117.9,197.5c8.8-19,28.7-26.9,31.4-40.3c0.3-1.4-1.4-1.8-2.1-1.7c-17.7,3.6-30.4,19.1-30.4,37.1
						c0,1.1,0.1,2.2,0.1,3.3C117,197.3,117.6,198.1,117.9,197.5z"/>
					<path class="st9" d="M170.1,161.3c-6.4,20.4-35.8,23.6-51.1,42.4c-0.8,0.9,0,1.8,0.6,1.3c16.3-13.8,38.5-12.1,51.7-22.4
						c7.2-5.6,8.9-16,2.3-21.8C173,160.1,170.6,159.8,170.1,161.3z"/>
					<path class="st10" d="M191.4,172.3c-0.9,0.8-1.7,1.6-2.4,2.6c-0.2,0.1-0.4,0.1-0.6,0c0,0,0,0,0,0c-0.3-0.7-0.7-1.5-1.2-2.1
						c-0.5-0.6-2.7-1.8-3.2-0.1c-8.4,25.1-44.5,16.9-63.6,33.9c-0.8,0.7-0.4,1.6,0.6,1c16.1-9.5,39.5-6.9,50.2-8.9
						c7-1.3,11.4-4,15.3-8.2c5.5-6,2.9-13.3,5.3-17.7C192,172.2,191.8,172,191.4,172.3z"/>
				</g>
			</g>
		</g>
	</g>
</g>
</svg>
