<svg xmlns="http://www.w3.org/2000/svg" viewBox="0 0 284.77 55.56"><defs><style>.cls-1{fill:#231815;}</style></defs><title>nav-logo</title><g id="レイヤー_2" data-name="レイヤー 2"><g id="レイヤー_1-2" data-name="レイヤー 1"><path class="cls-1" d="M32,11.13c2.69-3.42,3.26-9-.5-10.65-1-.45-3.8-.63-3.6.21C29.48,7.43,8,18.05.92,33c-.34.62,0,1.71.34,1.26C9.83,24,25.89,18.91,32,11.13Z"/><path class="cls-1" d="M11.61,45.67a15.56,15.56,0,0,1-7.22-3.74c-.37-.37-.51-.68.37-.7,8.87-.22,11.46,4.25,14.46,2.89a5,5,0,0,1,5.73.74c.31.27.1.46-.12.52A27.24,27.24,0,0,1,11.61,45.67ZM65.39,26a16.49,16.49,0,0,1-6.3-1c-2.47-.83-4.07-.17-4.88.95-2.33,3.26-11.1,12.41-21.72,17.39-.7.33-.77-.11-.22-.45C33.6,42,35.44,41,37.21,39.69c.73-.54.63-.88-.25-.5a97.66,97.66,0,0,1-10.28,3.93c-.57.16-.45.41,0,.41,5.74,0,8.39,2.77,11,2.86.48,0,.54.29,0,.58a9.84,9.84,0,0,1-10.6-.57,1.05,1.05,0,0,0-1-.2c-6.59,1.95-13.39,1.59-18.35-.7-.76-.35-1.1.13-.54.75A28,28,0,0,0,56.09,27.52c0-1.8,1.82-1.21,2.44-1.06,3.28.82,5,1,6.83.06C65.73,26.32,65.77,25.93,65.39,26Z"/><path class="cls-1" d="M.82,31.13C7.36,17.07,22.1,11.24,24.08,1.27c.21-1-1-1.35-1.55-1.25A28,28,0,0,0,0,27.52c0,.82.05,1.63.11,2.43C.19,31,.61,31.6.82,31.13Z"/><path class="cls-1" d="M39.56,4.29C34.85,19.39,13.07,21.79,1.7,35.71c-.59.67,0,1.35.41,1,12.1-10.19,28.55-9,38.32-16.62C45.79,15.88,47,8.18,42.15,3.88,41.68,3.46,39.9,3.22,39.56,4.29Z"/><path class="cls-1" d="M55.29,12.47a10.42,10.42,0,0,0-1.74,1.89.31.31,0,0,1-.45-.07,8.31,8.31,0,0,0-.91-1.57c-.35-.48-2-1.31-2.4-.07-6.2,18.6-33,12.52-47.12,25.09-.6.53-.32,1.23.44.78,11.91-7,29.23-5.11,37.21-6.62a18.93,18.93,0,0,0,11.3-6.06c4.06-4.42,2.18-9.85,3.93-13.12C55.72,12.39,55.58,12.22,55.29,12.47Z"/><path class="cls-1" d="M228.57,16.46c-.09-.7-.41-1.05-1.08-.42-2.08,2-5.63,1.53-6.64,4.69-1-3.16-4.55-2.73-6.63-4.69-.67-.63-1-.28-1.09.42-.76,6.24,5.42,7.29,6.82,9.58a.93.93,0,0,0,.9.53,1,1,0,0,0,.91-.53C223.15,23.75,229.34,22.7,228.57,16.46Z"/><path class="cls-1" d="M87.51,17.26H77c-3.23,0-3.61,2.46-3.61,4.3V45.88a1.77,1.77,0,0,0,1.87,1.83,1.75,1.75,0,0,0,1.82-1.83V35.72a2.1,2.1,0,0,1,2.1-2.1h7.25a1.78,1.78,0,0,0,0-3.55H79.2A2.1,2.1,0,0,1,77.1,28V22.91a2.1,2.1,0,0,1,2.1-2.1h8.31a1.68,1.68,0,0,0,1.75-1.76A1.7,1.7,0,0,0,87.51,17.26Z"/><path class="cls-1" d="M113.07,36.32a2.11,2.11,0,0,1-.25-1.7,2.08,2.08,0,0,1,1.1-1.31,6.47,6.47,0,0,0,1.17-.75c2.42-1.93,2.78-5.09,2.78-6.81a9.05,9.05,0,0,0-1.83-6c-2.07-2.51-4.74-2.51-6.69-2.51h-3.28c-3.24,0-3.61,2.46-3.61,4.3V45.88a1.77,1.77,0,0,0,1.86,1.83,1.75,1.75,0,0,0,1.83-1.83v-23a2.1,2.1,0,0,1,2.1-2.1h.44c2.32,0,5.49,0,5.49,4.9,0,4-1.65,4.6-2.81,5-3.06,1.09-3.12,4.67-1.67,6.93,2.29,3.56,5.79,9.15,5.79,9.15a1.7,1.7,0,0,0,1.46.91A1.9,1.9,0,0,0,118.89,46a2.15,2.15,0,0,0-.5-1.27Z"/><path class="cls-1" d="M146.22,43.58h-8.78a2.1,2.1,0,0,1-2.1-2.1V35.54a2.1,2.1,0,0,1,2.1-2.1h7.25a1.7,1.7,0,0,0,1.76-1.79,1.73,1.73,0,0,0-1.76-1.76h-7.25a2.1,2.1,0,0,1-2.1-2.1V22.91a2.1,2.1,0,0,1,2.1-2.1h8.31a1.66,1.66,0,0,0,1.72-1.76,1.68,1.68,0,0,0-1.72-1.79H135.26c-3.23,0-3.61,2.46-3.61,4.3V42.82c0,3,1.12,4.31,3.61,4.31h11a1.69,1.69,0,0,0,1.72-1.8A1.66,1.66,0,0,0,146.22,43.58Z"/><path class="cls-1" d="M175.34,43.58h-8.78a2.1,2.1,0,0,1-2.1-2.1V35.54a2.1,2.1,0,0,1,2.1-2.1h7.25a1.7,1.7,0,0,0,1.76-1.79,1.73,1.73,0,0,0-1.76-1.76h-7.25a2.1,2.1,0,0,1-2.1-2.1V22.91a2.1,2.1,0,0,1,2.1-2.1h8.31a1.66,1.66,0,0,0,1.72-1.76,1.68,1.68,0,0,0-1.72-1.79H164.38c-3.23,0-3.61,2.46-3.61,4.3V42.82c0,3,1.11,4.31,3.61,4.31h11a1.69,1.69,0,0,0,1.72-1.8A1.66,1.66,0,0,0,175.34,43.58Z"/><path class="cls-1" d="M220.94,27.7a1.75,1.75,0,0,0-1.83,1.82V45.88A1.74,1.74,0,0,0,221,47.71a1.76,1.76,0,0,0,1.86-1.83V29.52A1.78,1.78,0,0,0,220.94,27.7Z"/><path class="cls-1" d="M253.34,16.68c-1.27,0-1.61.89-1.77,1.67L248.16,34c-.22,1-.36,2.12-1.34,2.12S245.57,35,245.36,34L242,18.39c-.16-.82-.51-1.71-1.82-1.71a1.86,1.86,0,0,0-1.94,1.75,3.57,3.57,0,0,0,.1.75L244.07,45c.37,1.77.92,2.72,2.76,2.72,1.46,0,2.17-.73,2.61-2.7l5.77-25.81a3.27,3.27,0,0,0,.11-.77A1.88,1.88,0,0,0,253.34,16.68Z"/><path class="cls-1" d="M283.05,43.58h-8.78a2.1,2.1,0,0,1-2.1-2.1V35.54a2.1,2.1,0,0,1,2.1-2.1h7.25a1.7,1.7,0,0,0,1.75-1.79,1.72,1.72,0,0,0-1.75-1.76h-7.25a2.1,2.1,0,0,1-2.1-2.1V22.91a2.1,2.1,0,0,1,2.1-2.1h8.3a1.66,1.66,0,0,0,1.72-1.76,1.68,1.68,0,0,0-1.72-1.79H272.09c-3.24,0-3.61,2.46-3.61,4.3V42.82c0,3,1.11,4.31,3.61,4.31h11a1.69,1.69,0,0,0,1.72-1.8A1.66,1.66,0,0,0,283.05,43.58Z"/><path class="cls-1" d="M195.76,17.26h-2.18c-3.27,0-3.65,2.46-3.65,4.3V40.63c0,1.74,3.73,1.73,3.73,0V22.91a2.1,2.1,0,0,1,2.1-2.1,4.11,4.11,0,0,1,3.81,1.79c2,2.68,2.12,8.46,2.12,9.59,0,3-.39,8.29-3,10.55a4.3,4.3,0,0,1-2.91.92h-4.15c-1.29,0-1.72.75-1.72,1.85,0,1.4,1,1.62,1.75,1.62h4.08a8.12,8.12,0,0,0,5.06-1.5c3.05-2.38,4.59-6.9,4.59-13.44,0-5.17-1.17-9.67-3.13-12A7.58,7.58,0,0,0,195.76,17.26Z"/></g></g></svg>