<svg xmlns="http://www.w3.org/2000/svg" viewBox="0 0 502.5 162.95"><defs><style>.cls-1{fill:none;stroke:#000;stroke-linecap:round;stroke-linejoin:round;stroke-width:2.5px;}</style></defs><title>whale_line</title><g id="レイヤー_2" data-name="レイヤー 2"><g id="layer"><path id="path" class="cls-1" d="M333.08,61.52c-10.85,1.55-19.28,5.71-25.2,13.83-5.48,7.53-8.29,16.58-12.07,25.1-.3.68-.61,1.35-.93,2a90.54,90.54,0,0,1-50,45.86c-.86.32-1.87.84-2.13,1.63a1.12,1.12,0,0,0-.06.58c.1.74.82,1.22,1.48,1.57a28.77,28.77,0,0,0,25.67.37,40.24,40.24,0,0,1,6.38-3,25.86,25.86,0,0,1,6.09-.7,49.26,49.26,0,0,0,13.26-2.14c4.44-1.48,8.37-3.88,11-7.74,1.57-2.31,2.65-5.13,5-6.56,2.58-1.54,6-1,8.68-2.22,3.1-1.41,4.56-4.58,5.82-8,1.63-4.39,2.91-9.13,7-10.84,2.28-1,5.15-.77,6.83-2.58,2.19-2.36.73-6.25,1.72-9.32s3.95-4.66,6.36-6.63a20.73,20.73,0,0,0,3.49-3.64,22.58,22.58,0,0,0,4.06-18.24c-1.1-4.91-4.47-9.76-9.41-10.69M413.81,94c1.13,6.16-1.4,14.39-5,17.45-1.55,1.31-3.45,2.4-4.24,4.27-.93,2.21,0,4.84-.81,7.1-.66,1.84-2.33,3.1-3.92,4.24L381.1,140.55l-6.85,4.93c-7,5.07-14.21,10.2-22.38,13.11-9.86,3.5-20.61,3.55-31,2.57-.25-1.16,1.14-1.93,2.26-2.32A59.23,59.23,0,0,0,354.7,132M242.75,150a333.63,333.63,0,0,1-66.24-7.31C159,139,141.19,134,123.44,130.72c-21.59-3.93-39.77-11.28-60.2-3.9-11.63,4.21-15,5.67-26.58,10.06s-24.6,4.17-35.41-1.83c6.8,1.9,14.33-4.93,18.46-12.18,4-7.43,5.56-11.73,8.74-15.86,5-6.42,16.85-8.32,17.63-8.25-3.8-1-9.31-4.4-8.86-8.36.66-5.78,1.42-4.9,2.25-7.87,1.42-5.12,3.27-7.15,0-11.31a17.08,17.08,0,0,0-10.67-6.14c8.71.48,18.33,2.92,26.5,5.93C64.47,74.4,68.53,77.76,73.1,86.9a63.71,63.71,0,0,0,5.6,9.64c1,1.46,4.26,3.84,6.06,5.16,6.36,4.66,14.3,6.27,21.72,5.68,8.55-.68,16.82-11.52,24.62-15.09,17.13-7.83,31.44-15.24,45.3-22.59a18.8,18.8,0,0,0-9.89-1.88,4.45,4.45,0,0,1-2.12-.12,1.33,1.33,0,0,1-.8-1.72,1.85,1.85,0,0,1,.86-.67,44.37,44.37,0,0,1,27.18-3.72c14.06-7.45,28.55-15,46-22.93,30.6-14,68.24-17.46,101.11-24.68C384.84,3.84,432.84-1.34,479.93,2.54c2.77.22,14.77,3.84,16.52,6a3.51,3.51,0,0,1,.71,1.64h0a5,5,0,0,1,0,.86M395.64,43.94a27.28,27.28,0,0,0,16.54-4.88c4.79-3.18,7-7.14,13.2-11.06a67.61,67.61,0,0,1,17.18-7.56c10.09-3,17-5,30.63-6.86,10.51-1.46,15.27-1.5,24-2.54h0a2.15,2.15,0,0,1,1.88.71,9.27,9.27,0,0,1,2.15,5.75,7.11,7.11,0,0,1-.05,1c-.44,4.12-2,9-5.71,10.83-19,9.29-37.15,18.29-64.55,47-4.25,4.46-8.15,8.54-11.84,12.3h0c-1.81,1.84-3.56,3.61-5.28,5.31-18.31,18.08-32.32,28.2-59.11,38h0c-1.12.4-2.25.81-3.41,1.21a295.84,295.84,0,0,1-55.72,13.46m55.9-57.49,8-2.62A58.5,58.5,0,0,0,368.55,83a48.52,48.52,0,0,0,7.93-5.45,144.86,144.86,0,0,0,14.24-13.12A148.21,148.21,0,0,1,414.9,43.59c6.74-4.59,12.67-9.22,20-12.68A158.51,158.51,0,0,1,454.07,24c15.66-4.5,31-6.28,47.18-6.5m-205.44,83a227.17,227.17,0,0,0-24.6,4.59c-11.73,3-23.06,7.35-34.56,11.15a372.65,372.65,0,0,1-70.59,15.9,89.34,89.34,0,0,1-16.17.91c-6.62-.38-13.11-2.06-19.73-2.4a47.12,47.12,0,0,0-6.72.12M479.25,30.49c-47.94,40-99.64,69.7-153.16,91.68m129.36-85.3c-38.7,28.79-75,51.45-111.75,67.32m75.4-15.5h0a494.78,494.78,0,0,1-94.92,41.94M273.8,117.36a280,280,0,0,1-83,14.55m66.15,5a220.49,220.49,0,0,1-76.66,4.77M58.1,100.33c5.57.87,12.88,2.26,18.67,5.43M178.12,68.28a72.17,72.17,0,0,1,6.82-3.54"/><ellipse id="eye" cx="390.53" cy="33.36" rx="5.14" ry="3.35" transform="translate(19.33 159.21) rotate(-23.61)"/></g></g></svg>