<svg xmlns="http://www.w3.org/2000/svg" viewBox="0 0 787.22 579.6"><defs><style>.cls-1{fill:none;stroke:#000;stroke-linecap:round;stroke-linejoin:round;stroke-width:2px;}</style></defs><g id="レイヤー_2" data-name="レイヤー 2"><g id="layer"><path id="path" class="cls-1" d="M372.12,79.71l.13-.13c1.35-1.35,3.54-3.49,5.66-5.28a28.93,28.93,0,0,1,3.18-2.39,23.73,23.73,0,0,1,13.27-3.4c4.62.24,12.28,1.58,13.63,2.19.38.17,1.66.87,3.31,1.83,3.56,2.08,8.87,5.38,10.71,7.35l.15.17m50.52,89.78c1.15,1,1.33,5.61-.18,7.11s-3.74,6.59-4.18,10.15-6.4,8.27-8.36,10.94c-1.69,2.3-8.75,12-10.65,14.64a2.8,2.8,0,0,0-.32.62,1.89,1.89,0,0,0-.1.36,2.88,2.88,0,0,0-.05.59c.1,2.78,1.18,4.47,5.6,9.22a28.81,28.81,0,0,0,6.75,4.94,71.5,71.5,0,0,0,7.93,3.81,2.32,2.32,0,0,0,2.93-1.05c1.71-3.22,5.42-10.22,9.18-17.46,5.11-9.84,13-20.46,16.75-28.38s5.24-11.26,3.06-21-9.07-18.8-13.55-24.81-14.93-19.76-18.6-25.89c-3.41-5.72-8.5-10.32-9.76-15.37a10.65,10.65,0,0,1-.21-1.1c-.73-5.49-3.66-7.13-3.66-7.13s-1.37,4.32-2.58,9.45c-.43,1.81-.85,3.73-1.17,5.58-1.25,7.12-.89,31-.36,34.87S452,146,452,146c2.67,1.15,6.85,5.33,9.34,9.07s10.14,13.78,11.3,14.76M461.45,135c-4.58,2.37-9.41,11-9.41,11s-5.67,18.3-7.47,23.2a88.64,88.64,0,0,0-4.65,19c-.44,4.22,0,12.39-.7,18.76A23,23,0,0,1,438,212.6m-50.14,57.85c2.93.58,8.3.68,14.32.35a124.36,124.36,0,0,0,19.34-2.46c8.45-1.89,18.47-6.16,23.76-8.57,2.3-1,3.7-1.75,3.7-1.75a157.88,157.88,0,0,0-2.71-21.65,76.23,76.23,0,0,0-4.87-12.63m-97-79.08c-1.51.67-10.63,4.75-12.39,7.76-1.92,3.29-9.41,13.43-11.69,15.07s-3.56,2.1-3.56,2.56,2.74,2.37,4.48,3.92c1.56,1.4,16,19.18,18.87,22.69a2.31,2.31,0,0,1,.52,1.51c0,1.93-.72,6.69-5.61,12.42a25.32,25.32,0,0,1-12.06,7.87,3.1,3.1,0,0,1-3.54-1.4c-.6-1-1.46-2.53-2.57-4.55-2.56-4.66-22-31.87-26.3-37.9s-2.92-11.78-.91-17.26,17.17-24.1,21-28.58,17-16.42,19-19,4.42-7.22,5-10.84c.08-.52.18-1,.3-1.52a26.7,26.7,0,0,1,1.69-5c.51-.81,3.46-2.44,7.29-2.73s17.32-6.12,21.74-7.74c2.24-.82,4.66-1.62,6.51-2.21h0l.43-.14c1.6,0,4.53-.17,7.54-.42,3.48-.28,9.22-1.06,14.82-1.35,1.63-.09,3.25-.14,4.8-.12,6.57.09,18.64,1.22,22,2.13h0l.41.24c.76.43,1.53.85,2.13,1.12,1.75.81,16,5.77,18.08,6.78s10.34.09,12.9,2.1M336.57,92.39s.21,2.2.53,5.44c.51,5,1.31,12.54,2.09,18.25s3,17.89,5.06,28.06c0,.18.07.35.11.52,1.24,6.22,2.39,11.65,3.05,14.33,1.73,7.13,9.95,36.08,10.59,39.82.11.62.22,1.31.33,2,.41,2.54.88,5.53,1.43,7.74m-.93,7.06c-.11,1.69-.27,3.77-.44,6-.42,5.37-.95,11.44-1.21,14.08-.46,4.47-3.66,24.56-3.66,24.56s1.55.67,3.87,1.64c5.59,2.35,15.65,6.54,19.33,7.77a81.56,81.56,0,0,0,10.68,2.65l.43-1.87c1.1-4.86,4-17.94,5.05-24,1.28-7.49,4.38-37.65,4.38-48.91M394.91,77.79c-.08,10.93-.48,66.47-.33,80.08m54.31,55.78a4.83,4.83,0,0,0-1.23,5.1c.17.48.38,1,.65,1.61a25.86,25.86,0,0,0,5.56,8.07,1.61,1.61,0,0,0,.67.3m0,0c1.62.39,5-.07,6.65-.33m-22.52-17.58a5.06,5.06,0,0,1-.7,1.78h0a4.6,4.6,0,0,1-1.68,1.61c-1.27.66-4.36-.75-5.79-1s-4.44-.17-5.2.54-1.72,3.15.63,4.2,6,.42,7.38.79,6.38,4.07,7.68,4.74l.39.21A39.51,39.51,0,0,1,447,227c1.19,1,5.3,2.32,7.56,1.76h0M449,213.29a53,53,0,0,0-6.5-4.73l-3.27-1.65m.7-18.76s-23.63,25.49-26.49,35.68m-81.06-10.59a5.87,5.87,0,0,0,1.64.26,5.8,5.8,0,0,0,2.72-1.11,10.08,10.08,0,0,0,3-3c1.38-2.24,2.67-8.58,2.67-9a5.14,5.14,0,0,0-1.85-2.22m1.85,2.22c1.28.75,5.1,2.34,7.54,2.13,2.07-.18,6-1.28,8.35-1.68m-21.6,11.55c1.16,1.91,2.17,4.48,5.61,5.5a54.84,54.84,0,0,0,10.29,1.88,29.32,29.32,0,0,1,5.76,1.85m-14.16-7.74a15.45,15.45,0,0,0,5.5,2.44c2.5.55,6.62-.28,9.1-.68a12.75,12.75,0,0,1,1.65-.19c1.65,0,7.39-.78,9.11-.63a2.71,2.71,0,0,0,3.14-2.51c0-1.49-1.88-2.12-3.53-2s-5.73.23-7,.16c-.86-.06-1.82-1-2.45-1.85a6.07,6.07,0,0,1-.61-1m7.5,15.89s8.62,15.71,14.78,20.95m-24,17.46c-.5,5.23-2.28,14.78-2.06,20.91.26,6.93,4.07,62.93,3.53,68.78s-4.25,14.37-4.25,21.64-4,19-3.9,28.37c.16,24.57-3.91,39-3.86,46.86a3,3,0,0,0,.12.66c.3,1.18,1.16,3.09,1.77,3.47,3.42,2.12,12.72,8.48,16.16,8.37a16.67,16.67,0,0,0,2.48-.71c.4-.38.72-.69,1-1a7.4,7.4,0,0,0,1.49-3.25c.95-3.22,1.89-9.91,3.18-13.92,1.93-5.94,2.86-16.73,3.39-21.52.18-1.55.8-4.75,1.57-8.55,1.63-7.92,3.93-18.47,4.28-22.3.54-5.68,8.52-39.55,9.4-48.06s6-31.57,7.27-38,3.2-18.8,3.37-21.1c0,0,3.91,18.08,5,27.13s7.45,49.65,9.58,55.33,7.62,26.42,8.68,33c.2,1.23.52,3.07.93,5.31,1.78,9.79,5.21,27.12,7.23,33.18,2.39,7.15,5.1,15,4.84,22.32a1.35,1.35,0,0,0,.81,1.29l.07,0a14.7,14.7,0,0,0,9.89.3c6-2,8.87-6.57,10.11-8.34a5.36,5.36,0,0,0,1-3.09v-.26h0a5.43,5.43,0,0,0-.06-.55c-1.07-7-4.43-29.12-5.17-36.7-.89-9-9.58-57.46-9.4-66.5,0-.63,0-1.45.08-2.45.52-13.38,3.25-57.49,2.76-64.58-.34-4.84-2.1-12.53-3.35-18.23m-5.9,200.38a69,69,0,0,0-2.46,8.55,5.06,5.06,0,0,0,0,1.82,6.42,6.42,0,0,0,5,5,24.06,24.06,0,0,0,10.63-1.75c2.85-1.31,5.26-3.29,8-4.16s9.21-1.54,12.17-3.51,5-10.3,5-12.38a4.59,4.59,0,0,0-.75-2.31h0a6.57,6.57,0,0,0-6.59-2.94c-4.94.55-5.81,2.19-7.13,2.19-.88,0-2-1.09-2.91-1.9h0m-23.47,21.74c-.07,1.37-.33,6.46-.17,7.43.19,1.12,2.62,2.9,5.8,3.18s8.15.38,15.64-5.24l.18-2.71a7.18,7.18,0,0,1,4-2.06c2.53-.38,5.71-.47,8.24-1.69a13.1,13.1,0,0,0,6.27-6.74c1.25-2.64,1.31-7.23.76-9.69a.3.3,0,0,0,0-.1,3,3,0,0,0-.63-1.45l-.11-.08M347,449.12c-.85.75-1.76,1.57-2.53,1.57-1.31,0-2.19-1.64-7.12-2.19a6.59,6.59,0,0,0-6.6,2.94h0a4.57,4.57,0,0,0-.74,2.31c0,2.08,2.08,10.41,5,12.38s9.42,2.63,12.16,3.51,5.15,2.85,8,4.16a24.06,24.06,0,0,0,10.63,1.75,6.41,6.41,0,0,0,5-5,4.84,4.84,0,0,0,0-1.82c-.48-2.71-1.89-7.47-2.49-9.44m2.46,11.26c.07,1.37.33,6.46.17,7.43-.19,1.12-2.63,2.9-5.81,3.18s-8.14.38-15.63-5.24l-.19-2.71a7.18,7.18,0,0,0-4-2.06c-2.53-.38-5.71-.47-8.24-1.69a13,13,0,0,1-6.27-6.74c-1.2-2.54-1.31-6.89-.82-9.41,0-.13.05-.26.08-.38a3,3,0,0,1,.63-1.45l.11-.08M402.1,274.74s0-1.62,0-3.94m31.5,82.53s7.74-3.95,12.19-10.75m-19.37,60.78c1.77,3.21,3.46,5.77,4.79,6.86m-59,16.77c1-1.27,3.53-8.5,5.72-15M411.3,72.53A18,18,0,0,0,409.87,68a4.3,4.3,0,0,0-.61-.45c-1.71-1.09-6.72-3.5-15.16-3.69-10-.23-13.12,4-14.39,5.64a9.49,9.49,0,0,0-1.29,2.91c-.21.69-.39,1.36-.51,1.91M312.62,174.41c.57-.86,4.1-4.36,4.1-4.36s-2.14,1.24-8.05,2.27m35.58-28.17c-1.89-2.49-11.59-15.06-14.91-16.26m143.34,41.94h0c.23.13,7.72,4,11.35,4.55m-79.41-19.46c7.36-5.12,25.56-39.06,25.56-39.06M366,31.33c0,.52-.06,1.13,0,1.67.07,2.88.72,7,.81,9s-.54,6.75.45,10,2.7,13,4,16.1,3.15,4.5,4.86,4.5a16.75,16.75,0,0,0,2.28-.2m.7-28a39,39,0,0,0,0-7.42,9.46,9.46,0,0,0-.21-1.14,8.38,8.38,0,0,0-.43-1.34m0,0a4.28,4.28,0,0,0-1.49-2c-1.58-1-1.87-.25-1.94,1.22a3.68,3.68,0,0,0,.12.86A27.51,27.51,0,0,1,376,44.8c-.72,6.37-1.09,8,.06,8.47s2.33-.53,2.54-2.24m3.27-9.19c-.26-2.28-2-4.77-2.91-6m30.35,31.69a15.37,15.37,0,0,1,.19-6.92,3.9,3.9,0,0,1,.39-.82c1.33-2,11.92-19,13-28.32s-7-20.23-9.71-23.4-7.65-3.45-7.65-3.45C389-5.75,369.31,9.1,367.4,12.78s-3.46,13-2.5,16A14.08,14.08,0,0,0,366,31.33a16.93,16.93,0,0,0,3.15,4c1,.81,3.61,14.71,3.61,14.71s.37-5.89.51-7.8a65.09,65.09,0,0,1,1.89-7.75m3.31,0h0a11.23,11.23,0,0,1,5.4,6.75c1.76,5.67,2.13,9.56,3.67,11.7a16,16,0,0,0,8.1,5c2.5.44,7.06-.07,9.7.44a9.43,9.43,0,0,1,4.1,2.22m-39.55,292s11,1.93,14.26.94m24.55-74.07s10.85-3.62,14.47-6.83M378.9,62.23s1.69-3.65,1.43-5.95m405.89,50.6-52.47,15.88-213,64.47a12.86,12.86,0,0,0-8.27,17L657.53,575.6m-520.78,3L283,204.36a12.87,12.87,0,0,0-8.34-17.08L61.87,124.77,1,106.88M45.83,41.77l16,3.09,273,52.55m124.25.87,274.62-51.7,29.08-5.47M490.1,11.89v40L529,47.87l1.69-.18,4.89-.51,34.57-3.6V10.22Zm0,0H488V51.94h2.12M529,47.87V76.64l1.69,2V47.69m0,31,4.89-.7V47.18M310.69,11.89,230.6,10.22V43.58l34.57,3.6,4.89.51,1.69.18,38.94,4.06Zm0,40.05h2.12v-40h-2.12m-40.63,35.8v31l1.69-2V47.87m-6.58-.69V77.94l4.89.7"/></g></g></svg>