<svg xmlns="http://www.w3.org/2000/svg" viewBox="0 0 502 427.67"><defs><style>.cls-1{fill:#fff;}.cls-2{fill:none;stroke:#fff;stroke-linecap:round;stroke-linejoin:round;stroke-width:2px;}</style></defs><g id="レイヤー_2" data-name="レイヤー 2"><g id="layer"><path id="frame" class="cls-1" d="M501,12.33V277.51H1V12.33A11.33,11.33,0,0,1,12.33,1H489.67A11.33,11.33,0,0,1,501,12.33ZM483.54,259v-239H18.3V259Z"/><path id="path" class="cls-2" d="M501,277.51v30.17A11.33,11.33,0,0,1,489.67,319H12.33A11.33,11.33,0,0,1,1,307.68V12.33A11.33,11.33,0,0,1,12.33,1H489.67A11.33,11.33,0,0,1,501,12.33Zm0,0H1M483.54,19.91H18.3V259H483.54ZM181.77,380.38s4.22,1.4,13.67,1.54c6.91.11,103.69.1,110.31,0,9.44-.14,13.67-1.54,13.67-1.54M205,319l-3.8,38.5a28.83,28.83,0,0,1-2.76,8.39,18.08,18.08,0,0,1-4.59,4.37l-12.21,8.18a3.46,3.46,0,0,0-1.24,1.83c0,.16,0,.3,0,.43a2.07,2.07,0,0,0,.63,1.6c.55.58,2,1,5,1.37,1.53.18,8.61.28,8.75.28h111.7c.14,0,7.22-.1,8.75-.28,3-.36,4.46-.79,5-1.37a2.15,2.15,0,0,0,.64-1.6c0-.13,0-.27,0-.43-.08-.93-1.24-1.83-1.24-1.83l-12.2-8.18a17.94,17.94,0,0,1-4.6-4.37,28.83,28.83,0,0,1-2.76-8.39L296.2,319m-76.94,43.06h62.55M101.42,423.76v2.91H418.85v-2.91Zm317.43,0-5.43-15.69a4.47,4.47,0,0,0-3.3-2.76,4.8,4.8,0,0,0-.85-.08H108.9a4.45,4.45,0,0,0-4.1,3.6l-3.38,14.92m-15.09,0H9.47v2.91H86.33Zm0,0L89,411.7a3.9,3.9,0,0,0-3.17-4.77,3.27,3.27,0,0,0-.54,0h-66a4.45,4.45,0,0,0-4.37,3.61L9.47,423.76m99.43-18.5-3.83,16H415l-4.83-15.9m-112.45,2.91h4.58m-14.49,0h7.33m-16.41,0h5.07m-18,0h8m-21,0h8.65m-21.48,0h7.86m-20.32,0h7.09m-19.92,0h7.79m-17.93,0h5.3m-16.41,0h6.86m-20.55,0h8.92m-18.66,0h6.13m-13.72,0h3.58m-16.71,0h8.35m-19.39,0h6m-16.41,0h4.78m-21.48,0h12.53m174.94,4.15h3.75m-12.83,0h5.67m-16.41,0h6.73m-18.83,0h8m-21.81,0h9.48m-23.14,0h9.52m-20.32,0h6.26m-20.75,0h9.45m-17.93,0h4.47m-16.41,0h6.86m-16.4,0h4.77m-17,0h7m-17.87,0h5.24m-16.71,0h8.35m-21.87,0h8.45m-16.41,0h4.78m-22.31,0h12.53m175.77,4.14h5.41m-17,0h8.16m-19.73,0h8.39m-19.66,0h7.13m-21,0h8.65m-21.48,0h8.69m-21.15,0h7.92m-19.92,0h7.79m-17.1,0h6.13m-16.41,0h6.86m-16.4,0h5.6m-19.49,0h9.45m-18.7,0h5.24m-18.37,0h10m-21.87,0h8.45m-20.55,0h8.09m-22.31,0h10m187.25,4.7-3.06-16m9.92,16-2.88-16m37.28,0,4.11,16m9.46,0-4.81-16m-18,3h7.76m-21.52,0h10.26m-21.77,0h8.76m17.34,4.14h7.76m-21.52,0H336m-21.77,0H323m17.34,4.15h7.76m-21.52,0h10.26m-21.77,0h8.76m73.9-8.54h10.76m-24,0h10.76m-24.77,0H381.2m-21.27,0h7.51m31.1,4.14H409.3m-24,0H396m-24.77,0H382m-21.27,0h7.51m31.93,4.15H411m-24,0H397.7m-24.77,0h10.76m-21.27,0h7.5m91.29,1.63a5.5,5.5,0,0,0,.69.11q1.43.13,3,.15a34,34,0,0,0,3.43-.14,7.09,7.09,0,0,0,6.08-5.12c.27-.92.52-1.83.76-2.75a9.33,9.33,0,0,0,.14-4,8.18,8.18,0,0,0-7.65-6.54q-1.31-.1-2.76-.09c-5.55,0-9.9.53-12.48,1.65q1.75,5.88,3.52,11.75a7.13,7.13,0,0,0,4.94,4.93M452,406.11h-18a2.45,2.45,0,0,0-2.43,2.16l5.53,17.3c.22.51.44,1,1,1h57.52a1,1,0,0,0,1-1l0-1.1-8.32-17a2.46,2.46,0,0,0-2.2-1.38H475.31m-33.85,17.67h51M86.33,426.67l2.64-15,.24-1.38m363.21-9.19a24.85,24.85,0,0,0-.39,5,13.29,13.29,0,0,0,.4,3c.87,3.31,1.77,7.37,8.45,8.69l.33.07.69.11"/></g></g></svg>