<svg xmlns="http://www.w3.org/2000/svg" viewBox="0 0 94.32 94.32"><defs><style>.cls-1{fill:#ebb702;}</style></defs><title>アセット 1</title><g id="レイヤー_2" data-name="レイヤー 2"><g id="_1" data-name="1"><path class="cls-1" d="M94.32,87.81A87.89,87.89,0,0,0,6.51,0a6.51,6.51,0,0,0,0,13A74.53,74.53,0,0,1,59.37,35,74.51,74.51,0,0,1,81.31,87.82a6.51,6.51,0,0,0,13,0Z"/><path class="cls-1" d="M6.51,32.53a6.51,6.51,0,0,0,0,13A42.12,42.12,0,0,1,36.39,57.93,42.12,42.12,0,0,1,48.78,87.82a6.51,6.51,0,0,0,13,0A55.33,55.33,0,0,0,6.51,32.53Z"/><path class="cls-1" d="M0,69.59V94.32H24.73A24.72,24.72,0,0,0,0,69.59Z"/></g></g></svg>