<?xml version="1.0" encoding="utf-8"?>
<!-- Generator: Adobe Illustrator 24.2.1, SVG Export Plug-In . SVG Version: 6.00 Build 0)  -->
<svg version="1.1" id="レイヤー_1" xmlns="http://www.w3.org/2000/svg" xmlns:xlink="http://www.w3.org/1999/xlink" x="0px"
	 y="0px" viewBox="0 0 400 150" style="enable-background:new 0 0 400 150;" xml:space="preserve">
<style type="text/css">
	.st0{fill:#FF0000;}
	.st1{fill:#FFFFFF;}
	.st2{fill:#DCDCDC;}
</style>
<g>
	<g>
		<path class="st0" d="M195.64,26.86c-2.31-8.6-9.11-15.4-17.72-17.72c-15.53-4.24-78.05-4.24-78.05-4.24S37.36,5.04,21.82,9.27
			c-8.6,2.31-15.4,9.11-17.72,17.72C0,42.52,0,75,0,75s0,32.48,4.24,48.14c2.31,8.6,9.11,15.4,17.72,17.72
			c15.53,4.24,78.05,4.24,78.05,4.24s62.52,0,78.05-4.24c8.6-2.31,15.4-9.11,17.72-17.72C200,107.61,200,75,200,75
			S199.87,42.52,195.64,26.86z"/>
		<polygon class="st1" points="79.97,105.04 131.84,75 79.97,44.96 		"/>
	</g>
</g>
<g>
	<path class="st2" d="M216.87,43.19V17.2h7.16c3.07,0,5.36,0.68,6.86,2.03c1.5,1.36,2.25,3.27,2.25,5.74c0,2.47-0.75,4.39-2.25,5.74
		c-1.5,1.36-3.79,2.03-6.86,2.03h-2.2v10.44H216.87z M221.84,28.65h2.66c2.45,0,3.67-1.22,3.67-3.67c0-2.45-1.22-3.67-3.67-3.67
		h-2.66V28.65z"/>
	<path class="st2" d="M237.1,17.2h4.54v25.99h-4.54V17.2z"/>
	<path class="st2" d="M250.71,34.48v2.59c0,0.98,0.25,1.7,0.76,2.14c0.5,0.44,1.14,0.67,1.91,0.67c0.96,0,1.64-0.26,2.05-0.79
		c0.41-0.53,0.61-1.18,0.61-1.94h4.54c-0.12,2.04-0.77,3.62-1.96,4.73c-1.19,1.12-2.93,1.67-5.24,1.67c-1.08,0-2.06-0.16-2.95-0.49
		s-1.64-0.79-2.27-1.39c-0.62-0.6-1.11-1.33-1.46-2.18c-0.35-0.85-0.52-1.82-0.52-2.9V30.2c0-1.08,0.17-2.05,0.52-2.9
		c0.35-0.85,0.83-1.58,1.46-2.18c0.62-0.6,1.38-1.06,2.27-1.39s1.87-0.49,2.95-0.49c1.06,0,2.02,0.16,2.9,0.49
		c0.88,0.32,1.63,0.77,2.27,1.35c0.64,0.58,1.13,1.27,1.49,2.09c0.36,0.82,0.54,1.73,0.54,2.74v4.57H250.71z M256.04,30.81v-1.08
		c0-0.86-0.22-1.55-0.65-2.05c-0.43-0.5-1.1-0.76-2.02-0.76s-1.58,0.25-2.02,0.76c-0.43,0.5-0.65,1.19-0.65,2.05v1.08H256.04z"/>
	<path class="st2" d="M264.1,29.33c0.07-1.08,0.32-2.01,0.76-2.79c0.43-0.78,0.98-1.41,1.64-1.89c0.66-0.48,1.41-0.83,2.25-1.06
		c0.84-0.23,1.72-0.34,2.63-0.34c1.2,0,2.23,0.14,3.08,0.43c0.85,0.29,1.54,0.7,2.07,1.22c0.53,0.53,0.91,1.16,1.15,1.89
		c0.24,0.73,0.36,1.53,0.36,2.39v12.42c0,0.26,0.02,0.53,0.07,0.79c0.05,0.26,0.11,0.53,0.18,0.79h-4.54
		c-0.05-0.26-0.1-0.55-0.14-0.85c-0.05-0.3-0.11-0.65-0.18-1.06c-0.67,0.67-1.45,1.22-2.34,1.64s-1.91,0.63-3.06,0.63
		c-1.37,0-2.46-0.38-3.28-1.15c-0.82-0.77-1.22-1.94-1.22-3.53c0-1.13,0.25-2.11,0.76-2.95c0.5-0.84,1.21-1.57,2.11-2.2
		c0.9-0.62,1.96-1.18,3.17-1.66c1.21-0.48,2.53-0.94,3.94-1.37v-1.44c0-0.84-0.23-1.44-0.68-1.8c-0.46-0.36-1.01-0.54-1.66-0.54
		c-0.7,0-1.29,0.23-1.78,0.68c-0.49,0.46-0.74,1.03-0.74,1.73H264.1z M273.5,33.62c-0.67,0.24-1.33,0.51-1.98,0.81
		c-0.65,0.3-1.23,0.64-1.75,1.03c-0.52,0.38-0.93,0.8-1.24,1.24c-0.31,0.44-0.47,0.92-0.47,1.42c0,0.65,0.18,1.15,0.54,1.51
		c0.36,0.36,0.85,0.54,1.48,0.54c0.7,0,1.3-0.16,1.82-0.49c0.52-0.32,1.05-0.76,1.6-1.31V33.62z"/>
	<path class="st2" d="M291.17,29.59c-0.31-0.91-0.74-1.58-1.28-2.02c-0.54-0.43-1.16-0.65-1.85-0.65c-0.53,0-0.97,0.17-1.31,0.5
		c-0.35,0.34-0.52,0.76-0.52,1.26c0,0.5,0.22,0.94,0.65,1.31c0.43,0.37,0.98,0.73,1.64,1.06c0.66,0.34,1.37,0.68,2.14,1.04
		c0.77,0.36,1.48,0.79,2.14,1.28c0.66,0.49,1.21,1.08,1.64,1.76s0.65,1.51,0.65,2.47c0,0.98-0.16,1.84-0.49,2.57
		c-0.32,0.73-0.77,1.35-1.35,1.85c-0.58,0.5-1.27,0.88-2.07,1.13c-0.8,0.25-1.67,0.38-2.61,0.38c-0.7,0-1.37-0.06-2.02-0.18
		c-0.65-0.12-1.28-0.38-1.89-0.77c-0.61-0.4-1.21-0.96-1.78-1.69c-0.58-0.73-1.14-1.71-1.69-2.93l4.07-1.12
		c0.19,0.91,0.56,1.64,1.12,2.2c0.55,0.55,1.28,0.83,2.2,0.83c0.7,0,1.24-0.15,1.62-0.45c0.38-0.3,0.58-0.73,0.58-1.28
		c0-0.62-0.22-1.14-0.65-1.55c-0.43-0.41-0.98-0.77-1.64-1.1c-0.66-0.32-1.37-0.65-2.14-0.99c-0.77-0.34-1.48-0.75-2.14-1.24
		c-0.66-0.49-1.21-1.1-1.64-1.82c-0.43-0.72-0.65-1.63-0.65-2.74c0-0.94,0.17-1.75,0.52-2.43c0.35-0.68,0.81-1.25,1.39-1.69
		c0.58-0.44,1.24-0.78,1.98-1.01c0.74-0.23,1.51-0.34,2.3-0.34c1.7,0,3.13,0.44,4.28,1.33c1.15,0.89,2,2.08,2.56,3.56L291.17,29.59z
		"/>
	<path class="st2" d="M302.69,34.48v2.59c0,0.98,0.25,1.7,0.76,2.14c0.5,0.44,1.14,0.67,1.91,0.67c0.96,0,1.64-0.26,2.05-0.79
		c0.41-0.53,0.61-1.18,0.61-1.94h4.54c-0.12,2.04-0.77,3.62-1.96,4.73c-1.19,1.12-2.93,1.67-5.24,1.67c-1.08,0-2.06-0.16-2.95-0.49
		s-1.64-0.79-2.27-1.39c-0.62-0.6-1.11-1.33-1.46-2.18c-0.35-0.85-0.52-1.82-0.52-2.9V30.2c0-1.08,0.17-2.05,0.52-2.9
		c0.35-0.85,0.83-1.58,1.46-2.18c0.62-0.6,1.38-1.06,2.27-1.39s1.87-0.49,2.95-0.49c1.06,0,2.02,0.16,2.9,0.49
		c0.88,0.32,1.63,0.77,2.27,1.35c0.64,0.58,1.13,1.27,1.49,2.09c0.36,0.82,0.54,1.73,0.54,2.74v4.57H302.69z M308.02,30.81v-1.08
		c0-0.86-0.22-1.55-0.65-2.05c-0.43-0.5-1.1-0.76-2.02-0.76s-1.58,0.25-2.02,0.76c-0.43,0.5-0.65,1.19-0.65,2.05v1.08H308.02z"/>
	<path class="st2" d="M221.12,78.69c0,1.44,0.29,2.41,0.86,2.92s1.37,0.76,2.38,0.76s1.8-0.25,2.38-0.76s0.86-1.48,0.86-2.92v-1.73
		h4.97v1.08c0,1.61-0.2,2.96-0.61,4.07c-0.41,1.1-0.97,2-1.69,2.68s-1.58,1.18-2.59,1.49c-1.01,0.31-2.11,0.47-3.31,0.47
		s-2.3-0.16-3.31-0.47s-1.87-0.81-2.59-1.49c-0.72-0.68-1.28-1.58-1.69-2.68c-0.41-1.1-0.61-2.46-0.61-4.07v-9.29
		c0-1.61,0.2-2.96,0.61-4.07c0.41-1.1,0.97-2,1.69-2.68c0.72-0.68,1.58-1.18,2.59-1.49s2.11-0.47,3.31-0.47s2.3,0.16,3.31,0.47
		c1.01,0.31,1.87,0.81,2.59,1.49s1.28,1.58,1.69,2.68c0.41,1.1,0.61,2.46,0.61,4.07v0.07h-4.97v-0.72c0-1.44-0.29-2.41-0.86-2.92
		s-1.37-0.76-2.38-0.76s-1.8,0.25-2.38,0.76s-0.86,1.48-0.86,2.92V78.69z"/>
	<path class="st2" d="M236.52,86.39V60.4h4.54v8.64c0.77-0.72,1.55-1.33,2.34-1.84s1.66-0.76,2.59-0.76c1.39,0,2.44,0.38,3.15,1.15
		c0.71,0.77,1.06,2.06,1.06,3.89v14.9h-4.54v-14.4c0-0.65-0.12-1.17-0.36-1.57c-0.24-0.4-0.67-0.59-1.3-0.59
		c-0.48,0-0.97,0.19-1.48,0.56c-0.5,0.37-1,0.77-1.48,1.21v14.8H236.52z"/>
	<path class="st2" d="M254.09,72.53c0.07-1.08,0.32-2.01,0.76-2.79c0.43-0.78,0.98-1.41,1.64-1.89c0.66-0.48,1.41-0.83,2.25-1.06
		c0.84-0.23,1.72-0.34,2.63-0.34c1.2,0,2.23,0.14,3.08,0.43c0.85,0.29,1.54,0.7,2.07,1.22c0.53,0.53,0.91,1.16,1.15,1.89
		c0.24,0.73,0.36,1.53,0.36,2.39v12.42c0,0.26,0.02,0.53,0.07,0.79c0.05,0.26,0.11,0.53,0.18,0.79h-4.54
		c-0.05-0.26-0.1-0.55-0.14-0.85c-0.05-0.3-0.11-0.65-0.18-1.06c-0.67,0.67-1.45,1.22-2.34,1.64s-1.91,0.63-3.06,0.63
		c-1.37,0-2.46-0.38-3.28-1.15c-0.82-0.77-1.22-1.94-1.22-3.53c0-1.13,0.25-2.11,0.76-2.95c0.5-0.84,1.21-1.57,2.11-2.2
		c0.9-0.62,1.96-1.18,3.17-1.66c1.21-0.48,2.53-0.94,3.94-1.37v-1.44c0-0.84-0.23-1.44-0.68-1.8c-0.46-0.36-1.01-0.54-1.66-0.54
		c-0.7,0-1.29,0.23-1.78,0.68c-0.49,0.46-0.74,1.03-0.74,1.73H254.09z M263.49,76.82c-0.67,0.24-1.33,0.51-1.98,0.81
		c-0.65,0.3-1.23,0.64-1.75,1.03c-0.52,0.38-0.93,0.8-1.24,1.24c-0.31,0.44-0.47,0.92-0.47,1.42c0,0.65,0.18,1.15,0.54,1.51
		c0.36,0.36,0.85,0.54,1.48,0.54c0.7,0,1.3-0.16,1.82-0.49c0.52-0.32,1.05-0.76,1.6-1.31V76.82z"/>
	<path class="st2" d="M272.52,86.39V66.81h4.39v2.23c0.84-0.72,1.66-1.33,2.47-1.84c0.8-0.5,1.67-0.76,2.61-0.76
		c1.39,0,2.44,0.38,3.15,1.15c0.71,0.77,1.06,2.06,1.06,3.89v14.9h-4.54v-14.4c0-0.65-0.12-1.17-0.36-1.57
		c-0.24-0.4-0.67-0.59-1.3-0.59c-0.48,0-0.97,0.19-1.48,0.56c-0.5,0.37-1,0.77-1.48,1.21v14.8H272.52z"/>
	<path class="st2" d="M290.52,86.39V66.81h4.39v2.23c0.84-0.72,1.66-1.33,2.47-1.84c0.8-0.5,1.67-0.76,2.61-0.76
		c1.39,0,2.44,0.38,3.15,1.15c0.71,0.77,1.06,2.06,1.06,3.89v14.9h-4.54v-14.4c0-0.65-0.12-1.17-0.36-1.57
		c-0.24-0.4-0.67-0.59-1.3-0.59c-0.48,0-0.97,0.19-1.48,0.56c-0.5,0.37-1,0.77-1.48,1.21v14.8H290.52z"/>
	<path class="st2" d="M312.7,77.68v2.59c0,0.98,0.25,1.7,0.76,2.14c0.5,0.44,1.14,0.67,1.91,0.67c0.96,0,1.64-0.26,2.05-0.79
		c0.41-0.53,0.61-1.18,0.61-1.94h4.54c-0.12,2.04-0.77,3.62-1.96,4.73c-1.19,1.12-2.93,1.67-5.24,1.67c-1.08,0-2.06-0.16-2.95-0.49
		s-1.64-0.79-2.27-1.39c-0.62-0.6-1.11-1.33-1.46-2.18c-0.35-0.85-0.52-1.82-0.52-2.9V73.4c0-1.08,0.17-2.05,0.52-2.9
		c0.35-0.85,0.83-1.58,1.46-2.18c0.62-0.6,1.38-1.06,2.27-1.39s1.87-0.49,2.95-0.49c1.06,0,2.02,0.16,2.9,0.49
		c0.88,0.32,1.63,0.77,2.27,1.35c0.64,0.58,1.13,1.27,1.49,2.09c0.36,0.82,0.54,1.73,0.54,2.74v4.57H312.7z M318.03,74.01v-1.08
		c0-0.86-0.22-1.55-0.65-2.05c-0.43-0.5-1.1-0.76-2.02-0.76s-1.58,0.25-2.02,0.76c-0.43,0.5-0.65,1.19-0.65,2.05v1.08H318.03z"/>
	<path class="st2" d="M327.1,60.4h4.54v25.99h-4.54V60.4z"/>
	<path class="st2" d="M228.25,129.59l-4.32-10.58h-2.38v10.58h-4.97V103.6h7.2c3,0,5.22,0.68,6.66,2.03
		c1.44,1.36,2.16,3.27,2.16,5.74c0,1.63-0.31,3.01-0.92,4.14c-0.61,1.13-1.61,1.96-3.01,2.48l4.9,11.59H228.25z M221.55,114.91h2.56
		c1.1,0,1.97-0.28,2.59-0.85c0.62-0.56,0.94-1.48,0.94-2.75c0-1.27-0.31-2.19-0.94-2.75c-0.62-0.56-1.49-0.85-2.59-0.85h-2.56
		V114.91z"/>
	<path class="st2" d="M240.7,120.88v2.59c0,0.98,0.25,1.7,0.76,2.14c0.5,0.44,1.14,0.67,1.91,0.67c0.96,0,1.64-0.26,2.05-0.79
		c0.41-0.53,0.61-1.18,0.61-1.94h4.54c-0.12,2.04-0.77,3.62-1.96,4.73c-1.19,1.12-2.93,1.67-5.24,1.67c-1.08,0-2.06-0.16-2.95-0.49
		s-1.64-0.79-2.27-1.39c-0.62-0.6-1.11-1.33-1.46-2.18c-0.35-0.85-0.52-1.82-0.52-2.9v-6.41c0-1.08,0.17-2.05,0.52-2.9
		c0.35-0.85,0.83-1.58,1.46-2.18c0.62-0.6,1.38-1.06,2.27-1.39s1.87-0.49,2.95-0.49c1.06,0,2.02,0.16,2.9,0.49
		c0.88,0.32,1.63,0.77,2.27,1.35c0.64,0.58,1.13,1.27,1.49,2.09c0.36,0.82,0.54,1.73,0.54,2.74v4.57H240.7z M246.03,117.21v-1.08
		c0-0.86-0.22-1.55-0.65-2.05c-0.43-0.5-1.1-0.76-2.02-0.76s-1.58,0.25-2.02,0.76c-0.43,0.5-0.65,1.19-0.65,2.05v1.08H246.03z"/>
	<path class="st2" d="M269.57,113.61c-0.19-0.05-0.43-0.11-0.7-0.18c-0.28-0.07-0.51-0.11-0.7-0.11c-0.24,0-0.48,0.05-0.72,0.14
		c-0.24,0.1-0.52,0.19-0.83,0.29c0.14,0.65,0.28,1.24,0.4,1.76c0.12,0.53,0.18,1.09,0.18,1.69c0,2.47-0.53,4.37-1.58,5.71
		c-1.06,1.33-2.71,2-4.97,2c-0.34,0-0.65-0.01-0.94-0.04s-0.6-0.1-0.94-0.22c-0.12,0.19-0.28,0.37-0.49,0.54
		c-0.2,0.17-0.31,0.37-0.31,0.61c0,0.41,0.28,0.67,0.85,0.79c0.56,0.12,1.27,0.19,2.11,0.22c0.84,0.02,1.75,0.07,2.74,0.13
		c0.98,0.06,1.9,0.23,2.74,0.52c0.84,0.29,1.54,0.75,2.11,1.39c0.56,0.64,0.85,1.54,0.85,2.72c0,0.84-0.21,1.57-0.63,2.18
		c-0.42,0.61-1.01,1.12-1.76,1.53c-0.76,0.41-1.67,0.71-2.74,0.92c-1.07,0.2-2.26,0.31-3.58,0.31c-2.42,0-4.28-0.32-5.56-0.95
		c-1.28-0.64-1.93-1.51-1.93-2.61c0-0.36,0.09-0.69,0.27-0.99c0.18-0.3,0.41-0.58,0.68-0.83c0.28-0.25,0.58-0.48,0.9-0.68
		c0.32-0.2,0.62-0.39,0.88-0.56c-0.55-0.34-1-0.73-1.35-1.17c-0.35-0.44-0.52-0.98-0.52-1.6c0-0.38,0.09-0.74,0.27-1.06
		c0.18-0.32,0.41-0.62,0.68-0.9c0.28-0.28,0.57-0.52,0.88-0.74c0.31-0.22,0.61-0.41,0.9-0.58c-1.1-0.72-1.87-1.62-2.3-2.7
		s-0.65-2.45-0.65-4.1c0-1.06,0.11-2.03,0.32-2.93c0.22-0.9,0.59-1.68,1.12-2.34c0.53-0.66,1.22-1.18,2.07-1.55
		c0.85-0.37,1.91-0.56,3.19-0.56c0.94,0,1.88,0.2,2.83,0.61c0.95,0.41,1.71,0.96,2.29,1.66c0.58-0.72,1.17-1.28,1.78-1.67
		c0.61-0.4,1.34-0.59,2.18-0.59V113.61z M258.41,130.46c-0.24,0.24-0.46,0.47-0.65,0.7c-0.19,0.23-0.29,0.52-0.29,0.88
		c0,0.5,0.35,0.87,1.06,1.1c0.71,0.23,1.73,0.34,3.08,0.34c1.08,0,1.92-0.13,2.52-0.4c0.6-0.26,0.9-0.65,0.9-1.15
		c0-0.34-0.1-0.58-0.31-0.74c-0.2-0.16-0.65-0.26-1.35-0.31L258.41,130.46z M262.88,117.1c0-2.52-0.79-3.78-2.38-3.78
		c-0.86,0-1.48,0.32-1.84,0.97c-0.36,0.65-0.54,1.74-0.54,3.28c0,1.22,0.19,2.14,0.56,2.75c0.37,0.61,0.91,0.92,1.6,0.92
		c0.48,0,0.89-0.05,1.22-0.16c0.34-0.11,0.61-0.32,0.81-0.63c0.2-0.31,0.35-0.73,0.43-1.26S262.88,117.97,262.88,117.1z"/>
	<path class="st2" d="M273.1,106.63v-4.1h4.54v4.1H273.1z M277.64,110.01v19.58h-4.54v-19.58H277.64z"/>
	<path class="st2" d="M291.17,115.99c-0.31-0.91-0.74-1.58-1.28-2.02c-0.54-0.43-1.16-0.65-1.85-0.65c-0.53,0-0.97,0.17-1.31,0.5
		c-0.35,0.34-0.52,0.76-0.52,1.26c0,0.5,0.22,0.94,0.65,1.31c0.43,0.37,0.98,0.73,1.64,1.06c0.66,0.34,1.37,0.68,2.14,1.04
		c0.77,0.36,1.48,0.79,2.14,1.28c0.66,0.49,1.21,1.08,1.64,1.76s0.65,1.51,0.65,2.47c0,0.98-0.16,1.84-0.49,2.57
		c-0.32,0.73-0.77,1.35-1.35,1.85c-0.58,0.5-1.27,0.88-2.07,1.13c-0.8,0.25-1.67,0.38-2.61,0.38c-0.7,0-1.37-0.06-2.02-0.18
		c-0.65-0.12-1.28-0.38-1.89-0.77c-0.61-0.4-1.21-0.96-1.78-1.69c-0.58-0.73-1.14-1.71-1.69-2.93l4.07-1.12
		c0.19,0.91,0.56,1.64,1.12,2.2c0.55,0.55,1.28,0.83,2.2,0.83c0.7,0,1.24-0.15,1.62-0.45c0.38-0.3,0.58-0.73,0.58-1.28
		c0-0.62-0.22-1.14-0.65-1.55c-0.43-0.41-0.98-0.77-1.64-1.1c-0.66-0.32-1.37-0.65-2.14-0.99c-0.77-0.34-1.48-0.75-2.14-1.24
		c-0.66-0.49-1.21-1.1-1.64-1.82c-0.43-0.72-0.65-1.63-0.65-2.74c0-0.94,0.17-1.75,0.52-2.43c0.35-0.68,0.81-1.25,1.39-1.69
		c0.58-0.44,1.24-0.78,1.98-1.01c0.74-0.23,1.51-0.34,2.3-0.34c1.7,0,3.13,0.44,4.28,1.33c1.15,0.89,2,2.08,2.56,3.56L291.17,115.99
		z"/>
	<path class="st2" d="M296.57,114.55v-3.67h1.8v-5.33h4.54v5.33h2.92v3.67h-2.92v10.01c0,0.48,0.19,0.84,0.56,1.08
		c0.37,0.24,0.87,0.36,1.49,0.36c0.17,0,0.32,0,0.47,0c0.14,0,0.29-0.01,0.43-0.04v3.82c-0.43,0.07-0.86,0.12-1.3,0.14
		c-0.43,0.02-0.86,0.04-1.3,0.04c-1.49,0-2.68-0.29-3.56-0.88s-1.33-1.59-1.33-3.01v-11.52H296.57z"/>
	<path class="st2" d="M308.52,129.59v-19.58h4.43v2.59h0.07c0.53-0.98,1.15-1.72,1.87-2.21c0.72-0.49,1.66-0.74,2.81-0.74v4.9
		c-0.38-0.12-0.78-0.23-1.19-0.34c-0.41-0.11-0.82-0.16-1.22-0.16c-0.74,0-1.3,0.23-1.67,0.68c-0.37,0.46-0.56,0.95-0.56,1.48v13.39
		H308.52z"/>
	<path class="st2" d="M320.08,115.73c0.07-1.08,0.32-2.01,0.76-2.79c0.43-0.78,0.98-1.41,1.64-1.89c0.66-0.48,1.41-0.83,2.25-1.06
		c0.84-0.23,1.72-0.34,2.63-0.34c1.2,0,2.23,0.14,3.08,0.43c0.85,0.29,1.54,0.7,2.07,1.22c0.53,0.53,0.91,1.16,1.15,1.89
		c0.24,0.73,0.36,1.53,0.36,2.39v12.42c0,0.26,0.02,0.53,0.07,0.79c0.05,0.26,0.11,0.53,0.18,0.79h-4.54
		c-0.05-0.26-0.1-0.55-0.14-0.85c-0.05-0.3-0.11-0.65-0.18-1.06c-0.67,0.67-1.45,1.22-2.34,1.64s-1.91,0.63-3.06,0.63
		c-1.37,0-2.46-0.38-3.28-1.15c-0.82-0.77-1.22-1.94-1.22-3.53c0-1.13,0.25-2.11,0.76-2.95c0.5-0.84,1.21-1.57,2.11-2.2
		c0.9-0.62,1.96-1.18,3.17-1.66c1.21-0.48,2.53-0.94,3.94-1.37v-1.44c0-0.84-0.23-1.44-0.68-1.8c-0.46-0.36-1.01-0.54-1.66-0.54
		c-0.7,0-1.29,0.23-1.78,0.68c-0.49,0.46-0.74,1.03-0.74,1.73H320.08z M329.48,120.02c-0.67,0.24-1.33,0.51-1.98,0.81
		c-0.65,0.3-1.23,0.64-1.75,1.03c-0.52,0.38-0.93,0.8-1.24,1.24c-0.31,0.44-0.47,0.92-0.47,1.42c0,0.65,0.18,1.15,0.54,1.51
		c0.36,0.36,0.85,0.54,1.48,0.54c0.7,0,1.3-0.16,1.82-0.49c0.52-0.32,1.05-0.76,1.6-1.31V120.02z"/>
	<path class="st2" d="M336.57,114.55v-3.67h1.8v-5.33h4.54v5.33h2.92v3.67h-2.92v10.01c0,0.48,0.19,0.84,0.56,1.08
		c0.37,0.24,0.87,0.36,1.49,0.36c0.17,0,0.32,0,0.47,0c0.14,0,0.29-0.01,0.43-0.04v3.82c-0.43,0.07-0.86,0.12-1.3,0.14
		c-0.43,0.02-0.86,0.04-1.3,0.04c-1.49,0-2.68-0.29-3.56-0.88s-1.33-1.59-1.33-3.01v-11.52H336.57z"/>
	<path class="st2" d="M349.1,106.63v-4.1h4.54v4.1H349.1z M353.63,110.01v19.58h-4.54v-19.58H353.63z"/>
	<path class="st2" d="M358.17,117.07c0-2.59,0.63-4.48,1.89-5.65c1.26-1.18,3.03-1.76,5.31-1.76c2.26,0,4.02,0.59,5.29,1.76
		c1.27,1.18,1.91,3.06,1.91,5.65v5.47c0,2.59-0.64,4.48-1.91,5.65c-1.27,1.18-3.04,1.76-5.29,1.76c-2.28,0-4.05-0.59-5.31-1.76
		c-1.26-1.18-1.89-3.06-1.89-5.65V117.07z M362.7,123.69c0,0.77,0.25,1.34,0.74,1.73c0.49,0.38,1.13,0.58,1.93,0.58
		s1.43-0.19,1.93-0.58s0.74-0.96,0.74-1.73v-7.78c0-0.77-0.25-1.34-0.74-1.73c-0.49-0.38-1.13-0.58-1.93-0.58s-1.43,0.19-1.93,0.58
		c-0.49,0.38-0.74,0.96-0.74,1.73V123.69z"/>
	<path class="st2" d="M376.53,129.59v-19.58h4.39v2.23c0.84-0.72,1.66-1.33,2.47-1.84c0.8-0.5,1.67-0.76,2.61-0.76
		c1.39,0,2.44,0.38,3.15,1.15c0.71,0.77,1.06,2.06,1.06,3.89v14.9h-4.54v-14.4c0-0.65-0.12-1.17-0.36-1.57
		c-0.24-0.4-0.67-0.59-1.3-0.59c-0.48,0-0.97,0.19-1.48,0.56c-0.5,0.37-1,0.77-1.48,1.21v14.8H376.53z"/>
	<path class="st2" d="M398.99,120.81h-3.24l-1.01-17.21H400L398.99,120.81z M394.82,129.59v-5.11h5.11v5.11H394.82z"/>
</g>
</svg>
